<?xml version="1.0" encoding="utf-8" standalone="no"?>
<!DOCTYPE svg PUBLIC "-//W3C//DTD SVG 1.1//EN"
  "http://www.w3.org/Graphics/SVG/1.1/DTD/svg11.dtd">
<!-- Created with matplotlib (https://matplotlib.org/) -->
<svg height="345.6pt" version="1.1" viewBox="0 0 460.8 345.6" width="460.8pt" xmlns="http://www.w3.org/2000/svg" xmlns:xlink="http://www.w3.org/1999/xlink">
 <metadata>
  <rdf:RDF xmlns:cc="http://creativecommons.org/ns#" xmlns:dc="http://purl.org/dc/elements/1.1/" xmlns:rdf="http://www.w3.org/1999/02/22-rdf-syntax-ns#">
   <cc:Work>
    <dc:type rdf:resource="http://purl.org/dc/dcmitype/StillImage"/>
    <dc:date>2022-02-26T20:01:24.263875</dc:date>
    <dc:format>image/svg+xml</dc:format>
    <dc:creator>
     <cc:Agent>
      <dc:title>Matplotlib v3.3.1, https://matplotlib.org/</dc:title>
     </cc:Agent>
    </dc:creator>
   </cc:Work>
  </rdf:RDF>
 </metadata>
 <defs>
  <style type="text/css">*{stroke-linecap:butt;stroke-linejoin:round;}</style>
 </defs>
 <g id="figure_1">
  <g id="patch_1">
   <path d="M 0 345.6 
L 460.8 345.6 
L 460.8 0 
L 0 0 
z
" style="fill:#ffffff;"/>
  </g>
  <g id="axes_1">
   <g id="patch_2">
    <path d="M 88.328 287.08 
L 450 287.08 
L 450 17.28 
L 88.328 17.28 
z
" style="fill:#ffffff;"/>
   </g>
   <g id="PathCollection_1">
    <defs>
     <path d="M 0 5 
C 1.326016 5 2.597899 4.473168 3.535534 3.535534 
C 4.473168 2.597899 5 1.326016 5 0 
C 5 -1.326016 4.473168 -2.597899 3.535534 -3.535534 
C 2.597899 -4.473168 1.326016 -5 0 -5 
C -1.326016 -5 -2.597899 -4.473168 -3.535534 -3.535534 
C -4.473168 -2.597899 -5 -1.326016 -5 0 
C -5 1.326016 -4.473168 2.597899 -3.535534 3.535534 
C -2.597899 4.473168 -1.326016 5 0 5 
z
" id="m2411a60283" style="stroke:#1f77b4;stroke-opacity:0.5;"/>
    </defs>
    <g clip-path="url(#pf1038baf02)">
     <use style="fill:#1f77b4;fill-opacity:0.5;stroke:#1f77b4;stroke-opacity:0.5;" x="185.283917" xlink:href="#m2411a60283" y="275.3002"/>
     <use style="fill:#1f77b4;fill-opacity:0.5;stroke:#1f77b4;stroke-opacity:0.5;" x="188.390587" xlink:href="#m2411a60283" y="276.089774"/>
     <use style="fill:#1f77b4;fill-opacity:0.5;stroke:#1f77b4;stroke-opacity:0.5;" x="191.219047" xlink:href="#m2411a60283" y="273.471888"/>
     <use style="fill:#1f77b4;fill-opacity:0.5;stroke:#1f77b4;stroke-opacity:0.5;" x="194.001139" xlink:href="#m2411a60283" y="273.991463"/>
     <use style="fill:#1f77b4;fill-opacity:0.5;stroke:#1f77b4;stroke-opacity:0.5;" x="196.783232" xlink:href="#m2411a60283" y="272.520942"/>
     <use style="fill:#1f77b4;fill-opacity:0.5;stroke:#1f77b4;stroke-opacity:0.5;" x="199.565324" xlink:href="#m2411a60283" y="270.878181"/>
     <use style="fill:#1f77b4;fill-opacity:0.5;stroke:#1f77b4;stroke-opacity:0.5;" x="202.301048" xlink:href="#m2411a60283" y="269.985677"/>
     <use style="fill:#1f77b4;fill-opacity:0.5;stroke:#1f77b4;stroke-opacity:0.5;" x="205.083141" xlink:href="#m2411a60283" y="269.230842"/>
     <use style="fill:#1f77b4;fill-opacity:0.5;stroke:#1f77b4;stroke-opacity:0.5;" x="207.865233" xlink:href="#m2411a60283" y="268.173849"/>
     <use style="fill:#1f77b4;fill-opacity:0.5;stroke:#1f77b4;stroke-opacity:0.5;" x="210.647325" xlink:href="#m2411a60283" y="267.316998"/>
     <use style="fill:#1f77b4;fill-opacity:0.5;stroke:#1f77b4;stroke-opacity:0.5;" x="213.429417" xlink:href="#m2411a60283" y="266.75315"/>
     <use style="fill:#1f77b4;fill-opacity:0.5;stroke:#1f77b4;stroke-opacity:0.5;" x="216.21151" xlink:href="#m2411a60283" y="265.813544"/>
     <use style="fill:#1f77b4;fill-opacity:0.5;stroke:#1f77b4;stroke-opacity:0.5;" x="218.993602" xlink:href="#m2411a60283" y="264.725688"/>
     <use style="fill:#1f77b4;fill-opacity:0.5;stroke:#1f77b4;stroke-opacity:0.5;" x="221.822063" xlink:href="#m2411a60283" y="264.071352"/>
     <use style="fill:#1f77b4;fill-opacity:0.5;stroke:#1f77b4;stroke-opacity:0.5;" x="224.604155" xlink:href="#m2411a60283" y="263.156023"/>
     <use style="fill:#1f77b4;fill-opacity:0.5;stroke:#1f77b4;stroke-opacity:0.5;" x="227.386247" xlink:href="#m2411a60283" y="262.224711"/>
     <use style="fill:#1f77b4;fill-opacity:0.5;stroke:#1f77b4;stroke-opacity:0.5;" x="230.168339" xlink:href="#m2411a60283" y="261.374657"/>
     <use style="fill:#1f77b4;fill-opacity:0.5;stroke:#1f77b4;stroke-opacity:0.5;" x="232.950432" xlink:href="#m2411a60283" y="259.726685"/>
     <use style="fill:#1f77b4;fill-opacity:0.5;stroke:#1f77b4;stroke-opacity:0.5;" x="235.732524" xlink:href="#m2411a60283" y="258.716485"/>
     <use style="fill:#1f77b4;fill-opacity:0.5;stroke:#1f77b4;stroke-opacity:0.5;" x="238.514616" xlink:href="#m2411a60283" y="257.05169"/>
     <use style="fill:#1f77b4;fill-opacity:0.5;stroke:#1f77b4;stroke-opacity:0.5;" x="241.296709" xlink:href="#m2411a60283" y="255.635574"/>
     <use style="fill:#1f77b4;fill-opacity:0.5;stroke:#1f77b4;stroke-opacity:0.5;" x="244.078801" xlink:href="#m2411a60283" y="254.289539"/>
     <use style="fill:#1f77b4;fill-opacity:0.5;stroke:#1f77b4;stroke-opacity:0.5;" x="246.860893" xlink:href="#m2411a60283" y="252.848063"/>
     <use style="fill:#1f77b4;fill-opacity:0.5;stroke:#1f77b4;stroke-opacity:0.5;" x="249.689354" xlink:href="#m2411a60283" y="251.290007"/>
     <use style="fill:#1f77b4;fill-opacity:0.5;stroke:#1f77b4;stroke-opacity:0.5;" x="252.471446" xlink:href="#m2411a60283" y="249.782651"/>
     <use style="fill:#1f77b4;fill-opacity:0.5;stroke:#1f77b4;stroke-opacity:0.5;" x="255.253538" xlink:href="#m2411a60283" y="248.206826"/>
     <use style="fill:#1f77b4;fill-opacity:0.5;stroke:#1f77b4;stroke-opacity:0.5;" x="258.035631" xlink:href="#m2411a60283" y="246.605041"/>
     <use style="fill:#1f77b4;fill-opacity:0.5;stroke:#1f77b4;stroke-opacity:0.5;" x="260.817723" xlink:href="#m2411a60283" y="245.026036"/>
     <use style="fill:#1f77b4;fill-opacity:0.5;stroke:#1f77b4;stroke-opacity:0.5;" x="263.599815" xlink:href="#m2411a60283" y="243.922975"/>
     <use style="fill:#1f77b4;fill-opacity:0.5;stroke:#1f77b4;stroke-opacity:0.5;" x="266.381908" xlink:href="#m2411a60283" y="242.264862"/>
     <use style="fill:#1f77b4;fill-opacity:0.5;stroke:#1f77b4;stroke-opacity:0.5;" x="269.164" xlink:href="#m2411a60283" y="240.563116"/>
     <use style="fill:#1f77b4;fill-opacity:0.5;stroke:#1f77b4;stroke-opacity:0.5;" x="271.946092" xlink:href="#m2411a60283" y="238.830911"/>
     <use style="fill:#1f77b4;fill-opacity:0.5;stroke:#1f77b4;stroke-opacity:0.5;" x="274.728185" xlink:href="#m2411a60283" y="236.993986"/>
     <use style="fill:#1f77b4;fill-opacity:0.5;stroke:#1f77b4;stroke-opacity:0.5;" x="277.510277" xlink:href="#m2411a60283" y="235.204191"/>
     <use style="fill:#1f77b4;fill-opacity:0.5;stroke:#1f77b4;stroke-opacity:0.5;" x="280.292369" xlink:href="#m2411a60283" y="233.245949"/>
     <use style="fill:#1f77b4;fill-opacity:0.5;stroke:#1f77b4;stroke-opacity:0.5;" x="283.074462" xlink:href="#m2411a60283" y="231.423493"/>
     <use style="fill:#1f77b4;fill-opacity:0.5;stroke:#1f77b4;stroke-opacity:0.5;" x="285.856554" xlink:href="#m2411a60283" y="229.304588"/>
     <use style="fill:#1f77b4;fill-opacity:0.5;stroke:#1f77b4;stroke-opacity:0.5;" x="288.638646" xlink:href="#m2411a60283" y="227.16083"/>
     <use style="fill:#1f77b4;fill-opacity:0.5;stroke:#1f77b4;stroke-opacity:0.5;" x="291.420738" xlink:href="#m2411a60283" y="225.043822"/>
     <use style="fill:#1f77b4;fill-opacity:0.5;stroke:#1f77b4;stroke-opacity:0.5;" x="294.202831" xlink:href="#m2411a60283" y="222.902183"/>
     <use style="fill:#1f77b4;fill-opacity:0.5;stroke:#1f77b4;stroke-opacity:0.5;" x="296.984923" xlink:href="#m2411a60283" y="220.683826"/>
     <use style="fill:#1f77b4;fill-opacity:0.5;stroke:#1f77b4;stroke-opacity:0.5;" x="299.767015" xlink:href="#m2411a60283" y="218.500077"/>
     <use style="fill:#1f77b4;fill-opacity:0.5;stroke:#1f77b4;stroke-opacity:0.5;" x="302.549108" xlink:href="#m2411a60283" y="216.150248"/>
     <use style="fill:#1f77b4;fill-opacity:0.5;stroke:#1f77b4;stroke-opacity:0.5;" x="305.3312" xlink:href="#m2411a60283" y="214.061977"/>
     <use style="fill:#1f77b4;fill-opacity:0.5;stroke:#1f77b4;stroke-opacity:0.5;" x="308.113292" xlink:href="#m2411a60283" y="211.40885"/>
     <use style="fill:#1f77b4;fill-opacity:0.5;stroke:#1f77b4;stroke-opacity:0.5;" x="310.895385" xlink:href="#m2411a60283" y="209.370565"/>
     <use style="fill:#1f77b4;fill-opacity:0.5;stroke:#1f77b4;stroke-opacity:0.5;" x="313.677477" xlink:href="#m2411a60283" y="207.025465"/>
     <use style="fill:#1f77b4;fill-opacity:0.5;stroke:#1f77b4;stroke-opacity:0.5;" x="316.459569" xlink:href="#m2411a60283" y="204.378356"/>
     <use style="fill:#1f77b4;fill-opacity:0.5;stroke:#1f77b4;stroke-opacity:0.5;" x="319.241662" xlink:href="#m2411a60283" y="201.887996"/>
     <use style="fill:#1f77b4;fill-opacity:0.5;stroke:#1f77b4;stroke-opacity:0.5;" x="322.023754" xlink:href="#m2411a60283" y="199.423067"/>
     <use style="fill:#1f77b4;fill-opacity:0.5;stroke:#1f77b4;stroke-opacity:0.5;" x="324.805846" xlink:href="#m2411a60283" y="197.120043"/>
     <use style="fill:#1f77b4;fill-opacity:0.5;stroke:#1f77b4;stroke-opacity:0.5;" x="327.587938" xlink:href="#m2411a60283" y="188.233155"/>
     <use style="fill:#1f77b4;fill-opacity:0.5;stroke:#1f77b4;stroke-opacity:0.5;" x="330.370031" xlink:href="#m2411a60283" y="186.239432"/>
     <use style="fill:#1f77b4;fill-opacity:0.5;stroke:#1f77b4;stroke-opacity:0.5;" x="333.152123" xlink:href="#m2411a60283" y="183.436314"/>
     <use style="fill:#1f77b4;fill-opacity:0.5;stroke:#1f77b4;stroke-opacity:0.5;" x="335.934215" xlink:href="#m2411a60283" y="180.933629"/>
     <use style="fill:#1f77b4;fill-opacity:0.5;stroke:#1f77b4;stroke-opacity:0.5;" x="338.716308" xlink:href="#m2411a60283" y="178.219375"/>
     <use style="fill:#1f77b4;fill-opacity:0.5;stroke:#1f77b4;stroke-opacity:0.5;" x="341.4984" xlink:href="#m2411a60283" y="175.663033"/>
     <use style="fill:#1f77b4;fill-opacity:0.5;stroke:#1f77b4;stroke-opacity:0.5;" x="344.280492" xlink:href="#m2411a60283" y="172.983145"/>
     <use style="fill:#1f77b4;fill-opacity:0.5;stroke:#1f77b4;stroke-opacity:0.5;" x="347.062585" xlink:href="#m2411a60283" y="170.209616"/>
     <use style="fill:#1f77b4;fill-opacity:0.5;stroke:#1f77b4;stroke-opacity:0.5;" x="349.844677" xlink:href="#m2411a60283" y="167.194732"/>
     <use style="fill:#1f77b4;fill-opacity:0.5;stroke:#1f77b4;stroke-opacity:0.5;" x="352.626769" xlink:href="#m2411a60283" y="163.797714"/>
     <use style="fill:#1f77b4;fill-opacity:0.5;stroke:#1f77b4;stroke-opacity:0.5;" x="355.408862" xlink:href="#m2411a60283" y="160.863612"/>
     <use style="fill:#1f77b4;fill-opacity:0.5;stroke:#1f77b4;stroke-opacity:0.5;" x="358.190954" xlink:href="#m2411a60283" y="158.535809"/>
     <use style="fill:#1f77b4;fill-opacity:0.5;stroke:#1f77b4;stroke-opacity:0.5;" x="360.973046" xlink:href="#m2411a60283" y="155.623222"/>
     <use style="fill:#1f77b4;fill-opacity:0.5;stroke:#1f77b4;stroke-opacity:0.5;" x="363.755138" xlink:href="#m2411a60283" y="152.732144"/>
     <use style="fill:#1f77b4;fill-opacity:0.5;stroke:#1f77b4;stroke-opacity:0.5;" x="366.537231" xlink:href="#m2411a60283" y="149.689032"/>
     <use style="fill:#1f77b4;fill-opacity:0.5;stroke:#1f77b4;stroke-opacity:0.5;" x="369.319323" xlink:href="#m2411a60283" y="146.632886"/>
     <use style="fill:#1f77b4;fill-opacity:0.5;stroke:#1f77b4;stroke-opacity:0.5;" x="372.101415" xlink:href="#m2411a60283" y="143.690793"/>
     <use style="fill:#1f77b4;fill-opacity:0.5;stroke:#1f77b4;stroke-opacity:0.5;" x="374.883508" xlink:href="#m2411a60283" y="140.624526"/>
     <use style="fill:#1f77b4;fill-opacity:0.5;stroke:#1f77b4;stroke-opacity:0.5;" x="377.6656" xlink:href="#m2411a60283" y="137.454289"/>
     <use style="fill:#1f77b4;fill-opacity:0.5;stroke:#1f77b4;stroke-opacity:0.5;" x="380.447692" xlink:href="#m2411a60283" y="134.220217"/>
     <use style="fill:#1f77b4;fill-opacity:0.5;stroke:#1f77b4;stroke-opacity:0.5;" x="383.554362" xlink:href="#m2411a60283" y="130.639546"/>
     <use style="fill:#1f77b4;fill-opacity:0.5;stroke:#1f77b4;stroke-opacity:0.5;" x="386.011877" xlink:href="#m2411a60283" y="127.706924"/>
     <use style="fill:#1f77b4;fill-opacity:0.5;stroke:#1f77b4;stroke-opacity:0.5;" x="389.072178" xlink:href="#m2411a60283" y="125.103885"/>
     <use style="fill:#1f77b4;fill-opacity:0.5;stroke:#1f77b4;stroke-opacity:0.5;" x="391.900639" xlink:href="#m2411a60283" y="120.927176"/>
     <use style="fill:#1f77b4;fill-opacity:0.5;stroke:#1f77b4;stroke-opacity:0.5;" x="394.682731" xlink:href="#m2411a60283" y="117.902359"/>
     <use style="fill:#1f77b4;fill-opacity:0.5;stroke:#1f77b4;stroke-opacity:0.5;" x="397.464824" xlink:href="#m2411a60283" y="114.877928"/>
     <use style="fill:#1f77b4;fill-opacity:0.5;stroke:#1f77b4;stroke-opacity:0.5;" x="400.246916" xlink:href="#m2411a60283" y="112.075271"/>
     <use style="fill:#1f77b4;fill-opacity:0.5;stroke:#1f77b4;stroke-opacity:0.5;" x="403.029008" xlink:href="#m2411a60283" y="109.170324"/>
     <use style="fill:#1f77b4;fill-opacity:0.5;stroke:#1f77b4;stroke-opacity:0.5;" x="405.811101" xlink:href="#m2411a60283" y="105.836093"/>
     <use style="fill:#1f77b4;fill-opacity:0.5;stroke:#1f77b4;stroke-opacity:0.5;" x="408.593193" xlink:href="#m2411a60283" y="101.930212"/>
    </g>
   </g>
   <g id="PathCollection_2">
    <defs>
     <path d="M 0 5 
C 1.326016 5 2.597899 4.473168 3.535534 3.535534 
C 4.473168 2.597899 5 1.326016 5 0 
C 5 -1.326016 4.473168 -2.597899 3.535534 -3.535534 
C 2.597899 -4.473168 1.326016 -5 0 -5 
C -1.326016 -5 -2.597899 -4.473168 -3.535534 -3.535534 
C -4.473168 -2.597899 -5 -1.326016 -5 0 
C -5 1.326016 -4.473168 2.597899 -3.535534 3.535534 
C -2.597899 4.473168 -1.326016 5 0 5 
z
" id="m6f225f90ed" style="stroke:#ff7f0e;stroke-opacity:0.5;"/>
    </defs>
    <g clip-path="url(#pf1038baf02)">
     <use style="fill:#ff7f0e;fill-opacity:0.5;stroke:#ff7f0e;stroke-opacity:0.5;" x="107.246228" xlink:href="#m6f225f90ed" y="279.515139"/>
     <use style="fill:#ff7f0e;fill-opacity:0.5;stroke:#ff7f0e;stroke-opacity:0.5;" x="117.400865" xlink:href="#m6f225f90ed" y="282.744276"/>
     <use style="fill:#ff7f0e;fill-opacity:0.5;stroke:#ff7f0e;stroke-opacity:0.5;" x="128.575602" xlink:href="#m6f225f90ed" y="276.160725"/>
     <use style="fill:#ff7f0e;fill-opacity:0.5;stroke:#ff7f0e;stroke-opacity:0.5;" x="139.657603" xlink:href="#m6f225f90ed" y="276.357796"/>
     <use style="fill:#ff7f0e;fill-opacity:0.5;stroke:#ff7f0e;stroke-opacity:0.5;" x="150.785972" xlink:href="#m6f225f90ed" y="275.905825"/>
     <use style="fill:#ff7f0e;fill-opacity:0.5;stroke:#ff7f0e;stroke-opacity:0.5;" x="161.914342" xlink:href="#m6f225f90ed" y="276.935737"/>
     <use style="fill:#ff7f0e;fill-opacity:0.5;stroke:#ff7f0e;stroke-opacity:0.5;" x="173.042711" xlink:href="#m6f225f90ed" y="271.995336"/>
     <use style="fill:#ff7f0e;fill-opacity:0.5;stroke:#ff7f0e;stroke-opacity:0.5;" x="184.17108" xlink:href="#m6f225f90ed" y="266.3183"/>
     <use style="fill:#ff7f0e;fill-opacity:0.5;stroke:#ff7f0e;stroke-opacity:0.5;" x="195.345817" xlink:href="#m6f225f90ed" y="264.568923"/>
     <use style="fill:#ff7f0e;fill-opacity:0.5;stroke:#ff7f0e;stroke-opacity:0.5;" x="205.825032" xlink:href="#m6f225f90ed" y="264.842536"/>
     <use style="fill:#ff7f0e;fill-opacity:0.5;stroke:#ff7f0e;stroke-opacity:0.5;" x="216.953401" xlink:href="#m6f225f90ed" y="259.12598"/>
     <use style="fill:#ff7f0e;fill-opacity:0.5;stroke:#ff7f0e;stroke-opacity:0.5;" x="228.08177" xlink:href="#m6f225f90ed" y="256.92741"/>
     <use style="fill:#ff7f0e;fill-opacity:0.5;stroke:#ff7f0e;stroke-opacity:0.5;" x="239.210139" xlink:href="#m6f225f90ed" y="245.848237"/>
     <use style="fill:#ff7f0e;fill-opacity:0.5;stroke:#ff7f0e;stroke-opacity:0.5;" x="250.338509" xlink:href="#m6f225f90ed" y="241.638663"/>
     <use style="fill:#ff7f0e;fill-opacity:0.5;stroke:#ff7f0e;stroke-opacity:0.5;" x="261.466878" xlink:href="#m6f225f90ed" y="232.411802"/>
     <use style="fill:#ff7f0e;fill-opacity:0.5;stroke:#ff7f0e;stroke-opacity:0.5;" x="272.548879" xlink:href="#m6f225f90ed" y="230.127784"/>
     <use style="fill:#ff7f0e;fill-opacity:0.5;stroke:#ff7f0e;stroke-opacity:0.5;" x="283.677248" xlink:href="#m6f225f90ed" y="217.089085"/>
     <use style="fill:#ff7f0e;fill-opacity:0.5;stroke:#ff7f0e;stroke-opacity:0.5;" x="294.851986" xlink:href="#m6f225f90ed" y="212.083029"/>
     <use style="fill:#ff7f0e;fill-opacity:0.5;stroke:#ff7f0e;stroke-opacity:0.5;" x="305.377568" xlink:href="#m6f225f90ed" y="207.125437"/>
     <use style="fill:#ff7f0e;fill-opacity:0.5;stroke:#ff7f0e;stroke-opacity:0.5;" x="316.459569" xlink:href="#m6f225f90ed" y="195.746249"/>
     <use style="fill:#ff7f0e;fill-opacity:0.5;stroke:#ff7f0e;stroke-opacity:0.5;" x="327.587938" xlink:href="#m6f225f90ed" y="184.077102"/>
     <use style="fill:#ff7f0e;fill-opacity:0.5;stroke:#ff7f0e;stroke-opacity:0.5;" x="338.716308" xlink:href="#m6f225f90ed" y="171.140701"/>
     <use style="fill:#ff7f0e;fill-opacity:0.5;stroke:#ff7f0e;stroke-opacity:0.5;" x="349.844677" xlink:href="#m6f225f90ed" y="160.76056"/>
     <use style="fill:#ff7f0e;fill-opacity:0.5;stroke:#ff7f0e;stroke-opacity:0.5;" x="360.973046" xlink:href="#m6f225f90ed" y="145.036199"/>
     <use style="fill:#ff7f0e;fill-opacity:0.5;stroke:#ff7f0e;stroke-opacity:0.5;" x="371.962311" xlink:href="#m6f225f90ed" y="138.135445"/>
     <use style="fill:#ff7f0e;fill-opacity:0.5;stroke:#ff7f0e;stroke-opacity:0.5;" x="383.09068" xlink:href="#m6f225f90ed" y="118.415136"/>
    </g>
   </g>
   <g id="PathCollection_3">
    <defs>
     <path d="M 0 5 
C 1.326016 5 2.597899 4.473168 3.535534 3.535534 
C 4.473168 2.597899 5 1.326016 5 0 
C 5 -1.326016 4.473168 -2.597899 3.535534 -3.535534 
C 2.597899 -4.473168 1.326016 -5 0 -5 
C -1.326016 -5 -2.597899 -4.473168 -3.535534 -3.535534 
C -4.473168 -2.597899 -5 -1.326016 -5 0 
C -5 1.326016 -4.473168 2.597899 -3.535534 3.535534 
C -2.597899 4.473168 -1.326016 5 0 5 
z
" id="m6806aae40b" style="stroke:#2ca02c;stroke-opacity:0.5;"/>
    </defs>
    <g clip-path="url(#pf1038baf02)">
     <use style="fill:#2ca02c;fill-opacity:0.5;stroke:#2ca02c;stroke-opacity:0.5;" x="60.321604" xlink:href="#m6806aae40b" y="287.053406"/>
     <use style="fill:#2ca02c;fill-opacity:0.5;stroke:#2ca02c;stroke-opacity:0.5;" x="71.403605" xlink:href="#m6806aae40b" y="287.492297"/>
     <use style="fill:#2ca02c;fill-opacity:0.5;stroke:#2ca02c;stroke-opacity:0.5;" x="82.531974" xlink:href="#m6806aae40b" y="286.345367"/>
     <use style="fill:#2ca02c;fill-opacity:0.5;stroke:#2ca02c;stroke-opacity:0.5;" x="93.660344" xlink:href="#m6806aae40b" y="287.391645"/>
     <use style="fill:#2ca02c;fill-opacity:0.5;stroke:#2ca02c;stroke-opacity:0.5;" x="104.742345" xlink:href="#m6806aae40b" y="286.537066"/>
     <use style="fill:#2ca02c;fill-opacity:0.5;stroke:#2ca02c;stroke-opacity:0.5;" x="115.917082" xlink:href="#m6806aae40b" y="284.954155"/>
     <use style="fill:#2ca02c;fill-opacity:0.5;stroke:#2ca02c;stroke-opacity:0.5;" x="127.045451" xlink:href="#m6806aae40b" y="283.994874"/>
     <use style="fill:#2ca02c;fill-opacity:0.5;stroke:#2ca02c;stroke-opacity:0.5;" x="138.173821" xlink:href="#m6806aae40b" y="283.580497"/>
     <use style="fill:#2ca02c;fill-opacity:0.5;stroke:#2ca02c;stroke-opacity:0.5;" x="149.30219" xlink:href="#m6806aae40b" y="281.700677"/>
     <use style="fill:#2ca02c;fill-opacity:0.5;stroke:#2ca02c;stroke-opacity:0.5;" x="160.430559" xlink:href="#m6806aae40b" y="276.747391"/>
     <use style="fill:#2ca02c;fill-opacity:0.5;stroke:#2ca02c;stroke-opacity:0.5;" x="171.558928" xlink:href="#m6806aae40b" y="274.096779"/>
     <use style="fill:#2ca02c;fill-opacity:0.5;stroke:#2ca02c;stroke-opacity:0.5;" x="182.687297" xlink:href="#m6806aae40b" y="270.135279"/>
     <use style="fill:#2ca02c;fill-opacity:0.5;stroke:#2ca02c;stroke-opacity:0.5;" x="194.650294" xlink:href="#m6806aae40b" y="268.209508"/>
     <use style="fill:#2ca02c;fill-opacity:0.5;stroke:#2ca02c;stroke-opacity:0.5;" x="205.778664" xlink:href="#m6806aae40b" y="261.807941"/>
     <use style="fill:#2ca02c;fill-opacity:0.5;stroke:#2ca02c;stroke-opacity:0.5;" x="216.953401" xlink:href="#m6806aae40b" y="257.568345"/>
     <use style="fill:#2ca02c;fill-opacity:0.5;stroke:#2ca02c;stroke-opacity:0.5;" x="228.035402" xlink:href="#m6806aae40b" y="251.153973"/>
     <use style="fill:#2ca02c;fill-opacity:0.5;stroke:#2ca02c;stroke-opacity:0.5;" x="239.210139" xlink:href="#m6806aae40b" y="245.481041"/>
     <use style="fill:#2ca02c;fill-opacity:0.5;stroke:#2ca02c;stroke-opacity:0.5;" x="250.338509" xlink:href="#m6806aae40b" y="238.884739"/>
     <use style="fill:#2ca02c;fill-opacity:0.5;stroke:#2ca02c;stroke-opacity:0.5;" x="261.466878" xlink:href="#m6806aae40b" y="234.665949"/>
     <use style="fill:#2ca02c;fill-opacity:0.5;stroke:#2ca02c;stroke-opacity:0.5;" x="272.595247" xlink:href="#m6806aae40b" y="225.428771"/>
     <use style="fill:#2ca02c;fill-opacity:0.5;stroke:#2ca02c;stroke-opacity:0.5;" x="283.723616" xlink:href="#m6806aae40b" y="217.686822"/>
     <use style="fill:#2ca02c;fill-opacity:0.5;stroke:#2ca02c;stroke-opacity:0.5;" x="294.202831" xlink:href="#m6806aae40b" y="209.794783"/>
     <use style="fill:#2ca02c;fill-opacity:0.5;stroke:#2ca02c;stroke-opacity:0.5;" x="305.3312" xlink:href="#m6806aae40b" y="200.161737"/>
     <use style="fill:#2ca02c;fill-opacity:0.5;stroke:#2ca02c;stroke-opacity:0.5;" x="316.459569" xlink:href="#m6806aae40b" y="191.388949"/>
     <use style="fill:#2ca02c;fill-opacity:0.5;stroke:#2ca02c;stroke-opacity:0.5;" x="327.587938" xlink:href="#m6806aae40b" y="182.070043"/>
     <use style="fill:#2ca02c;fill-opacity:0.5;stroke:#2ca02c;stroke-opacity:0.5;" x="338.716308" xlink:href="#m6806aae40b" y="171.673382"/>
     <use style="fill:#2ca02c;fill-opacity:0.5;stroke:#2ca02c;stroke-opacity:0.5;" x="349.844677" xlink:href="#m6806aae40b" y="159.260992"/>
     <use style="fill:#2ca02c;fill-opacity:0.5;stroke:#2ca02c;stroke-opacity:0.5;" x="360.926678" xlink:href="#m6806aae40b" y="150.551831"/>
     <use style="fill:#2ca02c;fill-opacity:0.5;stroke:#2ca02c;stroke-opacity:0.5;" x="372.101415" xlink:href="#m6806aae40b" y="136.859124"/>
     <use style="fill:#2ca02c;fill-opacity:0.5;stroke:#2ca02c;stroke-opacity:0.5;" x="383.229785" xlink:href="#m6806aae40b" y="125.88259"/>
     <use style="fill:#2ca02c;fill-opacity:0.5;stroke:#2ca02c;stroke-opacity:0.5;" x="393.755367" xlink:href="#m6806aae40b" y="112.189286"/>
     <use style="fill:#2ca02c;fill-opacity:0.5;stroke:#2ca02c;stroke-opacity:0.5;" x="404.837368" xlink:href="#m6806aae40b" y="95.177144"/>
     <use style="fill:#2ca02c;fill-opacity:0.5;stroke:#2ca02c;stroke-opacity:0.5;" x="415.965737" xlink:href="#m6806aae40b" y="82.72397"/>
     <use style="fill:#2ca02c;fill-opacity:0.5;stroke:#2ca02c;stroke-opacity:0.5;" x="427.094107" xlink:href="#m6806aae40b" y="70.937712"/>
     <use style="fill:#2ca02c;fill-opacity:0.5;stroke:#2ca02c;stroke-opacity:0.5;" x="438.222476" xlink:href="#m6806aae40b" y="58.153998"/>
     <use style="fill:#2ca02c;fill-opacity:0.5;stroke:#2ca02c;stroke-opacity:0.5;" x="449.350845" xlink:href="#m6806aae40b" y="45.508525"/>
    </g>
   </g>
   <g id="PathCollection_4">
    <defs>
     <path d="M 0 5 
C 1.326016 5 2.597899 4.473168 3.535534 3.535534 
C 4.473168 2.597899 5 1.326016 5 0 
C 5 -1.326016 4.473168 -2.597899 3.535534 -3.535534 
C 2.597899 -4.473168 1.326016 -5 0 -5 
C -1.326016 -5 -2.597899 -4.473168 -3.535534 -3.535534 
C -4.473168 -2.597899 -5 -1.326016 -5 0 
C -5 1.326016 -4.473168 2.597899 -3.535534 3.535534 
C -2.597899 4.473168 -1.326016 5 0 5 
z
" id="m9d95394239" style="stroke:#d62728;stroke-opacity:0.5;"/>
    </defs>
    <g clip-path="url(#pf1038baf02)">
     <use style="fill:#d62728;fill-opacity:0.5;stroke:#d62728;stroke-opacity:0.5;" x="110.074688" xlink:href="#m9d95394239" y="279.898185"/>
     <use style="fill:#d62728;fill-opacity:0.5;stroke:#d62728;stroke-opacity:0.5;" x="115.638873" xlink:href="#m9d95394239" y="279.028073"/>
     <use style="fill:#d62728;fill-opacity:0.5;stroke:#d62728;stroke-opacity:0.5;" x="121.203057" xlink:href="#m9d95394239" y="278.449959"/>
     <use style="fill:#d62728;fill-opacity:0.5;stroke:#d62728;stroke-opacity:0.5;" x="126.767242" xlink:href="#m9d95394239" y="277.682086"/>
     <use style="fill:#d62728;fill-opacity:0.5;stroke:#d62728;stroke-opacity:0.5;" x="132.331427" xlink:href="#m9d95394239" y="276.927495"/>
     <use style="fill:#d62728;fill-opacity:0.5;stroke:#d62728;stroke-opacity:0.5;" x="137.895611" xlink:href="#m9d95394239" y="276.309515"/>
     <use style="fill:#d62728;fill-opacity:0.5;stroke:#d62728;stroke-opacity:0.5;" x="143.459796" xlink:href="#m9d95394239" y="275.537698"/>
     <use style="fill:#d62728;fill-opacity:0.5;stroke:#d62728;stroke-opacity:0.5;" x="148.977612" xlink:href="#m9d95394239" y="274.75553"/>
     <use style="fill:#d62728;fill-opacity:0.5;stroke:#d62728;stroke-opacity:0.5;" x="154.588165" xlink:href="#m9d95394239" y="274.149256"/>
     <use style="fill:#d62728;fill-opacity:0.5;stroke:#d62728;stroke-opacity:0.5;" x="160.15235" xlink:href="#m9d95394239" y="273.71651"/>
     <use style="fill:#d62728;fill-opacity:0.5;stroke:#d62728;stroke-opacity:0.5;" x="165.716534" xlink:href="#m9d95394239" y="273.244303"/>
     <use style="fill:#d62728;fill-opacity:0.5;stroke:#d62728;stroke-opacity:0.5;" x="171.280719" xlink:href="#m9d95394239" y="272.441662"/>
     <use style="fill:#d62728;fill-opacity:0.5;stroke:#d62728;stroke-opacity:0.5;" x="177.030376" xlink:href="#m9d95394239" y="271.100142"/>
     <use style="fill:#d62728;fill-opacity:0.5;stroke:#d62728;stroke-opacity:0.5;" x="182.409088" xlink:href="#m9d95394239" y="270.628135"/>
     <use style="fill:#d62728;fill-opacity:0.5;stroke:#d62728;stroke-opacity:0.5;" x="187.973273" xlink:href="#m9d95394239" y="270.310409"/>
     <use style="fill:#d62728;fill-opacity:0.5;stroke:#d62728;stroke-opacity:0.5;" x="193.537457" xlink:href="#m9d95394239" y="267.928884"/>
     <use style="fill:#d62728;fill-opacity:0.5;stroke:#d62728;stroke-opacity:0.5;" x="199.101642" xlink:href="#m9d95394239" y="266.974173"/>
     <use style="fill:#d62728;fill-opacity:0.5;stroke:#d62728;stroke-opacity:0.5;" x="204.665827" xlink:href="#m9d95394239" y="265.685986"/>
     <use style="fill:#d62728;fill-opacity:0.5;stroke:#d62728;stroke-opacity:0.5;" x="210.230011" xlink:href="#m9d95394239" y="264.395897"/>
     <use style="fill:#d62728;fill-opacity:0.5;stroke:#d62728;stroke-opacity:0.5;" x="215.794196" xlink:href="#m9d95394239" y="262.863786"/>
     <use style="fill:#d62728;fill-opacity:0.5;stroke:#d62728;stroke-opacity:0.5;" x="221.358381" xlink:href="#m9d95394239" y="261.329653"/>
     <use style="fill:#d62728;fill-opacity:0.5;stroke:#d62728;stroke-opacity:0.5;" x="226.922565" xlink:href="#m9d95394239" y="258.741963"/>
     <use style="fill:#d62728;fill-opacity:0.5;stroke:#d62728;stroke-opacity:0.5;" x="232.48675" xlink:href="#m9d95394239" y="256.321765"/>
     <use style="fill:#d62728;fill-opacity:0.5;stroke:#d62728;stroke-opacity:0.5;" x="238.050934" xlink:href="#m9d95394239" y="254.030719"/>
     <use style="fill:#d62728;fill-opacity:0.5;stroke:#d62728;stroke-opacity:0.5;" x="243.615119" xlink:href="#m9d95394239" y="247.858861"/>
     <use style="fill:#d62728;fill-opacity:0.5;stroke:#d62728;stroke-opacity:0.5;" x="249.179304" xlink:href="#m9d95394239" y="245.912551"/>
     <use style="fill:#d62728;fill-opacity:0.5;stroke:#d62728;stroke-opacity:0.5;" x="255.253538" xlink:href="#m9d95394239" y="242.725426"/>
     <use style="fill:#d62728;fill-opacity:0.5;stroke:#d62728;stroke-opacity:0.5;" x="260.771355" xlink:href="#m9d95394239" y="239.207538"/>
     <use style="fill:#d62728;fill-opacity:0.5;stroke:#d62728;stroke-opacity:0.5;" x="266.381908" xlink:href="#m9d95394239" y="235.796244"/>
     <use style="fill:#d62728;fill-opacity:0.5;stroke:#d62728;stroke-opacity:0.5;" x="271.899724" xlink:href="#m9d95394239" y="232.150621"/>
     <use style="fill:#d62728;fill-opacity:0.5;stroke:#d62728;stroke-opacity:0.5;" x="277.510277" xlink:href="#m9d95394239" y="228.641166"/>
     <use style="fill:#d62728;fill-opacity:0.5;stroke:#d62728;stroke-opacity:0.5;" x="283.028093" xlink:href="#m9d95394239" y="225.034206"/>
     <use style="fill:#d62728;fill-opacity:0.5;stroke:#d62728;stroke-opacity:0.5;" x="288.638646" xlink:href="#m9d95394239" y="220.479727"/>
     <use style="fill:#d62728;fill-opacity:0.5;stroke:#d62728;stroke-opacity:0.5;" x="294.202831" xlink:href="#m9d95394239" y="216.264363"/>
     <use style="fill:#d62728;fill-opacity:0.5;stroke:#d62728;stroke-opacity:0.5;" x="299.767015" xlink:href="#m9d95394239" y="212.286029"/>
     <use style="fill:#d62728;fill-opacity:0.5;stroke:#d62728;stroke-opacity:0.5;" x="305.284832" xlink:href="#m9d95394239" y="208.417863"/>
     <use style="fill:#d62728;fill-opacity:0.5;stroke:#d62728;stroke-opacity:0.5;" x="310.849016" xlink:href="#m9d95394239" y="203.893686"/>
     <use style="fill:#d62728;fill-opacity:0.5;stroke:#d62728;stroke-opacity:0.5;" x="316.459569" xlink:href="#m9d95394239" y="199.556507"/>
     <use style="fill:#d62728;fill-opacity:0.5;stroke:#d62728;stroke-opacity:0.5;" x="322.023754" xlink:href="#m9d95394239" y="195.16909"/>
     <use style="fill:#d62728;fill-opacity:0.5;stroke:#d62728;stroke-opacity:0.5;" x="327.587938" xlink:href="#m9d95394239" y="190.210871"/>
     <use style="fill:#d62728;fill-opacity:0.5;stroke:#d62728;stroke-opacity:0.5;" x="333.105755" xlink:href="#m9d95394239" y="183.529545"/>
    </g>
   </g>
   <g id="PathCollection_5">
    <defs>
     <path d="M 0 5 
C 1.326016 5 2.597899 4.473168 3.535534 3.535534 
C 4.473168 2.597899 5 1.326016 5 0 
C 5 -1.326016 4.473168 -2.597899 3.535534 -3.535534 
C 2.597899 -4.473168 1.326016 -5 0 -5 
C -1.326016 -5 -2.597899 -4.473168 -3.535534 -3.535534 
C -4.473168 -2.597899 -5 -1.326016 -5 0 
C -5 1.326016 -4.473168 2.597899 -3.535534 3.535534 
C -2.597899 4.473168 -1.326016 5 0 5 
z
" id="mc01218074c" style="stroke:#9467bd;stroke-opacity:0.5;"/>
    </defs>
    <g clip-path="url(#pf1038baf02)">
     <use style="fill:#9467bd;fill-opacity:0.5;stroke:#9467bd;stroke-opacity:0.5;" x="182.87277" xlink:href="#mc01218074c" y="283.783645"/>
     <use style="fill:#9467bd;fill-opacity:0.5;stroke:#9467bd;stroke-opacity:0.5;" x="194.047508" xlink:href="#mc01218074c" y="280.996092"/>
     <use style="fill:#9467bd;fill-opacity:0.5;stroke:#9467bd;stroke-opacity:0.5;" x="205.129509" xlink:href="#mc01218074c" y="278.649801"/>
     <use style="fill:#9467bd;fill-opacity:0.5;stroke:#9467bd;stroke-opacity:0.5;" x="216.304246" xlink:href="#mc01218074c" y="275.297014"/>
     <use style="fill:#9467bd;fill-opacity:0.5;stroke:#9467bd;stroke-opacity:0.5;" x="227.386247" xlink:href="#mc01218074c" y="272.36582"/>
     <use style="fill:#9467bd;fill-opacity:0.5;stroke:#9467bd;stroke-opacity:0.5;" x="238.560985" xlink:href="#mc01218074c" y="267.357105"/>
     <use style="fill:#9467bd;fill-opacity:0.5;stroke:#9467bd;stroke-opacity:0.5;" x="249.642986" xlink:href="#mc01218074c" y="263.06144"/>
     <use style="fill:#9467bd;fill-opacity:0.5;stroke:#9467bd;stroke-opacity:0.5;" x="260.817723" xlink:href="#mc01218074c" y="255.722273"/>
     <use style="fill:#9467bd;fill-opacity:0.5;stroke:#9467bd;stroke-opacity:0.5;" x="271.899724" xlink:href="#mc01218074c" y="244.941586"/>
     <use style="fill:#9467bd;fill-opacity:0.5;stroke:#9467bd;stroke-opacity:0.5;" x="283.074462" xlink:href="#mc01218074c" y="232.735382"/>
     <use style="fill:#9467bd;fill-opacity:0.5;stroke:#9467bd;stroke-opacity:0.5;" x="294.156463" xlink:href="#mc01218074c" y="221.967386"/>
     <use style="fill:#9467bd;fill-opacity:0.5;stroke:#9467bd;stroke-opacity:0.5;" x="305.3312" xlink:href="#mc01218074c" y="215.563848"/>
     <use style="fill:#9467bd;fill-opacity:0.5;stroke:#9467bd;stroke-opacity:0.5;" x="316.459569" xlink:href="#mc01218074c" y="205.436628"/>
     <use style="fill:#9467bd;fill-opacity:0.5;stroke:#9467bd;stroke-opacity:0.5;" x="327.54157" xlink:href="#mc01218074c" y="191.541162"/>
     <use style="fill:#9467bd;fill-opacity:0.5;stroke:#9467bd;stroke-opacity:0.5;" x="338.716308" xlink:href="#mc01218074c" y="179.777224"/>
     <use style="fill:#9467bd;fill-opacity:0.5;stroke:#9467bd;stroke-opacity:0.5;" x="349.798309" xlink:href="#mc01218074c" y="168.859847"/>
     <use style="fill:#9467bd;fill-opacity:0.5;stroke:#9467bd;stroke-opacity:0.5;" x="393.987208" xlink:href="#mc01218074c" y="122.299215"/>
    </g>
   </g>
   <g id="matplotlib.axis_1">
    <g id="xtick_1">
     <g id="line2d_1">
      <defs>
       <path d="M 0 0 
L 0 3.5 
" id="mbde6a8b489" style="stroke:#000000;stroke-width:0.8;"/>
      </defs>
      <g>
       <use style="stroke:#000000;stroke-width:0.8;" x="88.328" xlink:href="#mbde6a8b489" y="287.08"/>
      </g>
     </g>
     <g id="text_1">
      <!-- 0 -->
      <g transform="translate(83.238 306.2375)scale(0.16 -0.16)">
       <defs>
        <path d="M 31.78125 66.40625 
Q 24.171875 66.40625 20.328125 58.90625 
Q 16.5 51.421875 16.5 36.375 
Q 16.5 21.390625 20.328125 13.890625 
Q 24.171875 6.390625 31.78125 6.390625 
Q 39.453125 6.390625 43.28125 13.890625 
Q 47.125 21.390625 47.125 36.375 
Q 47.125 51.421875 43.28125 58.90625 
Q 39.453125 66.40625 31.78125 66.40625 
z
M 31.78125 74.21875 
Q 44.046875 74.21875 50.515625 64.515625 
Q 56.984375 54.828125 56.984375 36.375 
Q 56.984375 17.96875 50.515625 8.265625 
Q 44.046875 -1.421875 31.78125 -1.421875 
Q 19.53125 -1.421875 13.0625 8.265625 
Q 6.59375 17.96875 6.59375 36.375 
Q 6.59375 54.828125 13.0625 64.515625 
Q 19.53125 74.21875 31.78125 74.21875 
z
" id="DejaVuSans-48"/>
       </defs>
       <use xlink:href="#DejaVuSans-48"/>
      </g>
     </g>
    </g>
    <g id="xtick_2">
     <g id="line2d_2">
      <g>
       <use style="stroke:#000000;stroke-width:0.8;" x="143.969846" xlink:href="#mbde6a8b489" y="287.08"/>
      </g>
     </g>
     <g id="text_2">
      <!-- 20 -->
      <g transform="translate(133.789846 306.2375)scale(0.16 -0.16)">
       <defs>
        <path d="M 19.1875 8.296875 
L 53.609375 8.296875 
L 53.609375 0 
L 7.328125 0 
L 7.328125 8.296875 
Q 12.9375 14.109375 22.625 23.890625 
Q 32.328125 33.6875 34.8125 36.53125 
Q 39.546875 41.84375 41.421875 45.53125 
Q 43.3125 49.21875 43.3125 52.78125 
Q 43.3125 58.59375 39.234375 62.25 
Q 35.15625 65.921875 28.609375 65.921875 
Q 23.96875 65.921875 18.8125 64.3125 
Q 13.671875 62.703125 7.8125 59.421875 
L 7.8125 69.390625 
Q 13.765625 71.78125 18.9375 73 
Q 24.125 74.21875 28.421875 74.21875 
Q 39.75 74.21875 46.484375 68.546875 
Q 53.21875 62.890625 53.21875 53.421875 
Q 53.21875 48.921875 51.53125 44.890625 
Q 49.859375 40.875 45.40625 35.40625 
Q 44.1875 33.984375 37.640625 27.21875 
Q 31.109375 20.453125 19.1875 8.296875 
z
" id="DejaVuSans-50"/>
       </defs>
       <use xlink:href="#DejaVuSans-50"/>
       <use x="63.623047" xlink:href="#DejaVuSans-48"/>
      </g>
     </g>
    </g>
    <g id="xtick_3">
     <g id="line2d_3">
      <g>
       <use style="stroke:#000000;stroke-width:0.8;" x="199.611692" xlink:href="#mbde6a8b489" y="287.08"/>
      </g>
     </g>
     <g id="text_3">
      <!-- 40 -->
      <g transform="translate(189.431692 306.2375)scale(0.16 -0.16)">
       <defs>
        <path d="M 37.796875 64.3125 
L 12.890625 25.390625 
L 37.796875 25.390625 
z
M 35.203125 72.90625 
L 47.609375 72.90625 
L 47.609375 25.390625 
L 58.015625 25.390625 
L 58.015625 17.1875 
L 47.609375 17.1875 
L 47.609375 0 
L 37.796875 0 
L 37.796875 17.1875 
L 4.890625 17.1875 
L 4.890625 26.703125 
z
" id="DejaVuSans-52"/>
       </defs>
       <use xlink:href="#DejaVuSans-52"/>
       <use x="63.623047" xlink:href="#DejaVuSans-48"/>
      </g>
     </g>
    </g>
    <g id="xtick_4">
     <g id="line2d_4">
      <g>
       <use style="stroke:#000000;stroke-width:0.8;" x="255.253538" xlink:href="#mbde6a8b489" y="287.08"/>
      </g>
     </g>
     <g id="text_4">
      <!-- 60 -->
      <g transform="translate(245.073538 306.2375)scale(0.16 -0.16)">
       <defs>
        <path d="M 33.015625 40.375 
Q 26.375 40.375 22.484375 35.828125 
Q 18.609375 31.296875 18.609375 23.390625 
Q 18.609375 15.53125 22.484375 10.953125 
Q 26.375 6.390625 33.015625 6.390625 
Q 39.65625 6.390625 43.53125 10.953125 
Q 47.40625 15.53125 47.40625 23.390625 
Q 47.40625 31.296875 43.53125 35.828125 
Q 39.65625 40.375 33.015625 40.375 
z
M 52.59375 71.296875 
L 52.59375 62.3125 
Q 48.875 64.0625 45.09375 64.984375 
Q 41.3125 65.921875 37.59375 65.921875 
Q 27.828125 65.921875 22.671875 59.328125 
Q 17.53125 52.734375 16.796875 39.40625 
Q 19.671875 43.65625 24.015625 45.921875 
Q 28.375 48.1875 33.59375 48.1875 
Q 44.578125 48.1875 50.953125 41.515625 
Q 57.328125 34.859375 57.328125 23.390625 
Q 57.328125 12.15625 50.6875 5.359375 
Q 44.046875 -1.421875 33.015625 -1.421875 
Q 20.359375 -1.421875 13.671875 8.265625 
Q 6.984375 17.96875 6.984375 36.375 
Q 6.984375 53.65625 15.1875 63.9375 
Q 23.390625 74.21875 37.203125 74.21875 
Q 40.921875 74.21875 44.703125 73.484375 
Q 48.484375 72.75 52.59375 71.296875 
z
" id="DejaVuSans-54"/>
       </defs>
       <use xlink:href="#DejaVuSans-54"/>
       <use x="63.623047" xlink:href="#DejaVuSans-48"/>
      </g>
     </g>
    </g>
    <g id="xtick_5">
     <g id="line2d_5">
      <g>
       <use style="stroke:#000000;stroke-width:0.8;" x="310.895385" xlink:href="#mbde6a8b489" y="287.08"/>
      </g>
     </g>
     <g id="text_5">
      <!-- 80 -->
      <g transform="translate(300.715385 306.2375)scale(0.16 -0.16)">
       <defs>
        <path d="M 31.78125 34.625 
Q 24.75 34.625 20.71875 30.859375 
Q 16.703125 27.09375 16.703125 20.515625 
Q 16.703125 13.921875 20.71875 10.15625 
Q 24.75 6.390625 31.78125 6.390625 
Q 38.8125 6.390625 42.859375 10.171875 
Q 46.921875 13.96875 46.921875 20.515625 
Q 46.921875 27.09375 42.890625 30.859375 
Q 38.875 34.625 31.78125 34.625 
z
M 21.921875 38.8125 
Q 15.578125 40.375 12.03125 44.71875 
Q 8.5 49.078125 8.5 55.328125 
Q 8.5 64.0625 14.71875 69.140625 
Q 20.953125 74.21875 31.78125 74.21875 
Q 42.671875 74.21875 48.875 69.140625 
Q 55.078125 64.0625 55.078125 55.328125 
Q 55.078125 49.078125 51.53125 44.71875 
Q 48 40.375 41.703125 38.8125 
Q 48.828125 37.15625 52.796875 32.3125 
Q 56.78125 27.484375 56.78125 20.515625 
Q 56.78125 9.90625 50.3125 4.234375 
Q 43.84375 -1.421875 31.78125 -1.421875 
Q 19.734375 -1.421875 13.25 4.234375 
Q 6.78125 9.90625 6.78125 20.515625 
Q 6.78125 27.484375 10.78125 32.3125 
Q 14.796875 37.15625 21.921875 38.8125 
z
M 18.3125 54.390625 
Q 18.3125 48.734375 21.84375 45.5625 
Q 25.390625 42.390625 31.78125 42.390625 
Q 38.140625 42.390625 41.71875 45.5625 
Q 45.3125 48.734375 45.3125 54.390625 
Q 45.3125 60.0625 41.71875 63.234375 
Q 38.140625 66.40625 31.78125 66.40625 
Q 25.390625 66.40625 21.84375 63.234375 
Q 18.3125 60.0625 18.3125 54.390625 
z
" id="DejaVuSans-56"/>
       </defs>
       <use xlink:href="#DejaVuSans-56"/>
       <use x="63.623047" xlink:href="#DejaVuSans-48"/>
      </g>
     </g>
    </g>
    <g id="xtick_6">
     <g id="line2d_6">
      <g>
       <use style="stroke:#000000;stroke-width:0.8;" x="366.537231" xlink:href="#mbde6a8b489" y="287.08"/>
      </g>
     </g>
     <g id="text_6">
      <!-- 100 -->
      <g transform="translate(351.267231 306.2375)scale(0.16 -0.16)">
       <defs>
        <path d="M 12.40625 8.296875 
L 28.515625 8.296875 
L 28.515625 63.921875 
L 10.984375 60.40625 
L 10.984375 69.390625 
L 28.421875 72.90625 
L 38.28125 72.90625 
L 38.28125 8.296875 
L 54.390625 8.296875 
L 54.390625 0 
L 12.40625 0 
z
" id="DejaVuSans-49"/>
       </defs>
       <use xlink:href="#DejaVuSans-49"/>
       <use x="63.623047" xlink:href="#DejaVuSans-48"/>
       <use x="127.246094" xlink:href="#DejaVuSans-48"/>
      </g>
     </g>
    </g>
    <g id="xtick_7">
     <g id="line2d_7">
      <g>
       <use style="stroke:#000000;stroke-width:0.8;" x="422.179077" xlink:href="#mbde6a8b489" y="287.08"/>
      </g>
     </g>
     <g id="text_7">
      <!-- 120 -->
      <g transform="translate(406.909077 306.2375)scale(0.16 -0.16)">
       <use xlink:href="#DejaVuSans-49"/>
       <use x="63.623047" xlink:href="#DejaVuSans-50"/>
       <use x="127.246094" xlink:href="#DejaVuSans-48"/>
      </g>
     </g>
    </g>
    <g id="text_8">
     <!-- time (h) -->
     <g transform="translate(229.253062 328.761875)scale(0.2 -0.2)">
      <defs>
       <path d="M 18.3125 70.21875 
L 18.3125 54.6875 
L 36.8125 54.6875 
L 36.8125 47.703125 
L 18.3125 47.703125 
L 18.3125 18.015625 
Q 18.3125 11.328125 20.140625 9.421875 
Q 21.96875 7.515625 27.59375 7.515625 
L 36.8125 7.515625 
L 36.8125 0 
L 27.59375 0 
Q 17.1875 0 13.234375 3.875 
Q 9.28125 7.765625 9.28125 18.015625 
L 9.28125 47.703125 
L 2.6875 47.703125 
L 2.6875 54.6875 
L 9.28125 54.6875 
L 9.28125 70.21875 
z
" id="DejaVuSans-116"/>
       <path d="M 9.421875 54.6875 
L 18.40625 54.6875 
L 18.40625 0 
L 9.421875 0 
z
M 9.421875 75.984375 
L 18.40625 75.984375 
L 18.40625 64.59375 
L 9.421875 64.59375 
z
" id="DejaVuSans-105"/>
       <path d="M 52 44.1875 
Q 55.375 50.25 60.0625 53.125 
Q 64.75 56 71.09375 56 
Q 79.640625 56 84.28125 50.015625 
Q 88.921875 44.046875 88.921875 33.015625 
L 88.921875 0 
L 79.890625 0 
L 79.890625 32.71875 
Q 79.890625 40.578125 77.09375 44.375 
Q 74.3125 48.1875 68.609375 48.1875 
Q 61.625 48.1875 57.5625 43.546875 
Q 53.515625 38.921875 53.515625 30.90625 
L 53.515625 0 
L 44.484375 0 
L 44.484375 32.71875 
Q 44.484375 40.625 41.703125 44.40625 
Q 38.921875 48.1875 33.109375 48.1875 
Q 26.21875 48.1875 22.15625 43.53125 
Q 18.109375 38.875 18.109375 30.90625 
L 18.109375 0 
L 9.078125 0 
L 9.078125 54.6875 
L 18.109375 54.6875 
L 18.109375 46.1875 
Q 21.1875 51.21875 25.484375 53.609375 
Q 29.78125 56 35.6875 56 
Q 41.65625 56 45.828125 52.96875 
Q 50 49.953125 52 44.1875 
z
" id="DejaVuSans-109"/>
       <path d="M 56.203125 29.59375 
L 56.203125 25.203125 
L 14.890625 25.203125 
Q 15.484375 15.921875 20.484375 11.0625 
Q 25.484375 6.203125 34.421875 6.203125 
Q 39.59375 6.203125 44.453125 7.46875 
Q 49.3125 8.734375 54.109375 11.28125 
L 54.109375 2.78125 
Q 49.265625 0.734375 44.1875 -0.34375 
Q 39.109375 -1.421875 33.890625 -1.421875 
Q 20.796875 -1.421875 13.15625 6.1875 
Q 5.515625 13.8125 5.515625 26.8125 
Q 5.515625 40.234375 12.765625 48.109375 
Q 20.015625 56 32.328125 56 
Q 43.359375 56 49.78125 48.890625 
Q 56.203125 41.796875 56.203125 29.59375 
z
M 47.21875 32.234375 
Q 47.125 39.59375 43.09375 43.984375 
Q 39.0625 48.390625 32.421875 48.390625 
Q 24.90625 48.390625 20.390625 44.140625 
Q 15.875 39.890625 15.1875 32.171875 
z
" id="DejaVuSans-101"/>
       <path id="DejaVuSans-32"/>
       <path d="M 31 75.875 
Q 24.46875 64.65625 21.28125 53.65625 
Q 18.109375 42.671875 18.109375 31.390625 
Q 18.109375 20.125 21.3125 9.0625 
Q 24.515625 -2 31 -13.1875 
L 23.1875 -13.1875 
Q 15.875 -1.703125 12.234375 9.375 
Q 8.59375 20.453125 8.59375 31.390625 
Q 8.59375 42.28125 12.203125 53.3125 
Q 15.828125 64.359375 23.1875 75.875 
z
" id="DejaVuSans-40"/>
       <path d="M 54.890625 33.015625 
L 54.890625 0 
L 45.90625 0 
L 45.90625 32.71875 
Q 45.90625 40.484375 42.875 44.328125 
Q 39.84375 48.1875 33.796875 48.1875 
Q 26.515625 48.1875 22.3125 43.546875 
Q 18.109375 38.921875 18.109375 30.90625 
L 18.109375 0 
L 9.078125 0 
L 9.078125 75.984375 
L 18.109375 75.984375 
L 18.109375 46.1875 
Q 21.34375 51.125 25.703125 53.5625 
Q 30.078125 56 35.796875 56 
Q 45.21875 56 50.046875 50.171875 
Q 54.890625 44.34375 54.890625 33.015625 
z
" id="DejaVuSans-104"/>
       <path d="M 8.015625 75.875 
L 15.828125 75.875 
Q 23.140625 64.359375 26.78125 53.3125 
Q 30.421875 42.28125 30.421875 31.390625 
Q 30.421875 20.453125 26.78125 9.375 
Q 23.140625 -1.703125 15.828125 -13.1875 
L 8.015625 -13.1875 
Q 14.5 -2 17.703125 9.0625 
Q 20.90625 20.125 20.90625 31.390625 
Q 20.90625 42.671875 17.703125 53.65625 
Q 14.5 64.65625 8.015625 75.875 
z
" id="DejaVuSans-41"/>
      </defs>
      <use xlink:href="#DejaVuSans-116"/>
      <use x="39.208984" xlink:href="#DejaVuSans-105"/>
      <use x="66.992188" xlink:href="#DejaVuSans-109"/>
      <use x="164.404297" xlink:href="#DejaVuSans-101"/>
      <use x="225.927734" xlink:href="#DejaVuSans-32"/>
      <use x="257.714844" xlink:href="#DejaVuSans-40"/>
      <use x="296.728516" xlink:href="#DejaVuSans-104"/>
      <use x="360.107422" xlink:href="#DejaVuSans-41"/>
     </g>
    </g>
   </g>
   <g id="matplotlib.axis_2">
    <g id="ytick_1">
     <g id="line2d_8">
      <defs>
       <path d="M 0 0 
L -3.5 0 
" id="m7edc9461f0" style="stroke:#000000;stroke-width:0.8;"/>
      </defs>
      <g>
       <use style="stroke:#000000;stroke-width:0.8;" x="88.328" xlink:href="#m7edc9461f0" y="254.541307"/>
      </g>
     </g>
     <g id="text_9">
      <!-- 250 -->
      <g transform="translate(50.788 260.620057)scale(0.16 -0.16)">
       <defs>
        <path d="M 10.796875 72.90625 
L 49.515625 72.90625 
L 49.515625 64.59375 
L 19.828125 64.59375 
L 19.828125 46.734375 
Q 21.96875 47.46875 24.109375 47.828125 
Q 26.265625 48.1875 28.421875 48.1875 
Q 40.625 48.1875 47.75 41.5 
Q 54.890625 34.8125 54.890625 23.390625 
Q 54.890625 11.625 47.5625 5.09375 
Q 40.234375 -1.421875 26.90625 -1.421875 
Q 22.3125 -1.421875 17.546875 -0.640625 
Q 12.796875 0.140625 7.71875 1.703125 
L 7.71875 11.625 
Q 12.109375 9.234375 16.796875 8.0625 
Q 21.484375 6.890625 26.703125 6.890625 
Q 35.15625 6.890625 40.078125 11.328125 
Q 45.015625 15.765625 45.015625 23.390625 
Q 45.015625 31 40.078125 35.4375 
Q 35.15625 39.890625 26.703125 39.890625 
Q 22.75 39.890625 18.8125 39.015625 
Q 14.890625 38.140625 10.796875 36.28125 
z
" id="DejaVuSans-53"/>
       </defs>
       <use xlink:href="#DejaVuSans-50"/>
       <use x="63.623047" xlink:href="#DejaVuSans-53"/>
       <use x="127.246094" xlink:href="#DejaVuSans-48"/>
      </g>
     </g>
    </g>
    <g id="ytick_2">
     <g id="line2d_9">
      <g>
       <use style="stroke:#000000;stroke-width:0.8;" x="88.328" xlink:href="#m7edc9461f0" y="220.646834"/>
      </g>
     </g>
     <g id="text_10">
      <!-- 500 -->
      <g transform="translate(50.788 226.725584)scale(0.16 -0.16)">
       <use xlink:href="#DejaVuSans-53"/>
       <use x="63.623047" xlink:href="#DejaVuSans-48"/>
       <use x="127.246094" xlink:href="#DejaVuSans-48"/>
      </g>
     </g>
    </g>
    <g id="ytick_3">
     <g id="line2d_10">
      <g>
       <use style="stroke:#000000;stroke-width:0.8;" x="88.328" xlink:href="#m7edc9461f0" y="186.752362"/>
      </g>
     </g>
     <g id="text_11">
      <!-- 750 -->
      <g transform="translate(50.788 192.831112)scale(0.16 -0.16)">
       <defs>
        <path d="M 8.203125 72.90625 
L 55.078125 72.90625 
L 55.078125 68.703125 
L 28.609375 0 
L 18.3125 0 
L 43.21875 64.59375 
L 8.203125 64.59375 
z
" id="DejaVuSans-55"/>
       </defs>
       <use xlink:href="#DejaVuSans-55"/>
       <use x="63.623047" xlink:href="#DejaVuSans-53"/>
       <use x="127.246094" xlink:href="#DejaVuSans-48"/>
      </g>
     </g>
    </g>
    <g id="ytick_4">
     <g id="line2d_11">
      <g>
       <use style="stroke:#000000;stroke-width:0.8;" x="88.328" xlink:href="#m7edc9461f0" y="152.857889"/>
      </g>
     </g>
     <g id="text_12">
      <!-- 1000 -->
      <g transform="translate(40.608 158.936639)scale(0.16 -0.16)">
       <use xlink:href="#DejaVuSans-49"/>
       <use x="63.623047" xlink:href="#DejaVuSans-48"/>
       <use x="127.246094" xlink:href="#DejaVuSans-48"/>
       <use x="190.869141" xlink:href="#DejaVuSans-48"/>
      </g>
     </g>
    </g>
    <g id="ytick_5">
     <g id="line2d_12">
      <g>
       <use style="stroke:#000000;stroke-width:0.8;" x="88.328" xlink:href="#m7edc9461f0" y="118.963417"/>
      </g>
     </g>
     <g id="text_13">
      <!-- 1250 -->
      <g transform="translate(40.608 125.042167)scale(0.16 -0.16)">
       <use xlink:href="#DejaVuSans-49"/>
       <use x="63.623047" xlink:href="#DejaVuSans-50"/>
       <use x="127.246094" xlink:href="#DejaVuSans-53"/>
       <use x="190.869141" xlink:href="#DejaVuSans-48"/>
      </g>
     </g>
    </g>
    <g id="ytick_6">
     <g id="line2d_13">
      <g>
       <use style="stroke:#000000;stroke-width:0.8;" x="88.328" xlink:href="#m7edc9461f0" y="85.068945"/>
      </g>
     </g>
     <g id="text_14">
      <!-- 1500 -->
      <g transform="translate(40.608 91.147695)scale(0.16 -0.16)">
       <use xlink:href="#DejaVuSans-49"/>
       <use x="63.623047" xlink:href="#DejaVuSans-53"/>
       <use x="127.246094" xlink:href="#DejaVuSans-48"/>
       <use x="190.869141" xlink:href="#DejaVuSans-48"/>
      </g>
     </g>
    </g>
    <g id="ytick_7">
     <g id="line2d_14">
      <g>
       <use style="stroke:#000000;stroke-width:0.8;" x="88.328" xlink:href="#m7edc9461f0" y="51.174472"/>
      </g>
     </g>
     <g id="text_15">
      <!-- 1750 -->
      <g transform="translate(40.608 57.253222)scale(0.16 -0.16)">
       <use xlink:href="#DejaVuSans-49"/>
       <use x="63.623047" xlink:href="#DejaVuSans-55"/>
       <use x="127.246094" xlink:href="#DejaVuSans-53"/>
       <use x="190.869141" xlink:href="#DejaVuSans-48"/>
      </g>
     </g>
    </g>
    <g id="ytick_8">
     <g id="line2d_15">
      <g>
       <use style="stroke:#000000;stroke-width:0.8;" x="88.328" xlink:href="#m7edc9461f0" y="17.28"/>
      </g>
     </g>
     <g id="text_16">
      <!-- 2000 -->
      <g transform="translate(40.608 23.35875)scale(0.16 -0.16)">
       <use xlink:href="#DejaVuSans-50"/>
       <use x="63.623047" xlink:href="#DejaVuSans-48"/>
       <use x="127.246094" xlink:href="#DejaVuSans-48"/>
       <use x="190.869141" xlink:href="#DejaVuSans-48"/>
      </g>
     </g>
    </g>
    <g id="text_17">
     <!-- network area $(\mu m^2)$ -->
     <g transform="translate(32.408 250.78)rotate(-90)scale(0.2 -0.2)">
      <defs>
       <path d="M 54.890625 33.015625 
L 54.890625 0 
L 45.90625 0 
L 45.90625 32.71875 
Q 45.90625 40.484375 42.875 44.328125 
Q 39.84375 48.1875 33.796875 48.1875 
Q 26.515625 48.1875 22.3125 43.546875 
Q 18.109375 38.921875 18.109375 30.90625 
L 18.109375 0 
L 9.078125 0 
L 9.078125 54.6875 
L 18.109375 54.6875 
L 18.109375 46.1875 
Q 21.34375 51.125 25.703125 53.5625 
Q 30.078125 56 35.796875 56 
Q 45.21875 56 50.046875 50.171875 
Q 54.890625 44.34375 54.890625 33.015625 
z
" id="DejaVuSans-110"/>
       <path d="M 4.203125 54.6875 
L 13.1875 54.6875 
L 24.421875 12.015625 
L 35.59375 54.6875 
L 46.1875 54.6875 
L 57.421875 12.015625 
L 68.609375 54.6875 
L 77.59375 54.6875 
L 63.28125 0 
L 52.6875 0 
L 40.921875 44.828125 
L 29.109375 0 
L 18.5 0 
z
" id="DejaVuSans-119"/>
       <path d="M 30.609375 48.390625 
Q 23.390625 48.390625 19.1875 42.75 
Q 14.984375 37.109375 14.984375 27.296875 
Q 14.984375 17.484375 19.15625 11.84375 
Q 23.34375 6.203125 30.609375 6.203125 
Q 37.796875 6.203125 41.984375 11.859375 
Q 46.1875 17.53125 46.1875 27.296875 
Q 46.1875 37.015625 41.984375 42.703125 
Q 37.796875 48.390625 30.609375 48.390625 
z
M 30.609375 56 
Q 42.328125 56 49.015625 48.375 
Q 55.71875 40.765625 55.71875 27.296875 
Q 55.71875 13.875 49.015625 6.21875 
Q 42.328125 -1.421875 30.609375 -1.421875 
Q 18.84375 -1.421875 12.171875 6.21875 
Q 5.515625 13.875 5.515625 27.296875 
Q 5.515625 40.765625 12.171875 48.375 
Q 18.84375 56 30.609375 56 
z
" id="DejaVuSans-111"/>
       <path d="M 41.109375 46.296875 
Q 39.59375 47.171875 37.8125 47.578125 
Q 36.03125 48 33.890625 48 
Q 26.265625 48 22.1875 43.046875 
Q 18.109375 38.09375 18.109375 28.8125 
L 18.109375 0 
L 9.078125 0 
L 9.078125 54.6875 
L 18.109375 54.6875 
L 18.109375 46.1875 
Q 20.953125 51.171875 25.484375 53.578125 
Q 30.03125 56 36.53125 56 
Q 37.453125 56 38.578125 55.875 
Q 39.703125 55.765625 41.0625 55.515625 
z
" id="DejaVuSans-114"/>
       <path d="M 9.078125 75.984375 
L 18.109375 75.984375 
L 18.109375 31.109375 
L 44.921875 54.6875 
L 56.390625 54.6875 
L 27.390625 29.109375 
L 57.625 0 
L 45.90625 0 
L 18.109375 26.703125 
L 18.109375 0 
L 9.078125 0 
z
" id="DejaVuSans-107"/>
       <path d="M 34.28125 27.484375 
Q 23.390625 27.484375 19.1875 25 
Q 14.984375 22.515625 14.984375 16.5 
Q 14.984375 11.71875 18.140625 8.90625 
Q 21.296875 6.109375 26.703125 6.109375 
Q 34.1875 6.109375 38.703125 11.40625 
Q 43.21875 16.703125 43.21875 25.484375 
L 43.21875 27.484375 
z
M 52.203125 31.203125 
L 52.203125 0 
L 43.21875 0 
L 43.21875 8.296875 
Q 40.140625 3.328125 35.546875 0.953125 
Q 30.953125 -1.421875 24.3125 -1.421875 
Q 15.921875 -1.421875 10.953125 3.296875 
Q 6 8.015625 6 15.921875 
Q 6 25.140625 12.171875 29.828125 
Q 18.359375 34.515625 30.609375 34.515625 
L 43.21875 34.515625 
L 43.21875 35.40625 
Q 43.21875 41.609375 39.140625 45 
Q 35.0625 48.390625 27.6875 48.390625 
Q 23 48.390625 18.546875 47.265625 
Q 14.109375 46.140625 10.015625 43.890625 
L 10.015625 52.203125 
Q 14.9375 54.109375 19.578125 55.046875 
Q 24.21875 56 28.609375 56 
Q 40.484375 56 46.34375 49.84375 
Q 52.203125 43.703125 52.203125 31.203125 
z
" id="DejaVuSans-97"/>
       <path d="M -1.3125 -20.796875 
L 13.375 54.6875 
L 22.40625 54.6875 
L 15.765625 20.65625 
Q 15.578125 19.625 15.421875 18.359375 
Q 15.28125 17.09375 15.28125 15.828125 
Q 15.28125 11.28125 18.140625 8.828125 
Q 21 6.390625 26.3125 6.390625 
Q 33.546875 6.390625 37.984375 10.484375 
Q 42.4375 14.59375 44 22.796875 
L 50.203125 54.6875 
L 59.1875 54.6875 
L 51.03125 12.640625 
Q 50.828125 11.71875 50.75 11.03125 
Q 50.6875 10.359375 50.6875 9.8125 
Q 50.6875 8.296875 51.296875 7.59375 
Q 51.90625 6.890625 53.21875 6.890625 
Q 53.71875 6.890625 54.5625 7.125 
Q 55.421875 7.375 56.984375 8.015625 
L 55.609375 0.78125 
Q 53.46875 -0.296875 51.515625 -0.859375 
Q 49.5625 -1.421875 47.703125 -1.421875 
Q 44.484375 -1.421875 42.65625 0.625 
Q 40.828125 2.6875 40.828125 6.296875 
Q 38.09375 2.390625 34.296875 0.484375 
Q 30.515625 -1.421875 25.390625 -1.421875 
Q 20.84375 -1.421875 17.453125 0.671875 
Q 14.0625 2.78125 12.984375 6.203125 
L 7.71875 -20.796875 
z
" id="DejaVuSans-Oblique-956"/>
       <path d="M 89.796875 33.015625 
L 83.40625 0 
L 74.421875 0 
L 80.71875 32.71875 
Q 81.109375 34.8125 81.296875 36.328125 
Q 81.5 37.84375 81.5 38.921875 
Q 81.5 43.3125 79.046875 45.75 
Q 76.609375 48.1875 72.21875 48.1875 
Q 65.671875 48.1875 60.546875 43.28125 
Q 55.421875 38.375 53.90625 30.515625 
L 47.90625 0 
L 38.921875 0 
L 45.3125 32.71875 
Q 45.703125 34.515625 45.890625 36.046875 
Q 46.09375 37.59375 46.09375 38.8125 
Q 46.09375 43.265625 43.65625 45.71875 
Q 41.21875 48.1875 36.921875 48.1875 
Q 30.28125 48.1875 25.140625 43.28125 
Q 20.015625 38.375 18.5 30.515625 
L 12.5 0 
L 3.515625 0 
L 14.203125 54.6875 
L 23.1875 54.6875 
L 21.484375 46.1875 
Q 25.140625 50.984375 30.046875 53.484375 
Q 34.96875 56 40.578125 56 
Q 46.53125 56 50.359375 52.875 
Q 54.203125 49.75 54.984375 44.1875 
Q 59.078125 49.953125 64.46875 52.96875 
Q 69.875 56 75.875 56 
Q 82.90625 56 86.734375 51.953125 
Q 90.578125 47.90625 90.578125 40.484375 
Q 90.578125 38.875 90.375 36.9375 
Q 90.1875 35.015625 89.796875 33.015625 
z
" id="DejaVuSans-Oblique-109"/>
      </defs>
      <use transform="translate(0 0.765625)" xlink:href="#DejaVuSans-110"/>
      <use transform="translate(63.378906 0.765625)" xlink:href="#DejaVuSans-101"/>
      <use transform="translate(124.902344 0.765625)" xlink:href="#DejaVuSans-116"/>
      <use transform="translate(164.111328 0.765625)" xlink:href="#DejaVuSans-119"/>
      <use transform="translate(245.898438 0.765625)" xlink:href="#DejaVuSans-111"/>
      <use transform="translate(307.080078 0.765625)" xlink:href="#DejaVuSans-114"/>
      <use transform="translate(348.193359 0.765625)" xlink:href="#DejaVuSans-107"/>
      <use transform="translate(406.103516 0.765625)" xlink:href="#DejaVuSans-32"/>
      <use transform="translate(437.890625 0.765625)" xlink:href="#DejaVuSans-97"/>
      <use transform="translate(499.169922 0.765625)" xlink:href="#DejaVuSans-114"/>
      <use transform="translate(540.283203 0.765625)" xlink:href="#DejaVuSans-101"/>
      <use transform="translate(601.806641 0.765625)" xlink:href="#DejaVuSans-97"/>
      <use transform="translate(663.085938 0.765625)" xlink:href="#DejaVuSans-32"/>
      <use transform="translate(694.873047 0.765625)" xlink:href="#DejaVuSans-40"/>
      <use transform="translate(733.886719 0.765625)" xlink:href="#DejaVuSans-Oblique-956"/>
      <use transform="translate(797.509766 0.765625)" xlink:href="#DejaVuSans-Oblique-109"/>
      <use transform="translate(899.571771 39.046875)scale(0.7)" xlink:href="#DejaVuSans-50"/>
      <use transform="translate(946.842279 0.765625)" xlink:href="#DejaVuSans-41"/>
     </g>
    </g>
   </g>
   <g id="line2d_16">
    <path clip-path="url(#pf1038baf02)" d="M 91.110092 287.151873 
L 94.284852 287.343487 
L 106.34894 286.309491 
L 106.983892 286.219549 
L 107.301368 283.401284 
L 109.841176 283.453528 
L 110.158652 282.376983 
L 116.508172 282.341694 
L 117.4606 282.364184 
L 127.619832 279.769519 
L 129.207212 279.520209 
L 140.318872 278.838948 
L 150.478104 277.429533 
L 153.017912 276.957049 
L 159.684908 275.896563 
L 163.49462 275.257947 
L 171.748996 272.986321 
L 182.860656 269.264699 
L 183.178132 273.737244 
L 185.082988 273.303875 
L 185.400464 273.673713 
L 188.575224 273.298871 
L 191.432508 272.182064 
L 194.924744 271.504469 
L 199.686884 270.00947 
L 206.988832 267.952675 
L 213.338352 265.750673 
L 228.894676 260.111242 
L 232.069436 258.295059 
L 235.244196 256.530554 
L 238.10148 254.863565 
L 240.006336 253.607449 
L 244.133524 251.248168 
L 250.165568 248.453738 
L 255.245184 245.414835 
L 266.67432 238.160781 
L 273.02384 233.797956 
L 285.405404 223.336112 
L 294.929684 216.252634 
L 306.041344 208.522282 
L 311.438436 203.805971 
L 317.153004 198.707588 
L 325.089904 190.879323 
L 327.947188 186.883468 
L 333.026804 181.568146 
L 333.34428 180.725986 
L 351.440412 162.254296 
L 355.885076 157.446116 
L 373.028779 139.834191 
L 382.870535 127.672652 
L 383.188011 130.23754 
L 388.585103 124.163878 
L 389.537531 123.050145 
L 393.029767 118.739641 
L 393.982195 117.630607 
L 394.299671 114.853745 
L 405.411331 100.471171 
L 407.316187 98.105215 
L 408.268615 96.901489 
L 408.268615 96.901489 
" style="fill:none;stroke:#ff0000;stroke-linecap:square;stroke-width:5;"/>
   </g>
   <g id="line2d_17">
    <path clip-path="url(#pf1038baf02)" d="M 88.328 287.962686 
L 91.700233 288.149878 
L 95.072466 288.290179 
L 98.444699 288.383587 
L 101.816932 288.430104 
L 105.189166 288.429728 
L 108.561399 288.38246 
L 111.933632 288.2883 
L 115.305865 288.147248 
L 118.678098 287.959304 
L 122.050331 287.724467 
L 125.422564 287.442739 
L 128.794797 287.114118 
L 132.16703 286.738605 
L 135.539263 286.3162 
L 138.911497 285.846903 
L 142.28373 285.330714 
L 145.655963 284.767633 
L 149.028196 284.15766 
L 152.400429 283.500794 
L 155.772662 282.797037 
L 159.144895 282.046387 
L 162.517128 281.248845 
L 165.889361 280.404411 
L 169.261594 279.513085 
L 172.633828 278.574867 
L 176.006061 277.589756 
L 179.378294 276.557754 
L 182.750527 275.478859 
L 186.12276 274.353073 
L 189.494993 273.180394 
L 192.867226 271.960823 
L 196.239459 270.69436 
L 199.611692 269.381005 
L 202.983925 268.020758 
L 206.356159 266.613618 
L 209.728392 265.159587 
L 213.100625 263.658663 
L 216.472858 262.110847 
L 219.845091 260.516139 
L 223.217324 258.874539 
L 226.589557 257.186047 
L 229.96179 255.450663 
L 233.334023 253.668387 
L 236.706256 251.839218 
L 240.07849 249.963158 
L 243.450723 248.040205 
L 246.822956 246.07036 
L 250.195189 244.053623 
L 253.567422 241.989994 
L 256.939655 239.879473 
L 260.311888 237.72206 
L 263.684121 235.517754 
L 267.056354 233.266557 
L 270.428587 230.968467 
L 273.800821 228.623485 
L 277.173054 226.231611 
L 280.545287 223.792845 
L 283.91752 221.307187 
L 287.289753 218.774637 
L 290.661986 216.195194 
L 294.034219 213.56886 
L 297.406452 210.895633 
L 300.778685 208.175515 
L 304.150918 205.408504 
L 307.523152 202.594601 
L 310.895385 199.733806 
L 314.267618 196.826118 
L 317.639851 193.871539 
L 321.012084 190.870068 
L 324.384317 187.821704 
L 327.75655 184.726448 
L 331.128783 181.584301 
L 334.501016 178.395261 
L 337.873249 175.159329 
L 341.245483 171.876504 
L 344.617716 168.546788 
L 347.989949 165.17018 
L 351.362182 161.746679 
L 354.734415 158.276287 
L 358.106648 154.759002 
L 361.478881 151.194825 
L 364.851114 147.583756 
L 368.223347 143.925795 
L 371.59558 140.220941 
L 374.967814 136.469196 
L 378.340047 132.670559 
L 381.71228 128.825029 
L 385.084513 124.932607 
L 388.456746 120.993293 
L 391.828979 117.007087 
L 395.201212 112.973989 
L 398.573445 108.893999 
L 401.945678 104.767117 
L 405.317911 100.593342 
L 408.690145 96.372676 
L 412.062378 92.105117 
L 415.434611 87.790666 
L 418.806844 83.429323 
L 422.179077 79.021088 
" style="fill:none;stroke:#1f77b4;stroke-dasharray:11.1,4.8;stroke-dashoffset:0;stroke-width:3;"/>
   </g>
   <g id="patch_3">
    <path d="M 88.328 287.08 
L 88.328 17.28 
" style="fill:none;stroke:#000000;stroke-linecap:square;stroke-linejoin:miter;stroke-width:0.8;"/>
   </g>
   <g id="patch_4">
    <path d="M 450 287.08 
L 450 17.28 
" style="fill:none;stroke:#000000;stroke-linecap:square;stroke-linejoin:miter;stroke-width:0.8;"/>
   </g>
   <g id="patch_5">
    <path d="M 88.328 287.08 
L 450 287.08 
" style="fill:none;stroke:#000000;stroke-linecap:square;stroke-linejoin:miter;stroke-width:0.8;"/>
   </g>
   <g id="patch_6">
    <path d="M 88.328 17.28 
L 450 17.28 
" style="fill:none;stroke:#000000;stroke-linecap:square;stroke-linejoin:miter;stroke-width:0.8;"/>
   </g>
   <g id="legend_1">
    <g id="patch_7">
     <path d="M 95.328 129.54875 
L 177.128 129.54875 
Q 179.128 129.54875 179.128 127.54875 
L 179.128 24.28 
Q 179.128 22.28 177.128 22.28 
L 95.328 22.28 
Q 93.328 22.28 93.328 24.28 
L 93.328 127.54875 
Q 93.328 129.54875 95.328 129.54875 
z
" style="fill:#ffffff;opacity:0.8;stroke:#cccccc;stroke-linejoin:miter;"/>
    </g>
    <g id="line2d_18">
     <path d="M 97.328 30.378438 
L 117.328 30.378438 
" style="fill:none;stroke:#ff0000;stroke-linecap:square;stroke-width:5;"/>
    </g>
    <g id="line2d_19"/>
    <g id="text_18">
     <!-- mean -->
     <g transform="translate(125.328 33.878438)scale(0.1 -0.1)">
      <use xlink:href="#DejaVuSans-109"/>
      <use x="97.412109" xlink:href="#DejaVuSans-101"/>
      <use x="158.935547" xlink:href="#DejaVuSans-97"/>
      <use x="220.214844" xlink:href="#DejaVuSans-110"/>
     </g>
    </g>
    <g id="line2d_20">
     <path d="M 97.328 46.558125 
L 117.328 46.558125 
" style="fill:none;stroke:#1f77b4;stroke-dasharray:11.1,4.8;stroke-dashoffset:0;stroke-width:3;"/>
    </g>
    <g id="line2d_21"/>
    <g id="text_19">
     <!-- $y = 0.12t^2$ -->
     <g transform="translate(125.328 50.058125)scale(0.1 -0.1)">
      <defs>
       <path d="M 24.8125 -5.078125 
Q 18.5625 -15.578125 14.625 -18.1875 
Q 10.6875 -20.796875 4.59375 -20.796875 
L -2.484375 -20.796875 
L -0.984375 -13.28125 
L 4.203125 -13.28125 
Q 7.953125 -13.28125 10.59375 -11.234375 
Q 13.234375 -9.1875 16.5 -3.21875 
L 19.28125 2 
L 7.171875 54.6875 
L 16.703125 54.6875 
L 25.78125 12.796875 
L 50.875 54.6875 
L 60.296875 54.6875 
z
" id="DejaVuSans-Oblique-121"/>
       <path d="M 10.59375 45.40625 
L 73.1875 45.40625 
L 73.1875 37.203125 
L 10.59375 37.203125 
z
M 10.59375 25.484375 
L 73.1875 25.484375 
L 73.1875 17.1875 
L 10.59375 17.1875 
z
" id="DejaVuSans-61"/>
       <path d="M 10.6875 12.40625 
L 21 12.40625 
L 21 0 
L 10.6875 0 
z
" id="DejaVuSans-46"/>
       <path d="M 42.28125 54.6875 
L 40.921875 47.703125 
L 23 47.703125 
L 17.1875 18.015625 
Q 16.890625 16.359375 16.75 15.234375 
Q 16.609375 14.109375 16.609375 13.484375 
Q 16.609375 10.359375 18.484375 8.9375 
Q 20.359375 7.515625 24.515625 7.515625 
L 33.59375 7.515625 
L 32.078125 0 
L 23.484375 0 
Q 15.484375 0 11.546875 3.125 
Q 7.625 6.25 7.625 12.59375 
Q 7.625 13.71875 7.765625 15.0625 
Q 7.90625 16.40625 8.203125 18.015625 
L 14.015625 47.703125 
L 6.390625 47.703125 
L 7.8125 54.6875 
L 15.28125 54.6875 
L 18.3125 70.21875 
L 27.296875 70.21875 
L 24.3125 54.6875 
z
" id="DejaVuSans-Oblique-116"/>
      </defs>
      <use transform="translate(0 0.765625)" xlink:href="#DejaVuSans-Oblique-121"/>
      <use transform="translate(78.662109 0.765625)" xlink:href="#DejaVuSans-61"/>
      <use transform="translate(181.933594 0.765625)" xlink:href="#DejaVuSans-48"/>
      <use transform="translate(245.556641 0.765625)" xlink:href="#DejaVuSans-46"/>
      <use transform="translate(277.34375 0.765625)" xlink:href="#DejaVuSans-49"/>
      <use transform="translate(340.966797 0.765625)" xlink:href="#DejaVuSans-50"/>
      <use transform="translate(404.589844 0.765625)" xlink:href="#DejaVuSans-Oblique-116"/>
      <use transform="translate(450.439349 39.046875)scale(0.7)" xlink:href="#DejaVuSans-50"/>
     </g>
    </g>
    <g id="PathCollection_6">
     <g>
      <use style="fill:#1f77b4;fill-opacity:0.5;stroke:#1f77b4;stroke-opacity:0.5;" x="107.328" xlink:href="#m2411a60283" y="62.131563"/>
     </g>
    </g>
    <g id="text_20">
     <!-- 94 -->
     <g transform="translate(125.328 64.756563)scale(0.1 -0.1)">
      <defs>
       <path d="M 10.984375 1.515625 
L 10.984375 10.5 
Q 14.703125 8.734375 18.5 7.8125 
Q 22.3125 6.890625 25.984375 6.890625 
Q 35.75 6.890625 40.890625 13.453125 
Q 46.046875 20.015625 46.78125 33.40625 
Q 43.953125 29.203125 39.59375 26.953125 
Q 35.25 24.703125 29.984375 24.703125 
Q 19.046875 24.703125 12.671875 31.3125 
Q 6.296875 37.9375 6.296875 49.421875 
Q 6.296875 60.640625 12.9375 67.421875 
Q 19.578125 74.21875 30.609375 74.21875 
Q 43.265625 74.21875 49.921875 64.515625 
Q 56.59375 54.828125 56.59375 36.375 
Q 56.59375 19.140625 48.40625 8.859375 
Q 40.234375 -1.421875 26.421875 -1.421875 
Q 22.703125 -1.421875 18.890625 -0.6875 
Q 15.09375 0.046875 10.984375 1.515625 
z
M 30.609375 32.421875 
Q 37.25 32.421875 41.125 36.953125 
Q 45.015625 41.5 45.015625 49.421875 
Q 45.015625 57.28125 41.125 61.84375 
Q 37.25 66.40625 30.609375 66.40625 
Q 23.96875 66.40625 20.09375 61.84375 
Q 16.21875 57.28125 16.21875 49.421875 
Q 16.21875 41.5 20.09375 36.953125 
Q 23.96875 32.421875 30.609375 32.421875 
z
" id="DejaVuSans-57"/>
      </defs>
      <use xlink:href="#DejaVuSans-57"/>
      <use x="63.623047" xlink:href="#DejaVuSans-52"/>
     </g>
    </g>
    <g id="PathCollection_7">
     <g>
      <use style="fill:#ff7f0e;fill-opacity:0.5;stroke:#ff7f0e;stroke-opacity:0.5;" x="107.328" xlink:href="#m6f225f90ed" y="76.809688"/>
     </g>
    </g>
    <g id="text_21">
     <!-- 102 -->
     <g transform="translate(125.328 79.434688)scale(0.1 -0.1)">
      <use xlink:href="#DejaVuSans-49"/>
      <use x="63.623047" xlink:href="#DejaVuSans-48"/>
      <use x="127.246094" xlink:href="#DejaVuSans-50"/>
     </g>
    </g>
    <g id="PathCollection_8">
     <g>
      <use style="fill:#2ca02c;fill-opacity:0.5;stroke:#2ca02c;stroke-opacity:0.5;" x="107.328" xlink:href="#m6806aae40b" y="91.487813"/>
     </g>
    </g>
    <g id="text_22">
     <!-- 152 -->
     <g transform="translate(125.328 94.112813)scale(0.1 -0.1)">
      <use xlink:href="#DejaVuSans-49"/>
      <use x="63.623047" xlink:href="#DejaVuSans-53"/>
      <use x="127.246094" xlink:href="#DejaVuSans-50"/>
     </g>
    </g>
    <g id="PathCollection_9">
     <g>
      <use style="fill:#d62728;fill-opacity:0.5;stroke:#d62728;stroke-opacity:0.5;" x="107.328" xlink:href="#m9d95394239" y="106.165938"/>
     </g>
    </g>
    <g id="text_23">
     <!-- 792 -->
     <g transform="translate(125.328 108.790938)scale(0.1 -0.1)">
      <use xlink:href="#DejaVuSans-55"/>
      <use x="63.623047" xlink:href="#DejaVuSans-57"/>
      <use x="127.246094" xlink:href="#DejaVuSans-50"/>
     </g>
    </g>
    <g id="PathCollection_10">
     <g>
      <use style="fill:#9467bd;fill-opacity:0.5;stroke:#9467bd;stroke-opacity:0.5;" x="107.328" xlink:href="#mc01218074c" y="120.844063"/>
     </g>
    </g>
    <g id="text_24">
     <!-- 76 -->
     <g transform="translate(125.328 123.469063)scale(0.1 -0.1)">
      <use xlink:href="#DejaVuSans-55"/>
      <use x="63.623047" xlink:href="#DejaVuSans-54"/>
     </g>
    </g>
   </g>
  </g>
 </g>
 <defs>
  <clipPath id="pf1038baf02">
   <rect height="269.8" width="361.672" x="88.328" y="17.28"/>
  </clipPath>
 </defs>
</svg>
