<?xml version="1.0" encoding="utf-8" standalone="no"?>
<!DOCTYPE svg PUBLIC "-//W3C//DTD SVG 1.1//EN"
  "http://www.w3.org/Graphics/SVG/1.1/DTD/svg11.dtd">
<svg xmlns:xlink="http://www.w3.org/1999/xlink" width="460.8pt" height="345.6pt" viewBox="0 0 460.8 345.6" xmlns="http://www.w3.org/2000/svg" version="1.1">
 <metadata>
  <rdf:RDF xmlns:dc="http://purl.org/dc/elements/1.1/" xmlns:cc="http://creativecommons.org/ns#" xmlns:rdf="http://www.w3.org/1999/02/22-rdf-syntax-ns#">
   <cc:Work>
    <dc:type rdf:resource="http://purl.org/dc/dcmitype/StillImage"/>
    <dc:date>2022-09-12T11:30:42.469078</dc:date>
    <dc:format>image/svg+xml</dc:format>
    <dc:creator>
     <cc:Agent>
      <dc:title>Matplotlib v3.5.2, https://matplotlib.org/</dc:title>
     </cc:Agent>
    </dc:creator>
   </cc:Work>
  </rdf:RDF>
 </metadata>
 <defs>
  <style type="text/css">*{stroke-linejoin: round; stroke-linecap: butt}</style>
 </defs>
 <g id="figure_1">
  <g id="patch_1">
   <path d="M 0 345.6 
L 460.8 345.6 
L 460.8 0 
L 0 0 
z
" style="fill: #ffffff"/>
  </g>
  <g id="axes_1">
   <g id="patch_2">
    <path d="M 88.598 288.52 
L 439.785 288.52 
L 439.785 10.8 
L 88.598 10.8 
z
" style="fill: #ffffff"/>
   </g>
   <g id="matplotlib.axis_1">
    <g id="xtick_1">
     <g id="line2d_1">
      <defs>
       <path id="m079a569431" d="M 0 0 
L 0 3.5 
" style="stroke: #000000; stroke-width: 0.8"/>
      </defs>
      <g>
       <use xlink:href="#m079a569431" x="88.598" y="288.52" style="stroke: #000000; stroke-width: 0.8"/>
      </g>
     </g>
     <g id="text_1">
      <!-- −30 -->
      <g transform="translate(71.71425 307.6775)scale(0.16 -0.16)">
       <defs>
        <path id="DejaVuSans-2212" d="M 678 2272 
L 4684 2272 
L 4684 1741 
L 678 1741 
L 678 2272 
z
" transform="scale(0.015625)"/>
        <path id="DejaVuSans-33" d="M 2597 2516 
Q 3050 2419 3304 2112 
Q 3559 1806 3559 1356 
Q 3559 666 3084 287 
Q 2609 -91 1734 -91 
Q 1441 -91 1130 -33 
Q 819 25 488 141 
L 488 750 
Q 750 597 1062 519 
Q 1375 441 1716 441 
Q 2309 441 2620 675 
Q 2931 909 2931 1356 
Q 2931 1769 2642 2001 
Q 2353 2234 1838 2234 
L 1294 2234 
L 1294 2753 
L 1863 2753 
Q 2328 2753 2575 2939 
Q 2822 3125 2822 3475 
Q 2822 3834 2567 4026 
Q 2313 4219 1838 4219 
Q 1578 4219 1281 4162 
Q 984 4106 628 3988 
L 628 4550 
Q 988 4650 1302 4700 
Q 1616 4750 1894 4750 
Q 2613 4750 3031 4423 
Q 3450 4097 3450 3541 
Q 3450 3153 3228 2886 
Q 3006 2619 2597 2516 
z
" transform="scale(0.015625)"/>
        <path id="DejaVuSans-30" d="M 2034 4250 
Q 1547 4250 1301 3770 
Q 1056 3291 1056 2328 
Q 1056 1369 1301 889 
Q 1547 409 2034 409 
Q 2525 409 2770 889 
Q 3016 1369 3016 2328 
Q 3016 3291 2770 3770 
Q 2525 4250 2034 4250 
z
M 2034 4750 
Q 2819 4750 3233 4129 
Q 3647 3509 3647 2328 
Q 3647 1150 3233 529 
Q 2819 -91 2034 -91 
Q 1250 -91 836 529 
Q 422 1150 422 2328 
Q 422 3509 836 4129 
Q 1250 4750 2034 4750 
z
" transform="scale(0.015625)"/>
       </defs>
       <use xlink:href="#DejaVuSans-2212"/>
       <use xlink:href="#DejaVuSans-33" x="83.789062"/>
       <use xlink:href="#DejaVuSans-30" x="147.412109"/>
      </g>
     </g>
    </g>
    <g id="xtick_2">
     <g id="line2d_2">
      <g>
       <use xlink:href="#m079a569431" x="147.129167" y="288.52" style="stroke: #000000; stroke-width: 0.8"/>
      </g>
     </g>
     <g id="text_2">
      <!-- −20 -->
      <g transform="translate(130.245417 307.6775)scale(0.16 -0.16)">
       <defs>
        <path id="DejaVuSans-32" d="M 1228 531 
L 3431 531 
L 3431 0 
L 469 0 
L 469 531 
Q 828 903 1448 1529 
Q 2069 2156 2228 2338 
Q 2531 2678 2651 2914 
Q 2772 3150 2772 3378 
Q 2772 3750 2511 3984 
Q 2250 4219 1831 4219 
Q 1534 4219 1204 4116 
Q 875 4013 500 3803 
L 500 4441 
Q 881 4594 1212 4672 
Q 1544 4750 1819 4750 
Q 2544 4750 2975 4387 
Q 3406 4025 3406 3419 
Q 3406 3131 3298 2873 
Q 3191 2616 2906 2266 
Q 2828 2175 2409 1742 
Q 1991 1309 1228 531 
z
" transform="scale(0.015625)"/>
       </defs>
       <use xlink:href="#DejaVuSans-2212"/>
       <use xlink:href="#DejaVuSans-32" x="83.789062"/>
       <use xlink:href="#DejaVuSans-30" x="147.412109"/>
      </g>
     </g>
    </g>
    <g id="xtick_3">
     <g id="line2d_3">
      <g>
       <use xlink:href="#m079a569431" x="205.660333" y="288.52" style="stroke: #000000; stroke-width: 0.8"/>
      </g>
     </g>
     <g id="text_3">
      <!-- −10 -->
      <g transform="translate(188.776583 307.6775)scale(0.16 -0.16)">
       <defs>
        <path id="DejaVuSans-31" d="M 794 531 
L 1825 531 
L 1825 4091 
L 703 3866 
L 703 4441 
L 1819 4666 
L 2450 4666 
L 2450 531 
L 3481 531 
L 3481 0 
L 794 0 
L 794 531 
z
" transform="scale(0.015625)"/>
       </defs>
       <use xlink:href="#DejaVuSans-2212"/>
       <use xlink:href="#DejaVuSans-31" x="83.789062"/>
       <use xlink:href="#DejaVuSans-30" x="147.412109"/>
      </g>
     </g>
    </g>
    <g id="xtick_4">
     <g id="line2d_4">
      <g>
       <use xlink:href="#m079a569431" x="264.1915" y="288.52" style="stroke: #000000; stroke-width: 0.8"/>
      </g>
     </g>
     <g id="text_4">
      <!-- 0 -->
      <g transform="translate(259.1015 307.6775)scale(0.16 -0.16)">
       <use xlink:href="#DejaVuSans-30"/>
      </g>
     </g>
    </g>
    <g id="xtick_5">
     <g id="line2d_5">
      <g>
       <use xlink:href="#m079a569431" x="322.722667" y="288.52" style="stroke: #000000; stroke-width: 0.8"/>
      </g>
     </g>
     <g id="text_5">
      <!-- 10 -->
      <g transform="translate(312.542667 307.6775)scale(0.16 -0.16)">
       <use xlink:href="#DejaVuSans-31"/>
       <use xlink:href="#DejaVuSans-30" x="63.623047"/>
      </g>
     </g>
    </g>
    <g id="xtick_6">
     <g id="line2d_6">
      <g>
       <use xlink:href="#m079a569431" x="381.253833" y="288.52" style="stroke: #000000; stroke-width: 0.8"/>
      </g>
     </g>
     <g id="text_6">
      <!-- 20 -->
      <g transform="translate(371.073833 307.6775)scale(0.16 -0.16)">
       <use xlink:href="#DejaVuSans-32"/>
       <use xlink:href="#DejaVuSans-30" x="63.623047"/>
      </g>
     </g>
    </g>
    <g id="xtick_7">
     <g id="line2d_7">
      <g>
       <use xlink:href="#m079a569431" x="439.785" y="288.52" style="stroke: #000000; stroke-width: 0.8"/>
      </g>
     </g>
     <g id="text_7">
      <!-- 30 -->
      <g transform="translate(429.605 307.6775)scale(0.16 -0.16)">
       <use xlink:href="#DejaVuSans-33"/>
       <use xlink:href="#DejaVuSans-30" x="63.623047"/>
      </g>
     </g>
    </g>
    <g id="text_8">
     <!-- shifted time ($h$) -->
     <g transform="translate(186.7915 330.201875)scale(0.2 -0.2)">
      <defs>
       <path id="DejaVuSans-73" d="M 2834 3397 
L 2834 2853 
Q 2591 2978 2328 3040 
Q 2066 3103 1784 3103 
Q 1356 3103 1142 2972 
Q 928 2841 928 2578 
Q 928 2378 1081 2264 
Q 1234 2150 1697 2047 
L 1894 2003 
Q 2506 1872 2764 1633 
Q 3022 1394 3022 966 
Q 3022 478 2636 193 
Q 2250 -91 1575 -91 
Q 1294 -91 989 -36 
Q 684 19 347 128 
L 347 722 
Q 666 556 975 473 
Q 1284 391 1588 391 
Q 1994 391 2212 530 
Q 2431 669 2431 922 
Q 2431 1156 2273 1281 
Q 2116 1406 1581 1522 
L 1381 1569 
Q 847 1681 609 1914 
Q 372 2147 372 2553 
Q 372 3047 722 3315 
Q 1072 3584 1716 3584 
Q 2034 3584 2315 3537 
Q 2597 3491 2834 3397 
z
" transform="scale(0.015625)"/>
       <path id="DejaVuSans-68" d="M 3513 2113 
L 3513 0 
L 2938 0 
L 2938 2094 
Q 2938 2591 2744 2837 
Q 2550 3084 2163 3084 
Q 1697 3084 1428 2787 
Q 1159 2491 1159 1978 
L 1159 0 
L 581 0 
L 581 4863 
L 1159 4863 
L 1159 2956 
Q 1366 3272 1645 3428 
Q 1925 3584 2291 3584 
Q 2894 3584 3203 3211 
Q 3513 2838 3513 2113 
z
" transform="scale(0.015625)"/>
       <path id="DejaVuSans-69" d="M 603 3500 
L 1178 3500 
L 1178 0 
L 603 0 
L 603 3500 
z
M 603 4863 
L 1178 4863 
L 1178 4134 
L 603 4134 
L 603 4863 
z
" transform="scale(0.015625)"/>
       <path id="DejaVuSans-66" d="M 2375 4863 
L 2375 4384 
L 1825 4384 
Q 1516 4384 1395 4259 
Q 1275 4134 1275 3809 
L 1275 3500 
L 2222 3500 
L 2222 3053 
L 1275 3053 
L 1275 0 
L 697 0 
L 697 3053 
L 147 3053 
L 147 3500 
L 697 3500 
L 697 3744 
Q 697 4328 969 4595 
Q 1241 4863 1831 4863 
L 2375 4863 
z
" transform="scale(0.015625)"/>
       <path id="DejaVuSans-74" d="M 1172 4494 
L 1172 3500 
L 2356 3500 
L 2356 3053 
L 1172 3053 
L 1172 1153 
Q 1172 725 1289 603 
Q 1406 481 1766 481 
L 2356 481 
L 2356 0 
L 1766 0 
Q 1100 0 847 248 
Q 594 497 594 1153 
L 594 3053 
L 172 3053 
L 172 3500 
L 594 3500 
L 594 4494 
L 1172 4494 
z
" transform="scale(0.015625)"/>
       <path id="DejaVuSans-65" d="M 3597 1894 
L 3597 1613 
L 953 1613 
Q 991 1019 1311 708 
Q 1631 397 2203 397 
Q 2534 397 2845 478 
Q 3156 559 3463 722 
L 3463 178 
Q 3153 47 2828 -22 
Q 2503 -91 2169 -91 
Q 1331 -91 842 396 
Q 353 884 353 1716 
Q 353 2575 817 3079 
Q 1281 3584 2069 3584 
Q 2775 3584 3186 3129 
Q 3597 2675 3597 1894 
z
M 3022 2063 
Q 3016 2534 2758 2815 
Q 2500 3097 2075 3097 
Q 1594 3097 1305 2825 
Q 1016 2553 972 2059 
L 3022 2063 
z
" transform="scale(0.015625)"/>
       <path id="DejaVuSans-64" d="M 2906 2969 
L 2906 4863 
L 3481 4863 
L 3481 0 
L 2906 0 
L 2906 525 
Q 2725 213 2448 61 
Q 2172 -91 1784 -91 
Q 1150 -91 751 415 
Q 353 922 353 1747 
Q 353 2572 751 3078 
Q 1150 3584 1784 3584 
Q 2172 3584 2448 3432 
Q 2725 3281 2906 2969 
z
M 947 1747 
Q 947 1113 1208 752 
Q 1469 391 1925 391 
Q 2381 391 2643 752 
Q 2906 1113 2906 1747 
Q 2906 2381 2643 2742 
Q 2381 3103 1925 3103 
Q 1469 3103 1208 2742 
Q 947 2381 947 1747 
z
" transform="scale(0.015625)"/>
       <path id="DejaVuSans-20" transform="scale(0.015625)"/>
       <path id="DejaVuSans-6d" d="M 3328 2828 
Q 3544 3216 3844 3400 
Q 4144 3584 4550 3584 
Q 5097 3584 5394 3201 
Q 5691 2819 5691 2113 
L 5691 0 
L 5113 0 
L 5113 2094 
Q 5113 2597 4934 2840 
Q 4756 3084 4391 3084 
Q 3944 3084 3684 2787 
Q 3425 2491 3425 1978 
L 3425 0 
L 2847 0 
L 2847 2094 
Q 2847 2600 2669 2842 
Q 2491 3084 2119 3084 
Q 1678 3084 1418 2786 
Q 1159 2488 1159 1978 
L 1159 0 
L 581 0 
L 581 3500 
L 1159 3500 
L 1159 2956 
Q 1356 3278 1631 3431 
Q 1906 3584 2284 3584 
Q 2666 3584 2933 3390 
Q 3200 3197 3328 2828 
z
" transform="scale(0.015625)"/>
       <path id="DejaVuSans-28" d="M 1984 4856 
Q 1566 4138 1362 3434 
Q 1159 2731 1159 2009 
Q 1159 1288 1364 580 
Q 1569 -128 1984 -844 
L 1484 -844 
Q 1016 -109 783 600 
Q 550 1309 550 2009 
Q 550 2706 781 3412 
Q 1013 4119 1484 4856 
L 1984 4856 
z
" transform="scale(0.015625)"/>
       <path id="DejaVuSans-Oblique-68" d="M 3566 2113 
L 3156 0 
L 2578 0 
L 2988 2091 
Q 3016 2238 3031 2350 
Q 3047 2463 3047 2528 
Q 3047 2791 2881 2937 
Q 2716 3084 2419 3084 
Q 1956 3084 1617 2771 
Q 1278 2459 1178 1941 
L 800 0 
L 225 0 
L 1172 4863 
L 1747 4863 
L 1375 2950 
Q 1594 3244 1934 3414 
Q 2275 3584 2650 3584 
Q 3113 3584 3367 3334 
Q 3622 3084 3622 2631 
Q 3622 2519 3608 2391 
Q 3594 2263 3566 2113 
z
" transform="scale(0.015625)"/>
       <path id="DejaVuSans-29" d="M 513 4856 
L 1013 4856 
Q 1481 4119 1714 3412 
Q 1947 2706 1947 2009 
Q 1947 1309 1714 600 
Q 1481 -109 1013 -844 
L 513 -844 
Q 928 -128 1133 580 
Q 1338 1288 1338 2009 
Q 1338 2731 1133 3434 
Q 928 4138 513 4856 
z
" transform="scale(0.015625)"/>
      </defs>
      <use xlink:href="#DejaVuSans-73" transform="translate(0 0.015625)"/>
      <use xlink:href="#DejaVuSans-68" transform="translate(52.099609 0.015625)"/>
      <use xlink:href="#DejaVuSans-69" transform="translate(115.478516 0.015625)"/>
      <use xlink:href="#DejaVuSans-66" transform="translate(143.261719 0.015625)"/>
      <use xlink:href="#DejaVuSans-74" transform="translate(178.466797 0.015625)"/>
      <use xlink:href="#DejaVuSans-65" transform="translate(217.675781 0.015625)"/>
      <use xlink:href="#DejaVuSans-64" transform="translate(279.199219 0.015625)"/>
      <use xlink:href="#DejaVuSans-20" transform="translate(342.675781 0.015625)"/>
      <use xlink:href="#DejaVuSans-74" transform="translate(374.462891 0.015625)"/>
      <use xlink:href="#DejaVuSans-69" transform="translate(413.671875 0.015625)"/>
      <use xlink:href="#DejaVuSans-6d" transform="translate(441.455078 0.015625)"/>
      <use xlink:href="#DejaVuSans-65" transform="translate(538.867188 0.015625)"/>
      <use xlink:href="#DejaVuSans-20" transform="translate(600.390625 0.015625)"/>
      <use xlink:href="#DejaVuSans-28" transform="translate(632.177734 0.015625)"/>
      <use xlink:href="#DejaVuSans-Oblique-68" transform="translate(671.191406 0.015625)"/>
      <use xlink:href="#DejaVuSans-29" transform="translate(734.570312 0.015625)"/>
     </g>
    </g>
   </g>
   <g id="matplotlib.axis_2">
    <g id="ytick_1">
     <g id="line2d_8">
      <defs>
       <path id="m1949c92623" d="M 0 0 
L -3.5 0 
" style="stroke: #0000ff; stroke-width: 0.8"/>
      </defs>
      <g>
       <use xlink:href="#m1949c92623" x="88.598" y="275.854323" style="fill: #0000ff; stroke: #0000ff; stroke-width: 0.8"/>
      </g>
     </g>
     <g id="text_9">
      <!-- 0 -->
      <g style="fill: #0000ff" transform="translate(71.418 281.933073)scale(0.16 -0.16)">
       <use xlink:href="#DejaVuSans-30"/>
      </g>
     </g>
    </g>
    <g id="ytick_2">
     <g id="line2d_9">
      <g>
       <use xlink:href="#m1949c92623" x="88.598" y="233.814006" style="fill: #0000ff; stroke: #0000ff; stroke-width: 0.8"/>
      </g>
     </g>
     <g id="text_10">
      <!-- 500 -->
      <g style="fill: #0000ff" transform="translate(51.058 239.892756)scale(0.16 -0.16)">
       <defs>
        <path id="DejaVuSans-35" d="M 691 4666 
L 3169 4666 
L 3169 4134 
L 1269 4134 
L 1269 2991 
Q 1406 3038 1543 3061 
Q 1681 3084 1819 3084 
Q 2600 3084 3056 2656 
Q 3513 2228 3513 1497 
Q 3513 744 3044 326 
Q 2575 -91 1722 -91 
Q 1428 -91 1123 -41 
Q 819 9 494 109 
L 494 744 
Q 775 591 1075 516 
Q 1375 441 1709 441 
Q 2250 441 2565 725 
Q 2881 1009 2881 1497 
Q 2881 1984 2565 2268 
Q 2250 2553 1709 2553 
Q 1456 2553 1204 2497 
Q 953 2441 691 2322 
L 691 4666 
z
" transform="scale(0.015625)"/>
       </defs>
       <use xlink:href="#DejaVuSans-35"/>
       <use xlink:href="#DejaVuSans-30" x="63.623047"/>
       <use xlink:href="#DejaVuSans-30" x="127.246094"/>
      </g>
     </g>
    </g>
    <g id="ytick_3">
     <g id="line2d_10">
      <g>
       <use xlink:href="#m1949c92623" x="88.598" y="191.773689" style="fill: #0000ff; stroke: #0000ff; stroke-width: 0.8"/>
      </g>
     </g>
     <g id="text_11">
      <!-- 1000 -->
      <g style="fill: #0000ff" transform="translate(40.878 197.852439)scale(0.16 -0.16)">
       <use xlink:href="#DejaVuSans-31"/>
       <use xlink:href="#DejaVuSans-30" x="63.623047"/>
       <use xlink:href="#DejaVuSans-30" x="127.246094"/>
       <use xlink:href="#DejaVuSans-30" x="190.869141"/>
      </g>
     </g>
    </g>
    <g id="ytick_4">
     <g id="line2d_11">
      <g>
       <use xlink:href="#m1949c92623" x="88.598" y="149.733372" style="fill: #0000ff; stroke: #0000ff; stroke-width: 0.8"/>
      </g>
     </g>
     <g id="text_12">
      <!-- 1500 -->
      <g style="fill: #0000ff" transform="translate(40.878 155.812122)scale(0.16 -0.16)">
       <use xlink:href="#DejaVuSans-31"/>
       <use xlink:href="#DejaVuSans-35" x="63.623047"/>
       <use xlink:href="#DejaVuSans-30" x="127.246094"/>
       <use xlink:href="#DejaVuSans-30" x="190.869141"/>
      </g>
     </g>
    </g>
    <g id="ytick_5">
     <g id="line2d_12">
      <g>
       <use xlink:href="#m1949c92623" x="88.598" y="107.693055" style="fill: #0000ff; stroke: #0000ff; stroke-width: 0.8"/>
      </g>
     </g>
     <g id="text_13">
      <!-- 2000 -->
      <g style="fill: #0000ff" transform="translate(40.878 113.771805)scale(0.16 -0.16)">
       <use xlink:href="#DejaVuSans-32"/>
       <use xlink:href="#DejaVuSans-30" x="63.623047"/>
       <use xlink:href="#DejaVuSans-30" x="127.246094"/>
       <use xlink:href="#DejaVuSans-30" x="190.869141"/>
      </g>
     </g>
    </g>
    <g id="ytick_6">
     <g id="line2d_13">
      <g>
       <use xlink:href="#m1949c92623" x="88.598" y="65.652738" style="fill: #0000ff; stroke: #0000ff; stroke-width: 0.8"/>
      </g>
     </g>
     <g id="text_14">
      <!-- 2500 -->
      <g style="fill: #0000ff" transform="translate(40.878 71.731488)scale(0.16 -0.16)">
       <use xlink:href="#DejaVuSans-32"/>
       <use xlink:href="#DejaVuSans-35" x="63.623047"/>
       <use xlink:href="#DejaVuSans-30" x="127.246094"/>
       <use xlink:href="#DejaVuSans-30" x="190.869141"/>
      </g>
     </g>
    </g>
    <g id="ytick_7">
     <g id="line2d_14">
      <g>
       <use xlink:href="#m1949c92623" x="88.598" y="23.612421" style="fill: #0000ff; stroke: #0000ff; stroke-width: 0.8"/>
      </g>
     </g>
     <g id="text_15">
      <!-- 3000 -->
      <g style="fill: #0000ff" transform="translate(40.878 29.691171)scale(0.16 -0.16)">
       <use xlink:href="#DejaVuSans-33"/>
       <use xlink:href="#DejaVuSans-30" x="63.623047"/>
       <use xlink:href="#DejaVuSans-30" x="127.246094"/>
       <use xlink:href="#DejaVuSans-30" x="190.869141"/>
      </g>
     </g>
    </g>
    <g id="text_16">
     <!-- network density ($\mu m.mm^{-2}$) -->
     <g transform="translate(32.678 292.96)rotate(-90)scale(0.2 -0.2)">
      <defs>
       <path id="DejaVuSans-6e" d="M 3513 2113 
L 3513 0 
L 2938 0 
L 2938 2094 
Q 2938 2591 2744 2837 
Q 2550 3084 2163 3084 
Q 1697 3084 1428 2787 
Q 1159 2491 1159 1978 
L 1159 0 
L 581 0 
L 581 3500 
L 1159 3500 
L 1159 2956 
Q 1366 3272 1645 3428 
Q 1925 3584 2291 3584 
Q 2894 3584 3203 3211 
Q 3513 2838 3513 2113 
z
" transform="scale(0.015625)"/>
       <path id="DejaVuSans-77" d="M 269 3500 
L 844 3500 
L 1563 769 
L 2278 3500 
L 2956 3500 
L 3675 769 
L 4391 3500 
L 4966 3500 
L 4050 0 
L 3372 0 
L 2619 2869 
L 1863 0 
L 1184 0 
L 269 3500 
z
" transform="scale(0.015625)"/>
       <path id="DejaVuSans-6f" d="M 1959 3097 
Q 1497 3097 1228 2736 
Q 959 2375 959 1747 
Q 959 1119 1226 758 
Q 1494 397 1959 397 
Q 2419 397 2687 759 
Q 2956 1122 2956 1747 
Q 2956 2369 2687 2733 
Q 2419 3097 1959 3097 
z
M 1959 3584 
Q 2709 3584 3137 3096 
Q 3566 2609 3566 1747 
Q 3566 888 3137 398 
Q 2709 -91 1959 -91 
Q 1206 -91 779 398 
Q 353 888 353 1747 
Q 353 2609 779 3096 
Q 1206 3584 1959 3584 
z
" transform="scale(0.015625)"/>
       <path id="DejaVuSans-72" d="M 2631 2963 
Q 2534 3019 2420 3045 
Q 2306 3072 2169 3072 
Q 1681 3072 1420 2755 
Q 1159 2438 1159 1844 
L 1159 0 
L 581 0 
L 581 3500 
L 1159 3500 
L 1159 2956 
Q 1341 3275 1631 3429 
Q 1922 3584 2338 3584 
Q 2397 3584 2469 3576 
Q 2541 3569 2628 3553 
L 2631 2963 
z
" transform="scale(0.015625)"/>
       <path id="DejaVuSans-6b" d="M 581 4863 
L 1159 4863 
L 1159 1991 
L 2875 3500 
L 3609 3500 
L 1753 1863 
L 3688 0 
L 2938 0 
L 1159 1709 
L 1159 0 
L 581 0 
L 581 4863 
z
" transform="scale(0.015625)"/>
       <path id="DejaVuSans-79" d="M 2059 -325 
Q 1816 -950 1584 -1140 
Q 1353 -1331 966 -1331 
L 506 -1331 
L 506 -850 
L 844 -850 
Q 1081 -850 1212 -737 
Q 1344 -625 1503 -206 
L 1606 56 
L 191 3500 
L 800 3500 
L 1894 763 
L 2988 3500 
L 3597 3500 
L 2059 -325 
z
" transform="scale(0.015625)"/>
       <path id="DejaVuSans-Oblique-3bc" d="M -84 -1331 
L 856 3500 
L 1434 3500 
L 1009 1322 
Q 997 1256 987 1175 
Q 978 1094 978 1013 
Q 978 722 1161 565 
Q 1344 409 1684 409 
Q 2147 409 2431 671 
Q 2716 934 2816 1459 
L 3213 3500 
L 3788 3500 
L 3266 809 
Q 3253 750 3248 706 
Q 3244 663 3244 628 
Q 3244 531 3283 486 
Q 3322 441 3406 441 
Q 3438 441 3492 456 
Q 3547 472 3647 513 
L 3559 50 
Q 3422 -19 3297 -55 
Q 3172 -91 3053 -91 
Q 2847 -91 2730 40 
Q 2613 172 2613 403 
Q 2438 153 2195 31 
Q 1953 -91 1625 -91 
Q 1334 -91 1117 43 
Q 900 178 831 397 
L 494 -1331 
L -84 -1331 
z
" transform="scale(0.015625)"/>
       <path id="DejaVuSans-Oblique-6d" d="M 5747 2113 
L 5338 0 
L 4763 0 
L 5166 2094 
Q 5191 2228 5203 2325 
Q 5216 2422 5216 2491 
Q 5216 2772 5059 2928 
Q 4903 3084 4622 3084 
Q 4203 3084 3875 2770 
Q 3547 2456 3450 1953 
L 3066 0 
L 2491 0 
L 2900 2094 
Q 2925 2209 2937 2307 
Q 2950 2406 2950 2484 
Q 2950 2769 2794 2926 
Q 2638 3084 2363 3084 
Q 1938 3084 1609 2770 
Q 1281 2456 1184 1953 
L 800 0 
L 225 0 
L 909 3500 
L 1484 3500 
L 1375 2956 
Q 1609 3263 1923 3423 
Q 2238 3584 2597 3584 
Q 2978 3584 3223 3384 
Q 3469 3184 3519 2828 
Q 3781 3197 4126 3390 
Q 4472 3584 4856 3584 
Q 5306 3584 5551 3325 
Q 5797 3066 5797 2591 
Q 5797 2488 5784 2364 
Q 5772 2241 5747 2113 
z
" transform="scale(0.015625)"/>
       <path id="DejaVuSans-2e" d="M 684 794 
L 1344 794 
L 1344 0 
L 684 0 
L 684 794 
z
" transform="scale(0.015625)"/>
      </defs>
      <use xlink:href="#DejaVuSans-6e" transform="translate(0 0.765625)"/>
      <use xlink:href="#DejaVuSans-65" transform="translate(63.378906 0.765625)"/>
      <use xlink:href="#DejaVuSans-74" transform="translate(124.902344 0.765625)"/>
      <use xlink:href="#DejaVuSans-77" transform="translate(164.111328 0.765625)"/>
      <use xlink:href="#DejaVuSans-6f" transform="translate(245.898438 0.765625)"/>
      <use xlink:href="#DejaVuSans-72" transform="translate(307.080078 0.765625)"/>
      <use xlink:href="#DejaVuSans-6b" transform="translate(348.193359 0.765625)"/>
      <use xlink:href="#DejaVuSans-20" transform="translate(406.103516 0.765625)"/>
      <use xlink:href="#DejaVuSans-64" transform="translate(437.890625 0.765625)"/>
      <use xlink:href="#DejaVuSans-65" transform="translate(501.367188 0.765625)"/>
      <use xlink:href="#DejaVuSans-6e" transform="translate(562.890625 0.765625)"/>
      <use xlink:href="#DejaVuSans-73" transform="translate(626.269531 0.765625)"/>
      <use xlink:href="#DejaVuSans-69" transform="translate(678.369141 0.765625)"/>
      <use xlink:href="#DejaVuSans-74" transform="translate(706.152344 0.765625)"/>
      <use xlink:href="#DejaVuSans-79" transform="translate(745.361328 0.765625)"/>
      <use xlink:href="#DejaVuSans-20" transform="translate(804.541016 0.765625)"/>
      <use xlink:href="#DejaVuSans-28" transform="translate(836.328125 0.765625)"/>
      <use xlink:href="#DejaVuSans-Oblique-3bc" transform="translate(875.341797 0.765625)"/>
      <use xlink:href="#DejaVuSans-Oblique-6d" transform="translate(938.964844 0.765625)"/>
      <use xlink:href="#DejaVuSans-2e" transform="translate(1036.376953 0.765625)"/>
      <use xlink:href="#DejaVuSans-Oblique-6d" transform="translate(1087.646484 0.765625)"/>
      <use xlink:href="#DejaVuSans-Oblique-6d" transform="translate(1185.058594 0.765625)"/>
      <use xlink:href="#DejaVuSans-2212" transform="translate(1287.120599 39.046875)scale(0.7)"/>
      <use xlink:href="#DejaVuSans-32" transform="translate(1345.772943 39.046875)scale(0.7)"/>
      <use xlink:href="#DejaVuSans-29" transform="translate(1393.043451 0.765625)"/>
     </g>
    </g>
   </g>
   <g id="line2d_15">
    <path d="M -1 262.966363 
L 6.654367 263.013097 
L 30.066833 264.311198 
L 53.4793 263.776028 
L 76.891767 262.687562 
L 100.304233 264.492457 
L 123.7167 265.432652 
L 147.129167 265.76855 
L 170.541633 264.147839 
L 193.9541 263.638238 
L 217.366567 259.619349 
L 240.779033 249.712912 
L 264.1915 216.650924 
L 287.603967 180.331479 
L 311.016433 156.490205 
L 334.4289 126.584802 
L 357.841367 98.687335 
L 381.253833 86.596571 
L 404.6663 75.906473 
L 428.078767 63.018429 
L 451.491233 66.257525 
L 461.8 57.397807 
" clip-path="url(#p9f685aab37)" style="fill: none; stroke: #ff0000; stroke-width: 3; stroke-linecap: square"/>
   </g>
   <g id="line2d_16">
    <path d="M -1 269.684774 
L 6.654367 270.275678 
L 30.066833 269.760485 
L 53.4793 269.330542 
L 76.891767 269.90699 
L 100.304233 270.027668 
L 123.7167 269.951411 
L 147.129167 268.920669 
L 170.541633 267.135747 
L 193.9541 267.523056 
L 217.366567 263.770571 
L 240.779033 250.64011 
L 264.1915 208.853154 
L 287.603967 172.013677 
L 311.016433 150.391521 
L 334.4289 136.345432 
L 357.841367 128.855926 
L 381.253833 124.957078 
L 404.6663 129.229973 
L 428.078767 116.000895 
L 451.491233 115.606747 
L 461.8 115.729894 
" clip-path="url(#p9f685aab37)" style="fill: none; stroke: #ff0000; stroke-width: 3; stroke-linecap: square"/>
   </g>
   <g id="line2d_17"/>
   <g id="line2d_18">
    <path d="M -1 274.929663 
L 6.654367 274.75845 
L 30.066833 274.917873 
L 53.4793 274.877052 
L 76.891767 274.294292 
L 100.304233 273.813597 
L 123.7167 273.110553 
L 147.129167 271.685941 
L 170.541633 270.421199 
L 193.9541 268.324612 
L 217.366567 261.660413 
L 240.779033 247.828902 
L 264.1915 219.486897 
L 287.603967 191.502322 
L 311.016433 174.676858 
L 334.4289 162.729083 
L 357.841367 151.298224 
L 381.253833 140.089844 
L 404.6663 131.314287 
L 428.078767 128.11563 
L 451.491233 125.616765 
L 461.8 124.8859 
" clip-path="url(#p9f685aab37)" style="fill: none; stroke: #ff0000; stroke-width: 3; stroke-linecap: square"/>
   </g>
   <g id="line2d_19">
    <path d="M -1 274.168642 
L 30.066833 273.849319 
L 53.4793 274.436294 
L 76.891767 273.737801 
L 100.304233 274.813672 
L 123.7167 273.899413 
L 147.129167 273.121343 
L 170.541633 272.571306 
L 193.9541 271.432152 
L 217.366567 264.931576 
L 240.779033 254.184506 
L 264.1915 211.137556 
L 287.603967 167.206887 
L 311.016433 141.761354 
L 334.4289 141.872617 
L 357.841367 128.193656 
L 381.253833 126.482402 
L 404.6663 121.296524 
L 428.078767 122.2932 
L 451.491233 122.281693 
L 461.8 121.462127 
L 461.8 121.462127 
" clip-path="url(#p9f685aab37)" style="fill: none; stroke: #ff0000; stroke-width: 3; stroke-linecap: square"/>
   </g>
   <g id="line2d_20">
    <path d="M -1 270.786161 
L 6.654367 271.082252 
L 30.066833 270.776846 
L 53.4793 271.294052 
L 76.891767 270.28075 
L 100.304233 271.329888 
L 123.7167 270.300569 
L 147.129167 269.461453 
L 170.541633 265.641046 
L 193.9541 261.45238 
L 217.366567 253.634029 
L 240.779033 241.270125 
L 264.1915 220.491019 
L 287.603967 201.98887 
L 311.016433 194.874358 
L 334.4289 191.239658 
L 357.841367 187.664389 
L 381.253833 185.196255 
L 404.6663 182.577591 
L 428.078767 180.213866 
L 451.491233 178.790649 
L 461.8 177.632957 
" clip-path="url(#p9f685aab37)" style="fill: none; stroke: #ff0000; stroke-width: 3; stroke-linecap: square"/>
   </g>
   <g id="line2d_21">
    <path d="M -1 274.795148 
L 6.654367 274.759852 
L 53.4793 274.183412 
L 76.891767 274.219198 
L 100.304233 273.936924 
L 123.7167 273.230783 
L 147.129167 272.369723 
L 170.541633 270.643195 
L 193.9541 266.565252 
L 217.366567 258.847285 
L 240.779033 246.495922 
L 264.1915 218.673907 
L 287.603967 186.477683 
L 311.016433 175.705205 
L 334.4289 161.340884 
L 357.841367 154.101419 
L 381.253833 152.233854 
L 404.6663 147.798931 
L 428.078767 146.611509 
L 451.491233 141.277159 
L 461.8 140.13326 
L 461.8 140.13326 
" clip-path="url(#p9f685aab37)" style="fill: none; stroke: #ff0000; stroke-width: 3; stroke-linecap: square"/>
   </g>
   <g id="line2d_22">
    <path d="M -1 265.791501 
L 6.654367 265.338857 
L 30.066833 264.412313 
L 53.4793 263.802745 
L 76.891767 264.474225 
L 100.304233 263.588968 
L 123.7167 263.829347 
L 147.129167 261.636561 
L 170.541633 258.132347 
L 193.9541 256.211186 
L 217.366567 247.6232 
L 240.779033 236.142029 
L 264.1915 223.976176 
L 287.603967 215.947556 
L 311.016433 213.26633 
L 334.4289 211.7107 
L 357.841367 208.03637 
L 381.253833 205.861732 
L 404.6663 205.997976 
L 428.078767 203.209576 
L 451.491233 202.464098 
L 461.8 201.847185 
" clip-path="url(#p9f685aab37)" style="fill: none; stroke: #0000ff; stroke-width: 3; stroke-linecap: square"/>
   </g>
   <g id="line2d_23">
    <path d="M -1 274.063652 
L 6.654367 274.512769 
L 30.066833 272.721939 
L 53.4793 273.07179 
L 76.891767 271.920225 
L 100.304233 268.688991 
L 123.7167 268.589214 
L 147.129167 265.98637 
L 170.541633 260.044704 
L 193.9541 257.86023 
L 217.366567 245.37391 
L 240.779033 239.47829 
L 264.1915 224.058902 
L 287.603967 213.33538 
L 311.016433 206.04798 
L 334.4289 201.009524 
L 357.841367 199.098254 
L 381.253833 195.881905 
L 404.6663 195.041252 
L 428.078767 188.314202 
L 451.491233 188.98548 
L 461.8 188.72583 
L 461.8 188.72583 
" clip-path="url(#p9f685aab37)" style="fill: none; stroke: #0000ff; stroke-width: 3; stroke-linecap: square"/>
   </g>
   <g id="line2d_24">
    <path d="M -1 266.601023 
L 6.654367 267.446419 
L 30.066833 269.510507 
L 53.4793 265.760224 
L 76.891767 260.566931 
L 100.304233 266.772625 
L 123.7167 259.785702 
L 147.129167 257.589105 
L 170.541633 252.393268 
L 193.9541 245.824819 
L 217.366567 237.69854 
L 240.779033 232.287014 
L 264.1915 224.304835 
L 287.603967 220.126219 
L 311.016433 217.658844 
L 334.4289 214.152474 
L 357.841367 212.639317 
L 381.253833 211.911495 
L 404.6663 212.574787 
L 428.078767 210.185803 
L 451.491233 207.327982 
L 461.8 208.872858 
L 461.8 208.872858 
" clip-path="url(#p9f685aab37)" style="fill: none; stroke: #0000ff; stroke-width: 3; stroke-linecap: square"/>
   </g>
   <g id="line2d_25">
    <path d="M -1 266.354699 
L 6.654367 265.756215 
L 30.066833 267.697768 
L 53.4793 261.279285 
L 76.891767 261.518032 
L 100.304233 261.529767 
L 123.7167 259.576482 
L 147.129167 262.783689 
L 170.541633 253.898888 
L 193.9541 248.46742 
L 217.366567 244.686368 
L 240.779033 234.154431 
L 264.1915 221.95849 
L 287.603967 220.966869 
L 311.016433 219.118771 
L 334.4289 213.12964 
L 357.841367 209.864059 
L 381.253833 208.430605 
L 404.6663 207.608402 
L 428.078767 205.612521 
L 451.491233 203.161474 
L 461.8 202.30188 
L 461.8 202.30188 
" clip-path="url(#p9f685aab37)" style="fill: none; stroke: #0000ff; stroke-width: 3; stroke-linecap: square"/>
   </g>
   <g id="line2d_26">
    <path d="M -1 274.98234 
L 6.654367 274.990655 
L 30.066833 275.232814 
L 76.891767 274.832893 
L 100.304233 275.247709 
L 123.7167 275.172653 
L 147.129167 275.32528 
L 170.541633 274.120962 
L 193.9541 269.655334 
L 217.366567 260.414749 
L 240.779033 247.685386 
L 264.1915 220.679186 
L 287.603967 198.411173 
L 334.4289 179.53267 
L 357.841367 175.828759 
L 381.253833 175.250328 
L 404.6663 170.508381 
L 428.078767 170.098692 
L 461.8 167.431106 
L 461.8 167.431106 
" clip-path="url(#p9f685aab37)" style="fill: none; stroke: #0000ff; stroke-width: 3; stroke-linecap: square"/>
   </g>
   <g id="line2d_27">
    <path d="M -1 275.549689 
L 6.654367 275.490424 
L 30.066833 275.741639 
L 53.4793 275.573354 
L 76.891767 274.648343 
L 100.304233 274.482095 
L 123.7167 273.012288 
L 147.129167 270.36384 
L 170.541633 268.49015 
L 193.9541 263.921339 
L 217.366567 256.046184 
L 240.779033 244.542648 
L 264.1915 221.489937 
L 287.603967 200.900691 
L 311.016433 191.581545 
L 334.4289 180.283645 
L 357.841367 179.736188 
L 381.253833 178.644236 
L 404.6663 176.672809 
L 428.078767 180.104419 
L 451.491233 181.390479 
L 461.8 177.818499 
" clip-path="url(#p9f685aab37)" style="fill: none; stroke: #008000; stroke-width: 3; stroke-linecap: square"/>
   </g>
   <g id="line2d_28">
    <path d="M -1 273.836024 
L 6.654367 273.547634 
L 30.066833 274.230683 
L 53.4793 273.074334 
L 76.891767 273.178673 
L 100.304233 273.525774 
L 123.7167 272.484855 
L 147.129167 272.086573 
L 170.541633 268.475037 
L 193.9541 262.654146 
L 217.366567 249.062167 
L 240.779033 241.384153 
L 264.1915 222.573782 
L 287.603967 212.495084 
L 311.016433 203.592412 
L 334.4289 195.998108 
L 357.841367 193.002286 
L 381.253833 193.974188 
L 404.6663 190.982543 
L 428.078767 190.653334 
L 451.491233 189.501927 
L 461.8 190.032426 
L 461.8 190.032426 
" clip-path="url(#p9f685aab37)" style="fill: none; stroke: #008000; stroke-width: 3; stroke-linecap: square"/>
   </g>
   <g id="line2d_29">
    <path d="M -1 271.830168 
L 6.654367 272.029683 
L 30.066833 271.401488 
L 53.4793 270.261118 
L 76.891767 269.408895 
L 100.304233 268.431072 
L 123.7167 266.252304 
L 147.129167 262.438322 
L 170.541633 258.566254 
L 193.9541 252.793125 
L 217.366567 246.685221 
L 240.779033 238.925282 
L 264.1915 222.185435 
L 287.603967 213.040268 
L 311.016433 206.641618 
L 334.4289 202.622792 
L 357.841367 198.51454 
L 381.253833 196.303823 
L 404.6663 195.559607 
L 428.078767 193.851721 
L 451.491233 192.171945 
L 461.8 191.033799 
" clip-path="url(#p9f685aab37)" style="fill: none; stroke: #008000; stroke-width: 3; stroke-linecap: square"/>
   </g>
   <g id="patch_3">
    <path d="M 88.598 288.52 
L 88.598 10.8 
" style="fill: none; stroke: #000000; stroke-width: 0.8; stroke-linejoin: miter; stroke-linecap: square"/>
   </g>
   <g id="patch_4">
    <path d="M 439.785 288.52 
L 439.785 10.8 
" style="fill: none; stroke: #000000; stroke-width: 0.8; stroke-linejoin: miter; stroke-linecap: square"/>
   </g>
   <g id="patch_5">
    <path d="M 88.598 288.52 
L 439.785 288.52 
" style="fill: none; stroke: #000000; stroke-width: 0.8; stroke-linejoin: miter; stroke-linecap: square"/>
   </g>
   <g id="patch_6">
    <path d="M 88.598 10.8 
L 439.785 10.8 
" style="fill: none; stroke: #000000; stroke-width: 0.8; stroke-linejoin: miter; stroke-linecap: square"/>
   </g>
  </g>
 </g>
 <defs>
  <clipPath id="p9f685aab37">
   <rect x="88.598" y="10.8" width="351.187" height="277.72"/>
  </clipPath>
 </defs>
</svg>
