<?xml version="1.0" encoding="utf-8" standalone="no"?>
<!DOCTYPE svg PUBLIC "-//W3C//DTD SVG 1.1//EN"
  "http://www.w3.org/Graphics/SVG/1.1/DTD/svg11.dtd">
<svg xmlns:xlink="http://www.w3.org/1999/xlink" width="460.8pt" height="345.6pt" viewBox="0 0 460.8 345.6" xmlns="http://www.w3.org/2000/svg" version="1.1">
 <metadata>
  <rdf:RDF xmlns:dc="http://purl.org/dc/elements/1.1/" xmlns:cc="http://creativecommons.org/ns#" xmlns:rdf="http://www.w3.org/1999/02/22-rdf-syntax-ns#">
   <cc:Work>
    <dc:type rdf:resource="http://purl.org/dc/dcmitype/StillImage"/>
    <dc:date>2022-11-01T17:19:54.735214</dc:date>
    <dc:format>image/svg+xml</dc:format>
    <dc:creator>
     <cc:Agent>
      <dc:title>Matplotlib v3.6.0, https://matplotlib.org/</dc:title>
     </cc:Agent>
    </dc:creator>
   </cc:Work>
  </rdf:RDF>
 </metadata>
 <defs>
  <style type="text/css">*{stroke-linejoin: round; stroke-linecap: butt}</style>
 </defs>
 <g id="figure_1">
  <g id="patch_1">
   <path d="M 0 345.6 
L 460.8 345.6 
L 460.8 0 
L 0 0 
z
" style="fill: #ffffff"/>
  </g>
  <g id="axes_1">
   <g id="patch_2">
    <path d="M 88.328 287.08 
L 377.602 287.08 
L 377.602 17.28 
L 88.328 17.28 
z
" style="fill: #ffffff"/>
   </g>
   <g id="matplotlib.axis_1">
    <g id="xtick_1">
     <g id="line2d_1">
      <defs>
       <path id="m4c6a23017d" d="M 0 0 
L 0 3.5 
" style="stroke: #000000; stroke-width: 0.8"/>
      </defs>
      <g>
       <use xlink:href="#m4c6a23017d" x="88.328" y="287.08" style="stroke: #000000; stroke-width: 0.8"/>
      </g>
     </g>
     <g id="text_1">
      <!-- 5 -->
      <g transform="translate(83.238 306.2375) scale(0.16 -0.16)">
       <defs>
        <path id="DejaVuSans-35" d="M 691 4666 
L 3169 4666 
L 3169 4134 
L 1269 4134 
L 1269 2991 
Q 1406 3038 1543 3061 
Q 1681 3084 1819 3084 
Q 2600 3084 3056 2656 
Q 3513 2228 3513 1497 
Q 3513 744 3044 326 
Q 2575 -91 1722 -91 
Q 1428 -91 1123 -41 
Q 819 9 494 109 
L 494 744 
Q 775 591 1075 516 
Q 1375 441 1709 441 
Q 2250 441 2565 725 
Q 2881 1009 2881 1497 
Q 2881 1984 2565 2268 
Q 2250 2553 1709 2553 
Q 1456 2553 1204 2497 
Q 953 2441 691 2322 
L 691 4666 
z
" transform="scale(0.015625)"/>
       </defs>
       <use xlink:href="#DejaVuSans-35"/>
      </g>
     </g>
    </g>
    <g id="xtick_2">
     <g id="line2d_2">
      <g>
       <use xlink:href="#m4c6a23017d" x="136.540333" y="287.08" style="stroke: #000000; stroke-width: 0.8"/>
      </g>
     </g>
     <g id="text_2">
      <!-- 10 -->
      <g transform="translate(126.360333 306.2375) scale(0.16 -0.16)">
       <defs>
        <path id="DejaVuSans-31" d="M 794 531 
L 1825 531 
L 1825 4091 
L 703 3866 
L 703 4441 
L 1819 4666 
L 2450 4666 
L 2450 531 
L 3481 531 
L 3481 0 
L 794 0 
L 794 531 
z
" transform="scale(0.015625)"/>
        <path id="DejaVuSans-30" d="M 2034 4250 
Q 1547 4250 1301 3770 
Q 1056 3291 1056 2328 
Q 1056 1369 1301 889 
Q 1547 409 2034 409 
Q 2525 409 2770 889 
Q 3016 1369 3016 2328 
Q 3016 3291 2770 3770 
Q 2525 4250 2034 4250 
z
M 2034 4750 
Q 2819 4750 3233 4129 
Q 3647 3509 3647 2328 
Q 3647 1150 3233 529 
Q 2819 -91 2034 -91 
Q 1250 -91 836 529 
Q 422 1150 422 2328 
Q 422 3509 836 4129 
Q 1250 4750 2034 4750 
z
" transform="scale(0.015625)"/>
       </defs>
       <use xlink:href="#DejaVuSans-31"/>
       <use xlink:href="#DejaVuSans-30" x="63.623047"/>
      </g>
     </g>
    </g>
    <g id="xtick_3">
     <g id="line2d_3">
      <g>
       <use xlink:href="#m4c6a23017d" x="184.752667" y="287.08" style="stroke: #000000; stroke-width: 0.8"/>
      </g>
     </g>
     <g id="text_3">
      <!-- 15 -->
      <g transform="translate(174.572667 306.2375) scale(0.16 -0.16)">
       <use xlink:href="#DejaVuSans-31"/>
       <use xlink:href="#DejaVuSans-35" x="63.623047"/>
      </g>
     </g>
    </g>
    <g id="xtick_4">
     <g id="line2d_4">
      <g>
       <use xlink:href="#m4c6a23017d" x="232.965" y="287.08" style="stroke: #000000; stroke-width: 0.8"/>
      </g>
     </g>
     <g id="text_4">
      <!-- 20 -->
      <g transform="translate(222.785 306.2375) scale(0.16 -0.16)">
       <defs>
        <path id="DejaVuSans-32" d="M 1228 531 
L 3431 531 
L 3431 0 
L 469 0 
L 469 531 
Q 828 903 1448 1529 
Q 2069 2156 2228 2338 
Q 2531 2678 2651 2914 
Q 2772 3150 2772 3378 
Q 2772 3750 2511 3984 
Q 2250 4219 1831 4219 
Q 1534 4219 1204 4116 
Q 875 4013 500 3803 
L 500 4441 
Q 881 4594 1212 4672 
Q 1544 4750 1819 4750 
Q 2544 4750 2975 4387 
Q 3406 4025 3406 3419 
Q 3406 3131 3298 2873 
Q 3191 2616 2906 2266 
Q 2828 2175 2409 1742 
Q 1991 1309 1228 531 
z
" transform="scale(0.015625)"/>
       </defs>
       <use xlink:href="#DejaVuSans-32"/>
       <use xlink:href="#DejaVuSans-30" x="63.623047"/>
      </g>
     </g>
    </g>
    <g id="xtick_5">
     <g id="line2d_5">
      <g>
       <use xlink:href="#m4c6a23017d" x="281.177333" y="287.08" style="stroke: #000000; stroke-width: 0.8"/>
      </g>
     </g>
     <g id="text_5">
      <!-- 25 -->
      <g transform="translate(270.997333 306.2375) scale(0.16 -0.16)">
       <use xlink:href="#DejaVuSans-32"/>
       <use xlink:href="#DejaVuSans-35" x="63.623047"/>
      </g>
     </g>
    </g>
    <g id="xtick_6">
     <g id="line2d_6">
      <g>
       <use xlink:href="#m4c6a23017d" x="329.389667" y="287.08" style="stroke: #000000; stroke-width: 0.8"/>
      </g>
     </g>
     <g id="text_6">
      <!-- 30 -->
      <g transform="translate(319.209667 306.2375) scale(0.16 -0.16)">
       <defs>
        <path id="DejaVuSans-33" d="M 2597 2516 
Q 3050 2419 3304 2112 
Q 3559 1806 3559 1356 
Q 3559 666 3084 287 
Q 2609 -91 1734 -91 
Q 1441 -91 1130 -33 
Q 819 25 488 141 
L 488 750 
Q 750 597 1062 519 
Q 1375 441 1716 441 
Q 2309 441 2620 675 
Q 2931 909 2931 1356 
Q 2931 1769 2642 2001 
Q 2353 2234 1838 2234 
L 1294 2234 
L 1294 2753 
L 1863 2753 
Q 2328 2753 2575 2939 
Q 2822 3125 2822 3475 
Q 2822 3834 2567 4026 
Q 2313 4219 1838 4219 
Q 1578 4219 1281 4162 
Q 984 4106 628 3988 
L 628 4550 
Q 988 4650 1302 4700 
Q 1616 4750 1894 4750 
Q 2613 4750 3031 4423 
Q 3450 4097 3450 3541 
Q 3450 3153 3228 2886 
Q 3006 2619 2597 2516 
z
" transform="scale(0.015625)"/>
       </defs>
       <use xlink:href="#DejaVuSans-33"/>
       <use xlink:href="#DejaVuSans-30" x="63.623047"/>
      </g>
     </g>
    </g>
    <g id="xtick_7">
     <g id="line2d_7">
      <g>
       <use xlink:href="#m4c6a23017d" x="377.602" y="287.08" style="stroke: #000000; stroke-width: 0.8"/>
      </g>
     </g>
     <g id="text_7">
      <!-- 35 -->
      <g transform="translate(367.422 306.2375) scale(0.16 -0.16)">
       <use xlink:href="#DejaVuSans-33"/>
       <use xlink:href="#DejaVuSans-35" x="63.623047"/>
      </g>
     </g>
    </g>
    <g id="text_8">
     <!-- distance from origin (mm) -->
     <g transform="translate(102.035313 328.761875) scale(0.2 -0.2)">
      <defs>
       <path id="DejaVuSans-64" d="M 2906 2969 
L 2906 4863 
L 3481 4863 
L 3481 0 
L 2906 0 
L 2906 525 
Q 2725 213 2448 61 
Q 2172 -91 1784 -91 
Q 1150 -91 751 415 
Q 353 922 353 1747 
Q 353 2572 751 3078 
Q 1150 3584 1784 3584 
Q 2172 3584 2448 3432 
Q 2725 3281 2906 2969 
z
M 947 1747 
Q 947 1113 1208 752 
Q 1469 391 1925 391 
Q 2381 391 2643 752 
Q 2906 1113 2906 1747 
Q 2906 2381 2643 2742 
Q 2381 3103 1925 3103 
Q 1469 3103 1208 2742 
Q 947 2381 947 1747 
z
" transform="scale(0.015625)"/>
       <path id="DejaVuSans-69" d="M 603 3500 
L 1178 3500 
L 1178 0 
L 603 0 
L 603 3500 
z
M 603 4863 
L 1178 4863 
L 1178 4134 
L 603 4134 
L 603 4863 
z
" transform="scale(0.015625)"/>
       <path id="DejaVuSans-73" d="M 2834 3397 
L 2834 2853 
Q 2591 2978 2328 3040 
Q 2066 3103 1784 3103 
Q 1356 3103 1142 2972 
Q 928 2841 928 2578 
Q 928 2378 1081 2264 
Q 1234 2150 1697 2047 
L 1894 2003 
Q 2506 1872 2764 1633 
Q 3022 1394 3022 966 
Q 3022 478 2636 193 
Q 2250 -91 1575 -91 
Q 1294 -91 989 -36 
Q 684 19 347 128 
L 347 722 
Q 666 556 975 473 
Q 1284 391 1588 391 
Q 1994 391 2212 530 
Q 2431 669 2431 922 
Q 2431 1156 2273 1281 
Q 2116 1406 1581 1522 
L 1381 1569 
Q 847 1681 609 1914 
Q 372 2147 372 2553 
Q 372 3047 722 3315 
Q 1072 3584 1716 3584 
Q 2034 3584 2315 3537 
Q 2597 3491 2834 3397 
z
" transform="scale(0.015625)"/>
       <path id="DejaVuSans-74" d="M 1172 4494 
L 1172 3500 
L 2356 3500 
L 2356 3053 
L 1172 3053 
L 1172 1153 
Q 1172 725 1289 603 
Q 1406 481 1766 481 
L 2356 481 
L 2356 0 
L 1766 0 
Q 1100 0 847 248 
Q 594 497 594 1153 
L 594 3053 
L 172 3053 
L 172 3500 
L 594 3500 
L 594 4494 
L 1172 4494 
z
" transform="scale(0.015625)"/>
       <path id="DejaVuSans-61" d="M 2194 1759 
Q 1497 1759 1228 1600 
Q 959 1441 959 1056 
Q 959 750 1161 570 
Q 1363 391 1709 391 
Q 2188 391 2477 730 
Q 2766 1069 2766 1631 
L 2766 1759 
L 2194 1759 
z
M 3341 1997 
L 3341 0 
L 2766 0 
L 2766 531 
Q 2569 213 2275 61 
Q 1981 -91 1556 -91 
Q 1019 -91 701 211 
Q 384 513 384 1019 
Q 384 1609 779 1909 
Q 1175 2209 1959 2209 
L 2766 2209 
L 2766 2266 
Q 2766 2663 2505 2880 
Q 2244 3097 1772 3097 
Q 1472 3097 1187 3025 
Q 903 2953 641 2809 
L 641 3341 
Q 956 3463 1253 3523 
Q 1550 3584 1831 3584 
Q 2591 3584 2966 3190 
Q 3341 2797 3341 1997 
z
" transform="scale(0.015625)"/>
       <path id="DejaVuSans-6e" d="M 3513 2113 
L 3513 0 
L 2938 0 
L 2938 2094 
Q 2938 2591 2744 2837 
Q 2550 3084 2163 3084 
Q 1697 3084 1428 2787 
Q 1159 2491 1159 1978 
L 1159 0 
L 581 0 
L 581 3500 
L 1159 3500 
L 1159 2956 
Q 1366 3272 1645 3428 
Q 1925 3584 2291 3584 
Q 2894 3584 3203 3211 
Q 3513 2838 3513 2113 
z
" transform="scale(0.015625)"/>
       <path id="DejaVuSans-63" d="M 3122 3366 
L 3122 2828 
Q 2878 2963 2633 3030 
Q 2388 3097 2138 3097 
Q 1578 3097 1268 2742 
Q 959 2388 959 1747 
Q 959 1106 1268 751 
Q 1578 397 2138 397 
Q 2388 397 2633 464 
Q 2878 531 3122 666 
L 3122 134 
Q 2881 22 2623 -34 
Q 2366 -91 2075 -91 
Q 1284 -91 818 406 
Q 353 903 353 1747 
Q 353 2603 823 3093 
Q 1294 3584 2113 3584 
Q 2378 3584 2631 3529 
Q 2884 3475 3122 3366 
z
" transform="scale(0.015625)"/>
       <path id="DejaVuSans-65" d="M 3597 1894 
L 3597 1613 
L 953 1613 
Q 991 1019 1311 708 
Q 1631 397 2203 397 
Q 2534 397 2845 478 
Q 3156 559 3463 722 
L 3463 178 
Q 3153 47 2828 -22 
Q 2503 -91 2169 -91 
Q 1331 -91 842 396 
Q 353 884 353 1716 
Q 353 2575 817 3079 
Q 1281 3584 2069 3584 
Q 2775 3584 3186 3129 
Q 3597 2675 3597 1894 
z
M 3022 2063 
Q 3016 2534 2758 2815 
Q 2500 3097 2075 3097 
Q 1594 3097 1305 2825 
Q 1016 2553 972 2059 
L 3022 2063 
z
" transform="scale(0.015625)"/>
       <path id="DejaVuSans-20" transform="scale(0.015625)"/>
       <path id="DejaVuSans-66" d="M 2375 4863 
L 2375 4384 
L 1825 4384 
Q 1516 4384 1395 4259 
Q 1275 4134 1275 3809 
L 1275 3500 
L 2222 3500 
L 2222 3053 
L 1275 3053 
L 1275 0 
L 697 0 
L 697 3053 
L 147 3053 
L 147 3500 
L 697 3500 
L 697 3744 
Q 697 4328 969 4595 
Q 1241 4863 1831 4863 
L 2375 4863 
z
" transform="scale(0.015625)"/>
       <path id="DejaVuSans-72" d="M 2631 2963 
Q 2534 3019 2420 3045 
Q 2306 3072 2169 3072 
Q 1681 3072 1420 2755 
Q 1159 2438 1159 1844 
L 1159 0 
L 581 0 
L 581 3500 
L 1159 3500 
L 1159 2956 
Q 1341 3275 1631 3429 
Q 1922 3584 2338 3584 
Q 2397 3584 2469 3576 
Q 2541 3569 2628 3553 
L 2631 2963 
z
" transform="scale(0.015625)"/>
       <path id="DejaVuSans-6f" d="M 1959 3097 
Q 1497 3097 1228 2736 
Q 959 2375 959 1747 
Q 959 1119 1226 758 
Q 1494 397 1959 397 
Q 2419 397 2687 759 
Q 2956 1122 2956 1747 
Q 2956 2369 2687 2733 
Q 2419 3097 1959 3097 
z
M 1959 3584 
Q 2709 3584 3137 3096 
Q 3566 2609 3566 1747 
Q 3566 888 3137 398 
Q 2709 -91 1959 -91 
Q 1206 -91 779 398 
Q 353 888 353 1747 
Q 353 2609 779 3096 
Q 1206 3584 1959 3584 
z
" transform="scale(0.015625)"/>
       <path id="DejaVuSans-6d" d="M 3328 2828 
Q 3544 3216 3844 3400 
Q 4144 3584 4550 3584 
Q 5097 3584 5394 3201 
Q 5691 2819 5691 2113 
L 5691 0 
L 5113 0 
L 5113 2094 
Q 5113 2597 4934 2840 
Q 4756 3084 4391 3084 
Q 3944 3084 3684 2787 
Q 3425 2491 3425 1978 
L 3425 0 
L 2847 0 
L 2847 2094 
Q 2847 2600 2669 2842 
Q 2491 3084 2119 3084 
Q 1678 3084 1418 2786 
Q 1159 2488 1159 1978 
L 1159 0 
L 581 0 
L 581 3500 
L 1159 3500 
L 1159 2956 
Q 1356 3278 1631 3431 
Q 1906 3584 2284 3584 
Q 2666 3584 2933 3390 
Q 3200 3197 3328 2828 
z
" transform="scale(0.015625)"/>
       <path id="DejaVuSans-67" d="M 2906 1791 
Q 2906 2416 2648 2759 
Q 2391 3103 1925 3103 
Q 1463 3103 1205 2759 
Q 947 2416 947 1791 
Q 947 1169 1205 825 
Q 1463 481 1925 481 
Q 2391 481 2648 825 
Q 2906 1169 2906 1791 
z
M 3481 434 
Q 3481 -459 3084 -895 
Q 2688 -1331 1869 -1331 
Q 1566 -1331 1297 -1286 
Q 1028 -1241 775 -1147 
L 775 -588 
Q 1028 -725 1275 -790 
Q 1522 -856 1778 -856 
Q 2344 -856 2625 -561 
Q 2906 -266 2906 331 
L 2906 616 
Q 2728 306 2450 153 
Q 2172 0 1784 0 
Q 1141 0 747 490 
Q 353 981 353 1791 
Q 353 2603 747 3093 
Q 1141 3584 1784 3584 
Q 2172 3584 2450 3431 
Q 2728 3278 2906 2969 
L 2906 3500 
L 3481 3500 
L 3481 434 
z
" transform="scale(0.015625)"/>
       <path id="DejaVuSans-28" d="M 1984 4856 
Q 1566 4138 1362 3434 
Q 1159 2731 1159 2009 
Q 1159 1288 1364 580 
Q 1569 -128 1984 -844 
L 1484 -844 
Q 1016 -109 783 600 
Q 550 1309 550 2009 
Q 550 2706 781 3412 
Q 1013 4119 1484 4856 
L 1984 4856 
z
" transform="scale(0.015625)"/>
       <path id="DejaVuSans-29" d="M 513 4856 
L 1013 4856 
Q 1481 4119 1714 3412 
Q 1947 2706 1947 2009 
Q 1947 1309 1714 600 
Q 1481 -109 1013 -844 
L 513 -844 
Q 928 -128 1133 580 
Q 1338 1288 1338 2009 
Q 1338 2731 1133 3434 
Q 928 4138 513 4856 
z
" transform="scale(0.015625)"/>
      </defs>
      <use xlink:href="#DejaVuSans-64"/>
      <use xlink:href="#DejaVuSans-69" x="63.476562"/>
      <use xlink:href="#DejaVuSans-73" x="91.259766"/>
      <use xlink:href="#DejaVuSans-74" x="143.359375"/>
      <use xlink:href="#DejaVuSans-61" x="182.568359"/>
      <use xlink:href="#DejaVuSans-6e" x="243.847656"/>
      <use xlink:href="#DejaVuSans-63" x="307.226562"/>
      <use xlink:href="#DejaVuSans-65" x="362.207031"/>
      <use xlink:href="#DejaVuSans-20" x="423.730469"/>
      <use xlink:href="#DejaVuSans-66" x="455.517578"/>
      <use xlink:href="#DejaVuSans-72" x="490.722656"/>
      <use xlink:href="#DejaVuSans-6f" x="529.585938"/>
      <use xlink:href="#DejaVuSans-6d" x="590.767578"/>
      <use xlink:href="#DejaVuSans-20" x="688.179688"/>
      <use xlink:href="#DejaVuSans-6f" x="719.966797"/>
      <use xlink:href="#DejaVuSans-72" x="781.148438"/>
      <use xlink:href="#DejaVuSans-69" x="822.261719"/>
      <use xlink:href="#DejaVuSans-67" x="850.044922"/>
      <use xlink:href="#DejaVuSans-69" x="913.521484"/>
      <use xlink:href="#DejaVuSans-6e" x="941.304688"/>
      <use xlink:href="#DejaVuSans-20" x="1004.683594"/>
      <use xlink:href="#DejaVuSans-28" x="1036.470703"/>
      <use xlink:href="#DejaVuSans-6d" x="1075.484375"/>
      <use xlink:href="#DejaVuSans-6d" x="1172.896484"/>
      <use xlink:href="#DejaVuSans-29" x="1270.308594"/>
     </g>
    </g>
   </g>
   <g id="matplotlib.axis_2">
    <g id="ytick_1">
     <g id="line2d_8">
      <defs>
       <path id="ma2c5d9fefe" d="M 0 0 
L -3.5 0 
" style="stroke: #0000ff; stroke-width: 0.8"/>
      </defs>
      <g>
       <use xlink:href="#ma2c5d9fefe" x="88.328" y="287.08" style="fill: #0000ff; stroke: #0000ff; stroke-width: 0.8"/>
      </g>
     </g>
     <g id="text_9">
      <!-- 0 -->
      <g style="fill: #0000ff" transform="translate(71.148 293.15875) scale(0.16 -0.16)">
       <use xlink:href="#DejaVuSans-30"/>
      </g>
     </g>
    </g>
    <g id="ytick_2">
     <g id="line2d_9">
      <g>
       <use xlink:href="#ma2c5d9fefe" x="88.328" y="233.12" style="fill: #0000ff; stroke: #0000ff; stroke-width: 0.8"/>
      </g>
     </g>
     <g id="text_10">
      <!-- 500 -->
      <g style="fill: #0000ff" transform="translate(50.788 239.19875) scale(0.16 -0.16)">
       <use xlink:href="#DejaVuSans-35"/>
       <use xlink:href="#DejaVuSans-30" x="63.623047"/>
       <use xlink:href="#DejaVuSans-30" x="127.246094"/>
      </g>
     </g>
    </g>
    <g id="ytick_3">
     <g id="line2d_10">
      <g>
       <use xlink:href="#ma2c5d9fefe" x="88.328" y="179.16" style="fill: #0000ff; stroke: #0000ff; stroke-width: 0.8"/>
      </g>
     </g>
     <g id="text_11">
      <!-- 1000 -->
      <g style="fill: #0000ff" transform="translate(40.608 185.23875) scale(0.16 -0.16)">
       <use xlink:href="#DejaVuSans-31"/>
       <use xlink:href="#DejaVuSans-30" x="63.623047"/>
       <use xlink:href="#DejaVuSans-30" x="127.246094"/>
       <use xlink:href="#DejaVuSans-30" x="190.869141"/>
      </g>
     </g>
    </g>
    <g id="ytick_4">
     <g id="line2d_11">
      <g>
       <use xlink:href="#ma2c5d9fefe" x="88.328" y="125.2" style="fill: #0000ff; stroke: #0000ff; stroke-width: 0.8"/>
      </g>
     </g>
     <g id="text_12">
      <!-- 1500 -->
      <g style="fill: #0000ff" transform="translate(40.608 131.27875) scale(0.16 -0.16)">
       <use xlink:href="#DejaVuSans-31"/>
       <use xlink:href="#DejaVuSans-35" x="63.623047"/>
       <use xlink:href="#DejaVuSans-30" x="127.246094"/>
       <use xlink:href="#DejaVuSans-30" x="190.869141"/>
      </g>
     </g>
    </g>
    <g id="ytick_5">
     <g id="line2d_12">
      <g>
       <use xlink:href="#ma2c5d9fefe" x="88.328" y="71.24" style="fill: #0000ff; stroke: #0000ff; stroke-width: 0.8"/>
      </g>
     </g>
     <g id="text_13">
      <!-- 2000 -->
      <g style="fill: #0000ff" transform="translate(40.608 77.31875) scale(0.16 -0.16)">
       <use xlink:href="#DejaVuSans-32"/>
       <use xlink:href="#DejaVuSans-30" x="63.623047"/>
       <use xlink:href="#DejaVuSans-30" x="127.246094"/>
       <use xlink:href="#DejaVuSans-30" x="190.869141"/>
      </g>
     </g>
    </g>
    <g id="ytick_6">
     <g id="line2d_13">
      <g>
       <use xlink:href="#ma2c5d9fefe" x="88.328" y="17.28" style="fill: #0000ff; stroke: #0000ff; stroke-width: 0.8"/>
      </g>
     </g>
     <g id="text_14">
      <!-- 2500 -->
      <g style="fill: #0000ff" transform="translate(40.608 23.35875) scale(0.16 -0.16)">
       <use xlink:href="#DejaVuSans-32"/>
       <use xlink:href="#DejaVuSans-35" x="63.623047"/>
       <use xlink:href="#DejaVuSans-30" x="127.246094"/>
       <use xlink:href="#DejaVuSans-30" x="190.869141"/>
      </g>
     </g>
    </g>
    <g id="text_15">
     <!-- density ($\mu m.mm^{-2}$) -->
     <g transform="translate(32.408 251.68) rotate(-90) scale(0.2 -0.2)">
      <defs>
       <path id="DejaVuSans-79" d="M 2059 -325 
Q 1816 -950 1584 -1140 
Q 1353 -1331 966 -1331 
L 506 -1331 
L 506 -850 
L 844 -850 
Q 1081 -850 1212 -737 
Q 1344 -625 1503 -206 
L 1606 56 
L 191 3500 
L 800 3500 
L 1894 763 
L 2988 3500 
L 3597 3500 
L 2059 -325 
z
" transform="scale(0.015625)"/>
       <path id="DejaVuSans-Oblique-3bc" d="M -84 -1331 
L 856 3500 
L 1434 3500 
L 1009 1322 
Q 997 1256 987 1175 
Q 978 1094 978 1013 
Q 978 722 1161 565 
Q 1344 409 1684 409 
Q 2147 409 2431 671 
Q 2716 934 2816 1459 
L 3213 3500 
L 3788 3500 
L 3266 809 
Q 3253 750 3248 706 
Q 3244 663 3244 628 
Q 3244 531 3283 486 
Q 3322 441 3406 441 
Q 3438 441 3492 456 
Q 3547 472 3647 513 
L 3559 50 
Q 3422 -19 3297 -55 
Q 3172 -91 3053 -91 
Q 2847 -91 2730 40 
Q 2613 172 2613 403 
Q 2438 153 2195 31 
Q 1953 -91 1625 -91 
Q 1334 -91 1117 43 
Q 900 178 831 397 
L 494 -1331 
L -84 -1331 
z
" transform="scale(0.015625)"/>
       <path id="DejaVuSans-Oblique-6d" d="M 5747 2113 
L 5338 0 
L 4763 0 
L 5166 2094 
Q 5191 2228 5203 2325 
Q 5216 2422 5216 2491 
Q 5216 2772 5059 2928 
Q 4903 3084 4622 3084 
Q 4203 3084 3875 2770 
Q 3547 2456 3450 1953 
L 3066 0 
L 2491 0 
L 2900 2094 
Q 2925 2209 2937 2307 
Q 2950 2406 2950 2484 
Q 2950 2769 2794 2926 
Q 2638 3084 2363 3084 
Q 1938 3084 1609 2770 
Q 1281 2456 1184 1953 
L 800 0 
L 225 0 
L 909 3500 
L 1484 3500 
L 1375 2956 
Q 1609 3263 1923 3423 
Q 2238 3584 2597 3584 
Q 2978 3584 3223 3384 
Q 3469 3184 3519 2828 
Q 3781 3197 4126 3390 
Q 4472 3584 4856 3584 
Q 5306 3584 5551 3325 
Q 5797 3066 5797 2591 
Q 5797 2488 5784 2364 
Q 5772 2241 5747 2113 
z
" transform="scale(0.015625)"/>
       <path id="DejaVuSans-2e" d="M 684 794 
L 1344 794 
L 1344 0 
L 684 0 
L 684 794 
z
" transform="scale(0.015625)"/>
       <path id="DejaVuSans-2212" d="M 678 2272 
L 4684 2272 
L 4684 1741 
L 678 1741 
L 678 2272 
z
" transform="scale(0.015625)"/>
      </defs>
      <use xlink:href="#DejaVuSans-64" transform="translate(0 0.765625)"/>
      <use xlink:href="#DejaVuSans-65" transform="translate(63.476562 0.765625)"/>
      <use xlink:href="#DejaVuSans-6e" transform="translate(125 0.765625)"/>
      <use xlink:href="#DejaVuSans-73" transform="translate(188.378906 0.765625)"/>
      <use xlink:href="#DejaVuSans-69" transform="translate(240.478516 0.765625)"/>
      <use xlink:href="#DejaVuSans-74" transform="translate(268.261719 0.765625)"/>
      <use xlink:href="#DejaVuSans-79" transform="translate(307.470703 0.765625)"/>
      <use xlink:href="#DejaVuSans-20" transform="translate(366.650391 0.765625)"/>
      <use xlink:href="#DejaVuSans-28" transform="translate(398.4375 0.765625)"/>
      <use xlink:href="#DejaVuSans-Oblique-3bc" transform="translate(437.451172 0.765625)"/>
      <use xlink:href="#DejaVuSans-Oblique-6d" transform="translate(501.074219 0.765625)"/>
      <use xlink:href="#DejaVuSans-2e" transform="translate(598.486328 0.765625)"/>
      <use xlink:href="#DejaVuSans-Oblique-6d" transform="translate(649.755859 0.765625)"/>
      <use xlink:href="#DejaVuSans-Oblique-6d" transform="translate(747.167969 0.765625)"/>
      <use xlink:href="#DejaVuSans-2212" transform="translate(849.229974 39.046875) scale(0.7)"/>
      <use xlink:href="#DejaVuSans-32" transform="translate(907.882318 39.046875) scale(0.7)"/>
      <use xlink:href="#DejaVuSans-29" transform="translate(955.152826 0.765625)"/>
     </g>
    </g>
   </g>
   <g id="line2d_14">
    <path d="M 116.169166 282.686719 
L 148.297203 287.08 
L 172.864884 287.08 
L 193.547948 287.08 
L 211.756498 287.08 
L 228.21055 287.08 
L 243.336716 287.08 
L 257.41248 287.08 
L 270.630341 287.08 
L 283.130327 287.08 
L 295.01807 287.08 
L 306.375587 287.08 
L 317.268071 287.08 
L 327.748359 287.08 
L 337.859979 287.08 
L 347.639301 287.08 
L 357.117079 287.08 
L 366.319599 287.08 
L 375.269535 287.08 
L 383.98661 287.08 
" clip-path="url(#p28b8d3f2e4)" style="fill: none; stroke: #0000ff; stroke-linecap: square"/>
    <defs>
     <path id="mfac8e59139" d="M -5 0 
L 5 0 
M 0 5 
L 0 -5 
" style="stroke: #0000ff"/>
    </defs>
    <g clip-path="url(#p28b8d3f2e4)">
     <use xlink:href="#mfac8e59139" x="116.169166" y="282.686719" style="fill: #0000ff; stroke: #0000ff"/>
     <use xlink:href="#mfac8e59139" x="148.297203" y="287.08" style="fill: #0000ff; stroke: #0000ff"/>
     <use xlink:href="#mfac8e59139" x="172.864884" y="287.08" style="fill: #0000ff; stroke: #0000ff"/>
     <use xlink:href="#mfac8e59139" x="193.547948" y="287.08" style="fill: #0000ff; stroke: #0000ff"/>
     <use xlink:href="#mfac8e59139" x="211.756498" y="287.08" style="fill: #0000ff; stroke: #0000ff"/>
     <use xlink:href="#mfac8e59139" x="228.21055" y="287.08" style="fill: #0000ff; stroke: #0000ff"/>
     <use xlink:href="#mfac8e59139" x="243.336716" y="287.08" style="fill: #0000ff; stroke: #0000ff"/>
     <use xlink:href="#mfac8e59139" x="257.41248" y="287.08" style="fill: #0000ff; stroke: #0000ff"/>
     <use xlink:href="#mfac8e59139" x="270.630341" y="287.08" style="fill: #0000ff; stroke: #0000ff"/>
     <use xlink:href="#mfac8e59139" x="283.130327" y="287.08" style="fill: #0000ff; stroke: #0000ff"/>
     <use xlink:href="#mfac8e59139" x="295.01807" y="287.08" style="fill: #0000ff; stroke: #0000ff"/>
     <use xlink:href="#mfac8e59139" x="306.375587" y="287.08" style="fill: #0000ff; stroke: #0000ff"/>
     <use xlink:href="#mfac8e59139" x="317.268071" y="287.08" style="fill: #0000ff; stroke: #0000ff"/>
     <use xlink:href="#mfac8e59139" x="327.748359" y="287.08" style="fill: #0000ff; stroke: #0000ff"/>
     <use xlink:href="#mfac8e59139" x="337.859979" y="287.08" style="fill: #0000ff; stroke: #0000ff"/>
     <use xlink:href="#mfac8e59139" x="347.639301" y="287.08" style="fill: #0000ff; stroke: #0000ff"/>
     <use xlink:href="#mfac8e59139" x="357.117079" y="287.08" style="fill: #0000ff; stroke: #0000ff"/>
     <use xlink:href="#mfac8e59139" x="366.319599" y="287.08" style="fill: #0000ff; stroke: #0000ff"/>
     <use xlink:href="#mfac8e59139" x="375.269535" y="287.08" style="fill: #0000ff; stroke: #0000ff"/>
     <use xlink:href="#mfac8e59139" x="383.98661" y="287.08" style="fill: #0000ff; stroke: #0000ff"/>
    </g>
   </g>
   <g id="line2d_15">
    <path d="M 116.169166 283.732473 
L 119.654277 284.539558 
L 123.67556 285.23467 
L 128.5011 285.824351 
L 134.130896 286.279752 
L 141.369205 286.632169 
L 151.28837 286.878139 
L 167.105416 287.023424 
L 203.565048 287.07699 
L 383.98661 287.08 
L 383.98661 287.08 
" clip-path="url(#p28b8d3f2e4)" style="fill: none; stroke: #0000ff; stroke-width: 3; stroke-linecap: square"/>
   </g>
   <g id="line2d_16">
    <path d="M 116.169166 166.186115 
L 148.297203 234.274503 
L 172.864884 278.839486 
L 193.547948 287.08 
L 211.756498 287.08 
L 228.21055 287.08 
L 243.336716 287.08 
L 257.41248 287.08 
L 270.630341 287.08 
L 283.130327 287.08 
L 295.01807 287.08 
L 306.375587 287.08 
L 317.268071 287.08 
L 327.748359 287.08 
L 337.859979 287.08 
L 347.639301 287.08 
L 357.117079 287.08 
L 366.319599 287.08 
L 375.269535 287.08 
L 383.98661 287.08 
" clip-path="url(#p28b8d3f2e4)" style="fill: none; stroke: #0000ff; stroke-opacity: 0.75; stroke-linecap: square"/>
    <defs>
     <path id="m1d492f105f" d="M -5 0 
L 5 0 
M 0 5 
L 0 -5 
" style="stroke: #0000ff; stroke-opacity: 0.75"/>
    </defs>
    <g clip-path="url(#p28b8d3f2e4)">
     <use xlink:href="#m1d492f105f" x="116.169166" y="166.186115" style="fill: #0000ff; fill-opacity: 0.75; stroke: #0000ff; stroke-opacity: 0.75"/>
     <use xlink:href="#m1d492f105f" x="148.297203" y="234.274503" style="fill: #0000ff; fill-opacity: 0.75; stroke: #0000ff; stroke-opacity: 0.75"/>
     <use xlink:href="#m1d492f105f" x="172.864884" y="278.839486" style="fill: #0000ff; fill-opacity: 0.75; stroke: #0000ff; stroke-opacity: 0.75"/>
     <use xlink:href="#m1d492f105f" x="193.547948" y="287.08" style="fill: #0000ff; fill-opacity: 0.75; stroke: #0000ff; stroke-opacity: 0.75"/>
     <use xlink:href="#m1d492f105f" x="211.756498" y="287.08" style="fill: #0000ff; fill-opacity: 0.75; stroke: #0000ff; stroke-opacity: 0.75"/>
     <use xlink:href="#m1d492f105f" x="228.21055" y="287.08" style="fill: #0000ff; fill-opacity: 0.75; stroke: #0000ff; stroke-opacity: 0.75"/>
     <use xlink:href="#m1d492f105f" x="243.336716" y="287.08" style="fill: #0000ff; fill-opacity: 0.75; stroke: #0000ff; stroke-opacity: 0.75"/>
     <use xlink:href="#m1d492f105f" x="257.41248" y="287.08" style="fill: #0000ff; fill-opacity: 0.75; stroke: #0000ff; stroke-opacity: 0.75"/>
     <use xlink:href="#m1d492f105f" x="270.630341" y="287.08" style="fill: #0000ff; fill-opacity: 0.75; stroke: #0000ff; stroke-opacity: 0.75"/>
     <use xlink:href="#m1d492f105f" x="283.130327" y="287.08" style="fill: #0000ff; fill-opacity: 0.75; stroke: #0000ff; stroke-opacity: 0.75"/>
     <use xlink:href="#m1d492f105f" x="295.01807" y="287.08" style="fill: #0000ff; fill-opacity: 0.75; stroke: #0000ff; stroke-opacity: 0.75"/>
     <use xlink:href="#m1d492f105f" x="306.375587" y="287.08" style="fill: #0000ff; fill-opacity: 0.75; stroke: #0000ff; stroke-opacity: 0.75"/>
     <use xlink:href="#m1d492f105f" x="317.268071" y="287.08" style="fill: #0000ff; fill-opacity: 0.75; stroke: #0000ff; stroke-opacity: 0.75"/>
     <use xlink:href="#m1d492f105f" x="327.748359" y="287.08" style="fill: #0000ff; fill-opacity: 0.75; stroke: #0000ff; stroke-opacity: 0.75"/>
     <use xlink:href="#m1d492f105f" x="337.859979" y="287.08" style="fill: #0000ff; fill-opacity: 0.75; stroke: #0000ff; stroke-opacity: 0.75"/>
     <use xlink:href="#m1d492f105f" x="347.639301" y="287.08" style="fill: #0000ff; fill-opacity: 0.75; stroke: #0000ff; stroke-opacity: 0.75"/>
     <use xlink:href="#m1d492f105f" x="357.117079" y="287.08" style="fill: #0000ff; fill-opacity: 0.75; stroke: #0000ff; stroke-opacity: 0.75"/>
     <use xlink:href="#m1d492f105f" x="366.319599" y="287.08" style="fill: #0000ff; fill-opacity: 0.75; stroke: #0000ff; stroke-opacity: 0.75"/>
     <use xlink:href="#m1d492f105f" x="375.269535" y="287.08" style="fill: #0000ff; fill-opacity: 0.75; stroke: #0000ff; stroke-opacity: 0.75"/>
     <use xlink:href="#m1d492f105f" x="383.98661" y="287.08" style="fill: #0000ff; fill-opacity: 0.75; stroke: #0000ff; stroke-opacity: 0.75"/>
    </g>
   </g>
   <g id="line2d_17">
    <path d="M 116.169166 133.622117 
L 118.31385 137.726667 
L 120.458534 142.327692 
L 122.603218 147.439831 
L 125.015988 153.802886 
L 127.428758 160.790735 
L 130.109613 169.221601 
L 133.326639 180.096699 
L 138.152179 197.325984 
L 144.050061 218.248493 
L 147.267087 228.860653 
L 149.947942 237.009675 
L 152.360712 243.712949 
L 154.773482 249.777112 
L 156.918166 254.621908 
L 159.06285 258.961752 
L 161.207535 262.816969 
L 163.352219 266.216375 
L 165.496903 269.194317 
L 167.641587 271.788135 
L 169.786272 274.036121 
L 171.930956 275.975964 
L 174.07564 277.643658 
L 176.48841 279.236212 
L 178.90118 280.570271 
L 181.582035 281.796324 
L 184.530976 282.886443 
L 187.748002 283.825594 
L 191.233114 284.610542 
L 195.254397 285.286429 
L 200.079937 285.859684 
L 205.977818 286.318853 
L 213.484213 286.66316 
L 223.939549 286.900052 
L 241.097023 287.034726 
L 283.990707 287.078565 
L 383.98661 287.08 
L 383.98661 287.08 
" clip-path="url(#p28b8d3f2e4)" style="fill: none; stroke: #0000ff; stroke-opacity: 0.75; stroke-width: 3; stroke-linecap: square"/>
   </g>
   <g id="line2d_18">
    <path d="M 116.169166 133.388932 
L 148.297203 101.566 
L 172.864884 120.55332 
L 193.547948 122.840483 
L 211.756498 206.591926 
L 228.21055 262.432328 
L 243.336716 287.08 
L 257.41248 287.08 
L 270.630341 287.08 
L 283.130327 287.08 
L 295.01807 287.08 
L 306.375587 287.08 
L 317.268071 287.08 
L 327.748359 287.08 
L 337.859979 287.08 
L 347.639301 287.08 
L 357.117079 287.08 
L 366.319599 287.08 
L 375.269535 287.08 
L 383.98661 287.08 
" clip-path="url(#p28b8d3f2e4)" style="fill: none; stroke: #0000ff; stroke-opacity: 0.5; stroke-linecap: square"/>
    <defs>
     <path id="m1894a1e0a1" d="M -5 0 
L 5 0 
M 0 5 
L 0 -5 
" style="stroke: #0000ff; stroke-opacity: 0.5"/>
    </defs>
    <g clip-path="url(#p28b8d3f2e4)">
     <use xlink:href="#m1894a1e0a1" x="116.169166" y="133.388932" style="fill: #0000ff; fill-opacity: 0.5; stroke: #0000ff; stroke-opacity: 0.5"/>
     <use xlink:href="#m1894a1e0a1" x="148.297203" y="101.566" style="fill: #0000ff; fill-opacity: 0.5; stroke: #0000ff; stroke-opacity: 0.5"/>
     <use xlink:href="#m1894a1e0a1" x="172.864884" y="120.55332" style="fill: #0000ff; fill-opacity: 0.5; stroke: #0000ff; stroke-opacity: 0.5"/>
     <use xlink:href="#m1894a1e0a1" x="193.547948" y="122.840483" style="fill: #0000ff; fill-opacity: 0.5; stroke: #0000ff; stroke-opacity: 0.5"/>
     <use xlink:href="#m1894a1e0a1" x="211.756498" y="206.591926" style="fill: #0000ff; fill-opacity: 0.5; stroke: #0000ff; stroke-opacity: 0.5"/>
     <use xlink:href="#m1894a1e0a1" x="228.21055" y="262.432328" style="fill: #0000ff; fill-opacity: 0.5; stroke: #0000ff; stroke-opacity: 0.5"/>
     <use xlink:href="#m1894a1e0a1" x="243.336716" y="287.08" style="fill: #0000ff; fill-opacity: 0.5; stroke: #0000ff; stroke-opacity: 0.5"/>
     <use xlink:href="#m1894a1e0a1" x="257.41248" y="287.08" style="fill: #0000ff; fill-opacity: 0.5; stroke: #0000ff; stroke-opacity: 0.5"/>
     <use xlink:href="#m1894a1e0a1" x="270.630341" y="287.08" style="fill: #0000ff; fill-opacity: 0.5; stroke: #0000ff; stroke-opacity: 0.5"/>
     <use xlink:href="#m1894a1e0a1" x="283.130327" y="287.08" style="fill: #0000ff; fill-opacity: 0.5; stroke: #0000ff; stroke-opacity: 0.5"/>
     <use xlink:href="#m1894a1e0a1" x="295.01807" y="287.08" style="fill: #0000ff; fill-opacity: 0.5; stroke: #0000ff; stroke-opacity: 0.5"/>
     <use xlink:href="#m1894a1e0a1" x="306.375587" y="287.08" style="fill: #0000ff; fill-opacity: 0.5; stroke: #0000ff; stroke-opacity: 0.5"/>
     <use xlink:href="#m1894a1e0a1" x="317.268071" y="287.08" style="fill: #0000ff; fill-opacity: 0.5; stroke: #0000ff; stroke-opacity: 0.5"/>
     <use xlink:href="#m1894a1e0a1" x="327.748359" y="287.08" style="fill: #0000ff; fill-opacity: 0.5; stroke: #0000ff; stroke-opacity: 0.5"/>
     <use xlink:href="#m1894a1e0a1" x="337.859979" y="287.08" style="fill: #0000ff; fill-opacity: 0.5; stroke: #0000ff; stroke-opacity: 0.5"/>
     <use xlink:href="#m1894a1e0a1" x="347.639301" y="287.08" style="fill: #0000ff; fill-opacity: 0.5; stroke: #0000ff; stroke-opacity: 0.5"/>
     <use xlink:href="#m1894a1e0a1" x="357.117079" y="287.08" style="fill: #0000ff; fill-opacity: 0.5; stroke: #0000ff; stroke-opacity: 0.5"/>
     <use xlink:href="#m1894a1e0a1" x="366.319599" y="287.08" style="fill: #0000ff; fill-opacity: 0.5; stroke: #0000ff; stroke-opacity: 0.5"/>
     <use xlink:href="#m1894a1e0a1" x="375.269535" y="287.08" style="fill: #0000ff; fill-opacity: 0.5; stroke: #0000ff; stroke-opacity: 0.5"/>
     <use xlink:href="#m1894a1e0a1" x="383.98661" y="287.08" style="fill: #0000ff; fill-opacity: 0.5; stroke: #0000ff; stroke-opacity: 0.5"/>
    </g>
   </g>
   <g id="line2d_19">
    <path d="M 116.169166 107.512509 
L 130.91387 107.746297 
L 139.760692 108.094436 
L 146.194745 108.555979 
L 151.28837 109.131236 
L 155.577738 109.831387 
L 159.330936 110.669804 
L 162.547962 111.610594 
L 165.496903 112.702592 
L 168.177758 113.93073 
L 170.590528 115.267023 
L 173.003298 116.862197 
L 175.147982 118.532578 
L 177.292666 120.475477 
L 179.437351 122.726909 
L 181.582035 125.324575 
L 183.726719 128.306767 
L 185.871403 131.710804 
L 188.016088 135.57099 
L 190.160772 139.916066 
L 192.305456 144.766253 
L 194.45014 150.130042 
L 196.86291 156.769565 
L 199.543765 164.854221 
L 202.492706 174.494909 
L 206.245904 187.592556 
L 216.165068 222.693142 
L 219.114009 232.135292 
L 221.794864 240.003624 
L 224.207634 246.431792 
L 226.620404 252.213022 
L 228.765088 256.808718 
L 230.909772 260.908154 
L 233.054457 264.536202 
L 235.199141 267.724732 
L 237.343825 270.509845 
L 239.488509 272.92957 
L 241.633194 275.022067 
L 243.777878 276.824308 
L 246.190648 278.548212 
L 248.603417 279.99446 
L 251.284273 281.325358 
L 253.965128 282.413029 
L 256.914069 283.378611 
L 260.399181 284.269652 
L 264.152378 284.993745 
L 268.441747 285.597699 
L 273.803457 286.114367 
L 280.505596 286.515636 
L 289.352418 286.80262 
L 302.488609 286.983522 
L 327.688649 287.067296 
L 383.98661 287.079863 
L 383.98661 287.079863 
" clip-path="url(#p28b8d3f2e4)" style="fill: none; stroke: #0000ff; stroke-opacity: 0.5; stroke-width: 3; stroke-linecap: square"/>
   </g>
   <g id="line2d_20">
    <path d="M 116.169166 131.682499 
L 148.297203 92.338123 
L 172.864884 100.931741 
L 193.547948 99.001175 
L 211.756498 107.508575 
L 228.21055 132.891462 
L 243.336716 111.114227 
L 257.41248 120.555632 
L 270.630341 169.459049 
L 283.130327 192.061843 
L 295.01807 226.180243 
L 306.375587 271.379747 
L 317.268071 285.799003 
L 327.748359 287.08 
L 337.859979 287.08 
L 347.639301 287.08 
L 357.117079 285.883361 
L 366.319599 287.08 
L 375.269535 287.08 
L 383.98661 285.860276 
" clip-path="url(#p28b8d3f2e4)" style="fill: none; stroke: #0000ff; stroke-opacity: 0.25; stroke-linecap: square"/>
    <defs>
     <path id="m5dd1800cfb" d="M -5 0 
L 5 0 
M 0 5 
L 0 -5 
" style="stroke: #0000ff; stroke-opacity: 0.25"/>
    </defs>
    <g clip-path="url(#p28b8d3f2e4)">
     <use xlink:href="#m5dd1800cfb" x="116.169166" y="131.682499" style="fill: #0000ff; fill-opacity: 0.25; stroke: #0000ff; stroke-opacity: 0.25"/>
     <use xlink:href="#m5dd1800cfb" x="148.297203" y="92.338123" style="fill: #0000ff; fill-opacity: 0.25; stroke: #0000ff; stroke-opacity: 0.25"/>
     <use xlink:href="#m5dd1800cfb" x="172.864884" y="100.931741" style="fill: #0000ff; fill-opacity: 0.25; stroke: #0000ff; stroke-opacity: 0.25"/>
     <use xlink:href="#m5dd1800cfb" x="193.547948" y="99.001175" style="fill: #0000ff; fill-opacity: 0.25; stroke: #0000ff; stroke-opacity: 0.25"/>
     <use xlink:href="#m5dd1800cfb" x="211.756498" y="107.508575" style="fill: #0000ff; fill-opacity: 0.25; stroke: #0000ff; stroke-opacity: 0.25"/>
     <use xlink:href="#m5dd1800cfb" x="228.21055" y="132.891462" style="fill: #0000ff; fill-opacity: 0.25; stroke: #0000ff; stroke-opacity: 0.25"/>
     <use xlink:href="#m5dd1800cfb" x="243.336716" y="111.114227" style="fill: #0000ff; fill-opacity: 0.25; stroke: #0000ff; stroke-opacity: 0.25"/>
     <use xlink:href="#m5dd1800cfb" x="257.41248" y="120.555632" style="fill: #0000ff; fill-opacity: 0.25; stroke: #0000ff; stroke-opacity: 0.25"/>
     <use xlink:href="#m5dd1800cfb" x="270.630341" y="169.459049" style="fill: #0000ff; fill-opacity: 0.25; stroke: #0000ff; stroke-opacity: 0.25"/>
     <use xlink:href="#m5dd1800cfb" x="283.130327" y="192.061843" style="fill: #0000ff; fill-opacity: 0.25; stroke: #0000ff; stroke-opacity: 0.25"/>
     <use xlink:href="#m5dd1800cfb" x="295.01807" y="226.180243" style="fill: #0000ff; fill-opacity: 0.25; stroke: #0000ff; stroke-opacity: 0.25"/>
     <use xlink:href="#m5dd1800cfb" x="306.375587" y="271.379747" style="fill: #0000ff; fill-opacity: 0.25; stroke: #0000ff; stroke-opacity: 0.25"/>
     <use xlink:href="#m5dd1800cfb" x="317.268071" y="285.799003" style="fill: #0000ff; fill-opacity: 0.25; stroke: #0000ff; stroke-opacity: 0.25"/>
     <use xlink:href="#m5dd1800cfb" x="327.748359" y="287.08" style="fill: #0000ff; fill-opacity: 0.25; stroke: #0000ff; stroke-opacity: 0.25"/>
     <use xlink:href="#m5dd1800cfb" x="337.859979" y="287.08" style="fill: #0000ff; fill-opacity: 0.25; stroke: #0000ff; stroke-opacity: 0.25"/>
     <use xlink:href="#m5dd1800cfb" x="347.639301" y="287.08" style="fill: #0000ff; fill-opacity: 0.25; stroke: #0000ff; stroke-opacity: 0.25"/>
     <use xlink:href="#m5dd1800cfb" x="357.117079" y="285.883361" style="fill: #0000ff; fill-opacity: 0.25; stroke: #0000ff; stroke-opacity: 0.25"/>
     <use xlink:href="#m5dd1800cfb" x="366.319599" y="287.08" style="fill: #0000ff; fill-opacity: 0.25; stroke: #0000ff; stroke-opacity: 0.25"/>
     <use xlink:href="#m5dd1800cfb" x="375.269535" y="287.08" style="fill: #0000ff; fill-opacity: 0.25; stroke: #0000ff; stroke-opacity: 0.25"/>
     <use xlink:href="#m5dd1800cfb" x="383.98661" y="285.860276" style="fill: #0000ff; fill-opacity: 0.25; stroke: #0000ff; stroke-opacity: 0.25"/>
    </g>
   </g>
   <g id="line2d_21">
    <path d="M 116.169166 107.409919 
L 188.284173 107.521018 
L 202.492706 107.758733 
L 211.339529 108.119679 
L 217.773582 108.59812 
L 222.867207 109.194312 
L 227.156575 109.919752 
L 230.909772 110.788178 
L 234.126799 111.762285 
L 237.07574 112.89248 
L 239.756595 114.162972 
L 242.169365 115.544619 
L 244.582135 117.19294 
L 246.726819 118.917816 
L 248.871503 120.92261 
L 251.016187 123.243766 
L 253.160871 125.919215 
L 255.305556 128.987188 
L 257.45024 132.484558 
L 259.594924 136.444684 
L 261.739608 140.89477 
L 263.884293 145.85284 
L 266.297062 152.044265 
L 268.709832 158.869503 
L 271.390688 167.140451 
L 274.607714 177.86829 
L 278.897082 193.066361 
L 286.135392 218.798239 
L 289.352418 229.369773 
L 292.033273 237.476637 
L 294.446043 244.13811 
L 296.858813 250.158925 
L 299.003497 254.965318 
L 301.148181 259.267921 
L 303.292866 263.087805 
L 305.43755 266.454302 
L 307.582234 269.402064 
L 309.726918 271.968569 
L 311.871603 274.192109 
L 314.016287 276.110282 
L 316.429057 277.947738 
L 318.841826 279.491261 
L 321.254596 280.783531 
L 323.935451 281.970603 
L 326.884392 283.025601 
L 330.101419 283.934147 
L 333.586531 284.693266 
L 337.607814 285.346733 
L 342.433353 285.900841 
L 348.331235 286.344588 
L 355.83763 286.67728 
L 366.561051 286.909862 
L 383.98661 287.038109 
L 383.98661 287.038109 
" clip-path="url(#p28b8d3f2e4)" style="fill: none; stroke: #0000ff; stroke-opacity: 0.25; stroke-width: 3; stroke-linecap: square"/>
   </g>
   <g id="patch_3">
    <path d="M 88.328 287.08 
L 88.328 17.28 
" style="fill: none; stroke: #000000; stroke-width: 0.8; stroke-linejoin: miter; stroke-linecap: square"/>
   </g>
   <g id="patch_4">
    <path d="M 377.602 287.08 
L 377.602 17.28 
" style="fill: none; stroke: #000000; stroke-width: 0.8; stroke-linejoin: miter; stroke-linecap: square"/>
   </g>
   <g id="patch_5">
    <path d="M 88.328 287.08 
L 377.602 287.08 
" style="fill: none; stroke: #000000; stroke-width: 0.8; stroke-linejoin: miter; stroke-linecap: square"/>
   </g>
   <g id="patch_6">
    <path d="M 88.328 17.28 
L 377.602 17.28 
" style="fill: none; stroke: #000000; stroke-width: 0.8; stroke-linejoin: miter; stroke-linecap: square"/>
   </g>
   <g id="legend_1">
    <g id="patch_7">
     <path d="M 238.728563 83.9925 
L 370.602 83.9925 
Q 372.602 83.9925 372.602 81.9925 
L 372.602 24.28 
Q 372.602 22.28 370.602 22.28 
L 238.728563 22.28 
Q 236.728563 22.28 236.728563 24.28 
L 236.728563 81.9925 
Q 236.728563 83.9925 238.728563 83.9925 
z
" style="fill: #ffffff; opacity: 0.8; stroke: #cccccc; stroke-linejoin: miter"/>
    </g>
    <g id="line2d_22">
     <path d="M 240.728563 30.378438 
L 250.728563 30.378438 
L 260.728563 30.378438 
" style="fill: none; stroke: #0000ff; stroke-linecap: square"/>
     <g>
      <use xlink:href="#mfac8e59139" x="250.728563" y="30.378438" style="fill: #0000ff; stroke: #0000ff"/>
     </g>
    </g>
    <g id="text_16">
     <!-- t=0 days 00:00:00h -->
     <g transform="translate(268.728563 33.878438) scale(0.1 -0.1)">
      <defs>
       <path id="DejaVuSans-3d" d="M 678 2906 
L 4684 2906 
L 4684 2381 
L 678 2381 
L 678 2906 
z
M 678 1631 
L 4684 1631 
L 4684 1100 
L 678 1100 
L 678 1631 
z
" transform="scale(0.015625)"/>
       <path id="DejaVuSans-3a" d="M 750 794 
L 1409 794 
L 1409 0 
L 750 0 
L 750 794 
z
M 750 3309 
L 1409 3309 
L 1409 2516 
L 750 2516 
L 750 3309 
z
" transform="scale(0.015625)"/>
       <path id="DejaVuSans-68" d="M 3513 2113 
L 3513 0 
L 2938 0 
L 2938 2094 
Q 2938 2591 2744 2837 
Q 2550 3084 2163 3084 
Q 1697 3084 1428 2787 
Q 1159 2491 1159 1978 
L 1159 0 
L 581 0 
L 581 4863 
L 1159 4863 
L 1159 2956 
Q 1366 3272 1645 3428 
Q 1925 3584 2291 3584 
Q 2894 3584 3203 3211 
Q 3513 2838 3513 2113 
z
" transform="scale(0.015625)"/>
      </defs>
      <use xlink:href="#DejaVuSans-74"/>
      <use xlink:href="#DejaVuSans-3d" x="39.208984"/>
      <use xlink:href="#DejaVuSans-30" x="122.998047"/>
      <use xlink:href="#DejaVuSans-20" x="186.621094"/>
      <use xlink:href="#DejaVuSans-64" x="218.408203"/>
      <use xlink:href="#DejaVuSans-61" x="281.884766"/>
      <use xlink:href="#DejaVuSans-79" x="343.164062"/>
      <use xlink:href="#DejaVuSans-73" x="402.34375"/>
      <use xlink:href="#DejaVuSans-20" x="454.443359"/>
      <use xlink:href="#DejaVuSans-30" x="486.230469"/>
      <use xlink:href="#DejaVuSans-30" x="549.853516"/>
      <use xlink:href="#DejaVuSans-3a" x="613.476562"/>
      <use xlink:href="#DejaVuSans-30" x="647.167969"/>
      <use xlink:href="#DejaVuSans-30" x="710.791016"/>
      <use xlink:href="#DejaVuSans-3a" x="774.414062"/>
      <use xlink:href="#DejaVuSans-30" x="808.105469"/>
      <use xlink:href="#DejaVuSans-30" x="871.728516"/>
      <use xlink:href="#DejaVuSans-68" x="935.351562"/>
     </g>
    </g>
    <g id="line2d_23">
     <path d="M 240.728563 45.056563 
L 250.728563 45.056563 
L 260.728563 45.056563 
" style="fill: none; stroke: #0000ff; stroke-opacity: 0.75; stroke-linecap: square"/>
     <g>
      <use xlink:href="#m1d492f105f" x="250.728563" y="45.056563" style="fill: #0000ff; fill-opacity: 0.75; stroke: #0000ff; stroke-opacity: 0.75"/>
     </g>
    </g>
    <g id="text_17">
     <!-- t=1 days 01:09:00h -->
     <g transform="translate(268.728563 48.556563) scale(0.1 -0.1)">
      <defs>
       <path id="DejaVuSans-39" d="M 703 97 
L 703 672 
Q 941 559 1184 500 
Q 1428 441 1663 441 
Q 2288 441 2617 861 
Q 2947 1281 2994 2138 
Q 2813 1869 2534 1725 
Q 2256 1581 1919 1581 
Q 1219 1581 811 2004 
Q 403 2428 403 3163 
Q 403 3881 828 4315 
Q 1253 4750 1959 4750 
Q 2769 4750 3195 4129 
Q 3622 3509 3622 2328 
Q 3622 1225 3098 567 
Q 2575 -91 1691 -91 
Q 1453 -91 1209 -44 
Q 966 3 703 97 
z
M 1959 2075 
Q 2384 2075 2632 2365 
Q 2881 2656 2881 3163 
Q 2881 3666 2632 3958 
Q 2384 4250 1959 4250 
Q 1534 4250 1286 3958 
Q 1038 3666 1038 3163 
Q 1038 2656 1286 2365 
Q 1534 2075 1959 2075 
z
" transform="scale(0.015625)"/>
      </defs>
      <use xlink:href="#DejaVuSans-74"/>
      <use xlink:href="#DejaVuSans-3d" x="39.208984"/>
      <use xlink:href="#DejaVuSans-31" x="122.998047"/>
      <use xlink:href="#DejaVuSans-20" x="186.621094"/>
      <use xlink:href="#DejaVuSans-64" x="218.408203"/>
      <use xlink:href="#DejaVuSans-61" x="281.884766"/>
      <use xlink:href="#DejaVuSans-79" x="343.164062"/>
      <use xlink:href="#DejaVuSans-73" x="402.34375"/>
      <use xlink:href="#DejaVuSans-20" x="454.443359"/>
      <use xlink:href="#DejaVuSans-30" x="486.230469"/>
      <use xlink:href="#DejaVuSans-31" x="549.853516"/>
      <use xlink:href="#DejaVuSans-3a" x="613.476562"/>
      <use xlink:href="#DejaVuSans-30" x="647.167969"/>
      <use xlink:href="#DejaVuSans-39" x="710.791016"/>
      <use xlink:href="#DejaVuSans-3a" x="774.414062"/>
      <use xlink:href="#DejaVuSans-30" x="808.105469"/>
      <use xlink:href="#DejaVuSans-30" x="871.728516"/>
      <use xlink:href="#DejaVuSans-68" x="935.351562"/>
     </g>
    </g>
    <g id="line2d_24">
     <path d="M 240.728563 59.734688 
L 250.728563 59.734688 
L 260.728563 59.734688 
" style="fill: none; stroke: #0000ff; stroke-opacity: 0.5; stroke-linecap: square"/>
     <g>
      <use xlink:href="#m1894a1e0a1" x="250.728563" y="59.734688" style="fill: #0000ff; fill-opacity: 0.5; stroke: #0000ff; stroke-opacity: 0.5"/>
     </g>
    </g>
    <g id="text_18">
     <!-- t=2 days 02:09:00h -->
     <g transform="translate(268.728563 63.234688) scale(0.1 -0.1)">
      <use xlink:href="#DejaVuSans-74"/>
      <use xlink:href="#DejaVuSans-3d" x="39.208984"/>
      <use xlink:href="#DejaVuSans-32" x="122.998047"/>
      <use xlink:href="#DejaVuSans-20" x="186.621094"/>
      <use xlink:href="#DejaVuSans-64" x="218.408203"/>
      <use xlink:href="#DejaVuSans-61" x="281.884766"/>
      <use xlink:href="#DejaVuSans-79" x="343.164062"/>
      <use xlink:href="#DejaVuSans-73" x="402.34375"/>
      <use xlink:href="#DejaVuSans-20" x="454.443359"/>
      <use xlink:href="#DejaVuSans-30" x="486.230469"/>
      <use xlink:href="#DejaVuSans-32" x="549.853516"/>
      <use xlink:href="#DejaVuSans-3a" x="613.476562"/>
      <use xlink:href="#DejaVuSans-30" x="647.167969"/>
      <use xlink:href="#DejaVuSans-39" x="710.791016"/>
      <use xlink:href="#DejaVuSans-3a" x="774.414062"/>
      <use xlink:href="#DejaVuSans-30" x="808.105469"/>
      <use xlink:href="#DejaVuSans-30" x="871.728516"/>
      <use xlink:href="#DejaVuSans-68" x="935.351562"/>
     </g>
    </g>
    <g id="line2d_25">
     <path d="M 240.728563 74.412813 
L 250.728563 74.412813 
L 260.728563 74.412813 
" style="fill: none; stroke: #0000ff; stroke-opacity: 0.25; stroke-linecap: square"/>
     <g>
      <use xlink:href="#m5dd1800cfb" x="250.728563" y="74.412813" style="fill: #0000ff; fill-opacity: 0.25; stroke: #0000ff; stroke-opacity: 0.25"/>
     </g>
    </g>
    <g id="text_19">
     <!-- t=3 days 03:16:00h -->
     <g transform="translate(268.728563 77.912813) scale(0.1 -0.1)">
      <defs>
       <path id="DejaVuSans-36" d="M 2113 2584 
Q 1688 2584 1439 2293 
Q 1191 2003 1191 1497 
Q 1191 994 1439 701 
Q 1688 409 2113 409 
Q 2538 409 2786 701 
Q 3034 994 3034 1497 
Q 3034 2003 2786 2293 
Q 2538 2584 2113 2584 
z
M 3366 4563 
L 3366 3988 
Q 3128 4100 2886 4159 
Q 2644 4219 2406 4219 
Q 1781 4219 1451 3797 
Q 1122 3375 1075 2522 
Q 1259 2794 1537 2939 
Q 1816 3084 2150 3084 
Q 2853 3084 3261 2657 
Q 3669 2231 3669 1497 
Q 3669 778 3244 343 
Q 2819 -91 2113 -91 
Q 1303 -91 875 529 
Q 447 1150 447 2328 
Q 447 3434 972 4092 
Q 1497 4750 2381 4750 
Q 2619 4750 2861 4703 
Q 3103 4656 3366 4563 
z
" transform="scale(0.015625)"/>
      </defs>
      <use xlink:href="#DejaVuSans-74"/>
      <use xlink:href="#DejaVuSans-3d" x="39.208984"/>
      <use xlink:href="#DejaVuSans-33" x="122.998047"/>
      <use xlink:href="#DejaVuSans-20" x="186.621094"/>
      <use xlink:href="#DejaVuSans-64" x="218.408203"/>
      <use xlink:href="#DejaVuSans-61" x="281.884766"/>
      <use xlink:href="#DejaVuSans-79" x="343.164062"/>
      <use xlink:href="#DejaVuSans-73" x="402.34375"/>
      <use xlink:href="#DejaVuSans-20" x="454.443359"/>
      <use xlink:href="#DejaVuSans-30" x="486.230469"/>
      <use xlink:href="#DejaVuSans-33" x="549.853516"/>
      <use xlink:href="#DejaVuSans-3a" x="613.476562"/>
      <use xlink:href="#DejaVuSans-31" x="647.167969"/>
      <use xlink:href="#DejaVuSans-36" x="710.791016"/>
      <use xlink:href="#DejaVuSans-3a" x="774.414062"/>
      <use xlink:href="#DejaVuSans-30" x="808.105469"/>
      <use xlink:href="#DejaVuSans-30" x="871.728516"/>
      <use xlink:href="#DejaVuSans-68" x="935.351562"/>
     </g>
    </g>
   </g>
  </g>
  <g id="axes_2">
   <g id="PathCollection_1">
    <defs>
     <path id="m07c82f938b" d="M 0 2.5 
C 0.663008 2.5 1.29895 2.236584 1.767767 1.767767 
C 2.236584 1.29895 2.5 0.663008 2.5 0 
C 2.5 -0.663008 2.236584 -1.29895 1.767767 -1.767767 
C 1.29895 -2.236584 0.663008 -2.5 0 -2.5 
C -0.663008 -2.5 -1.29895 -2.236584 -1.767767 -1.767767 
C -2.236584 -1.29895 -2.5 -0.663008 -2.5 0 
C -2.5 0.663008 -2.236584 1.29895 -1.767767 1.767767 
C -1.29895 2.236584 -0.663008 2.5 0 2.5 
z
" style="stroke: #ff0000"/>
    </defs>
    <g clip-path="url(#p28b8d3f2e4)">
     <use xlink:href="#m07c82f938b" x="116.169166" y="252.661473" style="fill: #ff0000; stroke: #ff0000"/>
     <use xlink:href="#m07c82f938b" x="148.297203" y="287.08" style="fill: #ff0000; stroke: #ff0000"/>
     <use xlink:href="#m07c82f938b" x="172.864884" y="287.08" style="fill: #ff0000; stroke: #ff0000"/>
     <use xlink:href="#m07c82f938b" x="193.547948" y="287.08" style="fill: #ff0000; stroke: #ff0000"/>
     <use xlink:href="#m07c82f938b" x="211.756498" y="287.08" style="fill: #ff0000; stroke: #ff0000"/>
     <use xlink:href="#m07c82f938b" x="228.21055" y="287.08" style="fill: #ff0000; stroke: #ff0000"/>
     <use xlink:href="#m07c82f938b" x="243.336716" y="287.08" style="fill: #ff0000; stroke: #ff0000"/>
     <use xlink:href="#m07c82f938b" x="257.41248" y="287.08" style="fill: #ff0000; stroke: #ff0000"/>
     <use xlink:href="#m07c82f938b" x="270.630341" y="287.08" style="fill: #ff0000; stroke: #ff0000"/>
     <use xlink:href="#m07c82f938b" x="283.130327" y="287.08" style="fill: #ff0000; stroke: #ff0000"/>
     <use xlink:href="#m07c82f938b" x="295.01807" y="287.08" style="fill: #ff0000; stroke: #ff0000"/>
     <use xlink:href="#m07c82f938b" x="306.375587" y="287.08" style="fill: #ff0000; stroke: #ff0000"/>
     <use xlink:href="#m07c82f938b" x="317.268071" y="287.08" style="fill: #ff0000; stroke: #ff0000"/>
     <use xlink:href="#m07c82f938b" x="327.748359" y="287.08" style="fill: #ff0000; stroke: #ff0000"/>
     <use xlink:href="#m07c82f938b" x="337.859979" y="287.08" style="fill: #ff0000; stroke: #ff0000"/>
     <use xlink:href="#m07c82f938b" x="347.639301" y="287.08" style="fill: #ff0000; stroke: #ff0000"/>
     <use xlink:href="#m07c82f938b" x="357.117079" y="287.08" style="fill: #ff0000; stroke: #ff0000"/>
     <use xlink:href="#m07c82f938b" x="366.319599" y="287.08" style="fill: #ff0000; stroke: #ff0000"/>
     <use xlink:href="#m07c82f938b" x="375.269535" y="287.08" style="fill: #ff0000; stroke: #ff0000"/>
     <use xlink:href="#m07c82f938b" x="383.98661" y="287.08" style="fill: #ff0000; stroke: #ff0000"/>
    </g>
   </g>
   <g id="PathCollection_2">
    <defs>
     <path id="md42ccb5ce5" d="M 0 2.5 
C 0.663008 2.5 1.29895 2.236584 1.767767 1.767767 
C 2.236584 1.29895 2.5 0.663008 2.5 0 
C 2.5 -0.663008 2.236584 -1.29895 1.767767 -1.767767 
C 1.29895 -2.236584 0.663008 -2.5 0 -2.5 
C -0.663008 -2.5 -1.29895 -2.236584 -1.767767 -1.767767 
C -2.236584 -1.29895 -2.5 -0.663008 -2.5 0 
C -2.5 0.663008 -2.236584 1.29895 -1.767767 1.767767 
C -1.29895 2.236584 -0.663008 2.5 0 2.5 
z
" style="stroke: #ff0000; stroke-opacity: 0.75"/>
    </defs>
    <g clip-path="url(#p28b8d3f2e4)">
     <use xlink:href="#md42ccb5ce5" x="116.169166" y="252.661473" style="fill: #ff0000; fill-opacity: 0.75; stroke: #ff0000; stroke-opacity: 0.75"/>
     <use xlink:href="#md42ccb5ce5" x="148.297203" y="137.661837" style="fill: #ff0000; fill-opacity: 0.75; stroke: #ff0000; stroke-opacity: 0.75"/>
     <use xlink:href="#md42ccb5ce5" x="172.864884" y="246.084967" style="fill: #ff0000; fill-opacity: 0.75; stroke: #ff0000; stroke-opacity: 0.75"/>
     <use xlink:href="#md42ccb5ce5" x="193.547948" y="287.08" style="fill: #ff0000; fill-opacity: 0.75; stroke: #ff0000; stroke-opacity: 0.75"/>
     <use xlink:href="#md42ccb5ce5" x="211.756498" y="287.08" style="fill: #ff0000; fill-opacity: 0.75; stroke: #ff0000; stroke-opacity: 0.75"/>
     <use xlink:href="#md42ccb5ce5" x="228.21055" y="287.08" style="fill: #ff0000; fill-opacity: 0.75; stroke: #ff0000; stroke-opacity: 0.75"/>
     <use xlink:href="#md42ccb5ce5" x="243.336716" y="287.08" style="fill: #ff0000; fill-opacity: 0.75; stroke: #ff0000; stroke-opacity: 0.75"/>
     <use xlink:href="#md42ccb5ce5" x="257.41248" y="287.08" style="fill: #ff0000; fill-opacity: 0.75; stroke: #ff0000; stroke-opacity: 0.75"/>
     <use xlink:href="#md42ccb5ce5" x="270.630341" y="287.08" style="fill: #ff0000; fill-opacity: 0.75; stroke: #ff0000; stroke-opacity: 0.75"/>
     <use xlink:href="#md42ccb5ce5" x="283.130327" y="287.08" style="fill: #ff0000; fill-opacity: 0.75; stroke: #ff0000; stroke-opacity: 0.75"/>
     <use xlink:href="#md42ccb5ce5" x="295.01807" y="287.08" style="fill: #ff0000; fill-opacity: 0.75; stroke: #ff0000; stroke-opacity: 0.75"/>
     <use xlink:href="#md42ccb5ce5" x="306.375587" y="287.08" style="fill: #ff0000; fill-opacity: 0.75; stroke: #ff0000; stroke-opacity: 0.75"/>
     <use xlink:href="#md42ccb5ce5" x="317.268071" y="287.08" style="fill: #ff0000; fill-opacity: 0.75; stroke: #ff0000; stroke-opacity: 0.75"/>
     <use xlink:href="#md42ccb5ce5" x="327.748359" y="287.08" style="fill: #ff0000; fill-opacity: 0.75; stroke: #ff0000; stroke-opacity: 0.75"/>
     <use xlink:href="#md42ccb5ce5" x="337.859979" y="287.08" style="fill: #ff0000; fill-opacity: 0.75; stroke: #ff0000; stroke-opacity: 0.75"/>
     <use xlink:href="#md42ccb5ce5" x="347.639301" y="287.08" style="fill: #ff0000; fill-opacity: 0.75; stroke: #ff0000; stroke-opacity: 0.75"/>
     <use xlink:href="#md42ccb5ce5" x="357.117079" y="287.08" style="fill: #ff0000; fill-opacity: 0.75; stroke: #ff0000; stroke-opacity: 0.75"/>
     <use xlink:href="#md42ccb5ce5" x="366.319599" y="287.08" style="fill: #ff0000; fill-opacity: 0.75; stroke: #ff0000; stroke-opacity: 0.75"/>
     <use xlink:href="#md42ccb5ce5" x="375.269535" y="287.08" style="fill: #ff0000; fill-opacity: 0.75; stroke: #ff0000; stroke-opacity: 0.75"/>
     <use xlink:href="#md42ccb5ce5" x="383.98661" y="287.08" style="fill: #ff0000; fill-opacity: 0.75; stroke: #ff0000; stroke-opacity: 0.75"/>
    </g>
   </g>
   <g id="PathCollection_3">
    <defs>
     <path id="m60e4efd653" d="M 0 2.5 
C 0.663008 2.5 1.29895 2.236584 1.767767 1.767767 
C 2.236584 1.29895 2.5 0.663008 2.5 0 
C 2.5 -0.663008 2.236584 -1.29895 1.767767 -1.767767 
C 1.29895 -2.236584 0.663008 -2.5 0 -2.5 
C -0.663008 -2.5 -1.29895 -2.236584 -1.767767 -1.767767 
C -2.236584 -1.29895 -2.5 -0.663008 -2.5 0 
C -2.5 0.663008 -2.236584 1.29895 -1.767767 1.767767 
C -1.29895 2.236584 -0.663008 2.5 0 2.5 
z
" style="stroke: #ff0000; stroke-opacity: 0.5"/>
    </defs>
    <g clip-path="url(#p28b8d3f2e4)">
     <use xlink:href="#m60e4efd653" x="116.169166" y="261.266105" style="fill: #ff0000; fill-opacity: 0.5; stroke: #ff0000; stroke-opacity: 0.5"/>
     <use xlink:href="#m60e4efd653" x="148.297203" y="259.064095" style="fill: #ff0000; fill-opacity: 0.5; stroke: #ff0000; stroke-opacity: 0.5"/>
     <use xlink:href="#m60e4efd653" x="172.864884" y="270.681987" style="fill: #ff0000; fill-opacity: 0.5; stroke: #ff0000; stroke-opacity: 0.5"/>
     <use xlink:href="#m60e4efd653" x="193.547948" y="238.625811" style="fill: #ff0000; fill-opacity: 0.5; stroke: #ff0000; stroke-opacity: 0.5"/>
     <use xlink:href="#m60e4efd653" x="211.756498" y="172.15216" style="fill: #ff0000; fill-opacity: 0.5; stroke: #ff0000; stroke-opacity: 0.5"/>
     <use xlink:href="#m60e4efd653" x="228.21055" y="199.731183" style="fill: #ff0000; fill-opacity: 0.5; stroke: #ff0000; stroke-opacity: 0.5"/>
     <use xlink:href="#m60e4efd653" x="243.336716" y="287.08" style="fill: #ff0000; fill-opacity: 0.5; stroke: #ff0000; stroke-opacity: 0.5"/>
     <use xlink:href="#m60e4efd653" x="257.41248" y="287.08" style="fill: #ff0000; fill-opacity: 0.5; stroke: #ff0000; stroke-opacity: 0.5"/>
     <use xlink:href="#m60e4efd653" x="270.630341" y="287.08" style="fill: #ff0000; fill-opacity: 0.5; stroke: #ff0000; stroke-opacity: 0.5"/>
     <use xlink:href="#m60e4efd653" x="283.130327" y="287.08" style="fill: #ff0000; fill-opacity: 0.5; stroke: #ff0000; stroke-opacity: 0.5"/>
     <use xlink:href="#m60e4efd653" x="295.01807" y="287.08" style="fill: #ff0000; fill-opacity: 0.5; stroke: #ff0000; stroke-opacity: 0.5"/>
     <use xlink:href="#m60e4efd653" x="306.375587" y="287.08" style="fill: #ff0000; fill-opacity: 0.5; stroke: #ff0000; stroke-opacity: 0.5"/>
     <use xlink:href="#m60e4efd653" x="317.268071" y="287.08" style="fill: #ff0000; fill-opacity: 0.5; stroke: #ff0000; stroke-opacity: 0.5"/>
     <use xlink:href="#m60e4efd653" x="327.748359" y="287.08" style="fill: #ff0000; fill-opacity: 0.5; stroke: #ff0000; stroke-opacity: 0.5"/>
     <use xlink:href="#m60e4efd653" x="337.859979" y="287.08" style="fill: #ff0000; fill-opacity: 0.5; stroke: #ff0000; stroke-opacity: 0.5"/>
     <use xlink:href="#m60e4efd653" x="347.639301" y="287.08" style="fill: #ff0000; fill-opacity: 0.5; stroke: #ff0000; stroke-opacity: 0.5"/>
     <use xlink:href="#m60e4efd653" x="357.117079" y="287.08" style="fill: #ff0000; fill-opacity: 0.5; stroke: #ff0000; stroke-opacity: 0.5"/>
     <use xlink:href="#m60e4efd653" x="366.319599" y="287.08" style="fill: #ff0000; fill-opacity: 0.5; stroke: #ff0000; stroke-opacity: 0.5"/>
     <use xlink:href="#m60e4efd653" x="375.269535" y="287.08" style="fill: #ff0000; fill-opacity: 0.5; stroke: #ff0000; stroke-opacity: 0.5"/>
     <use xlink:href="#m60e4efd653" x="383.98661" y="287.08" style="fill: #ff0000; fill-opacity: 0.5; stroke: #ff0000; stroke-opacity: 0.5"/>
    </g>
   </g>
   <g id="PathCollection_4">
    <defs>
     <path id="m33757f7d63" d="M 0 2.5 
C 0.663008 2.5 1.29895 2.236584 1.767767 1.767767 
C 2.236584 1.29895 2.5 0.663008 2.5 0 
C 2.5 -0.663008 2.236584 -1.29895 1.767767 -1.767767 
C 1.29895 -2.236584 0.663008 -2.5 0 -2.5 
C -0.663008 -2.5 -1.29895 -2.236584 -1.767767 -1.767767 
C -2.236584 -1.29895 -2.5 -0.663008 -2.5 0 
C -2.5 0.663008 -2.236584 1.29895 -1.767767 1.767767 
C -1.29895 2.236584 -0.663008 2.5 0 2.5 
z
" style="stroke: #ff0000; stroke-opacity: 0.25"/>
    </defs>
    <g clip-path="url(#p28b8d3f2e4)">
     <use xlink:href="#m33757f7d63" x="116.169166" y="269.870736" style="fill: #ff0000; fill-opacity: 0.25; stroke: #ff0000; stroke-opacity: 0.25"/>
     <use xlink:href="#m33757f7d63" x="148.297203" y="277.741365" style="fill: #ff0000; fill-opacity: 0.25; stroke: #ff0000; stroke-opacity: 0.25"/>
     <use xlink:href="#m33757f7d63" x="172.864884" y="287.08" style="fill: #ff0000; fill-opacity: 0.25; stroke: #ff0000; stroke-opacity: 0.25"/>
     <use xlink:href="#m33757f7d63" x="193.547948" y="277.389162" style="fill: #ff0000; fill-opacity: 0.25; stroke: #ff0000; stroke-opacity: 0.25"/>
     <use xlink:href="#m33757f7d63" x="211.756498" y="278.239397" style="fill: #ff0000; fill-opacity: 0.25; stroke: #ff0000; stroke-opacity: 0.25"/>
     <use xlink:href="#m33757f7d63" x="228.21055" y="280.36086" style="fill: #ff0000; fill-opacity: 0.25; stroke: #ff0000; stroke-opacity: 0.25"/>
     <use xlink:href="#m33757f7d63" x="243.336716" y="272.59918" style="fill: #ff0000; fill-opacity: 0.25; stroke: #ff0000; stroke-opacity: 0.25"/>
     <use xlink:href="#m33757f7d63" x="257.41248" y="261.426885" style="fill: #ff0000; fill-opacity: 0.25; stroke: #ff0000; stroke-opacity: 0.25"/>
     <use xlink:href="#m33757f7d63" x="270.630341" y="218.76619" style="fill: #ff0000; fill-opacity: 0.25; stroke: #ff0000; stroke-opacity: 0.25"/>
     <use xlink:href="#m33757f7d63" x="283.130327" y="224.012408" style="fill: #ff0000; fill-opacity: 0.25; stroke: #ff0000; stroke-opacity: 0.25"/>
     <use xlink:href="#m33757f7d63" x="295.01807" y="157.855456" style="fill: #ff0000; fill-opacity: 0.25; stroke: #ff0000; stroke-opacity: 0.25"/>
     <use xlink:href="#m33757f7d63" x="306.375587" y="200.156843" style="fill: #ff0000; fill-opacity: 0.25; stroke: #ff0000; stroke-opacity: 0.25"/>
     <use xlink:href="#m33757f7d63" x="317.268071" y="287.08" style="fill: #ff0000; fill-opacity: 0.25; stroke: #ff0000; stroke-opacity: 0.25"/>
     <use xlink:href="#m33757f7d63" x="327.748359" y="287.08" style="fill: #ff0000; fill-opacity: 0.25; stroke: #ff0000; stroke-opacity: 0.25"/>
     <use xlink:href="#m33757f7d63" x="337.859979" y="287.08" style="fill: #ff0000; fill-opacity: 0.25; stroke: #ff0000; stroke-opacity: 0.25"/>
     <use xlink:href="#m33757f7d63" x="347.639301" y="287.08" style="fill: #ff0000; fill-opacity: 0.25; stroke: #ff0000; stroke-opacity: 0.25"/>
     <use xlink:href="#m33757f7d63" x="357.117079" y="287.08" style="fill: #ff0000; fill-opacity: 0.25; stroke: #ff0000; stroke-opacity: 0.25"/>
     <use xlink:href="#m33757f7d63" x="366.319599" y="287.08" style="fill: #ff0000; fill-opacity: 0.25; stroke: #ff0000; stroke-opacity: 0.25"/>
     <use xlink:href="#m33757f7d63" x="375.269535" y="287.08" style="fill: #ff0000; fill-opacity: 0.25; stroke: #ff0000; stroke-opacity: 0.25"/>
     <use xlink:href="#m33757f7d63" x="383.98661" y="287.08" style="fill: #ff0000; fill-opacity: 0.25; stroke: #ff0000; stroke-opacity: 0.25"/>
    </g>
   </g>
   <g id="matplotlib.axis_3">
    <g id="ytick_7">
     <g id="line2d_26">
      <defs>
       <path id="mbec4a12d1c" d="M 0 0 
L 3.5 0 
" style="stroke: #ff0000; stroke-width: 0.8"/>
      </defs>
      <g>
       <use xlink:href="#mbec4a12d1c" x="377.602" y="287.08" style="fill: #ff0000; stroke: #ff0000; stroke-width: 0.8"/>
      </g>
     </g>
     <g id="text_20">
      <!-- 0.00 -->
      <g style="fill: #ff0000" transform="translate(384.602 293.15875) scale(0.16 -0.16)">
       <use xlink:href="#DejaVuSans-30"/>
       <use xlink:href="#DejaVuSans-2e" x="63.623047"/>
       <use xlink:href="#DejaVuSans-30" x="95.410156"/>
       <use xlink:href="#DejaVuSans-30" x="159.033203"/>
      </g>
     </g>
    </g>
    <g id="ytick_8">
     <g id="line2d_27">
      <g>
       <use xlink:href="#mbec4a12d1c" x="377.602" y="242.113333" style="fill: #ff0000; stroke: #ff0000; stroke-width: 0.8"/>
      </g>
     </g>
     <g id="text_21">
      <!-- 0.05 -->
      <g style="fill: #ff0000" transform="translate(384.602 248.192083) scale(0.16 -0.16)">
       <use xlink:href="#DejaVuSans-30"/>
       <use xlink:href="#DejaVuSans-2e" x="63.623047"/>
       <use xlink:href="#DejaVuSans-30" x="95.410156"/>
       <use xlink:href="#DejaVuSans-35" x="159.033203"/>
      </g>
     </g>
    </g>
    <g id="ytick_9">
     <g id="line2d_28">
      <g>
       <use xlink:href="#mbec4a12d1c" x="377.602" y="197.146667" style="fill: #ff0000; stroke: #ff0000; stroke-width: 0.8"/>
      </g>
     </g>
     <g id="text_22">
      <!-- 0.10 -->
      <g style="fill: #ff0000" transform="translate(384.602 203.225417) scale(0.16 -0.16)">
       <use xlink:href="#DejaVuSans-30"/>
       <use xlink:href="#DejaVuSans-2e" x="63.623047"/>
       <use xlink:href="#DejaVuSans-31" x="95.410156"/>
       <use xlink:href="#DejaVuSans-30" x="159.033203"/>
      </g>
     </g>
    </g>
    <g id="ytick_10">
     <g id="line2d_29">
      <g>
       <use xlink:href="#mbec4a12d1c" x="377.602" y="152.18" style="fill: #ff0000; stroke: #ff0000; stroke-width: 0.8"/>
      </g>
     </g>
     <g id="text_23">
      <!-- 0.15 -->
      <g style="fill: #ff0000" transform="translate(384.602 158.25875) scale(0.16 -0.16)">
       <use xlink:href="#DejaVuSans-30"/>
       <use xlink:href="#DejaVuSans-2e" x="63.623047"/>
       <use xlink:href="#DejaVuSans-31" x="95.410156"/>
       <use xlink:href="#DejaVuSans-35" x="159.033203"/>
      </g>
     </g>
    </g>
    <g id="ytick_11">
     <g id="line2d_30">
      <g>
       <use xlink:href="#mbec4a12d1c" x="377.602" y="107.213333" style="fill: #ff0000; stroke: #ff0000; stroke-width: 0.8"/>
      </g>
     </g>
     <g id="text_24">
      <!-- 0.20 -->
      <g style="fill: #ff0000" transform="translate(384.602 113.292083) scale(0.16 -0.16)">
       <use xlink:href="#DejaVuSans-30"/>
       <use xlink:href="#DejaVuSans-2e" x="63.623047"/>
       <use xlink:href="#DejaVuSans-32" x="95.410156"/>
       <use xlink:href="#DejaVuSans-30" x="159.033203"/>
      </g>
     </g>
    </g>
    <g id="ytick_12">
     <g id="line2d_31">
      <g>
       <use xlink:href="#mbec4a12d1c" x="377.602" y="62.246667" style="fill: #ff0000; stroke: #ff0000; stroke-width: 0.8"/>
      </g>
     </g>
     <g id="text_25">
      <!-- 0.25 -->
      <g style="fill: #ff0000" transform="translate(384.602 68.325417) scale(0.16 -0.16)">
       <use xlink:href="#DejaVuSans-30"/>
       <use xlink:href="#DejaVuSans-2e" x="63.623047"/>
       <use xlink:href="#DejaVuSans-32" x="95.410156"/>
       <use xlink:href="#DejaVuSans-35" x="159.033203"/>
      </g>
     </g>
    </g>
    <g id="ytick_13">
     <g id="line2d_32">
      <g>
       <use xlink:href="#mbec4a12d1c" x="377.602" y="17.28" style="fill: #ff0000; stroke: #ff0000; stroke-width: 0.8"/>
      </g>
     </g>
     <g id="text_26">
      <!-- 0.30 -->
      <g style="fill: #ff0000" transform="translate(384.602 23.35875) scale(0.16 -0.16)">
       <use xlink:href="#DejaVuSans-30"/>
       <use xlink:href="#DejaVuSans-2e" x="63.623047"/>
       <use xlink:href="#DejaVuSans-33" x="95.410156"/>
       <use xlink:href="#DejaVuSans-30" x="159.033203"/>
      </g>
     </g>
    </g>
    <g id="text_27">
     <!-- tip density ($mm^{-2}$) -->
     <g transform="translate(442.427 246.68) rotate(-90) scale(0.2 -0.2)">
      <defs>
       <path id="DejaVuSans-70" d="M 1159 525 
L 1159 -1331 
L 581 -1331 
L 581 3500 
L 1159 3500 
L 1159 2969 
Q 1341 3281 1617 3432 
Q 1894 3584 2278 3584 
Q 2916 3584 3314 3078 
Q 3713 2572 3713 1747 
Q 3713 922 3314 415 
Q 2916 -91 2278 -91 
Q 1894 -91 1617 61 
Q 1341 213 1159 525 
z
M 3116 1747 
Q 3116 2381 2855 2742 
Q 2594 3103 2138 3103 
Q 1681 3103 1420 2742 
Q 1159 2381 1159 1747 
Q 1159 1113 1420 752 
Q 1681 391 2138 391 
Q 2594 391 2855 752 
Q 3116 1113 3116 1747 
z
" transform="scale(0.015625)"/>
      </defs>
      <use xlink:href="#DejaVuSans-74" transform="translate(0 0.765625)"/>
      <use xlink:href="#DejaVuSans-69" transform="translate(39.208984 0.765625)"/>
      <use xlink:href="#DejaVuSans-70" transform="translate(66.992188 0.765625)"/>
      <use xlink:href="#DejaVuSans-20" transform="translate(130.46875 0.765625)"/>
      <use xlink:href="#DejaVuSans-64" transform="translate(162.255859 0.765625)"/>
      <use xlink:href="#DejaVuSans-65" transform="translate(225.732422 0.765625)"/>
      <use xlink:href="#DejaVuSans-6e" transform="translate(287.255859 0.765625)"/>
      <use xlink:href="#DejaVuSans-73" transform="translate(350.634766 0.765625)"/>
      <use xlink:href="#DejaVuSans-69" transform="translate(402.734375 0.765625)"/>
      <use xlink:href="#DejaVuSans-74" transform="translate(430.517578 0.765625)"/>
      <use xlink:href="#DejaVuSans-79" transform="translate(469.726562 0.765625)"/>
      <use xlink:href="#DejaVuSans-20" transform="translate(528.90625 0.765625)"/>
      <use xlink:href="#DejaVuSans-28" transform="translate(560.693359 0.765625)"/>
      <use xlink:href="#DejaVuSans-Oblique-6d" transform="translate(599.707031 0.765625)"/>
      <use xlink:href="#DejaVuSans-Oblique-6d" transform="translate(697.119141 0.765625)"/>
      <use xlink:href="#DejaVuSans-2212" transform="translate(799.181146 39.046875) scale(0.7)"/>
      <use xlink:href="#DejaVuSans-32" transform="translate(857.83349 39.046875) scale(0.7)"/>
      <use xlink:href="#DejaVuSans-29" transform="translate(905.103997 0.765625)"/>
     </g>
    </g>
   </g>
   <g id="line2d_33">
    <path d="M 116.169166 268.605951 
L 118.045764 271.248828 
L 119.922363 273.539022 
L 121.798962 275.516464 
L 123.943646 277.441394 
L 126.08833 279.057866 
L 128.233014 280.411527 
L 130.645784 281.669991 
L 133.326639 282.797067 
L 136.27558 283.771567 
L 139.492607 284.586362 
L 143.245804 285.288949 
L 147.535173 285.854248 
L 152.896883 286.317805 
L 159.599021 286.65956 
L 168.982015 286.897379 
L 184.26289 287.033087 
L 222.06295 287.078376 
L 383.98661 287.08 
L 383.98661 287.08 
" clip-path="url(#p28b8d3f2e4)" style="fill: none; stroke: #ff0000; stroke-width: 3; stroke-linecap: square"/>
   </g>
   <g id="line2d_34">
    <path d="M 116.169166 264.901004 
L 118.045764 261.335183 
L 119.922363 257.286994 
L 121.798962 252.723607 
L 123.67556 247.62199 
L 125.820245 241.122829 
L 127.964929 233.932021 
L 130.645784 224.081818 
L 134.130896 210.293638 
L 138.68835 192.283194 
L 140.833034 184.689572 
L 142.441548 179.709862 
L 143.781975 176.165941 
L 145.122403 173.268345 
L 146.194745 171.467382 
L 147.267087 170.160516 
L 148.071344 169.51891 
L 148.8756 169.174974 
L 149.679857 169.132212 
L 150.484113 169.391062 
L 151.28837 169.948882 
L 152.092627 170.800009 
L 152.896883 171.935881 
L 153.969225 173.873454 
L 155.041567 176.263419 
L 156.381995 179.825433 
L 157.990508 184.823099 
L 159.867107 191.43565 
L 162.547962 201.816617 
L 169.518186 229.262949 
L 171.930956 237.745791 
L 174.07564 244.583107 
L 176.220324 250.712501 
L 178.365009 256.13234 
L 180.241607 260.313803 
L 182.118206 264.003514 
L 183.994805 267.238872 
L 185.871403 270.060651 
L 187.748002 272.510506 
L 189.624601 274.629214 
L 191.769285 276.694651 
L 193.913969 278.431369 
L 196.058654 279.887294 
L 198.471423 281.2421 
L 200.884193 282.347137 
L 203.565048 283.335479 
L 206.513989 284.189027 
L 209.999101 284.95286 
L 214.020384 285.588636 
L 218.845924 286.107096 
L 224.743805 286.503382 
L 232.518286 286.790941 
L 244.045963 286.976281 
L 265.760891 287.064973 
L 361.19934 287.079997 
L 383.98661 287.08 
L 383.98661 287.08 
" clip-path="url(#p28b8d3f2e4)" style="fill: none; stroke: #ff0000; stroke-opacity: 0.75; stroke-width: 3; stroke-linecap: square"/>
   </g>
   <g id="line2d_35">
    <path d="M 116.169166 287.023659 
L 133.058554 286.826995 
L 142.173462 286.511438 
L 148.607515 286.073988 
L 153.433054 285.538002 
L 157.454337 284.880844 
L 160.939449 284.091485 
L 163.88839 283.209624 
L 166.569245 282.188776 
L 168.982015 281.047753 
L 171.394785 279.649345 
L 173.539469 278.147204 
L 175.684153 276.356236 
L 177.560752 274.513899 
L 179.437351 272.376944 
L 181.313949 269.906507 
L 183.190548 267.061724 
L 185.067147 263.800937 
L 186.943746 260.083491 
L 188.820344 255.872281 
L 190.696943 251.137151 
L 192.841627 245.060567 
L 194.986311 238.274684 
L 197.399081 229.843695 
L 200.348022 218.597993 
L 208.390588 187.186026 
L 210.267187 181.079866 
L 211.8757 176.652702 
L 213.216127 173.654084 
L 214.28847 171.764749 
L 215.360812 170.364284 
L 216.165068 169.649996 
L 216.969325 169.232044 
L 217.773582 169.114685 
L 218.577838 169.299116 
L 219.382095 169.783454 
L 220.186351 170.562775 
L 220.990608 171.629219 
L 222.06295 173.479034 
L 223.135292 175.787989 
L 224.47572 179.259918 
L 226.084233 184.167923 
L 227.960832 190.703045 
L 230.373601 199.958506 
L 238.416167 231.464488 
L 240.828937 239.746199 
L 242.973621 246.385977 
L 245.118306 252.313742 
L 247.26299 257.537261 
L 249.139589 261.556309 
L 251.016187 265.095116 
L 252.892786 268.192493 
L 254.769385 270.889733 
L 256.645983 273.22837 
L 258.522582 275.248617 
L 260.667266 277.216077 
L 262.811951 278.868908 
L 264.956635 280.253467 
L 267.369405 281.541019 
L 270.05026 282.694441 
L 272.999201 283.691945 
L 276.216227 284.526132 
L 279.701339 285.201622 
L 283.990707 285.794332 
L 289.084333 286.261236 
L 295.518385 286.617424 
L 304.365208 286.869246 
L 318.305655 287.018998 
L 349.671662 287.076256 
L 383.98661 287.079823 
L 383.98661 287.079823 
" clip-path="url(#p28b8d3f2e4)" style="fill: none; stroke: #ff0000; stroke-opacity: 0.5; stroke-width: 3; stroke-linecap: square"/>
   </g>
   <g id="line2d_36">
    <path d="M 116.169166 287.079874 
L 192.305456 286.969967 
L 205.173562 286.734572 
L 213.216127 286.374519 
L 219.114009 285.890121 
L 223.671463 285.299585 
L 227.424661 284.601126 
L 230.641687 283.791086 
L 233.590628 282.822227 
L 236.271483 281.701616 
L 238.684253 280.450292 
L 240.828937 279.104216 
L 242.973621 277.496676 
L 245.118306 275.582197 
L 246.994904 273.615282 
L 248.871503 271.337008 
L 250.748102 268.70752 
L 252.6247 265.685424 
L 254.501299 262.22924 
L 256.377898 258.299509 
L 258.254497 253.861699 
L 260.131095 248.890018 
L 262.27578 242.539453 
L 264.420464 235.48924 
L 266.833234 226.796015 
L 270.05026 214.255614 
L 275.948142 190.962134 
L 278.092826 183.526541 
L 279.701339 178.710213 
L 281.041767 175.329747 
L 282.114109 173.102647 
L 283.186451 171.341155 
L 283.990707 170.344366 
L 284.794964 169.636895 
L 285.599221 169.225894 
L 286.403477 169.115547 
L 287.207734 169.306982 
L 288.01199 169.798245 
L 288.816247 170.58434 
L 289.620504 171.657341 
L 290.692846 173.515458 
L 291.765188 175.832088 
L 293.105616 179.312572 
L 294.714129 184.229119 
L 296.590727 190.771657 
L 299.271583 201.098207 
L 306.509892 229.585751 
L 308.922662 238.039879 
L 311.067346 244.848667 
L 313.21203 250.948741 
L 315.356715 256.339894 
L 317.233313 260.497544 
L 319.109912 264.165075 
L 320.986511 267.380113 
L 322.863109 270.183521 
L 324.739708 272.616949 
L 326.616307 274.721098 
L 328.760991 276.772034 
L 330.905675 278.496325 
L 333.05036 279.941671 
L 335.463129 281.286501 
L 337.875899 282.383309 
L 340.556754 283.364222 
L 343.505695 284.2113 
L 346.990807 284.969302 
L 351.01209 285.600195 
L 355.83763 286.114653 
L 361.735511 286.507868 
L 369.509992 286.793193 
L 381.305755 286.979514 
L 383.98661 287.000833 
L 383.98661 287.000833 
" clip-path="url(#p28b8d3f2e4)" style="fill: none; stroke: #ff0000; stroke-opacity: 0.25; stroke-width: 3; stroke-linecap: square"/>
   </g>
   <g id="patch_8">
    <path d="M 88.328 287.08 
L 88.328 17.28 
" style="fill: none; stroke: #000000; stroke-width: 0.8; stroke-linejoin: miter; stroke-linecap: square"/>
   </g>
   <g id="patch_9">
    <path d="M 377.602 287.08 
L 377.602 17.28 
" style="fill: none; stroke: #000000; stroke-width: 0.8; stroke-linejoin: miter; stroke-linecap: square"/>
   </g>
   <g id="patch_10">
    <path d="M 88.328 287.08 
L 377.602 287.08 
" style="fill: none; stroke: #000000; stroke-width: 0.8; stroke-linejoin: miter; stroke-linecap: square"/>
   </g>
   <g id="patch_11">
    <path d="M 88.328 17.28 
L 377.602 17.28 
" style="fill: none; stroke: #000000; stroke-width: 0.8; stroke-linejoin: miter; stroke-linecap: square"/>
   </g>
   <g id="legend_2">
    <g id="patch_12">
     <path d="M 366.602 30.28 
L 370.602 30.28 
Q 372.602 30.28 372.602 28.28 
L 372.602 24.28 
Q 372.602 22.28 370.602 22.28 
L 366.602 22.28 
Q 364.602 22.28 364.602 24.28 
L 364.602 28.28 
Q 364.602 30.28 366.602 30.28 
z
" style="fill: #ffffff; opacity: 0.8; stroke: #cccccc; stroke-linejoin: miter"/>
    </g>
   </g>
  </g>
 </g>
 <defs>
  <clipPath id="p28b8d3f2e4">
   <rect x="88.328" y="17.28" width="289.274" height="269.8"/>
  </clipPath>
 </defs>
</svg>
