<?xml version="1.0" encoding="utf-8" standalone="no"?>
<!DOCTYPE svg PUBLIC "-//W3C//DTD SVG 1.1//EN"
  "http://www.w3.org/Graphics/SVG/1.1/DTD/svg11.dtd">
<svg xmlns:xlink="http://www.w3.org/1999/xlink" width="460.8pt" height="345.6pt" viewBox="0 0 460.8 345.6" xmlns="http://www.w3.org/2000/svg" version="1.1">
 <metadata>
  <rdf:RDF xmlns:dc="http://purl.org/dc/elements/1.1/" xmlns:cc="http://creativecommons.org/ns#" xmlns:rdf="http://www.w3.org/1999/02/22-rdf-syntax-ns#">
   <cc:Work>
    <dc:type rdf:resource="http://purl.org/dc/dcmitype/StillImage"/>
    <dc:date>2023-01-18T17:27:12.271917</dc:date>
    <dc:format>image/svg+xml</dc:format>
    <dc:creator>
     <cc:Agent>
      <dc:title>Matplotlib v3.6.0, https://matplotlib.org/</dc:title>
     </cc:Agent>
    </dc:creator>
   </cc:Work>
  </rdf:RDF>
 </metadata>
 <defs>
  <style type="text/css">*{stroke-linejoin: round; stroke-linecap: butt}</style>
 </defs>
 <g id="figure_1">
  <g id="patch_1">
   <path d="M 0 345.6 
L 460.8 345.6 
L 460.8 0 
L 0 0 
z
" style="fill: #ffffff"/>
  </g>
  <g id="axes_1">
   <g id="patch_2">
    <path d="M 72.182 287.368 
L 441.737355 287.368 
L 441.737355 10.8 
L 72.182 10.8 
z
" style="fill: #ffffff"/>
   </g>
   <g id="PathCollection_1">
    <defs>
     <path id="m635085e252" d="M -5 5 
L 5 -5 
M -5 -5 
L 5 5 
" style="stroke: #ffa500; stroke-opacity: 0.2; stroke-width: 3"/>
    </defs>
    <g clip-path="url(#p51a98a2046)">
     <use xlink:href="#m635085e252" x="160.932765" y="153.894508" style="fill: #ffa500; fill-opacity: 0.2; stroke: #ffa500; stroke-opacity: 0.2; stroke-width: 3"/>
    </g>
   </g>
   <g id="PathCollection_2">
    <defs>
     <path id="m1577b28de9" d="M -5 5 
L 5 -5 
M -5 -5 
L 5 5 
" style="stroke: #0000ff; stroke-opacity: 0.2; stroke-width: 3"/>
    </defs>
    <g clip-path="url(#p51a98a2046)">
     <use xlink:href="#m1577b28de9" x="212.722008" y="141.626691" style="fill: #0000ff; fill-opacity: 0.2; stroke: #0000ff; stroke-opacity: 0.2; stroke-width: 3"/>
    </g>
   </g>
   <g id="PathCollection_3">
    <g clip-path="url(#p51a98a2046)">
     <use xlink:href="#m1577b28de9" x="225.96759" y="122.619297" style="fill: #0000ff; fill-opacity: 0.2; stroke: #0000ff; stroke-opacity: 0.2; stroke-width: 3"/>
    </g>
   </g>
   <g id="PathCollection_4">
    <g clip-path="url(#p51a98a2046)">
     <use xlink:href="#m1577b28de9" x="283.705713" y="257.588674" style="fill: #0000ff; fill-opacity: 0.2; stroke: #0000ff; stroke-opacity: 0.2; stroke-width: 3"/>
    </g>
   </g>
   <g id="PathCollection_5">
    <g clip-path="url(#p51a98a2046)">
     <use xlink:href="#m1577b28de9" x="289.448011" y="163.148378" style="fill: #0000ff; fill-opacity: 0.2; stroke: #0000ff; stroke-opacity: 0.2; stroke-width: 3"/>
    </g>
   </g>
   <g id="PathCollection_6">
    <defs>
     <path id="m1cd41e6499" d="M -5 5 
L 5 -5 
M -5 -5 
L 5 5 
" style="stroke: #800080; stroke-opacity: 0.2; stroke-width: 3"/>
    </defs>
    <g clip-path="url(#p51a98a2046)">
     <use xlink:href="#m1cd41e6499" x="256.154427" y="155.887553" style="fill: #800080; fill-opacity: 0.2; stroke: #800080; stroke-opacity: 0.2; stroke-width: 3"/>
    </g>
   </g>
   <g id="PathCollection_7">
    <g clip-path="url(#p51a98a2046)">
     <use xlink:href="#m1cd41e6499" x="181.377158" y="76.275962" style="fill: #800080; fill-opacity: 0.2; stroke: #800080; stroke-opacity: 0.2; stroke-width: 3"/>
    </g>
   </g>
   <g id="PathCollection_8">
    <g clip-path="url(#p51a98a2046)">
     <use xlink:href="#m1cd41e6499" x="289.191977" y="139.38462" style="fill: #800080; fill-opacity: 0.2; stroke: #800080; stroke-opacity: 0.2; stroke-width: 3"/>
    </g>
   </g>
   <g id="PathCollection_9">
    <g clip-path="url(#p51a98a2046)">
     <use xlink:href="#m1577b28de9" x="300.551674" y="137.789174" style="fill: #0000ff; fill-opacity: 0.2; stroke: #0000ff; stroke-opacity: 0.2; stroke-width: 3"/>
    </g>
   </g>
   <g id="PathCollection_10">
    <g clip-path="url(#p51a98a2046)">
     <use xlink:href="#m635085e252" x="109.379483" y="149.426015" style="fill: #ffa500; fill-opacity: 0.2; stroke: #ffa500; stroke-opacity: 0.2; stroke-width: 3"/>
    </g>
   </g>
   <g id="PathCollection_11">
    <g clip-path="url(#p51a98a2046)">
     <use xlink:href="#m635085e252" x="141.160968" y="150.058369" style="fill: #ffa500; fill-opacity: 0.2; stroke: #ffa500; stroke-opacity: 0.2; stroke-width: 3"/>
    </g>
   </g>
   <g id="PathCollection_12">
    <defs>
     <path id="m2098253080" d="M -5 5 
L 5 -5 
M -5 -5 
L 5 5 
" style="stroke: #ff0000; stroke-opacity: 0.2; stroke-width: 3"/>
    </defs>
    <g clip-path="url(#p51a98a2046)">
     <use xlink:href="#m2098253080" x="88.979971" y="124.998777" style="fill: #ff0000; fill-opacity: 0.2; stroke: #ff0000; stroke-opacity: 0.2; stroke-width: 3"/>
    </g>
   </g>
   <g id="PathCollection_13">
    <g clip-path="url(#p51a98a2046)">
     <use xlink:href="#m2098253080" x="156.626872" y="58.848105" style="fill: #ff0000; fill-opacity: 0.2; stroke: #ff0000; stroke-opacity: 0.2; stroke-width: 3"/>
    </g>
   </g>
   <g id="PathCollection_14">
    <g clip-path="url(#p51a98a2046)">
     <use xlink:href="#m635085e252" x="205.794548" y="29.985871" style="fill: #ffa500; fill-opacity: 0.2; stroke: #ffa500; stroke-opacity: 0.2; stroke-width: 3"/>
    </g>
   </g>
   <g id="PathCollection_15">
    <g clip-path="url(#p51a98a2046)">
     <use xlink:href="#m635085e252" x="202.889973" y="106.181925" style="fill: #ffa500; fill-opacity: 0.2; stroke: #ffa500; stroke-opacity: 0.2; stroke-width: 3"/>
    </g>
   </g>
   <g id="PathCollection_16">
    <g clip-path="url(#p51a98a2046)">
     <use xlink:href="#m635085e252" x="123.249474" y="34.595278" style="fill: #ffa500; fill-opacity: 0.2; stroke: #ffa500; stroke-opacity: 0.2; stroke-width: 3"/>
    </g>
   </g>
   <g id="PathCollection_17">
    <g clip-path="url(#p51a98a2046)">
     <use xlink:href="#m635085e252" x="248.359094" y="38.411218" style="fill: #ffa500; fill-opacity: 0.2; stroke: #ffa500; stroke-opacity: 0.2; stroke-width: 3"/>
    </g>
   </g>
   <g id="PathCollection_18">
    <defs>
     <path id="mb7f945a742" d="M -5 5 
L 5 -5 
M -5 -5 
L 5 5 
" style="stroke: #000000; stroke-opacity: 0.2; stroke-width: 3"/>
    </defs>
    <g clip-path="url(#p51a98a2046)">
     <use xlink:href="#mb7f945a742" x="300.100901" y="247.703193" style="fill-opacity: 0.2; stroke: #000000; stroke-opacity: 0.2; stroke-width: 3"/>
    </g>
   </g>
   <g id="PathCollection_19">
    <g clip-path="url(#p51a98a2046)">
     <use xlink:href="#mb7f945a742" x="424.939384" y="210.761975" style="fill-opacity: 0.2; stroke: #000000; stroke-opacity: 0.2; stroke-width: 3"/>
    </g>
   </g>
   <g id="PathCollection_20">
    <g clip-path="url(#p51a98a2046)">
     <use xlink:href="#mb7f945a742" x="370.084204" y="204.472176" style="fill-opacity: 0.2; stroke: #000000; stroke-opacity: 0.2; stroke-width: 3"/>
    </g>
   </g>
   <g id="PathCollection_21">
    <g clip-path="url(#p51a98a2046)">
     <use xlink:href="#m635085e252" x="156.028357" y="129.060639" style="fill: #ffa500; fill-opacity: 0.2; stroke: #ffa500; stroke-opacity: 0.2; stroke-width: 3"/>
    </g>
   </g>
   <g id="PathCollection_22">
    <g clip-path="url(#p51a98a2046)">
     <use xlink:href="#m635085e252" x="163.306872" y="84.618844" style="fill: #ffa500; fill-opacity: 0.2; stroke: #ffa500; stroke-opacity: 0.2; stroke-width: 3"/>
    </g>
   </g>
   <g id="PathCollection_23">
    <g clip-path="url(#p51a98a2046)">
     <use xlink:href="#m635085e252" x="151.228105" y="150.499886" style="fill: #ffa500; fill-opacity: 0.2; stroke: #ffa500; stroke-opacity: 0.2; stroke-width: 3"/>
    </g>
   </g>
   <g id="PathCollection_24">
    <defs>
     <path id="m773feaf73c" d="M 0 10 
C 2.652031 10 5.195799 8.946337 7.071068 7.071068 
C 8.946337 5.195799 10 2.652031 10 0 
C 10 -2.652031 8.946337 -5.195799 7.071068 -7.071068 
C 5.195799 -8.946337 2.652031 -10 0 -10 
C -2.652031 -10 -5.195799 -8.946337 -7.071068 -7.071068 
C -8.946337 -5.195799 -10 -2.652031 -10 0 
C -10 2.652031 -8.946337 5.195799 -7.071068 7.071068 
C -5.195799 8.946337 -2.652031 10 0 10 
z
" style="stroke: #0000ff; stroke-opacity: 0.5"/>
    </defs>
    <g clip-path="url(#p51a98a2046)">
     <use xlink:href="#m773feaf73c" x="254.88982" y="149.290044" style="fill: #0000ff; fill-opacity: 0.5; stroke: #0000ff; stroke-opacity: 0.5"/>
    </g>
   </g>
   <g id="PathCollection_25">
    <defs>
     <path id="me35c7205b6" d="M 0 10 
C 2.652031 10 5.195799 8.946337 7.071068 7.071068 
C 8.946337 5.195799 10 2.652031 10 0 
C 10 -2.652031 8.946337 -5.195799 7.071068 -7.071068 
C 5.195799 -8.946337 2.652031 -10 0 -10 
C -2.652031 -10 -5.195799 -8.946337 -7.071068 -7.071068 
C -8.946337 -5.195799 -10 -2.652031 -10 0 
C -10 2.652031 -8.946337 5.195799 -7.071068 7.071068 
C -5.195799 8.946337 -2.652031 10 0 10 
z
" style="stroke: #ffa500; stroke-opacity: 0.5"/>
    </defs>
    <g clip-path="url(#p51a98a2046)">
     <use xlink:href="#me35c7205b6" x="158.994707" y="100.88162" style="fill: #ffa500; fill-opacity: 0.5; stroke: #ffa500; stroke-opacity: 0.5"/>
    </g>
   </g>
   <g id="PathCollection_26">
    <defs>
     <path id="mb1766e67d1" d="M 0 10 
C 2.652031 10 5.195799 8.946337 7.071068 7.071068 
C 8.946337 5.195799 10 2.652031 10 0 
C 10 -2.652031 8.946337 -5.195799 7.071068 -7.071068 
C 5.195799 -8.946337 2.652031 -10 0 -10 
C -2.652031 -10 -5.195799 -8.946337 -7.071068 -7.071068 
C -8.946337 -5.195799 -10 -2.652031 -10 0 
C -10 2.652031 -8.946337 5.195799 -7.071068 7.071068 
C -5.195799 8.946337 -2.652031 10 0 10 
z
" style="stroke: #000000; stroke-opacity: 0.5"/>
    </defs>
    <g clip-path="url(#p51a98a2046)">
     <use xlink:href="#mb1766e67d1" x="365.041496" y="220.979115" style="fill-opacity: 0.5; stroke: #000000; stroke-opacity: 0.5"/>
    </g>
   </g>
   <g id="matplotlib.axis_1">
    <g id="xtick_1">
     <g id="line2d_1">
      <defs>
       <path id="mfde2e1865a" d="M 0 0 
L 0 3.5 
" style="stroke: #000000; stroke-width: 0.8"/>
      </defs>
      <g>
       <use xlink:href="#mfde2e1865a" x="113.213185" y="287.368" style="stroke: #000000; stroke-width: 0.8"/>
      </g>
     </g>
     <g id="text_1">
      <!-- 1000 -->
      <g transform="translate(92.853185 306.5255) scale(0.16 -0.16)">
       <defs>
        <path id="DejaVuSans-31" d="M 794 531 
L 1825 531 
L 1825 4091 
L 703 3866 
L 703 4441 
L 1819 4666 
L 2450 4666 
L 2450 531 
L 3481 531 
L 3481 0 
L 794 0 
L 794 531 
z
" transform="scale(0.015625)"/>
        <path id="DejaVuSans-30" d="M 2034 4250 
Q 1547 4250 1301 3770 
Q 1056 3291 1056 2328 
Q 1056 1369 1301 889 
Q 1547 409 2034 409 
Q 2525 409 2770 889 
Q 3016 1369 3016 2328 
Q 3016 3291 2770 3770 
Q 2525 4250 2034 4250 
z
M 2034 4750 
Q 2819 4750 3233 4129 
Q 3647 3509 3647 2328 
Q 3647 1150 3233 529 
Q 2819 -91 2034 -91 
Q 1250 -91 836 529 
Q 422 1150 422 2328 
Q 422 3509 836 4129 
Q 1250 4750 2034 4750 
z
" transform="scale(0.015625)"/>
       </defs>
       <use xlink:href="#DejaVuSans-31"/>
       <use xlink:href="#DejaVuSans-30" x="63.623047"/>
       <use xlink:href="#DejaVuSans-30" x="127.246094"/>
       <use xlink:href="#DejaVuSans-30" x="190.869141"/>
      </g>
     </g>
    </g>
    <g id="xtick_2">
     <g id="line2d_2">
      <g>
       <use xlink:href="#mfde2e1865a" x="176.418438" y="287.368" style="stroke: #000000; stroke-width: 0.8"/>
      </g>
     </g>
     <g id="text_2">
      <!-- 1500 -->
      <g transform="translate(156.058438 306.5255) scale(0.16 -0.16)">
       <defs>
        <path id="DejaVuSans-35" d="M 691 4666 
L 3169 4666 
L 3169 4134 
L 1269 4134 
L 1269 2991 
Q 1406 3038 1543 3061 
Q 1681 3084 1819 3084 
Q 2600 3084 3056 2656 
Q 3513 2228 3513 1497 
Q 3513 744 3044 326 
Q 2575 -91 1722 -91 
Q 1428 -91 1123 -41 
Q 819 9 494 109 
L 494 744 
Q 775 591 1075 516 
Q 1375 441 1709 441 
Q 2250 441 2565 725 
Q 2881 1009 2881 1497 
Q 2881 1984 2565 2268 
Q 2250 2553 1709 2553 
Q 1456 2553 1204 2497 
Q 953 2441 691 2322 
L 691 4666 
z
" transform="scale(0.015625)"/>
       </defs>
       <use xlink:href="#DejaVuSans-31"/>
       <use xlink:href="#DejaVuSans-35" x="63.623047"/>
       <use xlink:href="#DejaVuSans-30" x="127.246094"/>
       <use xlink:href="#DejaVuSans-30" x="190.869141"/>
      </g>
     </g>
    </g>
    <g id="xtick_3">
     <g id="line2d_3">
      <g>
       <use xlink:href="#mfde2e1865a" x="239.623692" y="287.368" style="stroke: #000000; stroke-width: 0.8"/>
      </g>
     </g>
     <g id="text_3">
      <!-- 2000 -->
      <g transform="translate(219.263692 306.5255) scale(0.16 -0.16)">
       <defs>
        <path id="DejaVuSans-32" d="M 1228 531 
L 3431 531 
L 3431 0 
L 469 0 
L 469 531 
Q 828 903 1448 1529 
Q 2069 2156 2228 2338 
Q 2531 2678 2651 2914 
Q 2772 3150 2772 3378 
Q 2772 3750 2511 3984 
Q 2250 4219 1831 4219 
Q 1534 4219 1204 4116 
Q 875 4013 500 3803 
L 500 4441 
Q 881 4594 1212 4672 
Q 1544 4750 1819 4750 
Q 2544 4750 2975 4387 
Q 3406 4025 3406 3419 
Q 3406 3131 3298 2873 
Q 3191 2616 2906 2266 
Q 2828 2175 2409 1742 
Q 1991 1309 1228 531 
z
" transform="scale(0.015625)"/>
       </defs>
       <use xlink:href="#DejaVuSans-32"/>
       <use xlink:href="#DejaVuSans-30" x="63.623047"/>
       <use xlink:href="#DejaVuSans-30" x="127.246094"/>
       <use xlink:href="#DejaVuSans-30" x="190.869141"/>
      </g>
     </g>
    </g>
    <g id="xtick_4">
     <g id="line2d_4">
      <g>
       <use xlink:href="#mfde2e1865a" x="302.828945" y="287.368" style="stroke: #000000; stroke-width: 0.8"/>
      </g>
     </g>
     <g id="text_4">
      <!-- 2500 -->
      <g transform="translate(282.468945 306.5255) scale(0.16 -0.16)">
       <use xlink:href="#DejaVuSans-32"/>
       <use xlink:href="#DejaVuSans-35" x="63.623047"/>
       <use xlink:href="#DejaVuSans-30" x="127.246094"/>
       <use xlink:href="#DejaVuSans-30" x="190.869141"/>
      </g>
     </g>
    </g>
    <g id="xtick_5">
     <g id="line2d_5">
      <g>
       <use xlink:href="#mfde2e1865a" x="366.034198" y="287.368" style="stroke: #000000; stroke-width: 0.8"/>
      </g>
     </g>
     <g id="text_5">
      <!-- 3000 -->
      <g transform="translate(345.674198 306.5255) scale(0.16 -0.16)">
       <defs>
        <path id="DejaVuSans-33" d="M 2597 2516 
Q 3050 2419 3304 2112 
Q 3559 1806 3559 1356 
Q 3559 666 3084 287 
Q 2609 -91 1734 -91 
Q 1441 -91 1130 -33 
Q 819 25 488 141 
L 488 750 
Q 750 597 1062 519 
Q 1375 441 1716 441 
Q 2309 441 2620 675 
Q 2931 909 2931 1356 
Q 2931 1769 2642 2001 
Q 2353 2234 1838 2234 
L 1294 2234 
L 1294 2753 
L 1863 2753 
Q 2328 2753 2575 2939 
Q 2822 3125 2822 3475 
Q 2822 3834 2567 4026 
Q 2313 4219 1838 4219 
Q 1578 4219 1281 4162 
Q 984 4106 628 3988 
L 628 4550 
Q 988 4650 1302 4700 
Q 1616 4750 1894 4750 
Q 2613 4750 3031 4423 
Q 3450 4097 3450 3541 
Q 3450 3153 3228 2886 
Q 3006 2619 2597 2516 
z
" transform="scale(0.015625)"/>
       </defs>
       <use xlink:href="#DejaVuSans-33"/>
       <use xlink:href="#DejaVuSans-30" x="63.623047"/>
       <use xlink:href="#DejaVuSans-30" x="127.246094"/>
       <use xlink:href="#DejaVuSans-30" x="190.869141"/>
      </g>
     </g>
    </g>
    <g id="xtick_6">
     <g id="line2d_6">
      <g>
       <use xlink:href="#mfde2e1865a" x="429.239452" y="287.368" style="stroke: #000000; stroke-width: 0.8"/>
      </g>
     </g>
     <g id="text_6">
      <!-- 3500 -->
      <g transform="translate(408.879452 306.5255) scale(0.16 -0.16)">
       <use xlink:href="#DejaVuSans-33"/>
       <use xlink:href="#DejaVuSans-35" x="63.623047"/>
       <use xlink:href="#DejaVuSans-30" x="127.246094"/>
       <use xlink:href="#DejaVuSans-30" x="190.869141"/>
      </g>
     </g>
    </g>
    <g id="text_7">
     <!-- saturation density ($\mu m .mm^{-2}$) -->
     <g transform="translate(141.759677 327.503) scale(0.15 -0.15)">
      <defs>
       <path id="DejaVuSans-73" d="M 2834 3397 
L 2834 2853 
Q 2591 2978 2328 3040 
Q 2066 3103 1784 3103 
Q 1356 3103 1142 2972 
Q 928 2841 928 2578 
Q 928 2378 1081 2264 
Q 1234 2150 1697 2047 
L 1894 2003 
Q 2506 1872 2764 1633 
Q 3022 1394 3022 966 
Q 3022 478 2636 193 
Q 2250 -91 1575 -91 
Q 1294 -91 989 -36 
Q 684 19 347 128 
L 347 722 
Q 666 556 975 473 
Q 1284 391 1588 391 
Q 1994 391 2212 530 
Q 2431 669 2431 922 
Q 2431 1156 2273 1281 
Q 2116 1406 1581 1522 
L 1381 1569 
Q 847 1681 609 1914 
Q 372 2147 372 2553 
Q 372 3047 722 3315 
Q 1072 3584 1716 3584 
Q 2034 3584 2315 3537 
Q 2597 3491 2834 3397 
z
" transform="scale(0.015625)"/>
       <path id="DejaVuSans-61" d="M 2194 1759 
Q 1497 1759 1228 1600 
Q 959 1441 959 1056 
Q 959 750 1161 570 
Q 1363 391 1709 391 
Q 2188 391 2477 730 
Q 2766 1069 2766 1631 
L 2766 1759 
L 2194 1759 
z
M 3341 1997 
L 3341 0 
L 2766 0 
L 2766 531 
Q 2569 213 2275 61 
Q 1981 -91 1556 -91 
Q 1019 -91 701 211 
Q 384 513 384 1019 
Q 384 1609 779 1909 
Q 1175 2209 1959 2209 
L 2766 2209 
L 2766 2266 
Q 2766 2663 2505 2880 
Q 2244 3097 1772 3097 
Q 1472 3097 1187 3025 
Q 903 2953 641 2809 
L 641 3341 
Q 956 3463 1253 3523 
Q 1550 3584 1831 3584 
Q 2591 3584 2966 3190 
Q 3341 2797 3341 1997 
z
" transform="scale(0.015625)"/>
       <path id="DejaVuSans-74" d="M 1172 4494 
L 1172 3500 
L 2356 3500 
L 2356 3053 
L 1172 3053 
L 1172 1153 
Q 1172 725 1289 603 
Q 1406 481 1766 481 
L 2356 481 
L 2356 0 
L 1766 0 
Q 1100 0 847 248 
Q 594 497 594 1153 
L 594 3053 
L 172 3053 
L 172 3500 
L 594 3500 
L 594 4494 
L 1172 4494 
z
" transform="scale(0.015625)"/>
       <path id="DejaVuSans-75" d="M 544 1381 
L 544 3500 
L 1119 3500 
L 1119 1403 
Q 1119 906 1312 657 
Q 1506 409 1894 409 
Q 2359 409 2629 706 
Q 2900 1003 2900 1516 
L 2900 3500 
L 3475 3500 
L 3475 0 
L 2900 0 
L 2900 538 
Q 2691 219 2414 64 
Q 2138 -91 1772 -91 
Q 1169 -91 856 284 
Q 544 659 544 1381 
z
M 1991 3584 
L 1991 3584 
z
" transform="scale(0.015625)"/>
       <path id="DejaVuSans-72" d="M 2631 2963 
Q 2534 3019 2420 3045 
Q 2306 3072 2169 3072 
Q 1681 3072 1420 2755 
Q 1159 2438 1159 1844 
L 1159 0 
L 581 0 
L 581 3500 
L 1159 3500 
L 1159 2956 
Q 1341 3275 1631 3429 
Q 1922 3584 2338 3584 
Q 2397 3584 2469 3576 
Q 2541 3569 2628 3553 
L 2631 2963 
z
" transform="scale(0.015625)"/>
       <path id="DejaVuSans-69" d="M 603 3500 
L 1178 3500 
L 1178 0 
L 603 0 
L 603 3500 
z
M 603 4863 
L 1178 4863 
L 1178 4134 
L 603 4134 
L 603 4863 
z
" transform="scale(0.015625)"/>
       <path id="DejaVuSans-6f" d="M 1959 3097 
Q 1497 3097 1228 2736 
Q 959 2375 959 1747 
Q 959 1119 1226 758 
Q 1494 397 1959 397 
Q 2419 397 2687 759 
Q 2956 1122 2956 1747 
Q 2956 2369 2687 2733 
Q 2419 3097 1959 3097 
z
M 1959 3584 
Q 2709 3584 3137 3096 
Q 3566 2609 3566 1747 
Q 3566 888 3137 398 
Q 2709 -91 1959 -91 
Q 1206 -91 779 398 
Q 353 888 353 1747 
Q 353 2609 779 3096 
Q 1206 3584 1959 3584 
z
" transform="scale(0.015625)"/>
       <path id="DejaVuSans-6e" d="M 3513 2113 
L 3513 0 
L 2938 0 
L 2938 2094 
Q 2938 2591 2744 2837 
Q 2550 3084 2163 3084 
Q 1697 3084 1428 2787 
Q 1159 2491 1159 1978 
L 1159 0 
L 581 0 
L 581 3500 
L 1159 3500 
L 1159 2956 
Q 1366 3272 1645 3428 
Q 1925 3584 2291 3584 
Q 2894 3584 3203 3211 
Q 3513 2838 3513 2113 
z
" transform="scale(0.015625)"/>
       <path id="DejaVuSans-20" transform="scale(0.015625)"/>
       <path id="DejaVuSans-64" d="M 2906 2969 
L 2906 4863 
L 3481 4863 
L 3481 0 
L 2906 0 
L 2906 525 
Q 2725 213 2448 61 
Q 2172 -91 1784 -91 
Q 1150 -91 751 415 
Q 353 922 353 1747 
Q 353 2572 751 3078 
Q 1150 3584 1784 3584 
Q 2172 3584 2448 3432 
Q 2725 3281 2906 2969 
z
M 947 1747 
Q 947 1113 1208 752 
Q 1469 391 1925 391 
Q 2381 391 2643 752 
Q 2906 1113 2906 1747 
Q 2906 2381 2643 2742 
Q 2381 3103 1925 3103 
Q 1469 3103 1208 2742 
Q 947 2381 947 1747 
z
" transform="scale(0.015625)"/>
       <path id="DejaVuSans-65" d="M 3597 1894 
L 3597 1613 
L 953 1613 
Q 991 1019 1311 708 
Q 1631 397 2203 397 
Q 2534 397 2845 478 
Q 3156 559 3463 722 
L 3463 178 
Q 3153 47 2828 -22 
Q 2503 -91 2169 -91 
Q 1331 -91 842 396 
Q 353 884 353 1716 
Q 353 2575 817 3079 
Q 1281 3584 2069 3584 
Q 2775 3584 3186 3129 
Q 3597 2675 3597 1894 
z
M 3022 2063 
Q 3016 2534 2758 2815 
Q 2500 3097 2075 3097 
Q 1594 3097 1305 2825 
Q 1016 2553 972 2059 
L 3022 2063 
z
" transform="scale(0.015625)"/>
       <path id="DejaVuSans-79" d="M 2059 -325 
Q 1816 -950 1584 -1140 
Q 1353 -1331 966 -1331 
L 506 -1331 
L 506 -850 
L 844 -850 
Q 1081 -850 1212 -737 
Q 1344 -625 1503 -206 
L 1606 56 
L 191 3500 
L 800 3500 
L 1894 763 
L 2988 3500 
L 3597 3500 
L 2059 -325 
z
" transform="scale(0.015625)"/>
       <path id="DejaVuSans-28" d="M 1984 4856 
Q 1566 4138 1362 3434 
Q 1159 2731 1159 2009 
Q 1159 1288 1364 580 
Q 1569 -128 1984 -844 
L 1484 -844 
Q 1016 -109 783 600 
Q 550 1309 550 2009 
Q 550 2706 781 3412 
Q 1013 4119 1484 4856 
L 1984 4856 
z
" transform="scale(0.015625)"/>
       <path id="DejaVuSans-Oblique-3bc" d="M -84 -1331 
L 856 3500 
L 1434 3500 
L 1009 1322 
Q 997 1256 987 1175 
Q 978 1094 978 1013 
Q 978 722 1161 565 
Q 1344 409 1684 409 
Q 2147 409 2431 671 
Q 2716 934 2816 1459 
L 3213 3500 
L 3788 3500 
L 3266 809 
Q 3253 750 3248 706 
Q 3244 663 3244 628 
Q 3244 531 3283 486 
Q 3322 441 3406 441 
Q 3438 441 3492 456 
Q 3547 472 3647 513 
L 3559 50 
Q 3422 -19 3297 -55 
Q 3172 -91 3053 -91 
Q 2847 -91 2730 40 
Q 2613 172 2613 403 
Q 2438 153 2195 31 
Q 1953 -91 1625 -91 
Q 1334 -91 1117 43 
Q 900 178 831 397 
L 494 -1331 
L -84 -1331 
z
" transform="scale(0.015625)"/>
       <path id="DejaVuSans-Oblique-6d" d="M 5747 2113 
L 5338 0 
L 4763 0 
L 5166 2094 
Q 5191 2228 5203 2325 
Q 5216 2422 5216 2491 
Q 5216 2772 5059 2928 
Q 4903 3084 4622 3084 
Q 4203 3084 3875 2770 
Q 3547 2456 3450 1953 
L 3066 0 
L 2491 0 
L 2900 2094 
Q 2925 2209 2937 2307 
Q 2950 2406 2950 2484 
Q 2950 2769 2794 2926 
Q 2638 3084 2363 3084 
Q 1938 3084 1609 2770 
Q 1281 2456 1184 1953 
L 800 0 
L 225 0 
L 909 3500 
L 1484 3500 
L 1375 2956 
Q 1609 3263 1923 3423 
Q 2238 3584 2597 3584 
Q 2978 3584 3223 3384 
Q 3469 3184 3519 2828 
Q 3781 3197 4126 3390 
Q 4472 3584 4856 3584 
Q 5306 3584 5551 3325 
Q 5797 3066 5797 2591 
Q 5797 2488 5784 2364 
Q 5772 2241 5747 2113 
z
" transform="scale(0.015625)"/>
       <path id="DejaVuSans-2e" d="M 684 794 
L 1344 794 
L 1344 0 
L 684 0 
L 684 794 
z
" transform="scale(0.015625)"/>
       <path id="DejaVuSans-2212" d="M 678 2272 
L 4684 2272 
L 4684 1741 
L 678 1741 
L 678 2272 
z
" transform="scale(0.015625)"/>
       <path id="DejaVuSans-29" d="M 513 4856 
L 1013 4856 
Q 1481 4119 1714 3412 
Q 1947 2706 1947 2009 
Q 1947 1309 1714 600 
Q 1481 -109 1013 -844 
L 513 -844 
Q 928 -128 1133 580 
Q 1338 1288 1338 2009 
Q 1338 2731 1133 3434 
Q 928 4138 513 4856 
z
" transform="scale(0.015625)"/>
      </defs>
      <use xlink:href="#DejaVuSans-73" transform="translate(0 0.765625)"/>
      <use xlink:href="#DejaVuSans-61" transform="translate(52.099609 0.765625)"/>
      <use xlink:href="#DejaVuSans-74" transform="translate(113.378906 0.765625)"/>
      <use xlink:href="#DejaVuSans-75" transform="translate(152.587891 0.765625)"/>
      <use xlink:href="#DejaVuSans-72" transform="translate(215.966797 0.765625)"/>
      <use xlink:href="#DejaVuSans-61" transform="translate(257.080078 0.765625)"/>
      <use xlink:href="#DejaVuSans-74" transform="translate(318.359375 0.765625)"/>
      <use xlink:href="#DejaVuSans-69" transform="translate(357.568359 0.765625)"/>
      <use xlink:href="#DejaVuSans-6f" transform="translate(385.351562 0.765625)"/>
      <use xlink:href="#DejaVuSans-6e" transform="translate(446.533203 0.765625)"/>
      <use xlink:href="#DejaVuSans-20" transform="translate(509.912109 0.765625)"/>
      <use xlink:href="#DejaVuSans-64" transform="translate(541.699219 0.765625)"/>
      <use xlink:href="#DejaVuSans-65" transform="translate(605.175781 0.765625)"/>
      <use xlink:href="#DejaVuSans-6e" transform="translate(666.699219 0.765625)"/>
      <use xlink:href="#DejaVuSans-73" transform="translate(730.078125 0.765625)"/>
      <use xlink:href="#DejaVuSans-69" transform="translate(782.177734 0.765625)"/>
      <use xlink:href="#DejaVuSans-74" transform="translate(809.960938 0.765625)"/>
      <use xlink:href="#DejaVuSans-79" transform="translate(849.169922 0.765625)"/>
      <use xlink:href="#DejaVuSans-20" transform="translate(908.349609 0.765625)"/>
      <use xlink:href="#DejaVuSans-28" transform="translate(940.136719 0.765625)"/>
      <use xlink:href="#DejaVuSans-Oblique-3bc" transform="translate(979.150391 0.765625)"/>
      <use xlink:href="#DejaVuSans-Oblique-6d" transform="translate(1042.773438 0.765625)"/>
      <use xlink:href="#DejaVuSans-2e" transform="translate(1140.185547 0.765625)"/>
      <use xlink:href="#DejaVuSans-Oblique-6d" transform="translate(1191.455078 0.765625)"/>
      <use xlink:href="#DejaVuSans-Oblique-6d" transform="translate(1288.867188 0.765625)"/>
      <use xlink:href="#DejaVuSans-2212" transform="translate(1390.929193 39.046875) scale(0.7)"/>
      <use xlink:href="#DejaVuSans-32" transform="translate(1449.581536 39.046875) scale(0.7)"/>
      <use xlink:href="#DejaVuSans-29" transform="translate(1496.852044 0.765625)"/>
     </g>
    </g>
   </g>
   <g id="matplotlib.axis_2">
    <g id="ytick_1">
     <g id="line2d_7">
      <defs>
       <path id="m7eb8d2542d" d="M 0 0 
L -3.5 0 
" style="stroke: #000000; stroke-width: 0.8"/>
      </defs>
      <g>
       <use xlink:href="#m7eb8d2542d" x="72.182" y="265.384203" style="stroke: #000000; stroke-width: 0.8"/>
      </g>
     </g>
     <g id="text_8">
      <!-- 180 -->
      <g transform="translate(34.642 271.462953) scale(0.16 -0.16)">
       <defs>
        <path id="DejaVuSans-38" d="M 2034 2216 
Q 1584 2216 1326 1975 
Q 1069 1734 1069 1313 
Q 1069 891 1326 650 
Q 1584 409 2034 409 
Q 2484 409 2743 651 
Q 3003 894 3003 1313 
Q 3003 1734 2745 1975 
Q 2488 2216 2034 2216 
z
M 1403 2484 
Q 997 2584 770 2862 
Q 544 3141 544 3541 
Q 544 4100 942 4425 
Q 1341 4750 2034 4750 
Q 2731 4750 3128 4425 
Q 3525 4100 3525 3541 
Q 3525 3141 3298 2862 
Q 3072 2584 2669 2484 
Q 3125 2378 3379 2068 
Q 3634 1759 3634 1313 
Q 3634 634 3220 271 
Q 2806 -91 2034 -91 
Q 1263 -91 848 271 
Q 434 634 434 1313 
Q 434 1759 690 2068 
Q 947 2378 1403 2484 
z
M 1172 3481 
Q 1172 3119 1398 2916 
Q 1625 2713 2034 2713 
Q 2441 2713 2670 2916 
Q 2900 3119 2900 3481 
Q 2900 3844 2670 4047 
Q 2441 4250 2034 4250 
Q 1625 4250 1398 4047 
Q 1172 3844 1172 3481 
z
" transform="scale(0.015625)"/>
       </defs>
       <use xlink:href="#DejaVuSans-31"/>
       <use xlink:href="#DejaVuSans-38" x="63.623047"/>
       <use xlink:href="#DejaVuSans-30" x="127.246094"/>
      </g>
     </g>
    </g>
    <g id="ytick_2">
     <g id="line2d_8">
      <g>
       <use xlink:href="#m7eb8d2542d" x="72.182" y="224.382487" style="stroke: #000000; stroke-width: 0.8"/>
      </g>
     </g>
     <g id="text_9">
      <!-- 200 -->
      <g transform="translate(34.642 230.461237) scale(0.16 -0.16)">
       <use xlink:href="#DejaVuSans-32"/>
       <use xlink:href="#DejaVuSans-30" x="63.623047"/>
       <use xlink:href="#DejaVuSans-30" x="127.246094"/>
      </g>
     </g>
    </g>
    <g id="ytick_3">
     <g id="line2d_9">
      <g>
       <use xlink:href="#m7eb8d2542d" x="72.182" y="183.380771" style="stroke: #000000; stroke-width: 0.8"/>
      </g>
     </g>
     <g id="text_10">
      <!-- 220 -->
      <g transform="translate(34.642 189.459521) scale(0.16 -0.16)">
       <use xlink:href="#DejaVuSans-32"/>
       <use xlink:href="#DejaVuSans-32" x="63.623047"/>
       <use xlink:href="#DejaVuSans-30" x="127.246094"/>
      </g>
     </g>
    </g>
    <g id="ytick_4">
     <g id="line2d_10">
      <g>
       <use xlink:href="#m7eb8d2542d" x="72.182" y="142.379055" style="stroke: #000000; stroke-width: 0.8"/>
      </g>
     </g>
     <g id="text_11">
      <!-- 240 -->
      <g transform="translate(34.642 148.457805) scale(0.16 -0.16)">
       <defs>
        <path id="DejaVuSans-34" d="M 2419 4116 
L 825 1625 
L 2419 1625 
L 2419 4116 
z
M 2253 4666 
L 3047 4666 
L 3047 1625 
L 3713 1625 
L 3713 1100 
L 3047 1100 
L 3047 0 
L 2419 0 
L 2419 1100 
L 313 1100 
L 313 1709 
L 2253 4666 
z
" transform="scale(0.015625)"/>
       </defs>
       <use xlink:href="#DejaVuSans-32"/>
       <use xlink:href="#DejaVuSans-34" x="63.623047"/>
       <use xlink:href="#DejaVuSans-30" x="127.246094"/>
      </g>
     </g>
    </g>
    <g id="ytick_5">
     <g id="line2d_11">
      <g>
       <use xlink:href="#m7eb8d2542d" x="72.182" y="101.377338" style="stroke: #000000; stroke-width: 0.8"/>
      </g>
     </g>
     <g id="text_12">
      <!-- 260 -->
      <g transform="translate(34.642 107.456088) scale(0.16 -0.16)">
       <defs>
        <path id="DejaVuSans-36" d="M 2113 2584 
Q 1688 2584 1439 2293 
Q 1191 2003 1191 1497 
Q 1191 994 1439 701 
Q 1688 409 2113 409 
Q 2538 409 2786 701 
Q 3034 994 3034 1497 
Q 3034 2003 2786 2293 
Q 2538 2584 2113 2584 
z
M 3366 4563 
L 3366 3988 
Q 3128 4100 2886 4159 
Q 2644 4219 2406 4219 
Q 1781 4219 1451 3797 
Q 1122 3375 1075 2522 
Q 1259 2794 1537 2939 
Q 1816 3084 2150 3084 
Q 2853 3084 3261 2657 
Q 3669 2231 3669 1497 
Q 3669 778 3244 343 
Q 2819 -91 2113 -91 
Q 1303 -91 875 529 
Q 447 1150 447 2328 
Q 447 3434 972 4092 
Q 1497 4750 2381 4750 
Q 2619 4750 2861 4703 
Q 3103 4656 3366 4563 
z
" transform="scale(0.015625)"/>
       </defs>
       <use xlink:href="#DejaVuSans-32"/>
       <use xlink:href="#DejaVuSans-36" x="63.623047"/>
       <use xlink:href="#DejaVuSans-30" x="127.246094"/>
      </g>
     </g>
    </g>
    <g id="ytick_6">
     <g id="line2d_12">
      <g>
       <use xlink:href="#m7eb8d2542d" x="72.182" y="60.375622" style="stroke: #000000; stroke-width: 0.8"/>
      </g>
     </g>
     <g id="text_13">
      <!-- 280 -->
      <g transform="translate(34.642 66.454372) scale(0.16 -0.16)">
       <use xlink:href="#DejaVuSans-32"/>
       <use xlink:href="#DejaVuSans-38" x="63.623047"/>
       <use xlink:href="#DejaVuSans-30" x="127.246094"/>
      </g>
     </g>
    </g>
    <g id="ytick_7">
     <g id="line2d_13">
      <g>
       <use xlink:href="#m7eb8d2542d" x="72.182" y="19.373906" style="stroke: #000000; stroke-width: 0.8"/>
      </g>
     </g>
     <g id="text_14">
      <!-- 300 -->
      <g transform="translate(34.642 25.452656) scale(0.16 -0.16)">
       <use xlink:href="#DejaVuSans-33"/>
       <use xlink:href="#DejaVuSans-30" x="63.623047"/>
       <use xlink:href="#DejaVuSans-30" x="127.246094"/>
      </g>
     </g>
    </g>
    <g id="text_15">
     <!-- hull pusher speed ($\mu m .h^{-1}$) -->
     <g transform="translate(27.492 253.484) rotate(-90) scale(0.15 -0.15)">
      <defs>
       <path id="DejaVuSans-68" d="M 3513 2113 
L 3513 0 
L 2938 0 
L 2938 2094 
Q 2938 2591 2744 2837 
Q 2550 3084 2163 3084 
Q 1697 3084 1428 2787 
Q 1159 2491 1159 1978 
L 1159 0 
L 581 0 
L 581 4863 
L 1159 4863 
L 1159 2956 
Q 1366 3272 1645 3428 
Q 1925 3584 2291 3584 
Q 2894 3584 3203 3211 
Q 3513 2838 3513 2113 
z
" transform="scale(0.015625)"/>
       <path id="DejaVuSans-6c" d="M 603 4863 
L 1178 4863 
L 1178 0 
L 603 0 
L 603 4863 
z
" transform="scale(0.015625)"/>
       <path id="DejaVuSans-70" d="M 1159 525 
L 1159 -1331 
L 581 -1331 
L 581 3500 
L 1159 3500 
L 1159 2969 
Q 1341 3281 1617 3432 
Q 1894 3584 2278 3584 
Q 2916 3584 3314 3078 
Q 3713 2572 3713 1747 
Q 3713 922 3314 415 
Q 2916 -91 2278 -91 
Q 1894 -91 1617 61 
Q 1341 213 1159 525 
z
M 3116 1747 
Q 3116 2381 2855 2742 
Q 2594 3103 2138 3103 
Q 1681 3103 1420 2742 
Q 1159 2381 1159 1747 
Q 1159 1113 1420 752 
Q 1681 391 2138 391 
Q 2594 391 2855 752 
Q 3116 1113 3116 1747 
z
" transform="scale(0.015625)"/>
       <path id="DejaVuSans-Oblique-68" d="M 3566 2113 
L 3156 0 
L 2578 0 
L 2988 2091 
Q 3016 2238 3031 2350 
Q 3047 2463 3047 2528 
Q 3047 2791 2881 2937 
Q 2716 3084 2419 3084 
Q 1956 3084 1617 2771 
Q 1278 2459 1178 1941 
L 800 0 
L 225 0 
L 1172 4863 
L 1747 4863 
L 1375 2950 
Q 1594 3244 1934 3414 
Q 2275 3584 2650 3584 
Q 3113 3584 3367 3334 
Q 3622 3084 3622 2631 
Q 3622 2519 3608 2391 
Q 3594 2263 3566 2113 
z
" transform="scale(0.015625)"/>
      </defs>
      <use xlink:href="#DejaVuSans-68" transform="translate(0 0.684375)"/>
      <use xlink:href="#DejaVuSans-75" transform="translate(63.378906 0.684375)"/>
      <use xlink:href="#DejaVuSans-6c" transform="translate(126.757812 0.684375)"/>
      <use xlink:href="#DejaVuSans-6c" transform="translate(154.541016 0.684375)"/>
      <use xlink:href="#DejaVuSans-20" transform="translate(182.324219 0.684375)"/>
      <use xlink:href="#DejaVuSans-70" transform="translate(214.111328 0.684375)"/>
      <use xlink:href="#DejaVuSans-75" transform="translate(277.587891 0.684375)"/>
      <use xlink:href="#DejaVuSans-73" transform="translate(340.966797 0.684375)"/>
      <use xlink:href="#DejaVuSans-68" transform="translate(393.066406 0.684375)"/>
      <use xlink:href="#DejaVuSans-65" transform="translate(456.445312 0.684375)"/>
      <use xlink:href="#DejaVuSans-72" transform="translate(517.96875 0.684375)"/>
      <use xlink:href="#DejaVuSans-20" transform="translate(559.082031 0.684375)"/>
      <use xlink:href="#DejaVuSans-73" transform="translate(590.869141 0.684375)"/>
      <use xlink:href="#DejaVuSans-70" transform="translate(642.96875 0.684375)"/>
      <use xlink:href="#DejaVuSans-65" transform="translate(706.445312 0.684375)"/>
      <use xlink:href="#DejaVuSans-65" transform="translate(767.96875 0.684375)"/>
      <use xlink:href="#DejaVuSans-64" transform="translate(829.492188 0.684375)"/>
      <use xlink:href="#DejaVuSans-20" transform="translate(892.96875 0.684375)"/>
      <use xlink:href="#DejaVuSans-28" transform="translate(924.755859 0.684375)"/>
      <use xlink:href="#DejaVuSans-Oblique-3bc" transform="translate(963.769531 0.684375)"/>
      <use xlink:href="#DejaVuSans-Oblique-6d" transform="translate(1027.392578 0.684375)"/>
      <use xlink:href="#DejaVuSans-2e" transform="translate(1124.804688 0.684375)"/>
      <use xlink:href="#DejaVuSans-Oblique-68" transform="translate(1176.074219 0.684375)"/>
      <use xlink:href="#DejaVuSans-2212" transform="translate(1246.900833 38.965625) scale(0.7)"/>
      <use xlink:href="#DejaVuSans-31" transform="translate(1305.553177 38.965625) scale(0.7)"/>
      <use xlink:href="#DejaVuSans-29" transform="translate(1352.823685 0.684375)"/>
     </g>
    </g>
   </g>
   <g id="LineCollection_1">
    <path d="M 160.932765 160.839541 
L 160.932765 146.949476 
" clip-path="url(#p51a98a2046)" style="fill: none; stroke: #ffa500; stroke-opacity: 0.2; stroke-width: 3"/>
   </g>
   <g id="LineCollection_2">
    <path d="M 212.722008 147.638648 
L 212.722008 135.614734 
" clip-path="url(#p51a98a2046)" style="fill: none; stroke: #0000ff; stroke-opacity: 0.2; stroke-width: 3"/>
   </g>
   <g id="LineCollection_3">
    <path d="M 225.96759 133.269058 
L 225.96759 111.969536 
" clip-path="url(#p51a98a2046)" style="fill: none; stroke: #0000ff; stroke-opacity: 0.2; stroke-width: 3"/>
   </g>
   <g id="LineCollection_4">
    <path d="M 283.705713 274.796727 
L 283.705713 240.380621 
" clip-path="url(#p51a98a2046)" style="fill: none; stroke: #0000ff; stroke-opacity: 0.2; stroke-width: 3"/>
   </g>
   <g id="LineCollection_5">
    <path d="M 289.448011 179.393836 
L 289.448011 146.90292 
" clip-path="url(#p51a98a2046)" style="fill: none; stroke: #0000ff; stroke-opacity: 0.2; stroke-width: 3"/>
   </g>
   <g id="LineCollection_6">
    <path d="M 256.154427 173.559663 
L 256.154427 138.215443 
" clip-path="url(#p51a98a2046)" style="fill: none; stroke: #800080; stroke-opacity: 0.2; stroke-width: 3"/>
   </g>
   <g id="LineCollection_7">
    <path d="M 181.377158 87.880315 
L 181.377158 64.671608 
" clip-path="url(#p51a98a2046)" style="fill: none; stroke: #800080; stroke-opacity: 0.2; stroke-width: 3"/>
   </g>
   <g id="LineCollection_8">
    <path d="M 289.191977 144.462904 
L 289.191977 134.306335 
" clip-path="url(#p51a98a2046)" style="fill: none; stroke: #800080; stroke-opacity: 0.2; stroke-width: 3"/>
   </g>
   <g id="LineCollection_9">
    <path d="M 300.551674 154.200454 
L 300.551674 121.377894 
" clip-path="url(#p51a98a2046)" style="fill: none; stroke: #0000ff; stroke-opacity: 0.2; stroke-width: 3"/>
   </g>
   <g id="LineCollection_10">
    <path d="M 109.379483 156.715122 
L 109.379483 142.136907 
" clip-path="url(#p51a98a2046)" style="fill: none; stroke: #ffa500; stroke-opacity: 0.2; stroke-width: 3"/>
   </g>
   <g id="LineCollection_11">
    <path d="M 141.160968 162.441133 
L 141.160968 137.675605 
" clip-path="url(#p51a98a2046)" style="fill: none; stroke: #ffa500; stroke-opacity: 0.2; stroke-width: 3"/>
   </g>
   <g id="LineCollection_12">
    <path d="M 88.979971 131.614536 
L 88.979971 118.383019 
" clip-path="url(#p51a98a2046)" style="fill: none; stroke: #ff0000; stroke-opacity: 0.2; stroke-width: 3"/>
   </g>
   <g id="LineCollection_13">
    <path d="M 156.626872 71.609293 
L 156.626872 46.086917 
" clip-path="url(#p51a98a2046)" style="fill: none; stroke: #ff0000; stroke-opacity: 0.2; stroke-width: 3"/>
   </g>
   <g id="LineCollection_14">
    <path d="M 205.794548 36.600469 
L 205.794548 23.371273 
" clip-path="url(#p51a98a2046)" style="fill: none; stroke: #ffa500; stroke-opacity: 0.2; stroke-width: 3"/>
   </g>
   <g id="LineCollection_15">
    <path d="M 202.889973 118.029724 
L 202.889973 94.334126 
" clip-path="url(#p51a98a2046)" style="fill: none; stroke: #ffa500; stroke-opacity: 0.2; stroke-width: 3"/>
   </g>
   <g id="LineCollection_16">
    <path d="M 123.249474 45.756986 
L 123.249474 23.43357 
" clip-path="url(#p51a98a2046)" style="fill: none; stroke: #ffa500; stroke-opacity: 0.2; stroke-width: 3"/>
   </g>
   <g id="LineCollection_17">
    <path d="M 248.359094 50.000145 
L 248.359094 26.82229 
" clip-path="url(#p51a98a2046)" style="fill: none; stroke: #ffa500; stroke-opacity: 0.2; stroke-width: 3"/>
   </g>
   <g id="LineCollection_18">
    <path d="M 300.100901 255.83726 
L 300.100901 239.569126 
" clip-path="url(#p51a98a2046)" style="fill: none; stroke: #000000; stroke-opacity: 0.2; stroke-width: 3"/>
   </g>
   <g id="LineCollection_19">
    <path d="M 424.939384 210.761975 
L 424.939384 210.761975 
" clip-path="url(#p51a98a2046)" style="fill: none; stroke: #000000; stroke-opacity: 0.2; stroke-width: 3"/>
   </g>
   <g id="LineCollection_20">
    <path d="M 370.084204 220.535014 
L 370.084204 188.409338 
" clip-path="url(#p51a98a2046)" style="fill: none; stroke: #000000; stroke-opacity: 0.2; stroke-width: 3"/>
   </g>
   <g id="LineCollection_21">
    <path d="M 156.028357 144.924626 
L 156.028357 113.196652 
" clip-path="url(#p51a98a2046)" style="fill: none; stroke: #ffa500; stroke-opacity: 0.2; stroke-width: 3"/>
   </g>
   <g id="LineCollection_22">
    <path d="M 163.306872 98.366935 
L 163.306872 70.870754 
" clip-path="url(#p51a98a2046)" style="fill: none; stroke: #ffa500; stroke-opacity: 0.2; stroke-width: 3"/>
   </g>
   <g id="LineCollection_23">
    <path d="M 151.228105 163.180797 
L 151.228105 137.818975 
" clip-path="url(#p51a98a2046)" style="fill: none; stroke: #ffa500; stroke-opacity: 0.2; stroke-width: 3"/>
   </g>
   <g id="line2d_14">
    <path d="M 160.932765 153.894508 
" clip-path="url(#p51a98a2046)" style="fill: none; stroke: #ffa500; stroke-opacity: 0.2; stroke-width: 3; stroke-linecap: square"/>
   </g>
   <g id="line2d_15">
    <path d="M 212.722008 141.626691 
" clip-path="url(#p51a98a2046)" style="fill: none; stroke: #0000ff; stroke-opacity: 0.2; stroke-width: 3; stroke-linecap: square"/>
   </g>
   <g id="line2d_16">
    <path d="M 225.96759 122.619297 
" clip-path="url(#p51a98a2046)" style="fill: none; stroke: #0000ff; stroke-opacity: 0.2; stroke-width: 3; stroke-linecap: square"/>
   </g>
   <g id="line2d_17">
    <path d="M 283.705713 257.588674 
" clip-path="url(#p51a98a2046)" style="fill: none; stroke: #0000ff; stroke-opacity: 0.2; stroke-width: 3; stroke-linecap: square"/>
   </g>
   <g id="line2d_18">
    <path d="M 289.448011 163.148378 
" clip-path="url(#p51a98a2046)" style="fill: none; stroke: #0000ff; stroke-opacity: 0.2; stroke-width: 3; stroke-linecap: square"/>
   </g>
   <g id="line2d_19">
    <path d="M 256.154427 155.887553 
" clip-path="url(#p51a98a2046)" style="fill: none; stroke: #800080; stroke-opacity: 0.2; stroke-width: 3; stroke-linecap: square"/>
   </g>
   <g id="line2d_20">
    <path d="M 181.377158 76.275962 
" clip-path="url(#p51a98a2046)" style="fill: none; stroke: #800080; stroke-opacity: 0.2; stroke-width: 3; stroke-linecap: square"/>
   </g>
   <g id="line2d_21">
    <path d="M 289.191977 139.38462 
" clip-path="url(#p51a98a2046)" style="fill: none; stroke: #800080; stroke-opacity: 0.2; stroke-width: 3; stroke-linecap: square"/>
   </g>
   <g id="line2d_22">
    <path d="M 300.551674 137.789174 
" clip-path="url(#p51a98a2046)" style="fill: none; stroke: #0000ff; stroke-opacity: 0.2; stroke-width: 3; stroke-linecap: square"/>
   </g>
   <g id="line2d_23">
    <path d="M 109.379483 149.426015 
" clip-path="url(#p51a98a2046)" style="fill: none; stroke: #ffa500; stroke-opacity: 0.2; stroke-width: 3; stroke-linecap: square"/>
   </g>
   <g id="line2d_24">
    <path d="M 141.160968 150.058369 
" clip-path="url(#p51a98a2046)" style="fill: none; stroke: #ffa500; stroke-opacity: 0.2; stroke-width: 3; stroke-linecap: square"/>
   </g>
   <g id="line2d_25">
    <path d="M 88.979971 124.998777 
" clip-path="url(#p51a98a2046)" style="fill: none; stroke: #ff0000; stroke-opacity: 0.2; stroke-width: 3; stroke-linecap: square"/>
   </g>
   <g id="line2d_26">
    <path d="M 156.626872 58.848105 
" clip-path="url(#p51a98a2046)" style="fill: none; stroke: #ff0000; stroke-opacity: 0.2; stroke-width: 3; stroke-linecap: square"/>
   </g>
   <g id="line2d_27">
    <path d="M 205.794548 29.985871 
" clip-path="url(#p51a98a2046)" style="fill: none; stroke: #ffa500; stroke-opacity: 0.2; stroke-width: 3; stroke-linecap: square"/>
   </g>
   <g id="line2d_28">
    <path d="M 202.889973 106.181925 
" clip-path="url(#p51a98a2046)" style="fill: none; stroke: #ffa500; stroke-opacity: 0.2; stroke-width: 3; stroke-linecap: square"/>
   </g>
   <g id="line2d_29">
    <path d="M 123.249474 34.595278 
" clip-path="url(#p51a98a2046)" style="fill: none; stroke: #ffa500; stroke-opacity: 0.2; stroke-width: 3; stroke-linecap: square"/>
   </g>
   <g id="line2d_30">
    <path d="M 248.359094 38.411218 
" clip-path="url(#p51a98a2046)" style="fill: none; stroke: #ffa500; stroke-opacity: 0.2; stroke-width: 3; stroke-linecap: square"/>
   </g>
   <g id="line2d_31">
    <path d="M 300.100901 247.703193 
" clip-path="url(#p51a98a2046)" style="fill: none; stroke: #000000; stroke-opacity: 0.2; stroke-width: 3; stroke-linecap: square"/>
   </g>
   <g id="line2d_32">
    <path d="M 424.939384 210.761975 
" clip-path="url(#p51a98a2046)" style="fill: none; stroke: #000000; stroke-opacity: 0.2; stroke-width: 3; stroke-linecap: square"/>
   </g>
   <g id="line2d_33">
    <path d="M 370.084204 204.472176 
" clip-path="url(#p51a98a2046)" style="fill: none; stroke: #000000; stroke-opacity: 0.2; stroke-width: 3; stroke-linecap: square"/>
   </g>
   <g id="line2d_34">
    <path d="M 156.028357 129.060639 
" clip-path="url(#p51a98a2046)" style="fill: none; stroke: #ffa500; stroke-opacity: 0.2; stroke-width: 3; stroke-linecap: square"/>
   </g>
   <g id="line2d_35">
    <path d="M 163.306872 84.618844 
" clip-path="url(#p51a98a2046)" style="fill: none; stroke: #ffa500; stroke-opacity: 0.2; stroke-width: 3; stroke-linecap: square"/>
   </g>
   <g id="line2d_36">
    <path d="M 151.228105 150.499886 
" clip-path="url(#p51a98a2046)" style="fill: none; stroke: #ffa500; stroke-opacity: 0.2; stroke-width: 3; stroke-linecap: square"/>
   </g>
   <g id="patch_3">
    <path d="M 72.182 287.368 
L 72.182 10.8 
" style="fill: none; stroke: #000000; stroke-width: 0.8; stroke-linejoin: miter; stroke-linecap: square"/>
   </g>
   <g id="patch_4">
    <path d="M 441.737355 287.368 
L 441.737355 10.8 
" style="fill: none; stroke: #000000; stroke-width: 0.8; stroke-linejoin: miter; stroke-linecap: square"/>
   </g>
   <g id="patch_5">
    <path d="M 72.182 287.368 
L 441.737355 287.368 
" style="fill: none; stroke: #000000; stroke-width: 0.8; stroke-linejoin: miter; stroke-linecap: square"/>
   </g>
   <g id="patch_6">
    <path d="M 72.182 10.8 
L 441.737355 10.8 
" style="fill: none; stroke: #000000; stroke-width: 0.8; stroke-linejoin: miter; stroke-linecap: square"/>
   </g>
  </g>
 </g>
 <defs>
  <clipPath id="p51a98a2046">
   <rect x="72.182" y="10.8" width="369.555355" height="276.568"/>
  </clipPath>
 </defs>
</svg>
