<?xml version="1.0" encoding="utf-8" standalone="no"?>
<!DOCTYPE svg PUBLIC "-//W3C//DTD SVG 1.1//EN"
  "http://www.w3.org/Graphics/SVG/1.1/DTD/svg11.dtd">
<svg xmlns:xlink="http://www.w3.org/1999/xlink" width="460.8pt" height="345.6pt" viewBox="0 0 460.8 345.6" xmlns="http://www.w3.org/2000/svg" version="1.1">
 <metadata>
  <rdf:RDF xmlns:dc="http://purl.org/dc/elements/1.1/" xmlns:cc="http://creativecommons.org/ns#" xmlns:rdf="http://www.w3.org/1999/02/22-rdf-syntax-ns#">
   <cc:Work>
    <dc:type rdf:resource="http://purl.org/dc/dcmitype/StillImage"/>
    <dc:date>2022-11-03T16:44:57.655946</dc:date>
    <dc:format>image/svg+xml</dc:format>
    <dc:creator>
     <cc:Agent>
      <dc:title>Matplotlib v3.6.0, https://matplotlib.org/</dc:title>
     </cc:Agent>
    </dc:creator>
   </cc:Work>
  </rdf:RDF>
 </metadata>
 <defs>
  <style type="text/css">*{stroke-linejoin: round; stroke-linecap: butt}</style>
 </defs>
 <g id="figure_1">
  <g id="patch_1">
   <path d="M 0 345.6 
L 460.8 345.6 
L 460.8 0 
L 0 0 
z
" style="fill: #ffffff"/>
  </g>
  <g id="axes_1">
   <g id="patch_2">
    <path d="M 62.3 287.08 
L 450 287.08 
L 450 16.971753 
L 62.3 16.971753 
z
" style="fill: #ffffff"/>
   </g>
   <g id="PathCollection_1">
    <defs>
     <path id="mc3074582d6" d="M 0 5 
C 1.326016 5 2.597899 4.473168 3.535534 3.535534 
C 4.473168 2.597899 5 1.326016 5 0 
C 5 -1.326016 4.473168 -2.597899 3.535534 -3.535534 
C 2.597899 -4.473168 1.326016 -5 0 -5 
C -1.326016 -5 -2.597899 -4.473168 -3.535534 -3.535534 
C -4.473168 -2.597899 -5 -1.326016 -5 0 
C -5 1.326016 -4.473168 2.597899 -3.535534 3.535534 
C -2.597899 4.473168 -1.326016 5 0 5 
z
" style="stroke: #1f77b4"/>
    </defs>
    <g clip-path="url(#pdb20f80661)">
     <use xlink:href="#mc3074582d6" x="94.556067" y="249.252415" style="fill: #1f77b4; stroke: #1f77b4"/>
     <use xlink:href="#mc3074582d6" x="124.3651" y="214.457247" style="fill: #1f77b4; stroke: #1f77b4"/>
     <use xlink:href="#mc3074582d6" x="143.179406" y="191.260469" style="fill: #1f77b4; stroke: #1f77b4"/>
     <use xlink:href="#mc3074582d6" x="169.257052" y="168.06369" style="fill: #1f77b4; stroke: #1f77b4"/>
     <use xlink:href="#mc3074582d6" x="183.16308" y="144.866912" style="fill: #1f77b4; stroke: #1f77b4"/>
     <use xlink:href="#mc3074582d6" x="218.107296" y="110.071744" style="fill: #1f77b4; stroke: #1f77b4"/>
    </g>
   </g>
   <g id="PathCollection_2">
    <defs>
     <path id="me4ed1f7b39" d="M 0 5 
C 1.326016 5 2.597899 4.473168 3.535534 3.535534 
C 4.473168 2.597899 5 1.326016 5 0 
C 5 -1.326016 4.473168 -2.597899 3.535534 -3.535534 
C 2.597899 -4.473168 1.326016 -5 0 -5 
C -1.326016 -5 -2.597899 -4.473168 -3.535534 -3.535534 
C -4.473168 -2.597899 -5 -1.326016 -5 0 
C -5 1.326016 -4.473168 2.597899 -3.535534 3.535534 
C -2.597899 4.473168 -1.326016 5 0 5 
z
" style="stroke: #ff7f0e"/>
    </defs>
    <g clip-path="url(#pdb20f80661)">
     <use xlink:href="#me4ed1f7b39" x="141.985914" y="249.252415" style="fill: #ff7f0e; stroke: #ff7f0e"/>
     <use xlink:href="#me4ed1f7b39" x="177.845648" y="214.457247" style="fill: #ff7f0e; stroke: #ff7f0e"/>
     <use xlink:href="#me4ed1f7b39" x="214.406733" y="191.260469" style="fill: #ff7f0e; stroke: #ff7f0e"/>
     <use xlink:href="#me4ed1f7b39" x="246.658699" y="168.06369" style="fill: #ff7f0e; stroke: #ff7f0e"/>
     <use xlink:href="#me4ed1f7b39" x="261.904351" y="144.866912" style="fill: #ff7f0e; stroke: #ff7f0e"/>
     <use xlink:href="#me4ed1f7b39" x="288.608209" y="133.268522" style="fill: #ff7f0e; stroke: #ff7f0e"/>
     <use xlink:href="#me4ed1f7b39" x="308.954218" y="110.071744" style="fill: #ff7f0e; stroke: #ff7f0e"/>
     <use xlink:href="#me4ed1f7b39" x="333.148854" y="98.473354" style="fill: #ff7f0e; stroke: #ff7f0e"/>
     <use xlink:href="#me4ed1f7b39" x="349.849117" y="86.874965" style="fill: #ff7f0e; stroke: #ff7f0e"/>
     <use xlink:href="#me4ed1f7b39" x="372.394628" y="63.678186" style="fill: #ff7f0e; stroke: #ff7f0e"/>
    </g>
   </g>
   <g id="PathCollection_3">
    <defs>
     <path id="mf305235e0c" d="M 0 5 
C 1.326016 5 2.597899 4.473168 3.535534 3.535534 
C 4.473168 2.597899 5 1.326016 5 0 
C 5 -1.326016 4.473168 -2.597899 3.535534 -3.535534 
C 2.597899 -4.473168 1.326016 -5 0 -5 
C -1.326016 -5 -2.597899 -4.473168 -3.535534 -3.535534 
C -4.473168 -2.597899 -5 -1.326016 -5 0 
C -5 1.326016 -4.473168 2.597899 -3.535534 3.535534 
C -2.597899 4.473168 -1.326016 5 0 5 
z
" style="stroke: #2ca02c"/>
    </defs>
    <g clip-path="url(#pdb20f80661)">
     <use xlink:href="#mf305235e0c" x="130.734638" y="237.654026" style="fill: #2ca02c; stroke: #2ca02c"/>
     <use xlink:href="#mf305235e0c" x="167.080215" y="202.858858" style="fill: #2ca02c; stroke: #2ca02c"/>
     <use xlink:href="#mf305235e0c" x="192.504505" y="179.662079" style="fill: #2ca02c; stroke: #2ca02c"/>
     <use xlink:href="#mf305235e0c" x="212.755684" y="156.465301" style="fill: #2ca02c; stroke: #2ca02c"/>
     <use xlink:href="#mf305235e0c" x="219.023274" y="144.866912" style="fill: #2ca02c; stroke: #2ca02c"/>
     <use xlink:href="#mf305235e0c" x="265.45857" y="121.670133" style="fill: #2ca02c; stroke: #2ca02c"/>
     <use xlink:href="#mf305235e0c" x="259.476501" y="110.071744" style="fill: #2ca02c; stroke: #2ca02c"/>
    </g>
   </g>
   <g id="PathCollection_4">
    <defs>
     <path id="m0ed6c33f97" d="M 0 5 
C 1.326016 5 2.597899 4.473168 3.535534 3.535534 
C 4.473168 2.597899 5 1.326016 5 0 
C 5 -1.326016 4.473168 -2.597899 3.535534 -3.535534 
C 2.597899 -4.473168 1.326016 -5 0 -5 
C -1.326016 -5 -2.597899 -4.473168 -3.535534 -3.535534 
C -4.473168 -2.597899 -5 -1.326016 -5 0 
C -5 1.326016 -4.473168 2.597899 -3.535534 3.535534 
C -2.597899 4.473168 -1.326016 5 0 5 
z
" style="stroke: #d62728"/>
    </defs>
    <g clip-path="url(#pdb20f80661)">
     <use xlink:href="#m0ed6c33f97" x="166.39003" y="214.457247" style="fill: #d62728; stroke: #d62728"/>
     <use xlink:href="#m0ed6c33f97" x="197.82842" y="191.260469" style="fill: #d62728; stroke: #d62728"/>
     <use xlink:href="#m0ed6c33f97" x="247.417326" y="168.06369" style="fill: #d62728; stroke: #d62728"/>
     <use xlink:href="#m0ed6c33f97" x="262.778402" y="144.866912" style="fill: #d62728; stroke: #d62728"/>
     <use xlink:href="#m0ed6c33f97" x="289.140771" y="121.670133" style="fill: #d62728; stroke: #d62728"/>
     <use xlink:href="#m0ed6c33f97" x="314.203836" y="110.071744" style="fill: #d62728; stroke: #d62728"/>
     <use xlink:href="#m0ed6c33f97" x="339.348889" y="98.473354" style="fill: #d62728; stroke: #d62728"/>
     <use xlink:href="#m0ed6c33f97" x="333.770287" y="75.276576" style="fill: #d62728; stroke: #d62728"/>
     <use xlink:href="#m0ed6c33f97" x="357.992033" y="63.678186" style="fill: #d62728; stroke: #d62728"/>
     <use xlink:href="#m0ed6c33f97" x="369.764791" y="52.079797" style="fill: #d62728; stroke: #d62728"/>
     <use xlink:href="#m0ed6c33f97" x="373.351455" y="40.481408" style="fill: #d62728; stroke: #d62728"/>
    </g>
   </g>
   <g id="PathCollection_5">
    <defs>
     <path id="mdd854bbe2a" d="M 0 5 
C 1.326016 5 2.597899 4.473168 3.535534 3.535534 
C 4.473168 2.597899 5 1.326016 5 0 
C 5 -1.326016 4.473168 -2.597899 3.535534 -3.535534 
C 2.597899 -4.473168 1.326016 -5 0 -5 
C -1.326016 -5 -2.597899 -4.473168 -3.535534 -3.535534 
C -4.473168 -2.597899 -5 -1.326016 -5 0 
C -5 1.326016 -4.473168 2.597899 -3.535534 3.535534 
C -2.597899 4.473168 -1.326016 5 0 5 
z
" style="stroke: #9467bd"/>
    </defs>
    <g clip-path="url(#pdb20f80661)">
     <use xlink:href="#mdd854bbe2a" x="184.18694" y="226.055637" style="fill: #9467bd; stroke: #9467bd"/>
     <use xlink:href="#mdd854bbe2a" x="212.902842" y="202.858858" style="fill: #9467bd; stroke: #9467bd"/>
     <use xlink:href="#mdd854bbe2a" x="238.993315" y="179.662079" style="fill: #9467bd; stroke: #9467bd"/>
     <use xlink:href="#mdd854bbe2a" x="264.185698" y="156.465301" style="fill: #9467bd; stroke: #9467bd"/>
     <use xlink:href="#mdd854bbe2a" x="280.311477" y="133.268522" style="fill: #9467bd; stroke: #9467bd"/>
     <use xlink:href="#mdd854bbe2a" x="299.743479" y="121.670133" style="fill: #9467bd; stroke: #9467bd"/>
     <use xlink:href="#mdd854bbe2a" x="328.31007" y="98.473354" style="fill: #9467bd; stroke: #9467bd"/>
     <use xlink:href="#mdd854bbe2a" x="355.826297" y="86.874965" style="fill: #9467bd; stroke: #9467bd"/>
     <use xlink:href="#mdd854bbe2a" x="371.886869" y="75.276576" style="fill: #9467bd; stroke: #9467bd"/>
     <use xlink:href="#mdd854bbe2a" x="405.671839" y="52.079797" style="fill: #9467bd; stroke: #9467bd"/>
     <use xlink:href="#mdd854bbe2a" x="432.377273" y="40.481408" style="fill: #9467bd; stroke: #9467bd"/>
    </g>
   </g>
   <g id="PathCollection_6">
    <defs>
     <path id="m95b9940408" d="M 0 5 
C 1.326016 5 2.597899 4.473168 3.535534 3.535534 
C 4.473168 2.597899 5 1.326016 5 0 
C 5 -1.326016 4.473168 -2.597899 3.535534 -3.535534 
C 2.597899 -4.473168 1.326016 -5 0 -5 
C -1.326016 -5 -2.597899 -4.473168 -3.535534 -3.535534 
C -4.473168 -2.597899 -5 -1.326016 -5 0 
C -5 1.326016 -4.473168 2.597899 -3.535534 3.535534 
C -2.597899 4.473168 -1.326016 5 0 5 
z
" style="stroke: #8c564b"/>
    </defs>
    <g clip-path="url(#pdb20f80661)">
     <use xlink:href="#m95b9940408" x="114.084661" y="237.654026" style="fill: #8c564b; stroke: #8c564b"/>
     <use xlink:href="#m95b9940408" x="136.213851" y="214.457247" style="fill: #8c564b; stroke: #8c564b"/>
     <use xlink:href="#m95b9940408" x="155.922465" y="191.260469" style="fill: #8c564b; stroke: #8c564b"/>
     <use xlink:href="#m95b9940408" x="182.054715" y="168.06369" style="fill: #8c564b; stroke: #8c564b"/>
     <use xlink:href="#m95b9940408" x="203.946541" y="144.866912" style="fill: #8c564b; stroke: #8c564b"/>
     <use xlink:href="#m95b9940408" x="224.088608" y="121.670133" style="fill: #8c564b; stroke: #8c564b"/>
     <use xlink:href="#m95b9940408" x="230.499325" y="110.071744" style="fill: #8c564b; stroke: #8c564b"/>
     <use xlink:href="#m95b9940408" x="245.325923" y="98.473354" style="fill: #8c564b; stroke: #8c564b"/>
     <use xlink:href="#m95b9940408" x="263.687081" y="75.276576" style="fill: #8c564b; stroke: #8c564b"/>
     <use xlink:href="#m95b9940408" x="275.678466" y="63.678186" style="fill: #8c564b; stroke: #8c564b"/>
     <use xlink:href="#m95b9940408" x="295.63848" y="52.079797" style="fill: #8c564b; stroke: #8c564b"/>
     <use xlink:href="#m95b9940408" x="305.90765" y="40.481408" style="fill: #8c564b; stroke: #8c564b"/>
    </g>
   </g>
   <g id="PathCollection_7">
    <defs>
     <path id="m350f191f36" d="M 0 5 
C 1.326016 5 2.597899 4.473168 3.535534 3.535534 
C 4.473168 2.597899 5 1.326016 5 0 
C 5 -1.326016 4.473168 -2.597899 3.535534 -3.535534 
C 2.597899 -4.473168 1.326016 -5 0 -5 
C -1.326016 -5 -2.597899 -4.473168 -3.535534 -3.535534 
C -4.473168 -2.597899 -5 -1.326016 -5 0 
C -5 1.326016 -4.473168 2.597899 -3.535534 3.535534 
C -2.597899 4.473168 -1.326016 5 0 5 
z
" style="stroke: #e377c2"/>
    </defs>
    <g clip-path="url(#pdb20f80661)">
     <use xlink:href="#m350f191f36" x="87.368497" y="272.449194" style="fill: #e377c2; stroke: #e377c2"/>
     <use xlink:href="#m350f191f36" x="122.933159" y="237.654026" style="fill: #e377c2; stroke: #e377c2"/>
     <use xlink:href="#m350f191f36" x="150.697511" y="214.457247" style="fill: #e377c2; stroke: #e377c2"/>
     <use xlink:href="#m350f191f36" x="176.323055" y="191.260469" style="fill: #e377c2; stroke: #e377c2"/>
     <use xlink:href="#m350f191f36" x="206.643697" y="168.06369" style="fill: #e377c2; stroke: #e377c2"/>
     <use xlink:href="#m350f191f36" x="226.102867" y="144.866912" style="fill: #e377c2; stroke: #e377c2"/>
     <use xlink:href="#m350f191f36" x="244.277012" y="121.670133" style="fill: #e377c2; stroke: #e377c2"/>
     <use xlink:href="#m350f191f36" x="259.713164" y="110.071744" style="fill: #e377c2; stroke: #e377c2"/>
     <use xlink:href="#m350f191f36" x="276.057024" y="98.473354" style="fill: #e377c2; stroke: #e377c2"/>
     <use xlink:href="#m350f191f36" x="292.790939" y="75.276576" style="fill: #e377c2; stroke: #e377c2"/>
    </g>
   </g>
   <g id="PathCollection_8">
    <defs>
     <path id="m68d8fa1d0a" d="M 0 5 
C 1.326016 5 2.597899 4.473168 3.535534 3.535534 
C 4.473168 2.597899 5 1.326016 5 0 
C 5 -1.326016 4.473168 -2.597899 3.535534 -3.535534 
C 2.597899 -4.473168 1.326016 -5 0 -5 
C -1.326016 -5 -2.597899 -4.473168 -3.535534 -3.535534 
C -4.473168 -2.597899 -5 -1.326016 -5 0 
C -5 1.326016 -4.473168 2.597899 -3.535534 3.535534 
C -2.597899 4.473168 -1.326016 5 0 5 
z
" style="stroke: #7f7f7f"/>
    </defs>
    <g clip-path="url(#pdb20f80661)">
     <use xlink:href="#m68d8fa1d0a" x="101.507553" y="226.055637" style="fill: #7f7f7f; stroke: #7f7f7f"/>
     <use xlink:href="#m68d8fa1d0a" x="127.117641" y="202.858858" style="fill: #7f7f7f; stroke: #7f7f7f"/>
     <use xlink:href="#m68d8fa1d0a" x="174.724549" y="179.662079" style="fill: #7f7f7f; stroke: #7f7f7f"/>
     <use xlink:href="#m68d8fa1d0a" x="161.353164" y="156.465301" style="fill: #7f7f7f; stroke: #7f7f7f"/>
     <use xlink:href="#m68d8fa1d0a" x="169.918963" y="133.268522" style="fill: #7f7f7f; stroke: #7f7f7f"/>
     <use xlink:href="#m68d8fa1d0a" x="190.2116" y="121.670133" style="fill: #7f7f7f; stroke: #7f7f7f"/>
     <use xlink:href="#m68d8fa1d0a" x="202.414075" y="98.473354" style="fill: #7f7f7f; stroke: #7f7f7f"/>
     <use xlink:href="#m68d8fa1d0a" x="220.258629" y="86.874965" style="fill: #7f7f7f; stroke: #7f7f7f"/>
    </g>
   </g>
   <g id="PathCollection_9">
    <defs>
     <path id="mbb6d3177c5" d="M 0 5 
C 1.326016 5 2.597899 4.473168 3.535534 3.535534 
C 4.473168 2.597899 5 1.326016 5 0 
C 5 -1.326016 4.473168 -2.597899 3.535534 -3.535534 
C 2.597899 -4.473168 1.326016 -5 0 -5 
C -1.326016 -5 -2.597899 -4.473168 -3.535534 -3.535534 
C -4.473168 -2.597899 -5 -1.326016 -5 0 
C -5 1.326016 -4.473168 2.597899 -3.535534 3.535534 
C -2.597899 4.473168 -1.326016 5 0 5 
z
" style="stroke: #bcbd22"/>
    </defs>
    <g clip-path="url(#pdb20f80661)">
     <use xlink:href="#mbb6d3177c5" x="79.922727" y="272.449194" style="fill: #bcbd22; stroke: #bcbd22"/>
     <use xlink:href="#mbb6d3177c5" x="133.304409" y="226.055637" style="fill: #bcbd22; stroke: #bcbd22"/>
     <use xlink:href="#mbb6d3177c5" x="154.310354" y="202.858858" style="fill: #bcbd22; stroke: #bcbd22"/>
     <use xlink:href="#mbb6d3177c5" x="172.376301" y="179.662079" style="fill: #bcbd22; stroke: #bcbd22"/>
     <use xlink:href="#mbb6d3177c5" x="186.743963" y="156.465301" style="fill: #bcbd22; stroke: #bcbd22"/>
     <use xlink:href="#mbb6d3177c5" x="205.164764" y="144.866912" style="fill: #bcbd22; stroke: #bcbd22"/>
     <use xlink:href="#mbb6d3177c5" x="244.506324" y="121.670133" style="fill: #bcbd22; stroke: #bcbd22"/>
     <use xlink:href="#mbb6d3177c5" x="274.290582" y="75.276576" style="fill: #bcbd22; stroke: #bcbd22"/>
     <use xlink:href="#mbb6d3177c5" x="283.624018" y="63.678186" style="fill: #bcbd22; stroke: #bcbd22"/>
    </g>
   </g>
   <g id="matplotlib.axis_1">
    <g id="xtick_1">
     <g id="line2d_1">
      <defs>
       <path id="md33c64e4d3" d="M 0 0 
L 0 3.5 
" style="stroke: #000000; stroke-width: 0.8"/>
      </defs>
      <g>
       <use xlink:href="#md33c64e4d3" x="123.22288" y="287.08" style="stroke: #000000; stroke-width: 0.8"/>
      </g>
     </g>
     <g id="text_1">
      <!-- 40 -->
      <g transform="translate(113.04288 306.2375) scale(0.16 -0.16)">
       <defs>
        <path id="DejaVuSans-34" d="M 2419 4116 
L 825 1625 
L 2419 1625 
L 2419 4116 
z
M 2253 4666 
L 3047 4666 
L 3047 1625 
L 3713 1625 
L 3713 1100 
L 3047 1100 
L 3047 0 
L 2419 0 
L 2419 1100 
L 313 1100 
L 313 1709 
L 2253 4666 
z
" transform="scale(0.015625)"/>
        <path id="DejaVuSans-30" d="M 2034 4250 
Q 1547 4250 1301 3770 
Q 1056 3291 1056 2328 
Q 1056 1369 1301 889 
Q 1547 409 2034 409 
Q 2525 409 2770 889 
Q 3016 1369 3016 2328 
Q 3016 3291 2770 3770 
Q 2525 4250 2034 4250 
z
M 2034 4750 
Q 2819 4750 3233 4129 
Q 3647 3509 3647 2328 
Q 3647 1150 3233 529 
Q 2819 -91 2034 -91 
Q 1250 -91 836 529 
Q 422 1150 422 2328 
Q 422 3509 836 4129 
Q 1250 4750 2034 4750 
z
" transform="scale(0.015625)"/>
       </defs>
       <use xlink:href="#DejaVuSans-34"/>
       <use xlink:href="#DejaVuSans-30" x="63.623047"/>
      </g>
     </g>
    </g>
    <g id="xtick_2">
     <g id="line2d_2">
      <g>
       <use xlink:href="#md33c64e4d3" x="189.418447" y="287.08" style="stroke: #000000; stroke-width: 0.8"/>
      </g>
     </g>
     <g id="text_2">
      <!-- 60 -->
      <g transform="translate(179.238447 306.2375) scale(0.16 -0.16)">
       <defs>
        <path id="DejaVuSans-36" d="M 2113 2584 
Q 1688 2584 1439 2293 
Q 1191 2003 1191 1497 
Q 1191 994 1439 701 
Q 1688 409 2113 409 
Q 2538 409 2786 701 
Q 3034 994 3034 1497 
Q 3034 2003 2786 2293 
Q 2538 2584 2113 2584 
z
M 3366 4563 
L 3366 3988 
Q 3128 4100 2886 4159 
Q 2644 4219 2406 4219 
Q 1781 4219 1451 3797 
Q 1122 3375 1075 2522 
Q 1259 2794 1537 2939 
Q 1816 3084 2150 3084 
Q 2853 3084 3261 2657 
Q 3669 2231 3669 1497 
Q 3669 778 3244 343 
Q 2819 -91 2113 -91 
Q 1303 -91 875 529 
Q 447 1150 447 2328 
Q 447 3434 972 4092 
Q 1497 4750 2381 4750 
Q 2619 4750 2861 4703 
Q 3103 4656 3366 4563 
z
" transform="scale(0.015625)"/>
       </defs>
       <use xlink:href="#DejaVuSans-36"/>
       <use xlink:href="#DejaVuSans-30" x="63.623047"/>
      </g>
     </g>
    </g>
    <g id="xtick_3">
     <g id="line2d_3">
      <g>
       <use xlink:href="#md33c64e4d3" x="255.614013" y="287.08" style="stroke: #000000; stroke-width: 0.8"/>
      </g>
     </g>
     <g id="text_3">
      <!-- 80 -->
      <g transform="translate(245.434013 306.2375) scale(0.16 -0.16)">
       <defs>
        <path id="DejaVuSans-38" d="M 2034 2216 
Q 1584 2216 1326 1975 
Q 1069 1734 1069 1313 
Q 1069 891 1326 650 
Q 1584 409 2034 409 
Q 2484 409 2743 651 
Q 3003 894 3003 1313 
Q 3003 1734 2745 1975 
Q 2488 2216 2034 2216 
z
M 1403 2484 
Q 997 2584 770 2862 
Q 544 3141 544 3541 
Q 544 4100 942 4425 
Q 1341 4750 2034 4750 
Q 2731 4750 3128 4425 
Q 3525 4100 3525 3541 
Q 3525 3141 3298 2862 
Q 3072 2584 2669 2484 
Q 3125 2378 3379 2068 
Q 3634 1759 3634 1313 
Q 3634 634 3220 271 
Q 2806 -91 2034 -91 
Q 1263 -91 848 271 
Q 434 634 434 1313 
Q 434 1759 690 2068 
Q 947 2378 1403 2484 
z
M 1172 3481 
Q 1172 3119 1398 2916 
Q 1625 2713 2034 2713 
Q 2441 2713 2670 2916 
Q 2900 3119 2900 3481 
Q 2900 3844 2670 4047 
Q 2441 4250 2034 4250 
Q 1625 4250 1398 4047 
Q 1172 3844 1172 3481 
z
" transform="scale(0.015625)"/>
       </defs>
       <use xlink:href="#DejaVuSans-38"/>
       <use xlink:href="#DejaVuSans-30" x="63.623047"/>
      </g>
     </g>
    </g>
    <g id="xtick_4">
     <g id="line2d_4">
      <g>
       <use xlink:href="#md33c64e4d3" x="321.80958" y="287.08" style="stroke: #000000; stroke-width: 0.8"/>
      </g>
     </g>
     <g id="text_4">
      <!-- 100 -->
      <g transform="translate(306.53958 306.2375) scale(0.16 -0.16)">
       <defs>
        <path id="DejaVuSans-31" d="M 794 531 
L 1825 531 
L 1825 4091 
L 703 3866 
L 703 4441 
L 1819 4666 
L 2450 4666 
L 2450 531 
L 3481 531 
L 3481 0 
L 794 0 
L 794 531 
z
" transform="scale(0.015625)"/>
       </defs>
       <use xlink:href="#DejaVuSans-31"/>
       <use xlink:href="#DejaVuSans-30" x="63.623047"/>
       <use xlink:href="#DejaVuSans-30" x="127.246094"/>
      </g>
     </g>
    </g>
    <g id="xtick_5">
     <g id="line2d_5">
      <g>
       <use xlink:href="#md33c64e4d3" x="388.005146" y="287.08" style="stroke: #000000; stroke-width: 0.8"/>
      </g>
     </g>
     <g id="text_5">
      <!-- 120 -->
      <g transform="translate(372.735146 306.2375) scale(0.16 -0.16)">
       <defs>
        <path id="DejaVuSans-32" d="M 1228 531 
L 3431 531 
L 3431 0 
L 469 0 
L 469 531 
Q 828 903 1448 1529 
Q 2069 2156 2228 2338 
Q 2531 2678 2651 2914 
Q 2772 3150 2772 3378 
Q 2772 3750 2511 3984 
Q 2250 4219 1831 4219 
Q 1534 4219 1204 4116 
Q 875 4013 500 3803 
L 500 4441 
Q 881 4594 1212 4672 
Q 1544 4750 1819 4750 
Q 2544 4750 2975 4387 
Q 3406 4025 3406 3419 
Q 3406 3131 3298 2873 
Q 3191 2616 2906 2266 
Q 2828 2175 2409 1742 
Q 1991 1309 1228 531 
z
" transform="scale(0.015625)"/>
       </defs>
       <use xlink:href="#DejaVuSans-31"/>
       <use xlink:href="#DejaVuSans-32" x="63.623047"/>
       <use xlink:href="#DejaVuSans-30" x="127.246094"/>
      </g>
     </g>
    </g>
    <g id="text_6">
     <!-- time of wave crossing (hours) -->
     <g transform="translate(107.525 328.761875) scale(0.2 -0.2)">
      <defs>
       <path id="DejaVuSans-74" d="M 1172 4494 
L 1172 3500 
L 2356 3500 
L 2356 3053 
L 1172 3053 
L 1172 1153 
Q 1172 725 1289 603 
Q 1406 481 1766 481 
L 2356 481 
L 2356 0 
L 1766 0 
Q 1100 0 847 248 
Q 594 497 594 1153 
L 594 3053 
L 172 3053 
L 172 3500 
L 594 3500 
L 594 4494 
L 1172 4494 
z
" transform="scale(0.015625)"/>
       <path id="DejaVuSans-69" d="M 603 3500 
L 1178 3500 
L 1178 0 
L 603 0 
L 603 3500 
z
M 603 4863 
L 1178 4863 
L 1178 4134 
L 603 4134 
L 603 4863 
z
" transform="scale(0.015625)"/>
       <path id="DejaVuSans-6d" d="M 3328 2828 
Q 3544 3216 3844 3400 
Q 4144 3584 4550 3584 
Q 5097 3584 5394 3201 
Q 5691 2819 5691 2113 
L 5691 0 
L 5113 0 
L 5113 2094 
Q 5113 2597 4934 2840 
Q 4756 3084 4391 3084 
Q 3944 3084 3684 2787 
Q 3425 2491 3425 1978 
L 3425 0 
L 2847 0 
L 2847 2094 
Q 2847 2600 2669 2842 
Q 2491 3084 2119 3084 
Q 1678 3084 1418 2786 
Q 1159 2488 1159 1978 
L 1159 0 
L 581 0 
L 581 3500 
L 1159 3500 
L 1159 2956 
Q 1356 3278 1631 3431 
Q 1906 3584 2284 3584 
Q 2666 3584 2933 3390 
Q 3200 3197 3328 2828 
z
" transform="scale(0.015625)"/>
       <path id="DejaVuSans-65" d="M 3597 1894 
L 3597 1613 
L 953 1613 
Q 991 1019 1311 708 
Q 1631 397 2203 397 
Q 2534 397 2845 478 
Q 3156 559 3463 722 
L 3463 178 
Q 3153 47 2828 -22 
Q 2503 -91 2169 -91 
Q 1331 -91 842 396 
Q 353 884 353 1716 
Q 353 2575 817 3079 
Q 1281 3584 2069 3584 
Q 2775 3584 3186 3129 
Q 3597 2675 3597 1894 
z
M 3022 2063 
Q 3016 2534 2758 2815 
Q 2500 3097 2075 3097 
Q 1594 3097 1305 2825 
Q 1016 2553 972 2059 
L 3022 2063 
z
" transform="scale(0.015625)"/>
       <path id="DejaVuSans-20" transform="scale(0.015625)"/>
       <path id="DejaVuSans-6f" d="M 1959 3097 
Q 1497 3097 1228 2736 
Q 959 2375 959 1747 
Q 959 1119 1226 758 
Q 1494 397 1959 397 
Q 2419 397 2687 759 
Q 2956 1122 2956 1747 
Q 2956 2369 2687 2733 
Q 2419 3097 1959 3097 
z
M 1959 3584 
Q 2709 3584 3137 3096 
Q 3566 2609 3566 1747 
Q 3566 888 3137 398 
Q 2709 -91 1959 -91 
Q 1206 -91 779 398 
Q 353 888 353 1747 
Q 353 2609 779 3096 
Q 1206 3584 1959 3584 
z
" transform="scale(0.015625)"/>
       <path id="DejaVuSans-66" d="M 2375 4863 
L 2375 4384 
L 1825 4384 
Q 1516 4384 1395 4259 
Q 1275 4134 1275 3809 
L 1275 3500 
L 2222 3500 
L 2222 3053 
L 1275 3053 
L 1275 0 
L 697 0 
L 697 3053 
L 147 3053 
L 147 3500 
L 697 3500 
L 697 3744 
Q 697 4328 969 4595 
Q 1241 4863 1831 4863 
L 2375 4863 
z
" transform="scale(0.015625)"/>
       <path id="DejaVuSans-77" d="M 269 3500 
L 844 3500 
L 1563 769 
L 2278 3500 
L 2956 3500 
L 3675 769 
L 4391 3500 
L 4966 3500 
L 4050 0 
L 3372 0 
L 2619 2869 
L 1863 0 
L 1184 0 
L 269 3500 
z
" transform="scale(0.015625)"/>
       <path id="DejaVuSans-61" d="M 2194 1759 
Q 1497 1759 1228 1600 
Q 959 1441 959 1056 
Q 959 750 1161 570 
Q 1363 391 1709 391 
Q 2188 391 2477 730 
Q 2766 1069 2766 1631 
L 2766 1759 
L 2194 1759 
z
M 3341 1997 
L 3341 0 
L 2766 0 
L 2766 531 
Q 2569 213 2275 61 
Q 1981 -91 1556 -91 
Q 1019 -91 701 211 
Q 384 513 384 1019 
Q 384 1609 779 1909 
Q 1175 2209 1959 2209 
L 2766 2209 
L 2766 2266 
Q 2766 2663 2505 2880 
Q 2244 3097 1772 3097 
Q 1472 3097 1187 3025 
Q 903 2953 641 2809 
L 641 3341 
Q 956 3463 1253 3523 
Q 1550 3584 1831 3584 
Q 2591 3584 2966 3190 
Q 3341 2797 3341 1997 
z
" transform="scale(0.015625)"/>
       <path id="DejaVuSans-76" d="M 191 3500 
L 800 3500 
L 1894 563 
L 2988 3500 
L 3597 3500 
L 2284 0 
L 1503 0 
L 191 3500 
z
" transform="scale(0.015625)"/>
       <path id="DejaVuSans-63" d="M 3122 3366 
L 3122 2828 
Q 2878 2963 2633 3030 
Q 2388 3097 2138 3097 
Q 1578 3097 1268 2742 
Q 959 2388 959 1747 
Q 959 1106 1268 751 
Q 1578 397 2138 397 
Q 2388 397 2633 464 
Q 2878 531 3122 666 
L 3122 134 
Q 2881 22 2623 -34 
Q 2366 -91 2075 -91 
Q 1284 -91 818 406 
Q 353 903 353 1747 
Q 353 2603 823 3093 
Q 1294 3584 2113 3584 
Q 2378 3584 2631 3529 
Q 2884 3475 3122 3366 
z
" transform="scale(0.015625)"/>
       <path id="DejaVuSans-72" d="M 2631 2963 
Q 2534 3019 2420 3045 
Q 2306 3072 2169 3072 
Q 1681 3072 1420 2755 
Q 1159 2438 1159 1844 
L 1159 0 
L 581 0 
L 581 3500 
L 1159 3500 
L 1159 2956 
Q 1341 3275 1631 3429 
Q 1922 3584 2338 3584 
Q 2397 3584 2469 3576 
Q 2541 3569 2628 3553 
L 2631 2963 
z
" transform="scale(0.015625)"/>
       <path id="DejaVuSans-73" d="M 2834 3397 
L 2834 2853 
Q 2591 2978 2328 3040 
Q 2066 3103 1784 3103 
Q 1356 3103 1142 2972 
Q 928 2841 928 2578 
Q 928 2378 1081 2264 
Q 1234 2150 1697 2047 
L 1894 2003 
Q 2506 1872 2764 1633 
Q 3022 1394 3022 966 
Q 3022 478 2636 193 
Q 2250 -91 1575 -91 
Q 1294 -91 989 -36 
Q 684 19 347 128 
L 347 722 
Q 666 556 975 473 
Q 1284 391 1588 391 
Q 1994 391 2212 530 
Q 2431 669 2431 922 
Q 2431 1156 2273 1281 
Q 2116 1406 1581 1522 
L 1381 1569 
Q 847 1681 609 1914 
Q 372 2147 372 2553 
Q 372 3047 722 3315 
Q 1072 3584 1716 3584 
Q 2034 3584 2315 3537 
Q 2597 3491 2834 3397 
z
" transform="scale(0.015625)"/>
       <path id="DejaVuSans-6e" d="M 3513 2113 
L 3513 0 
L 2938 0 
L 2938 2094 
Q 2938 2591 2744 2837 
Q 2550 3084 2163 3084 
Q 1697 3084 1428 2787 
Q 1159 2491 1159 1978 
L 1159 0 
L 581 0 
L 581 3500 
L 1159 3500 
L 1159 2956 
Q 1366 3272 1645 3428 
Q 1925 3584 2291 3584 
Q 2894 3584 3203 3211 
Q 3513 2838 3513 2113 
z
" transform="scale(0.015625)"/>
       <path id="DejaVuSans-67" d="M 2906 1791 
Q 2906 2416 2648 2759 
Q 2391 3103 1925 3103 
Q 1463 3103 1205 2759 
Q 947 2416 947 1791 
Q 947 1169 1205 825 
Q 1463 481 1925 481 
Q 2391 481 2648 825 
Q 2906 1169 2906 1791 
z
M 3481 434 
Q 3481 -459 3084 -895 
Q 2688 -1331 1869 -1331 
Q 1566 -1331 1297 -1286 
Q 1028 -1241 775 -1147 
L 775 -588 
Q 1028 -725 1275 -790 
Q 1522 -856 1778 -856 
Q 2344 -856 2625 -561 
Q 2906 -266 2906 331 
L 2906 616 
Q 2728 306 2450 153 
Q 2172 0 1784 0 
Q 1141 0 747 490 
Q 353 981 353 1791 
Q 353 2603 747 3093 
Q 1141 3584 1784 3584 
Q 2172 3584 2450 3431 
Q 2728 3278 2906 2969 
L 2906 3500 
L 3481 3500 
L 3481 434 
z
" transform="scale(0.015625)"/>
       <path id="DejaVuSans-28" d="M 1984 4856 
Q 1566 4138 1362 3434 
Q 1159 2731 1159 2009 
Q 1159 1288 1364 580 
Q 1569 -128 1984 -844 
L 1484 -844 
Q 1016 -109 783 600 
Q 550 1309 550 2009 
Q 550 2706 781 3412 
Q 1013 4119 1484 4856 
L 1984 4856 
z
" transform="scale(0.015625)"/>
       <path id="DejaVuSans-68" d="M 3513 2113 
L 3513 0 
L 2938 0 
L 2938 2094 
Q 2938 2591 2744 2837 
Q 2550 3084 2163 3084 
Q 1697 3084 1428 2787 
Q 1159 2491 1159 1978 
L 1159 0 
L 581 0 
L 581 4863 
L 1159 4863 
L 1159 2956 
Q 1366 3272 1645 3428 
Q 1925 3584 2291 3584 
Q 2894 3584 3203 3211 
Q 3513 2838 3513 2113 
z
" transform="scale(0.015625)"/>
       <path id="DejaVuSans-75" d="M 544 1381 
L 544 3500 
L 1119 3500 
L 1119 1403 
Q 1119 906 1312 657 
Q 1506 409 1894 409 
Q 2359 409 2629 706 
Q 2900 1003 2900 1516 
L 2900 3500 
L 3475 3500 
L 3475 0 
L 2900 0 
L 2900 538 
Q 2691 219 2414 64 
Q 2138 -91 1772 -91 
Q 1169 -91 856 284 
Q 544 659 544 1381 
z
M 1991 3584 
L 1991 3584 
z
" transform="scale(0.015625)"/>
       <path id="DejaVuSans-29" d="M 513 4856 
L 1013 4856 
Q 1481 4119 1714 3412 
Q 1947 2706 1947 2009 
Q 1947 1309 1714 600 
Q 1481 -109 1013 -844 
L 513 -844 
Q 928 -128 1133 580 
Q 1338 1288 1338 2009 
Q 1338 2731 1133 3434 
Q 928 4138 513 4856 
z
" transform="scale(0.015625)"/>
      </defs>
      <use xlink:href="#DejaVuSans-74"/>
      <use xlink:href="#DejaVuSans-69" x="39.208984"/>
      <use xlink:href="#DejaVuSans-6d" x="66.992188"/>
      <use xlink:href="#DejaVuSans-65" x="164.404297"/>
      <use xlink:href="#DejaVuSans-20" x="225.927734"/>
      <use xlink:href="#DejaVuSans-6f" x="257.714844"/>
      <use xlink:href="#DejaVuSans-66" x="318.896484"/>
      <use xlink:href="#DejaVuSans-20" x="354.101562"/>
      <use xlink:href="#DejaVuSans-77" x="385.888672"/>
      <use xlink:href="#DejaVuSans-61" x="467.675781"/>
      <use xlink:href="#DejaVuSans-76" x="528.955078"/>
      <use xlink:href="#DejaVuSans-65" x="588.134766"/>
      <use xlink:href="#DejaVuSans-20" x="649.658203"/>
      <use xlink:href="#DejaVuSans-63" x="681.445312"/>
      <use xlink:href="#DejaVuSans-72" x="736.425781"/>
      <use xlink:href="#DejaVuSans-6f" x="775.289062"/>
      <use xlink:href="#DejaVuSans-73" x="836.470703"/>
      <use xlink:href="#DejaVuSans-73" x="888.570312"/>
      <use xlink:href="#DejaVuSans-69" x="940.669922"/>
      <use xlink:href="#DejaVuSans-6e" x="968.453125"/>
      <use xlink:href="#DejaVuSans-67" x="1031.832031"/>
      <use xlink:href="#DejaVuSans-20" x="1095.308594"/>
      <use xlink:href="#DejaVuSans-28" x="1127.095703"/>
      <use xlink:href="#DejaVuSans-68" x="1166.109375"/>
      <use xlink:href="#DejaVuSans-6f" x="1229.488281"/>
      <use xlink:href="#DejaVuSans-75" x="1290.669922"/>
      <use xlink:href="#DejaVuSans-72" x="1354.048828"/>
      <use xlink:href="#DejaVuSans-73" x="1395.162109"/>
      <use xlink:href="#DejaVuSans-29" x="1447.261719"/>
     </g>
    </g>
   </g>
   <g id="matplotlib.axis_2">
    <g id="ytick_1">
     <g id="line2d_6">
      <defs>
       <path id="mb133449742" d="M 0 0 
L -3.5 0 
" style="stroke: #000000; stroke-width: 0.8"/>
      </defs>
      <g>
       <use xlink:href="#mb133449742" x="62.3" y="249.252415" style="stroke: #000000; stroke-width: 0.8"/>
      </g>
     </g>
     <g id="text_7">
      <!-- 10 -->
      <g transform="translate(34.94 255.331165) scale(0.16 -0.16)">
       <use xlink:href="#DejaVuSans-31"/>
       <use xlink:href="#DejaVuSans-30" x="63.623047"/>
      </g>
     </g>
    </g>
    <g id="ytick_2">
     <g id="line2d_7">
      <g>
       <use xlink:href="#mb133449742" x="62.3" y="191.260469" style="stroke: #000000; stroke-width: 0.8"/>
      </g>
     </g>
     <g id="text_8">
      <!-- 15 -->
      <g transform="translate(34.94 197.339219) scale(0.16 -0.16)">
       <defs>
        <path id="DejaVuSans-35" d="M 691 4666 
L 3169 4666 
L 3169 4134 
L 1269 4134 
L 1269 2991 
Q 1406 3038 1543 3061 
Q 1681 3084 1819 3084 
Q 2600 3084 3056 2656 
Q 3513 2228 3513 1497 
Q 3513 744 3044 326 
Q 2575 -91 1722 -91 
Q 1428 -91 1123 -41 
Q 819 9 494 109 
L 494 744 
Q 775 591 1075 516 
Q 1375 441 1709 441 
Q 2250 441 2565 725 
Q 2881 1009 2881 1497 
Q 2881 1984 2565 2268 
Q 2250 2553 1709 2553 
Q 1456 2553 1204 2497 
Q 953 2441 691 2322 
L 691 4666 
z
" transform="scale(0.015625)"/>
       </defs>
       <use xlink:href="#DejaVuSans-31"/>
       <use xlink:href="#DejaVuSans-35" x="63.623047"/>
      </g>
     </g>
    </g>
    <g id="ytick_3">
     <g id="line2d_8">
      <g>
       <use xlink:href="#mb133449742" x="62.3" y="133.268522" style="stroke: #000000; stroke-width: 0.8"/>
      </g>
     </g>
     <g id="text_9">
      <!-- 20 -->
      <g transform="translate(34.94 139.347272) scale(0.16 -0.16)">
       <use xlink:href="#DejaVuSans-32"/>
       <use xlink:href="#DejaVuSans-30" x="63.623047"/>
      </g>
     </g>
    </g>
    <g id="ytick_4">
     <g id="line2d_9">
      <g>
       <use xlink:href="#mb133449742" x="62.3" y="75.276576" style="stroke: #000000; stroke-width: 0.8"/>
      </g>
     </g>
     <g id="text_10">
      <!-- 25 -->
      <g transform="translate(34.94 81.355326) scale(0.16 -0.16)">
       <use xlink:href="#DejaVuSans-32"/>
       <use xlink:href="#DejaVuSans-35" x="63.623047"/>
      </g>
     </g>
    </g>
    <g id="ytick_5">
     <g id="line2d_10">
      <g>
       <use xlink:href="#mb133449742" x="62.3" y="17.284629" style="stroke: #000000; stroke-width: 0.8"/>
      </g>
     </g>
     <g id="text_11">
      <!-- 30 -->
      <g transform="translate(34.94 23.363379) scale(0.16 -0.16)">
       <defs>
        <path id="DejaVuSans-33" d="M 2597 2516 
Q 3050 2419 3304 2112 
Q 3559 1806 3559 1356 
Q 3559 666 3084 287 
Q 2609 -91 1734 -91 
Q 1441 -91 1130 -33 
Q 819 25 488 141 
L 488 750 
Q 750 597 1062 519 
Q 1375 441 1716 441 
Q 2309 441 2620 675 
Q 2931 909 2931 1356 
Q 2931 1769 2642 2001 
Q 2353 2234 1838 2234 
L 1294 2234 
L 1294 2753 
L 1863 2753 
Q 2328 2753 2575 2939 
Q 2822 3125 2822 3475 
Q 2822 3834 2567 4026 
Q 2313 4219 1838 4219 
Q 1578 4219 1281 4162 
Q 984 4106 628 3988 
L 628 4550 
Q 988 4650 1302 4700 
Q 1616 4750 1894 4750 
Q 2613 4750 3031 4423 
Q 3450 4097 3450 3541 
Q 3450 3153 3228 2886 
Q 3006 2619 2597 2516 
z
" transform="scale(0.015625)"/>
       </defs>
       <use xlink:href="#DejaVuSans-33"/>
       <use xlink:href="#DejaVuSans-30" x="63.623047"/>
      </g>
     </g>
    </g>
    <g id="text_12">
     <!-- distance from center (mm) -->
     <g transform="translate(26.780625 286.657126) rotate(-90) scale(0.2 -0.2)">
      <defs>
       <path id="DejaVuSans-64" d="M 2906 2969 
L 2906 4863 
L 3481 4863 
L 3481 0 
L 2906 0 
L 2906 525 
Q 2725 213 2448 61 
Q 2172 -91 1784 -91 
Q 1150 -91 751 415 
Q 353 922 353 1747 
Q 353 2572 751 3078 
Q 1150 3584 1784 3584 
Q 2172 3584 2448 3432 
Q 2725 3281 2906 2969 
z
M 947 1747 
Q 947 1113 1208 752 
Q 1469 391 1925 391 
Q 2381 391 2643 752 
Q 2906 1113 2906 1747 
Q 2906 2381 2643 2742 
Q 2381 3103 1925 3103 
Q 1469 3103 1208 2742 
Q 947 2381 947 1747 
z
" transform="scale(0.015625)"/>
      </defs>
      <use xlink:href="#DejaVuSans-64"/>
      <use xlink:href="#DejaVuSans-69" x="63.476562"/>
      <use xlink:href="#DejaVuSans-73" x="91.259766"/>
      <use xlink:href="#DejaVuSans-74" x="143.359375"/>
      <use xlink:href="#DejaVuSans-61" x="182.568359"/>
      <use xlink:href="#DejaVuSans-6e" x="243.847656"/>
      <use xlink:href="#DejaVuSans-63" x="307.226562"/>
      <use xlink:href="#DejaVuSans-65" x="362.207031"/>
      <use xlink:href="#DejaVuSans-20" x="423.730469"/>
      <use xlink:href="#DejaVuSans-66" x="455.517578"/>
      <use xlink:href="#DejaVuSans-72" x="490.722656"/>
      <use xlink:href="#DejaVuSans-6f" x="529.585938"/>
      <use xlink:href="#DejaVuSans-6d" x="590.767578"/>
      <use xlink:href="#DejaVuSans-20" x="688.179688"/>
      <use xlink:href="#DejaVuSans-63" x="719.966797"/>
      <use xlink:href="#DejaVuSans-65" x="774.947266"/>
      <use xlink:href="#DejaVuSans-6e" x="836.470703"/>
      <use xlink:href="#DejaVuSans-74" x="899.849609"/>
      <use xlink:href="#DejaVuSans-65" x="939.058594"/>
      <use xlink:href="#DejaVuSans-72" x="1000.582031"/>
      <use xlink:href="#DejaVuSans-20" x="1041.695312"/>
      <use xlink:href="#DejaVuSans-28" x="1073.482422"/>
      <use xlink:href="#DejaVuSans-6d" x="1112.496094"/>
      <use xlink:href="#DejaVuSans-6d" x="1209.908203"/>
      <use xlink:href="#DejaVuSans-29" x="1307.320312"/>
     </g>
    </g>
   </g>
   <g id="line2d_11">
    <path d="M 94.556067 248.299313 
L 124.3651 214.693127 
L 143.179406 193.482206 
L 169.257052 164.08272 
L 183.16308 148.405306 
L 218.107296 109.009805 
" clip-path="url(#pdb20f80661)" style="fill: none; stroke: #1f77b4; stroke-width: 3; stroke-linecap: square"/>
   </g>
   <g id="line2d_12">
    <path d="M 141.985914 246.365764 
L 177.845648 218.164979 
L 214.406733 189.412638 
L 246.658699 164.049072 
L 261.904351 152.059598 
L 288.608209 131.059169 
L 308.954218 115.058677 
L 333.148854 96.03155 
L 349.849117 82.898142 
L 372.394628 65.167918 
" clip-path="url(#pdb20f80661)" style="fill: none; stroke: #ff7f0e; stroke-width: 3; stroke-linecap: square"/>
   </g>
   <g id="line2d_13">
    <path d="M 130.734638 235.313742 
L 167.080215 201.560969 
L 192.504505 177.950384 
L 212.755684 159.143874 
L 219.023274 153.323399 
L 265.45857 110.200681 
L 259.476501 115.756004 
" clip-path="url(#pdb20f80661)" style="fill: none; stroke: #2ca02c; stroke-width: 3; stroke-linecap: square"/>
   </g>
   <g id="line2d_14">
    <path d="M 166.39003 221.912425 
L 197.82842 196.246464 
L 247.417326 155.762617 
L 262.778402 143.222001 
L 289.140771 121.700048 
L 314.203836 101.238833 
L 339.348889 80.710684 
L 333.770287 85.264994 
L 357.992033 65.490623 
L 369.764791 55.87947 
L 373.351455 52.951357 
" clip-path="url(#pdb20f80661)" style="fill: none; stroke: #d62728; stroke-width: 3; stroke-linecap: square"/>
   </g>
   <g id="line2d_15">
    <path d="M 184.18694 218.10581 
L 212.902842 196.25491 
L 238.993315 176.401787 
L 264.185698 157.232052 
L 280.311477 144.961402 
L 299.743479 130.174935 
L 328.31007 108.43765 
L 355.826297 87.499624 
L 371.886869 75.278592 
L 405.671839 49.570467 
L 432.377273 29.2494 
" clip-path="url(#pdb20f80661)" style="fill: none; stroke: #9467bd; stroke-width: 3; stroke-linecap: square"/>
   </g>
   <g id="line2d_16">
    <path d="M 114.084661 236.513518 
L 136.213851 213.40225 
L 155.922465 192.818982 
L 182.054715 165.527001 
L 203.946541 142.663631 
L 224.088608 121.627673 
L 230.499325 114.932454 
L 245.325923 99.447862 
L 263.687081 80.271849 
L 275.678466 67.748294 
L 295.63848 46.902469 
L 305.90765 36.17756 
" clip-path="url(#pdb20f80661)" style="fill: none; stroke: #8c564b; stroke-width: 3; stroke-linecap: square"/>
   </g>
   <g id="line2d_17">
    <path d="M 87.368497 273.966898 
L 122.933159 240.342753 
L 150.697511 214.093308 
L 176.323055 189.865973 
L 206.643697 161.199717 
L 226.102867 142.802299 
L 244.277012 125.619791 
L 259.713164 111.025882 
L 276.057024 95.573793 
L 292.790939 79.752932 
" clip-path="url(#pdb20f80661)" style="fill: none; stroke: #e377c2; stroke-width: 3; stroke-linecap: square"/>
   </g>
   <g id="line2d_18">
    <path d="M 101.507553 231.526524 
L 127.117641 200.586435 
L 174.724549 143.071522 
L 161.353164 159.225774 
L 169.918963 148.877252 
L 190.2116 124.361288 
L 202.414075 109.619219 
L 220.258629 88.060836 
" clip-path="url(#pdb20f80661)" style="fill: none; stroke: #7f7f7f; stroke-width: 3; stroke-linecap: square"/>
   </g>
   <g id="line2d_19">
    <path d="M 79.922727 274.802352 
L 133.304409 220.615984 
L 154.310354 199.293391 
L 172.376301 180.955114 
L 186.743963 166.370871 
L 205.164764 147.672391 
L 244.506324 107.737789 
L 274.290582 77.504556 
L 283.624018 68.030427 
" clip-path="url(#pdb20f80661)" style="fill: none; stroke: #bcbd22; stroke-width: 3; stroke-linecap: square"/>
   </g>
   <g id="patch_3">
    <path d="M 62.3 287.08 
L 62.3 16.971753 
" style="fill: none; stroke: #000000; stroke-width: 0.8; stroke-linejoin: miter; stroke-linecap: square"/>
   </g>
   <g id="patch_4">
    <path d="M 450 287.08 
L 450 16.971753 
" style="fill: none; stroke: #000000; stroke-width: 0.8; stroke-linejoin: miter; stroke-linecap: square"/>
   </g>
   <g id="patch_5">
    <path d="M 62.3 287.08 
L 450 287.08 
" style="fill: none; stroke: #000000; stroke-width: 0.8; stroke-linejoin: miter; stroke-linecap: square"/>
   </g>
   <g id="patch_6">
    <path d="M 62.3 16.971753 
L 450 16.971753 
" style="fill: none; stroke: #000000; stroke-width: 0.8; stroke-linejoin: miter; stroke-linecap: square"/>
   </g>
   <g id="legend_1">
    <g id="patch_7">
     <path d="M 268.2 282.08 
L 443 282.08 
Q 445 282.08 445 280.08 
L 445 148.78 
Q 445 146.78 443 146.78 
L 268.2 146.78 
Q 266.2 146.78 266.2 148.78 
L 266.2 280.08 
Q 266.2 282.08 268.2 282.08 
z
" style="fill: #ffffff; opacity: 0.8; stroke: #cccccc; stroke-linejoin: miter"/>
    </g>
    <g id="line2d_20">
     <path d="M 270.2 154.88 
L 280.2 154.88 
L 290.2 154.88 
" style="fill: none; stroke: #1f77b4; stroke-width: 3; stroke-linecap: square"/>
    </g>
    <g id="text_13">
     <!-- 52 : speed = 321$\mu m.h^-1$ -->
     <g transform="translate(298.2 158.38) scale(0.1 -0.1)">
      <defs>
       <path id="DejaVuSans-3a" d="M 750 794 
L 1409 794 
L 1409 0 
L 750 0 
L 750 794 
z
M 750 3309 
L 1409 3309 
L 1409 2516 
L 750 2516 
L 750 3309 
z
" transform="scale(0.015625)"/>
       <path id="DejaVuSans-70" d="M 1159 525 
L 1159 -1331 
L 581 -1331 
L 581 3500 
L 1159 3500 
L 1159 2969 
Q 1341 3281 1617 3432 
Q 1894 3584 2278 3584 
Q 2916 3584 3314 3078 
Q 3713 2572 3713 1747 
Q 3713 922 3314 415 
Q 2916 -91 2278 -91 
Q 1894 -91 1617 61 
Q 1341 213 1159 525 
z
M 3116 1747 
Q 3116 2381 2855 2742 
Q 2594 3103 2138 3103 
Q 1681 3103 1420 2742 
Q 1159 2381 1159 1747 
Q 1159 1113 1420 752 
Q 1681 391 2138 391 
Q 2594 391 2855 752 
Q 3116 1113 3116 1747 
z
" transform="scale(0.015625)"/>
       <path id="DejaVuSans-3d" d="M 678 2906 
L 4684 2906 
L 4684 2381 
L 678 2381 
L 678 2906 
z
M 678 1631 
L 4684 1631 
L 4684 1100 
L 678 1100 
L 678 1631 
z
" transform="scale(0.015625)"/>
       <path id="DejaVuSans-Oblique-3bc" d="M -84 -1331 
L 856 3500 
L 1434 3500 
L 1009 1322 
Q 997 1256 987 1175 
Q 978 1094 978 1013 
Q 978 722 1161 565 
Q 1344 409 1684 409 
Q 2147 409 2431 671 
Q 2716 934 2816 1459 
L 3213 3500 
L 3788 3500 
L 3266 809 
Q 3253 750 3248 706 
Q 3244 663 3244 628 
Q 3244 531 3283 486 
Q 3322 441 3406 441 
Q 3438 441 3492 456 
Q 3547 472 3647 513 
L 3559 50 
Q 3422 -19 3297 -55 
Q 3172 -91 3053 -91 
Q 2847 -91 2730 40 
Q 2613 172 2613 403 
Q 2438 153 2195 31 
Q 1953 -91 1625 -91 
Q 1334 -91 1117 43 
Q 900 178 831 397 
L 494 -1331 
L -84 -1331 
z
" transform="scale(0.015625)"/>
       <path id="DejaVuSans-Oblique-6d" d="M 5747 2113 
L 5338 0 
L 4763 0 
L 5166 2094 
Q 5191 2228 5203 2325 
Q 5216 2422 5216 2491 
Q 5216 2772 5059 2928 
Q 4903 3084 4622 3084 
Q 4203 3084 3875 2770 
Q 3547 2456 3450 1953 
L 3066 0 
L 2491 0 
L 2900 2094 
Q 2925 2209 2937 2307 
Q 2950 2406 2950 2484 
Q 2950 2769 2794 2926 
Q 2638 3084 2363 3084 
Q 1938 3084 1609 2770 
Q 1281 2456 1184 1953 
L 800 0 
L 225 0 
L 909 3500 
L 1484 3500 
L 1375 2956 
Q 1609 3263 1923 3423 
Q 2238 3584 2597 3584 
Q 2978 3584 3223 3384 
Q 3469 3184 3519 2828 
Q 3781 3197 4126 3390 
Q 4472 3584 4856 3584 
Q 5306 3584 5551 3325 
Q 5797 3066 5797 2591 
Q 5797 2488 5784 2364 
Q 5772 2241 5747 2113 
z
" transform="scale(0.015625)"/>
       <path id="DejaVuSans-2e" d="M 684 794 
L 1344 794 
L 1344 0 
L 684 0 
L 684 794 
z
" transform="scale(0.015625)"/>
       <path id="DejaVuSans-Oblique-68" d="M 3566 2113 
L 3156 0 
L 2578 0 
L 2988 2091 
Q 3016 2238 3031 2350 
Q 3047 2463 3047 2528 
Q 3047 2791 2881 2937 
Q 2716 3084 2419 3084 
Q 1956 3084 1617 2771 
Q 1278 2459 1178 1941 
L 800 0 
L 225 0 
L 1172 4863 
L 1747 4863 
L 1375 2950 
Q 1594 3244 1934 3414 
Q 2275 3584 2650 3584 
Q 3113 3584 3367 3334 
Q 3622 3084 3622 2631 
Q 3622 2519 3608 2391 
Q 3594 2263 3566 2113 
z
" transform="scale(0.015625)"/>
       <path id="DejaVuSans-2212" d="M 678 2272 
L 4684 2272 
L 4684 1741 
L 678 1741 
L 678 2272 
z
" transform="scale(0.015625)"/>
      </defs>
      <use xlink:href="#DejaVuSans-35" transform="translate(0 0.015625)"/>
      <use xlink:href="#DejaVuSans-32" transform="translate(63.623047 0.015625)"/>
      <use xlink:href="#DejaVuSans-20" transform="translate(127.246094 0.015625)"/>
      <use xlink:href="#DejaVuSans-3a" transform="translate(159.033203 0.015625)"/>
      <use xlink:href="#DejaVuSans-20" transform="translate(192.724609 0.015625)"/>
      <use xlink:href="#DejaVuSans-73" transform="translate(224.511719 0.015625)"/>
      <use xlink:href="#DejaVuSans-70" transform="translate(276.611328 0.015625)"/>
      <use xlink:href="#DejaVuSans-65" transform="translate(340.087891 0.015625)"/>
      <use xlink:href="#DejaVuSans-65" transform="translate(401.611328 0.015625)"/>
      <use xlink:href="#DejaVuSans-64" transform="translate(463.134766 0.015625)"/>
      <use xlink:href="#DejaVuSans-20" transform="translate(526.611328 0.015625)"/>
      <use xlink:href="#DejaVuSans-3d" transform="translate(558.398438 0.015625)"/>
      <use xlink:href="#DejaVuSans-20" transform="translate(642.1875 0.015625)"/>
      <use xlink:href="#DejaVuSans-33" transform="translate(673.974609 0.015625)"/>
      <use xlink:href="#DejaVuSans-32" transform="translate(737.597656 0.015625)"/>
      <use xlink:href="#DejaVuSans-31" transform="translate(801.220703 0.015625)"/>
      <use xlink:href="#DejaVuSans-Oblique-3bc" transform="translate(864.84375 0.015625)"/>
      <use xlink:href="#DejaVuSans-Oblique-6d" transform="translate(928.466797 0.015625)"/>
      <use xlink:href="#DejaVuSans-2e" transform="translate(1025.878906 0.015625)"/>
      <use xlink:href="#DejaVuSans-Oblique-68" transform="translate(1077.148438 0.015625)"/>
      <use xlink:href="#DejaVuSans-2212" transform="translate(1161.612747 38.296875) scale(0.7)"/>
      <use xlink:href="#DejaVuSans-31" transform="translate(1236.637161 0.015625)"/>
     </g>
    </g>
    <g id="line2d_21">
     <path d="M 270.2 169.58 
L 280.2 169.58 
L 290.2 169.58 
" style="fill: none; stroke: #ff7f0e; stroke-width: 3; stroke-linecap: square"/>
    </g>
    <g id="text_14">
     <!-- 84 : speed = 224$\mu m.h^-1$ -->
     <g transform="translate(298.2 173.08) scale(0.1 -0.1)">
      <use xlink:href="#DejaVuSans-38" transform="translate(0 0.015625)"/>
      <use xlink:href="#DejaVuSans-34" transform="translate(63.623047 0.015625)"/>
      <use xlink:href="#DejaVuSans-20" transform="translate(127.246094 0.015625)"/>
      <use xlink:href="#DejaVuSans-3a" transform="translate(159.033203 0.015625)"/>
      <use xlink:href="#DejaVuSans-20" transform="translate(192.724609 0.015625)"/>
      <use xlink:href="#DejaVuSans-73" transform="translate(224.511719 0.015625)"/>
      <use xlink:href="#DejaVuSans-70" transform="translate(276.611328 0.015625)"/>
      <use xlink:href="#DejaVuSans-65" transform="translate(340.087891 0.015625)"/>
      <use xlink:href="#DejaVuSans-65" transform="translate(401.611328 0.015625)"/>
      <use xlink:href="#DejaVuSans-64" transform="translate(463.134766 0.015625)"/>
      <use xlink:href="#DejaVuSans-20" transform="translate(526.611328 0.015625)"/>
      <use xlink:href="#DejaVuSans-3d" transform="translate(558.398438 0.015625)"/>
      <use xlink:href="#DejaVuSans-20" transform="translate(642.1875 0.015625)"/>
      <use xlink:href="#DejaVuSans-32" transform="translate(673.974609 0.015625)"/>
      <use xlink:href="#DejaVuSans-32" transform="translate(737.597656 0.015625)"/>
      <use xlink:href="#DejaVuSans-34" transform="translate(801.220703 0.015625)"/>
      <use xlink:href="#DejaVuSans-Oblique-3bc" transform="translate(864.84375 0.015625)"/>
      <use xlink:href="#DejaVuSans-Oblique-6d" transform="translate(928.466797 0.015625)"/>
      <use xlink:href="#DejaVuSans-2e" transform="translate(1025.878906 0.015625)"/>
      <use xlink:href="#DejaVuSans-Oblique-68" transform="translate(1077.148438 0.015625)"/>
      <use xlink:href="#DejaVuSans-2212" transform="translate(1161.612747 38.296875) scale(0.7)"/>
      <use xlink:href="#DejaVuSans-31" transform="translate(1236.637161 0.015625)"/>
     </g>
    </g>
    <g id="line2d_22">
     <path d="M 270.2 184.28 
L 280.2 184.28 
L 290.2 184.28 
" style="fill: none; stroke: #2ca02c; stroke-width: 3; stroke-linecap: square"/>
    </g>
    <g id="text_15">
     <!-- 938 : speed = 265$\mu m.h^-1$ -->
     <g transform="translate(298.2 187.78) scale(0.1 -0.1)">
      <defs>
       <path id="DejaVuSans-39" d="M 703 97 
L 703 672 
Q 941 559 1184 500 
Q 1428 441 1663 441 
Q 2288 441 2617 861 
Q 2947 1281 2994 2138 
Q 2813 1869 2534 1725 
Q 2256 1581 1919 1581 
Q 1219 1581 811 2004 
Q 403 2428 403 3163 
Q 403 3881 828 4315 
Q 1253 4750 1959 4750 
Q 2769 4750 3195 4129 
Q 3622 3509 3622 2328 
Q 3622 1225 3098 567 
Q 2575 -91 1691 -91 
Q 1453 -91 1209 -44 
Q 966 3 703 97 
z
M 1959 2075 
Q 2384 2075 2632 2365 
Q 2881 2656 2881 3163 
Q 2881 3666 2632 3958 
Q 2384 4250 1959 4250 
Q 1534 4250 1286 3958 
Q 1038 3666 1038 3163 
Q 1038 2656 1286 2365 
Q 1534 2075 1959 2075 
z
" transform="scale(0.015625)"/>
      </defs>
      <use xlink:href="#DejaVuSans-39" transform="translate(0 0.015625)"/>
      <use xlink:href="#DejaVuSans-33" transform="translate(63.623047 0.015625)"/>
      <use xlink:href="#DejaVuSans-38" transform="translate(127.246094 0.015625)"/>
      <use xlink:href="#DejaVuSans-20" transform="translate(190.869141 0.015625)"/>
      <use xlink:href="#DejaVuSans-3a" transform="translate(222.65625 0.015625)"/>
      <use xlink:href="#DejaVuSans-20" transform="translate(256.347656 0.015625)"/>
      <use xlink:href="#DejaVuSans-73" transform="translate(288.134766 0.015625)"/>
      <use xlink:href="#DejaVuSans-70" transform="translate(340.234375 0.015625)"/>
      <use xlink:href="#DejaVuSans-65" transform="translate(403.710938 0.015625)"/>
      <use xlink:href="#DejaVuSans-65" transform="translate(465.234375 0.015625)"/>
      <use xlink:href="#DejaVuSans-64" transform="translate(526.757812 0.015625)"/>
      <use xlink:href="#DejaVuSans-20" transform="translate(590.234375 0.015625)"/>
      <use xlink:href="#DejaVuSans-3d" transform="translate(622.021484 0.015625)"/>
      <use xlink:href="#DejaVuSans-20" transform="translate(705.810547 0.015625)"/>
      <use xlink:href="#DejaVuSans-32" transform="translate(737.597656 0.015625)"/>
      <use xlink:href="#DejaVuSans-36" transform="translate(801.220703 0.015625)"/>
      <use xlink:href="#DejaVuSans-35" transform="translate(864.84375 0.015625)"/>
      <use xlink:href="#DejaVuSans-Oblique-3bc" transform="translate(928.466797 0.015625)"/>
      <use xlink:href="#DejaVuSans-Oblique-6d" transform="translate(992.089844 0.015625)"/>
      <use xlink:href="#DejaVuSans-2e" transform="translate(1089.501953 0.015625)"/>
      <use xlink:href="#DejaVuSans-Oblique-68" transform="translate(1140.771484 0.015625)"/>
      <use xlink:href="#DejaVuSans-2212" transform="translate(1225.235794 38.296875) scale(0.7)"/>
      <use xlink:href="#DejaVuSans-31" transform="translate(1300.260208 0.015625)"/>
     </g>
    </g>
    <g id="line2d_23">
     <path d="M 270.2 198.98 
L 280.2 198.98 
L 290.2 198.98 
" style="fill: none; stroke: #d62728; stroke-width: 3; stroke-linecap: square"/>
    </g>
    <g id="text_16">
     <!-- 941 : speed = 232$\mu m.h^-1$ -->
     <g transform="translate(298.2 202.48) scale(0.1 -0.1)">
      <use xlink:href="#DejaVuSans-39" transform="translate(0 0.015625)"/>
      <use xlink:href="#DejaVuSans-34" transform="translate(63.623047 0.015625)"/>
      <use xlink:href="#DejaVuSans-31" transform="translate(127.246094 0.015625)"/>
      <use xlink:href="#DejaVuSans-20" transform="translate(190.869141 0.015625)"/>
      <use xlink:href="#DejaVuSans-3a" transform="translate(222.65625 0.015625)"/>
      <use xlink:href="#DejaVuSans-20" transform="translate(256.347656 0.015625)"/>
      <use xlink:href="#DejaVuSans-73" transform="translate(288.134766 0.015625)"/>
      <use xlink:href="#DejaVuSans-70" transform="translate(340.234375 0.015625)"/>
      <use xlink:href="#DejaVuSans-65" transform="translate(403.710938 0.015625)"/>
      <use xlink:href="#DejaVuSans-65" transform="translate(465.234375 0.015625)"/>
      <use xlink:href="#DejaVuSans-64" transform="translate(526.757812 0.015625)"/>
      <use xlink:href="#DejaVuSans-20" transform="translate(590.234375 0.015625)"/>
      <use xlink:href="#DejaVuSans-3d" transform="translate(622.021484 0.015625)"/>
      <use xlink:href="#DejaVuSans-20" transform="translate(705.810547 0.015625)"/>
      <use xlink:href="#DejaVuSans-32" transform="translate(737.597656 0.015625)"/>
      <use xlink:href="#DejaVuSans-33" transform="translate(801.220703 0.015625)"/>
      <use xlink:href="#DejaVuSans-32" transform="translate(864.84375 0.015625)"/>
      <use xlink:href="#DejaVuSans-Oblique-3bc" transform="translate(928.466797 0.015625)"/>
      <use xlink:href="#DejaVuSans-Oblique-6d" transform="translate(992.089844 0.015625)"/>
      <use xlink:href="#DejaVuSans-2e" transform="translate(1089.501953 0.015625)"/>
      <use xlink:href="#DejaVuSans-Oblique-68" transform="translate(1140.771484 0.015625)"/>
      <use xlink:href="#DejaVuSans-2212" transform="translate(1225.235794 38.296875) scale(0.7)"/>
      <use xlink:href="#DejaVuSans-31" transform="translate(1300.260208 0.015625)"/>
     </g>
    </g>
    <g id="line2d_24">
     <path d="M 270.2 213.68 
L 280.2 213.68 
L 290.2 213.68 
" style="fill: none; stroke: #9467bd; stroke-width: 3; stroke-linecap: square"/>
    </g>
    <g id="text_17">
     <!-- 1076 : speed = 217$\mu m.h^-1$ -->
     <g transform="translate(298.2 217.18) scale(0.1 -0.1)">
      <defs>
       <path id="DejaVuSans-37" d="M 525 4666 
L 3525 4666 
L 3525 4397 
L 1831 0 
L 1172 0 
L 2766 4134 
L 525 4134 
L 525 4666 
z
" transform="scale(0.015625)"/>
      </defs>
      <use xlink:href="#DejaVuSans-31" transform="translate(0 0.015625)"/>
      <use xlink:href="#DejaVuSans-30" transform="translate(63.623047 0.015625)"/>
      <use xlink:href="#DejaVuSans-37" transform="translate(127.246094 0.015625)"/>
      <use xlink:href="#DejaVuSans-36" transform="translate(190.869141 0.015625)"/>
      <use xlink:href="#DejaVuSans-20" transform="translate(254.492188 0.015625)"/>
      <use xlink:href="#DejaVuSans-3a" transform="translate(286.279297 0.015625)"/>
      <use xlink:href="#DejaVuSans-20" transform="translate(319.970703 0.015625)"/>
      <use xlink:href="#DejaVuSans-73" transform="translate(351.757812 0.015625)"/>
      <use xlink:href="#DejaVuSans-70" transform="translate(403.857422 0.015625)"/>
      <use xlink:href="#DejaVuSans-65" transform="translate(467.333984 0.015625)"/>
      <use xlink:href="#DejaVuSans-65" transform="translate(528.857422 0.015625)"/>
      <use xlink:href="#DejaVuSans-64" transform="translate(590.380859 0.015625)"/>
      <use xlink:href="#DejaVuSans-20" transform="translate(653.857422 0.015625)"/>
      <use xlink:href="#DejaVuSans-3d" transform="translate(685.644531 0.015625)"/>
      <use xlink:href="#DejaVuSans-20" transform="translate(769.433594 0.015625)"/>
      <use xlink:href="#DejaVuSans-32" transform="translate(801.220703 0.015625)"/>
      <use xlink:href="#DejaVuSans-31" transform="translate(864.84375 0.015625)"/>
      <use xlink:href="#DejaVuSans-37" transform="translate(928.466797 0.015625)"/>
      <use xlink:href="#DejaVuSans-Oblique-3bc" transform="translate(992.089844 0.015625)"/>
      <use xlink:href="#DejaVuSans-Oblique-6d" transform="translate(1055.712891 0.015625)"/>
      <use xlink:href="#DejaVuSans-2e" transform="translate(1153.125 0.015625)"/>
      <use xlink:href="#DejaVuSans-Oblique-68" transform="translate(1204.394531 0.015625)"/>
      <use xlink:href="#DejaVuSans-2212" transform="translate(1288.858841 38.296875) scale(0.7)"/>
      <use xlink:href="#DejaVuSans-31" transform="translate(1363.883255 0.015625)"/>
     </g>
    </g>
    <g id="line2d_25">
     <path d="M 270.2 228.38 
L 280.2 228.38 
L 290.2 228.38 
" style="fill: none; stroke: #8c564b; stroke-width: 3; stroke-linecap: square"/>
    </g>
    <g id="text_18">
     <!-- 94 : speed = 298$\mu m.h^-1$ -->
     <g transform="translate(298.2 231.88) scale(0.1 -0.1)">
      <use xlink:href="#DejaVuSans-39" transform="translate(0 0.015625)"/>
      <use xlink:href="#DejaVuSans-34" transform="translate(63.623047 0.015625)"/>
      <use xlink:href="#DejaVuSans-20" transform="translate(127.246094 0.015625)"/>
      <use xlink:href="#DejaVuSans-3a" transform="translate(159.033203 0.015625)"/>
      <use xlink:href="#DejaVuSans-20" transform="translate(192.724609 0.015625)"/>
      <use xlink:href="#DejaVuSans-73" transform="translate(224.511719 0.015625)"/>
      <use xlink:href="#DejaVuSans-70" transform="translate(276.611328 0.015625)"/>
      <use xlink:href="#DejaVuSans-65" transform="translate(340.087891 0.015625)"/>
      <use xlink:href="#DejaVuSans-65" transform="translate(401.611328 0.015625)"/>
      <use xlink:href="#DejaVuSans-64" transform="translate(463.134766 0.015625)"/>
      <use xlink:href="#DejaVuSans-20" transform="translate(526.611328 0.015625)"/>
      <use xlink:href="#DejaVuSans-3d" transform="translate(558.398438 0.015625)"/>
      <use xlink:href="#DejaVuSans-20" transform="translate(642.1875 0.015625)"/>
      <use xlink:href="#DejaVuSans-32" transform="translate(673.974609 0.015625)"/>
      <use xlink:href="#DejaVuSans-39" transform="translate(735.847656 0.015625)"/>
      <use xlink:href="#DejaVuSans-38" transform="translate(799.470703 0.015625)"/>
      <use xlink:href="#DejaVuSans-Oblique-3bc" transform="translate(863.09375 0.015625)"/>
      <use xlink:href="#DejaVuSans-Oblique-6d" transform="translate(926.716797 0.015625)"/>
      <use xlink:href="#DejaVuSans-2e" transform="translate(1024.128906 0.015625)"/>
      <use xlink:href="#DejaVuSans-Oblique-68" transform="translate(1075.398438 0.015625)"/>
      <use xlink:href="#DejaVuSans-2212" transform="translate(1159.862747 38.296875) scale(0.7)"/>
      <use xlink:href="#DejaVuSans-31" transform="translate(1234.887161 0.015625)"/>
     </g>
    </g>
    <g id="line2d_26">
     <path d="M 270.2 243.08 
L 280.2 243.08 
L 290.2 243.08 
" style="fill: none; stroke: #e377c2; stroke-width: 3; stroke-linecap: square"/>
    </g>
    <g id="text_19">
     <!-- 152 : speed = 269$\mu m.h^-1$ -->
     <g transform="translate(298.2 246.58) scale(0.1 -0.1)">
      <use xlink:href="#DejaVuSans-31" transform="translate(0 0.015625)"/>
      <use xlink:href="#DejaVuSans-35" transform="translate(63.623047 0.015625)"/>
      <use xlink:href="#DejaVuSans-32" transform="translate(127.246094 0.015625)"/>
      <use xlink:href="#DejaVuSans-20" transform="translate(190.869141 0.015625)"/>
      <use xlink:href="#DejaVuSans-3a" transform="translate(222.65625 0.015625)"/>
      <use xlink:href="#DejaVuSans-20" transform="translate(256.347656 0.015625)"/>
      <use xlink:href="#DejaVuSans-73" transform="translate(288.134766 0.015625)"/>
      <use xlink:href="#DejaVuSans-70" transform="translate(340.234375 0.015625)"/>
      <use xlink:href="#DejaVuSans-65" transform="translate(403.710938 0.015625)"/>
      <use xlink:href="#DejaVuSans-65" transform="translate(465.234375 0.015625)"/>
      <use xlink:href="#DejaVuSans-64" transform="translate(526.757812 0.015625)"/>
      <use xlink:href="#DejaVuSans-20" transform="translate(590.234375 0.015625)"/>
      <use xlink:href="#DejaVuSans-3d" transform="translate(622.021484 0.015625)"/>
      <use xlink:href="#DejaVuSans-20" transform="translate(705.810547 0.015625)"/>
      <use xlink:href="#DejaVuSans-32" transform="translate(737.597656 0.015625)"/>
      <use xlink:href="#DejaVuSans-36" transform="translate(801.220703 0.015625)"/>
      <use xlink:href="#DejaVuSans-39" transform="translate(864.84375 0.015625)"/>
      <use xlink:href="#DejaVuSans-Oblique-3bc" transform="translate(928.466797 0.015625)"/>
      <use xlink:href="#DejaVuSans-Oblique-6d" transform="translate(992.089844 0.015625)"/>
      <use xlink:href="#DejaVuSans-2e" transform="translate(1089.501953 0.015625)"/>
      <use xlink:href="#DejaVuSans-Oblique-68" transform="translate(1140.771484 0.015625)"/>
      <use xlink:href="#DejaVuSans-2212" transform="translate(1225.235794 38.296875) scale(0.7)"/>
      <use xlink:href="#DejaVuSans-31" transform="translate(1300.260208 0.015625)"/>
     </g>
    </g>
    <g id="line2d_27">
     <path d="M 270.2 257.78 
L 280.2 257.78 
L 290.2 257.78 
" style="fill: none; stroke: #7f7f7f; stroke-width: 3; stroke-linecap: square"/>
    </g>
    <g id="text_20">
     <!-- 102 : speed = 344$\mu m.h^-1$ -->
     <g transform="translate(298.2 261.28) scale(0.1 -0.1)">
      <use xlink:href="#DejaVuSans-31" transform="translate(0 0.015625)"/>
      <use xlink:href="#DejaVuSans-30" transform="translate(63.623047 0.015625)"/>
      <use xlink:href="#DejaVuSans-32" transform="translate(127.246094 0.015625)"/>
      <use xlink:href="#DejaVuSans-20" transform="translate(190.869141 0.015625)"/>
      <use xlink:href="#DejaVuSans-3a" transform="translate(222.65625 0.015625)"/>
      <use xlink:href="#DejaVuSans-20" transform="translate(256.347656 0.015625)"/>
      <use xlink:href="#DejaVuSans-73" transform="translate(288.134766 0.015625)"/>
      <use xlink:href="#DejaVuSans-70" transform="translate(340.234375 0.015625)"/>
      <use xlink:href="#DejaVuSans-65" transform="translate(403.710938 0.015625)"/>
      <use xlink:href="#DejaVuSans-65" transform="translate(465.234375 0.015625)"/>
      <use xlink:href="#DejaVuSans-64" transform="translate(526.757812 0.015625)"/>
      <use xlink:href="#DejaVuSans-20" transform="translate(590.234375 0.015625)"/>
      <use xlink:href="#DejaVuSans-3d" transform="translate(622.021484 0.015625)"/>
      <use xlink:href="#DejaVuSans-20" transform="translate(705.810547 0.015625)"/>
      <use xlink:href="#DejaVuSans-33" transform="translate(737.597656 0.015625)"/>
      <use xlink:href="#DejaVuSans-34" transform="translate(801.220703 0.015625)"/>
      <use xlink:href="#DejaVuSans-34" transform="translate(864.84375 0.015625)"/>
      <use xlink:href="#DejaVuSans-Oblique-3bc" transform="translate(928.466797 0.015625)"/>
      <use xlink:href="#DejaVuSans-Oblique-6d" transform="translate(992.089844 0.015625)"/>
      <use xlink:href="#DejaVuSans-2e" transform="translate(1089.501953 0.015625)"/>
      <use xlink:href="#DejaVuSans-Oblique-68" transform="translate(1140.771484 0.015625)"/>
      <use xlink:href="#DejaVuSans-2212" transform="translate(1225.235794 38.296875) scale(0.7)"/>
      <use xlink:href="#DejaVuSans-31" transform="translate(1300.260208 0.015625)"/>
     </g>
    </g>
    <g id="line2d_28">
     <path d="M 270.2 272.48 
L 280.2 272.48 
L 290.2 272.48 
" style="fill: none; stroke: #bcbd22; stroke-width: 3; stroke-linecap: square"/>
    </g>
    <g id="text_21">
     <!-- 76 : speed = 289$\mu m.h^-1$ -->
     <g transform="translate(298.2 275.98) scale(0.1 -0.1)">
      <use xlink:href="#DejaVuSans-37" transform="translate(0 0.015625)"/>
      <use xlink:href="#DejaVuSans-36" transform="translate(63.623047 0.015625)"/>
      <use xlink:href="#DejaVuSans-20" transform="translate(127.246094 0.015625)"/>
      <use xlink:href="#DejaVuSans-3a" transform="translate(159.033203 0.015625)"/>
      <use xlink:href="#DejaVuSans-20" transform="translate(192.724609 0.015625)"/>
      <use xlink:href="#DejaVuSans-73" transform="translate(224.511719 0.015625)"/>
      <use xlink:href="#DejaVuSans-70" transform="translate(276.611328 0.015625)"/>
      <use xlink:href="#DejaVuSans-65" transform="translate(340.087891 0.015625)"/>
      <use xlink:href="#DejaVuSans-65" transform="translate(401.611328 0.015625)"/>
      <use xlink:href="#DejaVuSans-64" transform="translate(463.134766 0.015625)"/>
      <use xlink:href="#DejaVuSans-20" transform="translate(526.611328 0.015625)"/>
      <use xlink:href="#DejaVuSans-3d" transform="translate(558.398438 0.015625)"/>
      <use xlink:href="#DejaVuSans-20" transform="translate(642.1875 0.015625)"/>
      <use xlink:href="#DejaVuSans-32" transform="translate(673.974609 0.015625)"/>
      <use xlink:href="#DejaVuSans-38" transform="translate(737.597656 0.015625)"/>
      <use xlink:href="#DejaVuSans-39" transform="translate(801.220703 0.015625)"/>
      <use xlink:href="#DejaVuSans-Oblique-3bc" transform="translate(864.84375 0.015625)"/>
      <use xlink:href="#DejaVuSans-Oblique-6d" transform="translate(928.466797 0.015625)"/>
      <use xlink:href="#DejaVuSans-2e" transform="translate(1025.878906 0.015625)"/>
      <use xlink:href="#DejaVuSans-Oblique-68" transform="translate(1077.148438 0.015625)"/>
      <use xlink:href="#DejaVuSans-2212" transform="translate(1161.612747 38.296875) scale(0.7)"/>
      <use xlink:href="#DejaVuSans-31" transform="translate(1236.637161 0.015625)"/>
     </g>
    </g>
   </g>
  </g>
 </g>
 <defs>
  <clipPath id="pdb20f80661">
   <rect x="62.3" y="16.971753" width="387.7" height="270.108247"/>
  </clipPath>
 </defs>
</svg>
