<?xml version="1.0" encoding="utf-8" standalone="no"?>
<!DOCTYPE svg PUBLIC "-//W3C//DTD SVG 1.1//EN"
  "http://www.w3.org/Graphics/SVG/1.1/DTD/svg11.dtd">
<svg xmlns:xlink="http://www.w3.org/1999/xlink" width="460.8pt" height="345.6pt" viewBox="0 0 460.8 345.6" xmlns="http://www.w3.org/2000/svg" version="1.1">
 <metadata>
  <rdf:RDF xmlns:dc="http://purl.org/dc/elements/1.1/" xmlns:cc="http://creativecommons.org/ns#" xmlns:rdf="http://www.w3.org/1999/02/22-rdf-syntax-ns#">
   <cc:Work>
    <dc:type rdf:resource="http://purl.org/dc/dcmitype/StillImage"/>
    <dc:date>2022-11-14T12:57:58.898960</dc:date>
    <dc:format>image/svg+xml</dc:format>
    <dc:creator>
     <cc:Agent>
      <dc:title>Matplotlib v3.6.0, https://matplotlib.org/</dc:title>
     </cc:Agent>
    </dc:creator>
   </cc:Work>
  </rdf:RDF>
 </metadata>
 <defs>
  <style type="text/css">*{stroke-linejoin: round; stroke-linecap: butt}</style>
 </defs>
 <g id="figure_1">
  <g id="patch_1">
   <path d="M 0 345.6 
L 460.8 345.6 
L 460.8 0 
L 0 0 
z
" style="fill: #ffffff"/>
  </g>
  <g id="axes_1">
   <g id="patch_2">
    <path d="M 77.51 287.08 
L 449.770872 287.08 
L 449.770872 10.8 
L 77.51 10.8 
z
" style="fill: #ffffff"/>
   </g>
   <g id="PathCollection_1">
    <defs>
     <path id="ma22f461593" d="M 0 5 
C 1.326016 5 2.597899 4.473168 3.535534 3.535534 
C 4.473168 2.597899 5 1.326016 5 0 
C 5 -1.326016 4.473168 -2.597899 3.535534 -3.535534 
C 2.597899 -4.473168 1.326016 -5 0 -5 
C -1.326016 -5 -2.597899 -4.473168 -3.535534 -3.535534 
C -4.473168 -2.597899 -5 -1.326016 -5 0 
C -5 1.326016 -4.473168 2.597899 -3.535534 3.535534 
C -2.597899 4.473168 -1.326016 5 0 5 
z
" style="stroke: #1f77b4"/>
    </defs>
    <g clip-path="url(#p1ac269b110)">
     <use xlink:href="#ma22f461593" x="94.430949" y="274.521818" style="fill: #1f77b4; stroke: #1f77b4"/>
     <use xlink:href="#ma22f461593" x="133.471826" y="245.773488" style="fill: #1f77b4; stroke: #1f77b4"/>
     <use xlink:href="#ma22f461593" x="168.242261" y="217.025158" style="fill: #1f77b4; stroke: #1f77b4"/>
     <use xlink:href="#ma22f461593" x="214.345439" y="188.276828" style="fill: #1f77b4; stroke: #1f77b4"/>
     <use xlink:href="#ma22f461593" x="252.967553" y="159.528498" style="fill: #1f77b4; stroke: #1f77b4"/>
     <use xlink:href="#ma22f461593" x="288.502697" y="130.780167" style="fill: #1f77b4; stroke: #1f77b4"/>
     <use xlink:href="#ma22f461593" x="299.812646" y="116.406002" style="fill: #1f77b4; stroke: #1f77b4"/>
     <use xlink:href="#ma22f461593" x="325.970106" y="102.031837" style="fill: #1f77b4; stroke: #1f77b4"/>
     <use xlink:href="#ma22f461593" x="358.363325" y="73.283507" style="fill: #1f77b4; stroke: #1f77b4"/>
     <use xlink:href="#ma22f461593" x="379.518831" y="58.909342" style="fill: #1f77b4; stroke: #1f77b4"/>
     <use xlink:href="#ma22f461593" x="414.732793" y="44.535177" style="fill: #1f77b4; stroke: #1f77b4"/>
     <use xlink:href="#ma22f461593" x="432.849923" y="30.161012" style="fill: #1f77b4; stroke: #1f77b4"/>
    </g>
   </g>
   <g id="matplotlib.axis_1">
    <g id="xtick_1">
     <g id="line2d_1">
      <defs>
       <path id="mb0d20eca3b" d="M 0 0 
L 0 3.5 
" style="stroke: #000000; stroke-width: 0.8"/>
      </defs>
      <g>
       <use xlink:href="#mb0d20eca3b" x="89.467778" y="287.08" style="stroke: #000000; stroke-width: 0.8"/>
      </g>
     </g>
     <g id="text_1">
      <!-- 30 -->
      <g transform="translate(79.287778 306.2375) scale(0.16 -0.16)">
       <defs>
        <path id="DejaVuSans-33" d="M 2597 2516 
Q 3050 2419 3304 2112 
Q 3559 1806 3559 1356 
Q 3559 666 3084 287 
Q 2609 -91 1734 -91 
Q 1441 -91 1130 -33 
Q 819 25 488 141 
L 488 750 
Q 750 597 1062 519 
Q 1375 441 1716 441 
Q 2309 441 2620 675 
Q 2931 909 2931 1356 
Q 2931 1769 2642 2001 
Q 2353 2234 1838 2234 
L 1294 2234 
L 1294 2753 
L 1863 2753 
Q 2328 2753 2575 2939 
Q 2822 3125 2822 3475 
Q 2822 3834 2567 4026 
Q 2313 4219 1838 4219 
Q 1578 4219 1281 4162 
Q 984 4106 628 3988 
L 628 4550 
Q 988 4650 1302 4700 
Q 1616 4750 1894 4750 
Q 2613 4750 3031 4423 
Q 3450 4097 3450 3541 
Q 3450 3153 3228 2886 
Q 3006 2619 2597 2516 
z
" transform="scale(0.015625)"/>
        <path id="DejaVuSans-30" d="M 2034 4250 
Q 1547 4250 1301 3770 
Q 1056 3291 1056 2328 
Q 1056 1369 1301 889 
Q 1547 409 2034 409 
Q 2525 409 2770 889 
Q 3016 1369 3016 2328 
Q 3016 3291 2770 3770 
Q 2525 4250 2034 4250 
z
M 2034 4750 
Q 2819 4750 3233 4129 
Q 3647 3509 3647 2328 
Q 3647 1150 3233 529 
Q 2819 -91 2034 -91 
Q 1250 -91 836 529 
Q 422 1150 422 2328 
Q 422 3509 836 4129 
Q 1250 4750 2034 4750 
z
" transform="scale(0.015625)"/>
       </defs>
       <use xlink:href="#DejaVuSans-33"/>
       <use xlink:href="#DejaVuSans-30" x="63.623047"/>
      </g>
     </g>
    </g>
    <g id="xtick_2">
     <g id="line2d_2">
      <g>
       <use xlink:href="#mb0d20eca3b" x="147.859726" y="287.08" style="stroke: #000000; stroke-width: 0.8"/>
      </g>
     </g>
     <g id="text_2">
      <!-- 40 -->
      <g transform="translate(137.679726 306.2375) scale(0.16 -0.16)">
       <defs>
        <path id="DejaVuSans-34" d="M 2419 4116 
L 825 1625 
L 2419 1625 
L 2419 4116 
z
M 2253 4666 
L 3047 4666 
L 3047 1625 
L 3713 1625 
L 3713 1100 
L 3047 1100 
L 3047 0 
L 2419 0 
L 2419 1100 
L 313 1100 
L 313 1709 
L 2253 4666 
z
" transform="scale(0.015625)"/>
       </defs>
       <use xlink:href="#DejaVuSans-34"/>
       <use xlink:href="#DejaVuSans-30" x="63.623047"/>
      </g>
     </g>
    </g>
    <g id="xtick_3">
     <g id="line2d_3">
      <g>
       <use xlink:href="#mb0d20eca3b" x="206.251673" y="287.08" style="stroke: #000000; stroke-width: 0.8"/>
      </g>
     </g>
     <g id="text_3">
      <!-- 50 -->
      <g transform="translate(196.071673 306.2375) scale(0.16 -0.16)">
       <defs>
        <path id="DejaVuSans-35" d="M 691 4666 
L 3169 4666 
L 3169 4134 
L 1269 4134 
L 1269 2991 
Q 1406 3038 1543 3061 
Q 1681 3084 1819 3084 
Q 2600 3084 3056 2656 
Q 3513 2228 3513 1497 
Q 3513 744 3044 326 
Q 2575 -91 1722 -91 
Q 1428 -91 1123 -41 
Q 819 9 494 109 
L 494 744 
Q 775 591 1075 516 
Q 1375 441 1709 441 
Q 2250 441 2565 725 
Q 2881 1009 2881 1497 
Q 2881 1984 2565 2268 
Q 2250 2553 1709 2553 
Q 1456 2553 1204 2497 
Q 953 2441 691 2322 
L 691 4666 
z
" transform="scale(0.015625)"/>
       </defs>
       <use xlink:href="#DejaVuSans-35"/>
       <use xlink:href="#DejaVuSans-30" x="63.623047"/>
      </g>
     </g>
    </g>
    <g id="xtick_4">
     <g id="line2d_4">
      <g>
       <use xlink:href="#mb0d20eca3b" x="264.64362" y="287.08" style="stroke: #000000; stroke-width: 0.8"/>
      </g>
     </g>
     <g id="text_4">
      <!-- 60 -->
      <g transform="translate(254.46362 306.2375) scale(0.16 -0.16)">
       <defs>
        <path id="DejaVuSans-36" d="M 2113 2584 
Q 1688 2584 1439 2293 
Q 1191 2003 1191 1497 
Q 1191 994 1439 701 
Q 1688 409 2113 409 
Q 2538 409 2786 701 
Q 3034 994 3034 1497 
Q 3034 2003 2786 2293 
Q 2538 2584 2113 2584 
z
M 3366 4563 
L 3366 3988 
Q 3128 4100 2886 4159 
Q 2644 4219 2406 4219 
Q 1781 4219 1451 3797 
Q 1122 3375 1075 2522 
Q 1259 2794 1537 2939 
Q 1816 3084 2150 3084 
Q 2853 3084 3261 2657 
Q 3669 2231 3669 1497 
Q 3669 778 3244 343 
Q 2819 -91 2113 -91 
Q 1303 -91 875 529 
Q 447 1150 447 2328 
Q 447 3434 972 4092 
Q 1497 4750 2381 4750 
Q 2619 4750 2861 4703 
Q 3103 4656 3366 4563 
z
" transform="scale(0.015625)"/>
       </defs>
       <use xlink:href="#DejaVuSans-36"/>
       <use xlink:href="#DejaVuSans-30" x="63.623047"/>
      </g>
     </g>
    </g>
    <g id="xtick_5">
     <g id="line2d_5">
      <g>
       <use xlink:href="#mb0d20eca3b" x="323.035567" y="287.08" style="stroke: #000000; stroke-width: 0.8"/>
      </g>
     </g>
     <g id="text_5">
      <!-- 70 -->
      <g transform="translate(312.855567 306.2375) scale(0.16 -0.16)">
       <defs>
        <path id="DejaVuSans-37" d="M 525 4666 
L 3525 4666 
L 3525 4397 
L 1831 0 
L 1172 0 
L 2766 4134 
L 525 4134 
L 525 4666 
z
" transform="scale(0.015625)"/>
       </defs>
       <use xlink:href="#DejaVuSans-37"/>
       <use xlink:href="#DejaVuSans-30" x="63.623047"/>
      </g>
     </g>
    </g>
    <g id="xtick_6">
     <g id="line2d_6">
      <g>
       <use xlink:href="#mb0d20eca3b" x="381.427515" y="287.08" style="stroke: #000000; stroke-width: 0.8"/>
      </g>
     </g>
     <g id="text_6">
      <!-- 80 -->
      <g transform="translate(371.247515 306.2375) scale(0.16 -0.16)">
       <defs>
        <path id="DejaVuSans-38" d="M 2034 2216 
Q 1584 2216 1326 1975 
Q 1069 1734 1069 1313 
Q 1069 891 1326 650 
Q 1584 409 2034 409 
Q 2484 409 2743 651 
Q 3003 894 3003 1313 
Q 3003 1734 2745 1975 
Q 2488 2216 2034 2216 
z
M 1403 2484 
Q 997 2584 770 2862 
Q 544 3141 544 3541 
Q 544 4100 942 4425 
Q 1341 4750 2034 4750 
Q 2731 4750 3128 4425 
Q 3525 4100 3525 3541 
Q 3525 3141 3298 2862 
Q 3072 2584 2669 2484 
Q 3125 2378 3379 2068 
Q 3634 1759 3634 1313 
Q 3634 634 3220 271 
Q 2806 -91 2034 -91 
Q 1263 -91 848 271 
Q 434 634 434 1313 
Q 434 1759 690 2068 
Q 947 2378 1403 2484 
z
M 1172 3481 
Q 1172 3119 1398 2916 
Q 1625 2713 2034 2713 
Q 2441 2713 2670 2916 
Q 2900 3119 2900 3481 
Q 2900 3844 2670 4047 
Q 2441 4250 2034 4250 
Q 1625 4250 1398 4047 
Q 1172 3844 1172 3481 
z
" transform="scale(0.015625)"/>
       </defs>
       <use xlink:href="#DejaVuSans-38"/>
       <use xlink:href="#DejaVuSans-30" x="63.623047"/>
      </g>
     </g>
    </g>
    <g id="xtick_7">
     <g id="line2d_7">
      <g>
       <use xlink:href="#mb0d20eca3b" x="439.819462" y="287.08" style="stroke: #000000; stroke-width: 0.8"/>
      </g>
     </g>
     <g id="text_7">
      <!-- 90 -->
      <g transform="translate(429.639462 306.2375) scale(0.16 -0.16)">
       <defs>
        <path id="DejaVuSans-39" d="M 703 97 
L 703 672 
Q 941 559 1184 500 
Q 1428 441 1663 441 
Q 2288 441 2617 861 
Q 2947 1281 2994 2138 
Q 2813 1869 2534 1725 
Q 2256 1581 1919 1581 
Q 1219 1581 811 2004 
Q 403 2428 403 3163 
Q 403 3881 828 4315 
Q 1253 4750 1959 4750 
Q 2769 4750 3195 4129 
Q 3622 3509 3622 2328 
Q 3622 1225 3098 567 
Q 2575 -91 1691 -91 
Q 1453 -91 1209 -44 
Q 966 3 703 97 
z
M 1959 2075 
Q 2384 2075 2632 2365 
Q 2881 2656 2881 3163 
Q 2881 3666 2632 3958 
Q 2384 4250 1959 4250 
Q 1534 4250 1286 3958 
Q 1038 3666 1038 3163 
Q 1038 2656 1286 2365 
Q 1534 2075 1959 2075 
z
" transform="scale(0.015625)"/>
       </defs>
       <use xlink:href="#DejaVuSans-39"/>
       <use xlink:href="#DejaVuSans-30" x="63.623047"/>
      </g>
     </g>
    </g>
    <g id="text_8">
     <!-- time of wave crossing (hours) -->
     <g transform="translate(115.015436 328.761875) scale(0.2 -0.2)">
      <defs>
       <path id="DejaVuSans-74" d="M 1172 4494 
L 1172 3500 
L 2356 3500 
L 2356 3053 
L 1172 3053 
L 1172 1153 
Q 1172 725 1289 603 
Q 1406 481 1766 481 
L 2356 481 
L 2356 0 
L 1766 0 
Q 1100 0 847 248 
Q 594 497 594 1153 
L 594 3053 
L 172 3053 
L 172 3500 
L 594 3500 
L 594 4494 
L 1172 4494 
z
" transform="scale(0.015625)"/>
       <path id="DejaVuSans-69" d="M 603 3500 
L 1178 3500 
L 1178 0 
L 603 0 
L 603 3500 
z
M 603 4863 
L 1178 4863 
L 1178 4134 
L 603 4134 
L 603 4863 
z
" transform="scale(0.015625)"/>
       <path id="DejaVuSans-6d" d="M 3328 2828 
Q 3544 3216 3844 3400 
Q 4144 3584 4550 3584 
Q 5097 3584 5394 3201 
Q 5691 2819 5691 2113 
L 5691 0 
L 5113 0 
L 5113 2094 
Q 5113 2597 4934 2840 
Q 4756 3084 4391 3084 
Q 3944 3084 3684 2787 
Q 3425 2491 3425 1978 
L 3425 0 
L 2847 0 
L 2847 2094 
Q 2847 2600 2669 2842 
Q 2491 3084 2119 3084 
Q 1678 3084 1418 2786 
Q 1159 2488 1159 1978 
L 1159 0 
L 581 0 
L 581 3500 
L 1159 3500 
L 1159 2956 
Q 1356 3278 1631 3431 
Q 1906 3584 2284 3584 
Q 2666 3584 2933 3390 
Q 3200 3197 3328 2828 
z
" transform="scale(0.015625)"/>
       <path id="DejaVuSans-65" d="M 3597 1894 
L 3597 1613 
L 953 1613 
Q 991 1019 1311 708 
Q 1631 397 2203 397 
Q 2534 397 2845 478 
Q 3156 559 3463 722 
L 3463 178 
Q 3153 47 2828 -22 
Q 2503 -91 2169 -91 
Q 1331 -91 842 396 
Q 353 884 353 1716 
Q 353 2575 817 3079 
Q 1281 3584 2069 3584 
Q 2775 3584 3186 3129 
Q 3597 2675 3597 1894 
z
M 3022 2063 
Q 3016 2534 2758 2815 
Q 2500 3097 2075 3097 
Q 1594 3097 1305 2825 
Q 1016 2553 972 2059 
L 3022 2063 
z
" transform="scale(0.015625)"/>
       <path id="DejaVuSans-20" transform="scale(0.015625)"/>
       <path id="DejaVuSans-6f" d="M 1959 3097 
Q 1497 3097 1228 2736 
Q 959 2375 959 1747 
Q 959 1119 1226 758 
Q 1494 397 1959 397 
Q 2419 397 2687 759 
Q 2956 1122 2956 1747 
Q 2956 2369 2687 2733 
Q 2419 3097 1959 3097 
z
M 1959 3584 
Q 2709 3584 3137 3096 
Q 3566 2609 3566 1747 
Q 3566 888 3137 398 
Q 2709 -91 1959 -91 
Q 1206 -91 779 398 
Q 353 888 353 1747 
Q 353 2609 779 3096 
Q 1206 3584 1959 3584 
z
" transform="scale(0.015625)"/>
       <path id="DejaVuSans-66" d="M 2375 4863 
L 2375 4384 
L 1825 4384 
Q 1516 4384 1395 4259 
Q 1275 4134 1275 3809 
L 1275 3500 
L 2222 3500 
L 2222 3053 
L 1275 3053 
L 1275 0 
L 697 0 
L 697 3053 
L 147 3053 
L 147 3500 
L 697 3500 
L 697 3744 
Q 697 4328 969 4595 
Q 1241 4863 1831 4863 
L 2375 4863 
z
" transform="scale(0.015625)"/>
       <path id="DejaVuSans-77" d="M 269 3500 
L 844 3500 
L 1563 769 
L 2278 3500 
L 2956 3500 
L 3675 769 
L 4391 3500 
L 4966 3500 
L 4050 0 
L 3372 0 
L 2619 2869 
L 1863 0 
L 1184 0 
L 269 3500 
z
" transform="scale(0.015625)"/>
       <path id="DejaVuSans-61" d="M 2194 1759 
Q 1497 1759 1228 1600 
Q 959 1441 959 1056 
Q 959 750 1161 570 
Q 1363 391 1709 391 
Q 2188 391 2477 730 
Q 2766 1069 2766 1631 
L 2766 1759 
L 2194 1759 
z
M 3341 1997 
L 3341 0 
L 2766 0 
L 2766 531 
Q 2569 213 2275 61 
Q 1981 -91 1556 -91 
Q 1019 -91 701 211 
Q 384 513 384 1019 
Q 384 1609 779 1909 
Q 1175 2209 1959 2209 
L 2766 2209 
L 2766 2266 
Q 2766 2663 2505 2880 
Q 2244 3097 1772 3097 
Q 1472 3097 1187 3025 
Q 903 2953 641 2809 
L 641 3341 
Q 956 3463 1253 3523 
Q 1550 3584 1831 3584 
Q 2591 3584 2966 3190 
Q 3341 2797 3341 1997 
z
" transform="scale(0.015625)"/>
       <path id="DejaVuSans-76" d="M 191 3500 
L 800 3500 
L 1894 563 
L 2988 3500 
L 3597 3500 
L 2284 0 
L 1503 0 
L 191 3500 
z
" transform="scale(0.015625)"/>
       <path id="DejaVuSans-63" d="M 3122 3366 
L 3122 2828 
Q 2878 2963 2633 3030 
Q 2388 3097 2138 3097 
Q 1578 3097 1268 2742 
Q 959 2388 959 1747 
Q 959 1106 1268 751 
Q 1578 397 2138 397 
Q 2388 397 2633 464 
Q 2878 531 3122 666 
L 3122 134 
Q 2881 22 2623 -34 
Q 2366 -91 2075 -91 
Q 1284 -91 818 406 
Q 353 903 353 1747 
Q 353 2603 823 3093 
Q 1294 3584 2113 3584 
Q 2378 3584 2631 3529 
Q 2884 3475 3122 3366 
z
" transform="scale(0.015625)"/>
       <path id="DejaVuSans-72" d="M 2631 2963 
Q 2534 3019 2420 3045 
Q 2306 3072 2169 3072 
Q 1681 3072 1420 2755 
Q 1159 2438 1159 1844 
L 1159 0 
L 581 0 
L 581 3500 
L 1159 3500 
L 1159 2956 
Q 1341 3275 1631 3429 
Q 1922 3584 2338 3584 
Q 2397 3584 2469 3576 
Q 2541 3569 2628 3553 
L 2631 2963 
z
" transform="scale(0.015625)"/>
       <path id="DejaVuSans-73" d="M 2834 3397 
L 2834 2853 
Q 2591 2978 2328 3040 
Q 2066 3103 1784 3103 
Q 1356 3103 1142 2972 
Q 928 2841 928 2578 
Q 928 2378 1081 2264 
Q 1234 2150 1697 2047 
L 1894 2003 
Q 2506 1872 2764 1633 
Q 3022 1394 3022 966 
Q 3022 478 2636 193 
Q 2250 -91 1575 -91 
Q 1294 -91 989 -36 
Q 684 19 347 128 
L 347 722 
Q 666 556 975 473 
Q 1284 391 1588 391 
Q 1994 391 2212 530 
Q 2431 669 2431 922 
Q 2431 1156 2273 1281 
Q 2116 1406 1581 1522 
L 1381 1569 
Q 847 1681 609 1914 
Q 372 2147 372 2553 
Q 372 3047 722 3315 
Q 1072 3584 1716 3584 
Q 2034 3584 2315 3537 
Q 2597 3491 2834 3397 
z
" transform="scale(0.015625)"/>
       <path id="DejaVuSans-6e" d="M 3513 2113 
L 3513 0 
L 2938 0 
L 2938 2094 
Q 2938 2591 2744 2837 
Q 2550 3084 2163 3084 
Q 1697 3084 1428 2787 
Q 1159 2491 1159 1978 
L 1159 0 
L 581 0 
L 581 3500 
L 1159 3500 
L 1159 2956 
Q 1366 3272 1645 3428 
Q 1925 3584 2291 3584 
Q 2894 3584 3203 3211 
Q 3513 2838 3513 2113 
z
" transform="scale(0.015625)"/>
       <path id="DejaVuSans-67" d="M 2906 1791 
Q 2906 2416 2648 2759 
Q 2391 3103 1925 3103 
Q 1463 3103 1205 2759 
Q 947 2416 947 1791 
Q 947 1169 1205 825 
Q 1463 481 1925 481 
Q 2391 481 2648 825 
Q 2906 1169 2906 1791 
z
M 3481 434 
Q 3481 -459 3084 -895 
Q 2688 -1331 1869 -1331 
Q 1566 -1331 1297 -1286 
Q 1028 -1241 775 -1147 
L 775 -588 
Q 1028 -725 1275 -790 
Q 1522 -856 1778 -856 
Q 2344 -856 2625 -561 
Q 2906 -266 2906 331 
L 2906 616 
Q 2728 306 2450 153 
Q 2172 0 1784 0 
Q 1141 0 747 490 
Q 353 981 353 1791 
Q 353 2603 747 3093 
Q 1141 3584 1784 3584 
Q 2172 3584 2450 3431 
Q 2728 3278 2906 2969 
L 2906 3500 
L 3481 3500 
L 3481 434 
z
" transform="scale(0.015625)"/>
       <path id="DejaVuSans-28" d="M 1984 4856 
Q 1566 4138 1362 3434 
Q 1159 2731 1159 2009 
Q 1159 1288 1364 580 
Q 1569 -128 1984 -844 
L 1484 -844 
Q 1016 -109 783 600 
Q 550 1309 550 2009 
Q 550 2706 781 3412 
Q 1013 4119 1484 4856 
L 1984 4856 
z
" transform="scale(0.015625)"/>
       <path id="DejaVuSans-68" d="M 3513 2113 
L 3513 0 
L 2938 0 
L 2938 2094 
Q 2938 2591 2744 2837 
Q 2550 3084 2163 3084 
Q 1697 3084 1428 2787 
Q 1159 2491 1159 1978 
L 1159 0 
L 581 0 
L 581 4863 
L 1159 4863 
L 1159 2956 
Q 1366 3272 1645 3428 
Q 1925 3584 2291 3584 
Q 2894 3584 3203 3211 
Q 3513 2838 3513 2113 
z
" transform="scale(0.015625)"/>
       <path id="DejaVuSans-75" d="M 544 1381 
L 544 3500 
L 1119 3500 
L 1119 1403 
Q 1119 906 1312 657 
Q 1506 409 1894 409 
Q 2359 409 2629 706 
Q 2900 1003 2900 1516 
L 2900 3500 
L 3475 3500 
L 3475 0 
L 2900 0 
L 2900 538 
Q 2691 219 2414 64 
Q 2138 -91 1772 -91 
Q 1169 -91 856 284 
Q 544 659 544 1381 
z
M 1991 3584 
L 1991 3584 
z
" transform="scale(0.015625)"/>
       <path id="DejaVuSans-29" d="M 513 4856 
L 1013 4856 
Q 1481 4119 1714 3412 
Q 1947 2706 1947 2009 
Q 1947 1309 1714 600 
Q 1481 -109 1013 -844 
L 513 -844 
Q 928 -128 1133 580 
Q 1338 1288 1338 2009 
Q 1338 2731 1133 3434 
Q 928 4138 513 4856 
z
" transform="scale(0.015625)"/>
      </defs>
      <use xlink:href="#DejaVuSans-74"/>
      <use xlink:href="#DejaVuSans-69" x="39.208984"/>
      <use xlink:href="#DejaVuSans-6d" x="66.992188"/>
      <use xlink:href="#DejaVuSans-65" x="164.404297"/>
      <use xlink:href="#DejaVuSans-20" x="225.927734"/>
      <use xlink:href="#DejaVuSans-6f" x="257.714844"/>
      <use xlink:href="#DejaVuSans-66" x="318.896484"/>
      <use xlink:href="#DejaVuSans-20" x="354.101562"/>
      <use xlink:href="#DejaVuSans-77" x="385.888672"/>
      <use xlink:href="#DejaVuSans-61" x="467.675781"/>
      <use xlink:href="#DejaVuSans-76" x="528.955078"/>
      <use xlink:href="#DejaVuSans-65" x="588.134766"/>
      <use xlink:href="#DejaVuSans-20" x="649.658203"/>
      <use xlink:href="#DejaVuSans-63" x="681.445312"/>
      <use xlink:href="#DejaVuSans-72" x="736.425781"/>
      <use xlink:href="#DejaVuSans-6f" x="775.289062"/>
      <use xlink:href="#DejaVuSans-73" x="836.470703"/>
      <use xlink:href="#DejaVuSans-73" x="888.570312"/>
      <use xlink:href="#DejaVuSans-69" x="940.669922"/>
      <use xlink:href="#DejaVuSans-6e" x="968.453125"/>
      <use xlink:href="#DejaVuSans-67" x="1031.832031"/>
      <use xlink:href="#DejaVuSans-20" x="1095.308594"/>
      <use xlink:href="#DejaVuSans-28" x="1127.095703"/>
      <use xlink:href="#DejaVuSans-68" x="1166.109375"/>
      <use xlink:href="#DejaVuSans-6f" x="1229.488281"/>
      <use xlink:href="#DejaVuSans-75" x="1290.669922"/>
      <use xlink:href="#DejaVuSans-72" x="1354.048828"/>
      <use xlink:href="#DejaVuSans-73" x="1395.162109"/>
      <use xlink:href="#DejaVuSans-29" x="1447.261719"/>
     </g>
    </g>
   </g>
   <g id="matplotlib.axis_2">
    <g id="ytick_1">
     <g id="line2d_8">
      <defs>
       <path id="m57634cc65e" d="M 0 0 
L -3.5 0 
" style="stroke: #000000; stroke-width: 0.8"/>
      </defs>
      <g>
       <use xlink:href="#m57634cc65e" x="77.51" y="252.960571" style="stroke: #000000; stroke-width: 0.8"/>
      </g>
     </g>
     <g id="text_9">
      <!-- 12.5 -->
      <g transform="translate(34.885 259.039321) scale(0.16 -0.16)">
       <defs>
        <path id="DejaVuSans-31" d="M 794 531 
L 1825 531 
L 1825 4091 
L 703 3866 
L 703 4441 
L 1819 4666 
L 2450 4666 
L 2450 531 
L 3481 531 
L 3481 0 
L 794 0 
L 794 531 
z
" transform="scale(0.015625)"/>
        <path id="DejaVuSans-32" d="M 1228 531 
L 3431 531 
L 3431 0 
L 469 0 
L 469 531 
Q 828 903 1448 1529 
Q 2069 2156 2228 2338 
Q 2531 2678 2651 2914 
Q 2772 3150 2772 3378 
Q 2772 3750 2511 3984 
Q 2250 4219 1831 4219 
Q 1534 4219 1204 4116 
Q 875 4013 500 3803 
L 500 4441 
Q 881 4594 1212 4672 
Q 1544 4750 1819 4750 
Q 2544 4750 2975 4387 
Q 3406 4025 3406 3419 
Q 3406 3131 3298 2873 
Q 3191 2616 2906 2266 
Q 2828 2175 2409 1742 
Q 1991 1309 1228 531 
z
" transform="scale(0.015625)"/>
        <path id="DejaVuSans-2e" d="M 684 794 
L 1344 794 
L 1344 0 
L 684 0 
L 684 794 
z
" transform="scale(0.015625)"/>
       </defs>
       <use xlink:href="#DejaVuSans-31"/>
       <use xlink:href="#DejaVuSans-32" x="63.623047"/>
       <use xlink:href="#DejaVuSans-2e" x="127.246094"/>
       <use xlink:href="#DejaVuSans-35" x="159.033203"/>
      </g>
     </g>
    </g>
    <g id="ytick_2">
     <g id="line2d_9">
      <g>
       <use xlink:href="#m57634cc65e" x="77.51" y="217.025158" style="stroke: #000000; stroke-width: 0.8"/>
      </g>
     </g>
     <g id="text_10">
      <!-- 15.0 -->
      <g transform="translate(34.885 223.103908) scale(0.16 -0.16)">
       <use xlink:href="#DejaVuSans-31"/>
       <use xlink:href="#DejaVuSans-35" x="63.623047"/>
       <use xlink:href="#DejaVuSans-2e" x="127.246094"/>
       <use xlink:href="#DejaVuSans-30" x="159.033203"/>
      </g>
     </g>
    </g>
    <g id="ytick_3">
     <g id="line2d_10">
      <g>
       <use xlink:href="#m57634cc65e" x="77.51" y="181.089745" style="stroke: #000000; stroke-width: 0.8"/>
      </g>
     </g>
     <g id="text_11">
      <!-- 17.5 -->
      <g transform="translate(34.885 187.168495) scale(0.16 -0.16)">
       <use xlink:href="#DejaVuSans-31"/>
       <use xlink:href="#DejaVuSans-37" x="63.623047"/>
       <use xlink:href="#DejaVuSans-2e" x="127.246094"/>
       <use xlink:href="#DejaVuSans-35" x="159.033203"/>
      </g>
     </g>
    </g>
    <g id="ytick_4">
     <g id="line2d_11">
      <g>
       <use xlink:href="#m57634cc65e" x="77.51" y="145.154333" style="stroke: #000000; stroke-width: 0.8"/>
      </g>
     </g>
     <g id="text_12">
      <!-- 20.0 -->
      <g transform="translate(34.885 151.233083) scale(0.16 -0.16)">
       <use xlink:href="#DejaVuSans-32"/>
       <use xlink:href="#DejaVuSans-30" x="63.623047"/>
       <use xlink:href="#DejaVuSans-2e" x="127.246094"/>
       <use xlink:href="#DejaVuSans-30" x="159.033203"/>
      </g>
     </g>
    </g>
    <g id="ytick_5">
     <g id="line2d_12">
      <g>
       <use xlink:href="#m57634cc65e" x="77.51" y="109.21892" style="stroke: #000000; stroke-width: 0.8"/>
      </g>
     </g>
     <g id="text_13">
      <!-- 22.5 -->
      <g transform="translate(34.885 115.29767) scale(0.16 -0.16)">
       <use xlink:href="#DejaVuSans-32"/>
       <use xlink:href="#DejaVuSans-32" x="63.623047"/>
       <use xlink:href="#DejaVuSans-2e" x="127.246094"/>
       <use xlink:href="#DejaVuSans-35" x="159.033203"/>
      </g>
     </g>
    </g>
    <g id="ytick_6">
     <g id="line2d_13">
      <g>
       <use xlink:href="#m57634cc65e" x="77.51" y="73.283507" style="stroke: #000000; stroke-width: 0.8"/>
      </g>
     </g>
     <g id="text_14">
      <!-- 25.0 -->
      <g transform="translate(34.885 79.362257) scale(0.16 -0.16)">
       <use xlink:href="#DejaVuSans-32"/>
       <use xlink:href="#DejaVuSans-35" x="63.623047"/>
       <use xlink:href="#DejaVuSans-2e" x="127.246094"/>
       <use xlink:href="#DejaVuSans-30" x="159.033203"/>
      </g>
     </g>
    </g>
    <g id="ytick_7">
     <g id="line2d_14">
      <g>
       <use xlink:href="#m57634cc65e" x="77.51" y="37.348095" style="stroke: #000000; stroke-width: 0.8"/>
      </g>
     </g>
     <g id="text_15">
      <!-- 27.5 -->
      <g transform="translate(34.885 43.426845) scale(0.16 -0.16)">
       <use xlink:href="#DejaVuSans-32"/>
       <use xlink:href="#DejaVuSans-37" x="63.623047"/>
       <use xlink:href="#DejaVuSans-2e" x="127.246094"/>
       <use xlink:href="#DejaVuSans-35" x="159.033203"/>
      </g>
     </g>
    </g>
    <g id="text_16">
     <!-- distance from center (mm) -->
     <g transform="translate(26.725625 283.57125) rotate(-90) scale(0.2 -0.2)">
      <defs>
       <path id="DejaVuSans-64" d="M 2906 2969 
L 2906 4863 
L 3481 4863 
L 3481 0 
L 2906 0 
L 2906 525 
Q 2725 213 2448 61 
Q 2172 -91 1784 -91 
Q 1150 -91 751 415 
Q 353 922 353 1747 
Q 353 2572 751 3078 
Q 1150 3584 1784 3584 
Q 2172 3584 2448 3432 
Q 2725 3281 2906 2969 
z
M 947 1747 
Q 947 1113 1208 752 
Q 1469 391 1925 391 
Q 2381 391 2643 752 
Q 2906 1113 2906 1747 
Q 2906 2381 2643 2742 
Q 2381 3103 1925 3103 
Q 1469 3103 1208 2742 
Q 947 2381 947 1747 
z
" transform="scale(0.015625)"/>
      </defs>
      <use xlink:href="#DejaVuSans-64"/>
      <use xlink:href="#DejaVuSans-69" x="63.476562"/>
      <use xlink:href="#DejaVuSans-73" x="91.259766"/>
      <use xlink:href="#DejaVuSans-74" x="143.359375"/>
      <use xlink:href="#DejaVuSans-61" x="182.568359"/>
      <use xlink:href="#DejaVuSans-6e" x="243.847656"/>
      <use xlink:href="#DejaVuSans-63" x="307.226562"/>
      <use xlink:href="#DejaVuSans-65" x="362.207031"/>
      <use xlink:href="#DejaVuSans-20" x="423.730469"/>
      <use xlink:href="#DejaVuSans-66" x="455.517578"/>
      <use xlink:href="#DejaVuSans-72" x="490.722656"/>
      <use xlink:href="#DejaVuSans-6f" x="529.585938"/>
      <use xlink:href="#DejaVuSans-6d" x="590.767578"/>
      <use xlink:href="#DejaVuSans-20" x="688.179688"/>
      <use xlink:href="#DejaVuSans-63" x="719.966797"/>
      <use xlink:href="#DejaVuSans-65" x="774.947266"/>
      <use xlink:href="#DejaVuSans-6e" x="836.470703"/>
      <use xlink:href="#DejaVuSans-74" x="899.849609"/>
      <use xlink:href="#DejaVuSans-65" x="939.058594"/>
      <use xlink:href="#DejaVuSans-72" x="1000.582031"/>
      <use xlink:href="#DejaVuSans-20" x="1041.695312"/>
      <use xlink:href="#DejaVuSans-28" x="1073.482422"/>
      <use xlink:href="#DejaVuSans-6d" x="1112.496094"/>
      <use xlink:href="#DejaVuSans-6d" x="1209.908203"/>
      <use xlink:href="#DejaVuSans-29" x="1307.320312"/>
     </g>
    </g>
   </g>
   <g id="line2d_15">
    <path d="M 299.812646 121.397235 
L 414.732793 38.02014 
L 168.242261 216.854443 
L 94.430949 270.406174 
L 299.812646 121.397235 
L 358.363325 78.917429 
L 299.812646 121.397235 
L 288.502697 129.602851 
L 133.471826 242.081159 
L 432.849923 24.875763 
L 358.363325 78.917429 
L 432.849923 24.875763 
" clip-path="url(#p1ac269b110)" style="fill: none; stroke: #808080; stroke-opacity: 0.01; stroke-width: 3; stroke-linecap: square"/>
   </g>
   <g id="line2d_16">
    <path d="M 133.471826 244.097197 
L 94.430949 272.88302 
L 358.363325 78.279028 
L 214.345439 184.467044 
L 168.242261 218.460079 
L 358.363325 78.279028 
L 299.812646 121.449919 
L 252.967553 155.989986 
L 299.812646 121.449919 
L 414.732793 36.716399 
L 432.849923 23.358182 
L 379.518831 62.68054 
" clip-path="url(#p1ac269b110)" style="fill: none; stroke: #808080; stroke-opacity: 0.01; stroke-width: 3; stroke-linecap: square"/>
   </g>
   <g id="line2d_17">
    <path d="M 133.471826 244.348205 
L 432.849923 25.431222 
L 94.430949 272.896423 
L 325.970106 103.585928 
L 414.732793 38.679177 
L 288.502697 130.983563 
L 288.502697 130.983563 
L 358.363325 79.898738 
L 168.242261 218.922702 
L 288.502697 130.983563 
L 252.967553 156.968252 
L 379.518831 64.429004 
" clip-path="url(#p1ac269b110)" style="fill: none; stroke: #808080; stroke-opacity: 0.01; stroke-width: 3; stroke-linecap: square"/>
   </g>
   <g id="line2d_18">
    <path d="M 94.430949 273.224692 
L 358.363325 79.301256 
L 214.345439 185.117919 
L 168.242261 218.992076 
L 379.518831 63.757319 
L 432.849923 24.572476 
L 168.242261 218.992076 
L 379.518831 63.757319 
L 325.970106 103.102067 
L 414.732793 37.883977 
L 133.471826 244.539538 
L 252.967553 156.740449 
" clip-path="url(#p1ac269b110)" style="fill: none; stroke: #808080; stroke-opacity: 0.01; stroke-width: 3; stroke-linecap: square"/>
   </g>
   <g id="line2d_19">
    <path d="M 168.242261 219.485107 
L 414.732793 39.24428 
L 214.345439 185.773164 
L 325.970106 104.15006 
L 94.430949 273.45802 
L 414.732793 39.24428 
L 379.518831 64.993722 
L 379.518831 64.993722 
L 252.967553 157.531585 
L 252.967553 157.531585 
L 168.242261 219.485107 
L 94.430949 273.45802 
" clip-path="url(#p1ac269b110)" style="fill: none; stroke: #808080; stroke-opacity: 0.01; stroke-width: 3; stroke-linecap: square"/>
   </g>
   <g id="line2d_20">
    <path d="M 379.518831 64.059791 
L 358.363325 79.01473 
L 288.502697 128.399577 
L 299.812646 120.404514 
L 299.812646 120.404514 
L 432.849923 26.35976 
L 325.970106 101.913668 
L 414.732793 39.166855 
L 414.732793 39.166855 
L 214.345439 180.821735 
L 358.363325 79.01473 
L 325.970106 101.913668 
" clip-path="url(#p1ac269b110)" style="fill: none; stroke: #808080; stroke-opacity: 0.01; stroke-width: 3; stroke-linecap: square"/>
   </g>
   <g id="line2d_21">
    <path d="M 133.471826 244.650052 
L 379.518831 64.234199 
L 94.430949 273.277075 
L 133.471826 244.650052 
L 288.502697 130.972477 
L 133.471826 244.650052 
L 432.849923 25.128766 
L 325.970106 103.499212 
L 288.502697 130.972477 
L 414.732793 38.413291 
L 358.363325 79.746635 
L 168.242261 219.154364 
" clip-path="url(#p1ac269b110)" style="fill: none; stroke: #808080; stroke-opacity: 0.01; stroke-width: 3; stroke-linecap: square"/>
   </g>
   <g id="line2d_22">
    <path d="M 252.967553 156.65551 
L 288.502697 130.342556 
L 379.518831 62.94721 
L 325.970106 102.598805 
L 168.242261 219.392632 
L 94.430949 274.048205 
L 414.732793 36.872084 
L 358.363325 78.612374 
L 94.430949 274.048205 
L 94.430949 274.048205 
L 94.430949 274.048205 
L 325.970106 102.598805 
" clip-path="url(#p1ac269b110)" style="fill: none; stroke: #808080; stroke-opacity: 0.01; stroke-width: 3; stroke-linecap: square"/>
   </g>
   <g id="line2d_23">
    <path d="M 358.363325 79.462057 
L 379.518831 63.87705 
L 252.967553 157.105857 
L 288.502697 130.927543 
L 133.471826 245.136925 
L 432.849923 24.588675 
L 358.363325 79.462057 
L 94.430949 273.897871 
L 432.849923 24.588675 
L 214.345439 185.558305 
L 252.967553 157.105857 
L 168.242261 219.521963 
" clip-path="url(#p1ac269b110)" style="fill: none; stroke: #808080; stroke-opacity: 0.01; stroke-width: 3; stroke-linecap: square"/>
   </g>
   <g id="line2d_24">
    <path d="M 288.502697 132.062869 
L 288.502697 132.062869 
L 252.967553 157.707081 
L 168.242261 218.849742 
L 214.345439 185.579028 
L 325.970106 105.024224 
L 325.970106 105.024224 
L 214.345439 185.579028 
L 214.345439 185.579028 
L 288.502697 132.062869 
L 414.732793 40.967945 
L 168.242261 218.849742 
" clip-path="url(#p1ac269b110)" style="fill: none; stroke: #808080; stroke-opacity: 0.01; stroke-width: 3; stroke-linecap: square"/>
   </g>
   <g id="line2d_25">
    <path d="M 94.430949 273.108358 
L 133.471826 244.466004 
L 168.242261 218.956661 
L 214.345439 185.133047 
L 252.967553 156.797918 
L 288.502697 130.727546 
L 299.812646 122.429998 
L 325.970106 103.239568 
L 358.363325 79.47427 
L 379.518831 63.953526 
L 414.732793 38.118789 
L 432.849923 24.827149 
" clip-path="url(#p1ac269b110)" style="fill: none; stroke: #808080; stroke-opacity: 0.01; stroke-width: 3; stroke-linecap: square"/>
   </g>
   <g id="line2d_26">
    <path d="M 94.430949 273.108358 
L 133.471826 244.466004 
L 168.242261 218.956661 
L 214.345439 185.133047 
L 252.967553 156.797918 
L 288.502697 130.727546 
L 299.812646 122.429998 
L 325.970106 103.239568 
L 358.363325 79.47427 
L 379.518831 63.953526 
L 414.732793 38.118789 
L 432.849923 24.827149 
" clip-path="url(#p1ac269b110)" style="fill: none; stroke: #000000; stroke-width: 3; stroke-linecap: square"/>
   </g>
   <g id="patch_3">
    <path d="M 77.51 287.08 
L 77.51 10.8 
" style="fill: none; stroke: #000000; stroke-width: 0.8; stroke-linejoin: miter; stroke-linecap: square"/>
   </g>
   <g id="patch_4">
    <path d="M 449.770872 287.08 
L 449.770872 10.8 
" style="fill: none; stroke: #000000; stroke-width: 0.8; stroke-linejoin: miter; stroke-linecap: square"/>
   </g>
   <g id="patch_5">
    <path d="M 77.51 287.08 
L 449.770872 287.08 
" style="fill: none; stroke: #000000; stroke-width: 0.8; stroke-linejoin: miter; stroke-linecap: square"/>
   </g>
   <g id="patch_6">
    <path d="M 77.51 10.8 
L 449.770872 10.8 
" style="fill: none; stroke: #000000; stroke-width: 0.8; stroke-linejoin: miter; stroke-linecap: square"/>
   </g>
   <g id="legend_1">
    <g id="patch_7">
     <path d="M 84.51 48.178125 
L 293.31 48.178125 
Q 295.31 48.178125 295.31 46.178125 
L 295.31 17.8 
Q 295.31 15.8 293.31 15.8 
L 84.51 15.8 
Q 82.51 15.8 82.51 17.8 
L 82.51 46.178125 
Q 82.51 48.178125 84.51 48.178125 
z
" style="fill: #ffffff; opacity: 0.8; stroke: #cccccc; stroke-linejoin: miter"/>
    </g>
    <g id="PathCollection_2">
     <g>
      <use xlink:href="#ma22f461593" x="96.51" y="24.773438" style="fill: #1f77b4; stroke: #1f77b4"/>
     </g>
    </g>
    <g id="text_17">
     <!-- data -->
     <g transform="translate(114.51 27.398438) scale(0.1 -0.1)">
      <use xlink:href="#DejaVuSans-64"/>
      <use xlink:href="#DejaVuSans-61" x="63.476562"/>
      <use xlink:href="#DejaVuSans-74" x="124.755859"/>
      <use xlink:href="#DejaVuSans-61" x="163.964844"/>
     </g>
    </g>
    <g id="line2d_27">
     <path d="M 86.51 38.578125 
L 96.51 38.578125 
L 106.51 38.578125 
" style="fill: none; stroke: #000000; stroke-width: 3; stroke-linecap: square"/>
    </g>
    <g id="text_18">
     <!-- linear fit : speed = 298$\pm$ 3$\mu m.h^-1$ -->
     <g transform="translate(114.51 42.078125) scale(0.1 -0.1)">
      <defs>
       <path id="DejaVuSans-6c" d="M 603 4863 
L 1178 4863 
L 1178 0 
L 603 0 
L 603 4863 
z
" transform="scale(0.015625)"/>
       <path id="DejaVuSans-3a" d="M 750 794 
L 1409 794 
L 1409 0 
L 750 0 
L 750 794 
z
M 750 3309 
L 1409 3309 
L 1409 2516 
L 750 2516 
L 750 3309 
z
" transform="scale(0.015625)"/>
       <path id="DejaVuSans-70" d="M 1159 525 
L 1159 -1331 
L 581 -1331 
L 581 3500 
L 1159 3500 
L 1159 2969 
Q 1341 3281 1617 3432 
Q 1894 3584 2278 3584 
Q 2916 3584 3314 3078 
Q 3713 2572 3713 1747 
Q 3713 922 3314 415 
Q 2916 -91 2278 -91 
Q 1894 -91 1617 61 
Q 1341 213 1159 525 
z
M 3116 1747 
Q 3116 2381 2855 2742 
Q 2594 3103 2138 3103 
Q 1681 3103 1420 2742 
Q 1159 2381 1159 1747 
Q 1159 1113 1420 752 
Q 1681 391 2138 391 
Q 2594 391 2855 752 
Q 3116 1113 3116 1747 
z
" transform="scale(0.015625)"/>
       <path id="DejaVuSans-3d" d="M 678 2906 
L 4684 2906 
L 4684 2381 
L 678 2381 
L 678 2906 
z
M 678 1631 
L 4684 1631 
L 4684 1100 
L 678 1100 
L 678 1631 
z
" transform="scale(0.015625)"/>
       <path id="DejaVuSans-b1" d="M 2944 4013 
L 2944 2803 
L 4684 2803 
L 4684 2272 
L 2944 2272 
L 2944 1063 
L 2419 1063 
L 2419 2272 
L 678 2272 
L 678 2803 
L 2419 2803 
L 2419 4013 
L 2944 4013 
z
M 678 531 
L 4684 531 
L 4684 0 
L 678 0 
L 678 531 
z
" transform="scale(0.015625)"/>
       <path id="DejaVuSans-Oblique-3bc" d="M -84 -1331 
L 856 3500 
L 1434 3500 
L 1009 1322 
Q 997 1256 987 1175 
Q 978 1094 978 1013 
Q 978 722 1161 565 
Q 1344 409 1684 409 
Q 2147 409 2431 671 
Q 2716 934 2816 1459 
L 3213 3500 
L 3788 3500 
L 3266 809 
Q 3253 750 3248 706 
Q 3244 663 3244 628 
Q 3244 531 3283 486 
Q 3322 441 3406 441 
Q 3438 441 3492 456 
Q 3547 472 3647 513 
L 3559 50 
Q 3422 -19 3297 -55 
Q 3172 -91 3053 -91 
Q 2847 -91 2730 40 
Q 2613 172 2613 403 
Q 2438 153 2195 31 
Q 1953 -91 1625 -91 
Q 1334 -91 1117 43 
Q 900 178 831 397 
L 494 -1331 
L -84 -1331 
z
" transform="scale(0.015625)"/>
       <path id="DejaVuSans-Oblique-6d" d="M 5747 2113 
L 5338 0 
L 4763 0 
L 5166 2094 
Q 5191 2228 5203 2325 
Q 5216 2422 5216 2491 
Q 5216 2772 5059 2928 
Q 4903 3084 4622 3084 
Q 4203 3084 3875 2770 
Q 3547 2456 3450 1953 
L 3066 0 
L 2491 0 
L 2900 2094 
Q 2925 2209 2937 2307 
Q 2950 2406 2950 2484 
Q 2950 2769 2794 2926 
Q 2638 3084 2363 3084 
Q 1938 3084 1609 2770 
Q 1281 2456 1184 1953 
L 800 0 
L 225 0 
L 909 3500 
L 1484 3500 
L 1375 2956 
Q 1609 3263 1923 3423 
Q 2238 3584 2597 3584 
Q 2978 3584 3223 3384 
Q 3469 3184 3519 2828 
Q 3781 3197 4126 3390 
Q 4472 3584 4856 3584 
Q 5306 3584 5551 3325 
Q 5797 3066 5797 2591 
Q 5797 2488 5784 2364 
Q 5772 2241 5747 2113 
z
" transform="scale(0.015625)"/>
       <path id="DejaVuSans-Oblique-68" d="M 3566 2113 
L 3156 0 
L 2578 0 
L 2988 2091 
Q 3016 2238 3031 2350 
Q 3047 2463 3047 2528 
Q 3047 2791 2881 2937 
Q 2716 3084 2419 3084 
Q 1956 3084 1617 2771 
Q 1278 2459 1178 1941 
L 800 0 
L 225 0 
L 1172 4863 
L 1747 4863 
L 1375 2950 
Q 1594 3244 1934 3414 
Q 2275 3584 2650 3584 
Q 3113 3584 3367 3334 
Q 3622 3084 3622 2631 
Q 3622 2519 3608 2391 
Q 3594 2263 3566 2113 
z
" transform="scale(0.015625)"/>
       <path id="DejaVuSans-2212" d="M 678 2272 
L 4684 2272 
L 4684 1741 
L 678 1741 
L 678 2272 
z
" transform="scale(0.015625)"/>
      </defs>
      <use xlink:href="#DejaVuSans-6c" transform="translate(0 0.015625)"/>
      <use xlink:href="#DejaVuSans-69" transform="translate(27.783203 0.015625)"/>
      <use xlink:href="#DejaVuSans-6e" transform="translate(55.566406 0.015625)"/>
      <use xlink:href="#DejaVuSans-65" transform="translate(118.945312 0.015625)"/>
      <use xlink:href="#DejaVuSans-61" transform="translate(180.46875 0.015625)"/>
      <use xlink:href="#DejaVuSans-72" transform="translate(241.748047 0.015625)"/>
      <use xlink:href="#DejaVuSans-20" transform="translate(282.861328 0.015625)"/>
      <use xlink:href="#DejaVuSans-66" transform="translate(314.648438 0.015625)"/>
      <use xlink:href="#DejaVuSans-69" transform="translate(349.853516 0.015625)"/>
      <use xlink:href="#DejaVuSans-74" transform="translate(377.636719 0.015625)"/>
      <use xlink:href="#DejaVuSans-20" transform="translate(416.845703 0.015625)"/>
      <use xlink:href="#DejaVuSans-3a" transform="translate(448.632812 0.015625)"/>
      <use xlink:href="#DejaVuSans-20" transform="translate(482.324219 0.015625)"/>
      <use xlink:href="#DejaVuSans-73" transform="translate(514.111328 0.015625)"/>
      <use xlink:href="#DejaVuSans-70" transform="translate(566.210938 0.015625)"/>
      <use xlink:href="#DejaVuSans-65" transform="translate(629.6875 0.015625)"/>
      <use xlink:href="#DejaVuSans-65" transform="translate(691.210938 0.015625)"/>
      <use xlink:href="#DejaVuSans-64" transform="translate(752.734375 0.015625)"/>
      <use xlink:href="#DejaVuSans-20" transform="translate(816.210938 0.015625)"/>
      <use xlink:href="#DejaVuSans-3d" transform="translate(847.998047 0.015625)"/>
      <use xlink:href="#DejaVuSans-20" transform="translate(931.787109 0.015625)"/>
      <use xlink:href="#DejaVuSans-32" transform="translate(963.574219 0.015625)"/>
      <use xlink:href="#DejaVuSans-39" transform="translate(1025.447266 0.015625)"/>
      <use xlink:href="#DejaVuSans-38" transform="translate(1089.070312 0.015625)"/>
      <use xlink:href="#DejaVuSans-b1" transform="translate(1152.693359 0.015625)"/>
      <use xlink:href="#DejaVuSans-20" transform="translate(1236.482422 0.015625)"/>
      <use xlink:href="#DejaVuSans-33" transform="translate(1268.269531 0.015625)"/>
      <use xlink:href="#DejaVuSans-Oblique-3bc" transform="translate(1331.892578 0.015625)"/>
      <use xlink:href="#DejaVuSans-Oblique-6d" transform="translate(1395.515625 0.015625)"/>
      <use xlink:href="#DejaVuSans-2e" transform="translate(1492.927734 0.015625)"/>
      <use xlink:href="#DejaVuSans-Oblique-68" transform="translate(1544.197266 0.015625)"/>
      <use xlink:href="#DejaVuSans-2212" transform="translate(1628.661576 38.296875) scale(0.7)"/>
      <use xlink:href="#DejaVuSans-31" transform="translate(1703.68599 0.015625)"/>
     </g>
    </g>
   </g>
  </g>
  <g id="axes_2">
   <g id="patch_8">
    <path d="M 308.09261 257.08 
L 419.770872 257.08 
L 419.770872 174.196 
L 308.09261 174.196 
z
" style="fill: #ffffff"/>
   </g>
   <g id="PathCollection_3">
    <defs>
     <path id="me93bc17b82" d="M 0 1.118034 
C 0.296506 1.118034 0.580908 1.000231 0.790569 0.790569 
C 1.000231 0.580908 1.118034 0.296506 1.118034 0 
C 1.118034 -0.296506 1.000231 -0.580908 0.790569 -0.790569 
C 0.580908 -1.000231 0.296506 -1.118034 0 -1.118034 
C -0.296506 -1.118034 -0.580908 -1.000231 -0.790569 -0.790569 
C -1.000231 -0.580908 -1.118034 -0.296506 -1.118034 0 
C -1.118034 0.296506 -1.000231 0.580908 -0.790569 0.790569 
C -0.580908 1.000231 -0.296506 1.118034 0 1.118034 
z
" style="stroke: #000000"/>
    </defs>
    <g clip-path="url(#p1f7ccac1a4)">
     <use xlink:href="#me93bc17b82" x="309.339684" y="214.812684" style="stroke: #000000"/>
    </g>
   </g>
   <g id="PathCollection_4">
    <g clip-path="url(#p1f7ccac1a4)">
     <use xlink:href="#me93bc17b82" x="310.47508" y="203.768947" style="stroke: #000000"/>
    </g>
   </g>
   <g id="PathCollection_5">
    <g clip-path="url(#p1f7ccac1a4)">
     <use xlink:href="#me93bc17b82" x="311.591862" y="218.087617" style="stroke: #000000"/>
    </g>
   </g>
   <g id="PathCollection_6">
    <g clip-path="url(#p1f7ccac1a4)">
     <use xlink:href="#me93bc17b82" x="312.708645" y="216.00246" style="stroke: #000000"/>
    </g>
   </g>
   <g id="PathCollection_7">
    <g clip-path="url(#p1f7ccac1a4)">
     <use xlink:href="#me93bc17b82" x="313.825428" y="212.852923" style="stroke: #000000"/>
    </g>
   </g>
   <g id="PathCollection_8">
    <g clip-path="url(#p1f7ccac1a4)">
     <use xlink:href="#me93bc17b82" x="314.923597" y="222.431236" style="stroke: #000000"/>
    </g>
   </g>
   <g id="PathCollection_9">
    <g clip-path="url(#p1f7ccac1a4)">
     <use xlink:href="#me93bc17b82" x="316.04038" y="220.433135" style="stroke: #000000"/>
    </g>
   </g>
   <g id="PathCollection_10">
    <g clip-path="url(#p1f7ccac1a4)">
     <use xlink:href="#me93bc17b82" x="317.157163" y="205.8201" style="stroke: #000000"/>
    </g>
   </g>
   <g id="PathCollection_11">
    <g clip-path="url(#p1f7ccac1a4)">
     <use xlink:href="#me93bc17b82" x="318.273945" y="214.067635" style="stroke: #000000"/>
    </g>
   </g>
   <g id="PathCollection_12">
    <g clip-path="url(#p1f7ccac1a4)">
     <use xlink:href="#me93bc17b82" x="319.390728" y="207.507245" style="stroke: #000000"/>
    </g>
   </g>
   <g id="PathCollection_13">
    <g clip-path="url(#p1f7ccac1a4)">
     <use xlink:href="#me93bc17b82" x="320.50751" y="211.782406" style="stroke: #000000"/>
    </g>
   </g>
   <g id="PathCollection_14">
    <g clip-path="url(#p1f7ccac1a4)">
     <use xlink:href="#me93bc17b82" x="321.624293" y="225.20932" style="stroke: #000000"/>
    </g>
   </g>
   <g id="PathCollection_15">
    <g clip-path="url(#p1f7ccac1a4)">
     <use xlink:href="#me93bc17b82" x="322.759689" y="224.42232" style="stroke: #000000"/>
    </g>
   </g>
   <g id="PathCollection_16">
    <g clip-path="url(#p1f7ccac1a4)">
     <use xlink:href="#me93bc17b82" x="323.876471" y="215.33994" style="stroke: #000000"/>
    </g>
   </g>
   <g id="PathCollection_17">
    <g clip-path="url(#p1f7ccac1a4)">
     <use xlink:href="#me93bc17b82" x="324.993254" y="199.081334" style="stroke: #000000"/>
    </g>
   </g>
   <g id="PathCollection_18">
    <g clip-path="url(#p1f7ccac1a4)">
     <use xlink:href="#me93bc17b82" x="326.110036" y="190.162183" style="stroke: #000000"/>
    </g>
   </g>
   <g id="PathCollection_19">
    <g clip-path="url(#p1f7ccac1a4)">
     <use xlink:href="#me93bc17b82" x="327.226819" y="191.681881" style="stroke: #000000"/>
    </g>
   </g>
   <g id="PathCollection_20">
    <g clip-path="url(#p1f7ccac1a4)">
     <use xlink:href="#me93bc17b82" x="329.460384" y="208.693816" style="stroke: #000000"/>
    </g>
   </g>
   <g id="PathCollection_21">
    <g clip-path="url(#p1f7ccac1a4)">
     <use xlink:href="#me93bc17b82" x="330.577167" y="194.363631" style="stroke: #000000"/>
    </g>
   </g>
   <g id="PathCollection_22">
    <g clip-path="url(#p1f7ccac1a4)">
     <use xlink:href="#me93bc17b82" x="331.69395" y="181.213383" style="stroke: #000000"/>
    </g>
   </g>
   <g id="PathCollection_23">
    <g clip-path="url(#p1f7ccac1a4)">
     <use xlink:href="#me93bc17b82" x="332.810732" y="180.306391" style="stroke: #000000"/>
    </g>
   </g>
   <g id="PathCollection_24">
    <g clip-path="url(#p1f7ccac1a4)">
     <use xlink:href="#me93bc17b82" x="333.946128" y="202.166915" style="stroke: #000000"/>
    </g>
   </g>
   <g id="PathCollection_25">
    <g clip-path="url(#p1f7ccac1a4)">
     <use xlink:href="#me93bc17b82" x="335.06291" y="197.137751" style="stroke: #000000"/>
    </g>
   </g>
   <g id="PathCollection_26">
    <g clip-path="url(#p1f7ccac1a4)">
     <use xlink:href="#me93bc17b82" x="336.179693" y="199.772815" style="stroke: #000000"/>
    </g>
   </g>
   <g id="PathCollection_27">
    <g clip-path="url(#p1f7ccac1a4)">
     <use xlink:href="#me93bc17b82" x="337.296476" y="190.246222" style="stroke: #000000"/>
    </g>
   </g>
   <g id="PathCollection_28">
    <g clip-path="url(#p1f7ccac1a4)">
     <use xlink:href="#me93bc17b82" x="338.413258" y="185.784747" style="stroke: #000000"/>
    </g>
   </g>
   <g id="PathCollection_29">
    <g clip-path="url(#p1f7ccac1a4)">
     <use xlink:href="#me93bc17b82" x="339.530041" y="179.386776" style="stroke: #000000"/>
    </g>
   </g>
   <g id="PathCollection_30">
    <g clip-path="url(#p1f7ccac1a4)">
     <use xlink:href="#me93bc17b82" x="340.646824" y="183.707468" style="stroke: #000000"/>
    </g>
   </g>
   <g id="PathCollection_31">
    <g clip-path="url(#p1f7ccac1a4)">
     <use xlink:href="#me93bc17b82" x="341.763606" y="189.078339" style="stroke: #000000"/>
    </g>
   </g>
   <g id="PathCollection_32">
    <g clip-path="url(#p1f7ccac1a4)">
     <use xlink:href="#me93bc17b82" x="342.880389" y="180.297524" style="stroke: #000000"/>
    </g>
   </g>
   <g id="PathCollection_33">
    <g clip-path="url(#p1f7ccac1a4)">
     <use xlink:href="#me93bc17b82" x="343.997171" y="183.51484" style="stroke: #000000"/>
    </g>
   </g>
   <g id="PathCollection_34">
    <g clip-path="url(#p1f7ccac1a4)">
     <use xlink:href="#me93bc17b82" x="345.113954" y="213.082151" style="stroke: #000000"/>
    </g>
   </g>
   <g id="PathCollection_35">
    <g clip-path="url(#p1f7ccac1a4)">
     <use xlink:href="#me93bc17b82" x="346.230737" y="194.096224" style="stroke: #000000"/>
    </g>
   </g>
   <g id="PathCollection_36">
    <g clip-path="url(#p1f7ccac1a4)">
     <use xlink:href="#me93bc17b82" x="347.347519" y="193.813696" style="stroke: #000000"/>
    </g>
   </g>
   <g id="PathCollection_37">
    <g clip-path="url(#p1f7ccac1a4)">
     <use xlink:href="#me93bc17b82" x="348.464302" y="187.356841" style="stroke: #000000"/>
    </g>
   </g>
   <g id="PathCollection_38">
    <g clip-path="url(#p1f7ccac1a4)">
     <use xlink:href="#me93bc17b82" x="349.581084" y="183.254012" style="stroke: #000000"/>
    </g>
   </g>
   <g id="PathCollection_39">
    <g clip-path="url(#p1f7ccac1a4)">
     <use xlink:href="#me93bc17b82" x="350.697867" y="189.415767" style="stroke: #000000"/>
    </g>
   </g>
   <g id="PathCollection_40">
    <g clip-path="url(#p1f7ccac1a4)">
     <use xlink:href="#me93bc17b82" x="351.81465" y="180.389322" style="stroke: #000000"/>
    </g>
   </g>
   <g id="PathCollection_41">
    <g clip-path="url(#p1f7ccac1a4)">
     <use xlink:href="#me93bc17b82" x="352.931432" y="194.165103" style="stroke: #000000"/>
    </g>
   </g>
   <g id="PathCollection_42">
    <g clip-path="url(#p1f7ccac1a4)">
     <use xlink:href="#me93bc17b82" x="355.164998" y="195.855662" style="stroke: #000000"/>
    </g>
   </g>
   <g id="PathCollection_43">
    <g clip-path="url(#p1f7ccac1a4)">
     <use xlink:href="#me93bc17b82" x="356.28178" y="190.097449" style="stroke: #000000"/>
    </g>
   </g>
   <g id="PathCollection_44">
    <g clip-path="url(#p1f7ccac1a4)">
     <use xlink:href="#me93bc17b82" x="357.398563" y="196.605739" style="stroke: #000000"/>
    </g>
   </g>
   <g id="PathCollection_45">
    <g clip-path="url(#p1f7ccac1a4)">
     <use xlink:href="#me93bc17b82" x="358.515345" y="192.266406" style="stroke: #000000"/>
    </g>
   </g>
   <g id="PathCollection_46">
    <g clip-path="url(#p1f7ccac1a4)">
     <use xlink:href="#me93bc17b82" x="359.632128" y="188.411429" style="stroke: #000000"/>
    </g>
   </g>
   <g id="PathCollection_47">
    <g clip-path="url(#p1f7ccac1a4)">
     <use xlink:href="#me93bc17b82" x="360.748911" y="191.16881" style="stroke: #000000"/>
    </g>
   </g>
   <g id="PathCollection_48">
    <g clip-path="url(#p1f7ccac1a4)">
     <use xlink:href="#me93bc17b82" x="361.865693" y="187.960854" style="stroke: #000000"/>
    </g>
   </g>
   <g id="PathCollection_49">
    <g clip-path="url(#p1f7ccac1a4)">
     <use xlink:href="#me93bc17b82" x="362.982476" y="238.54069" style="stroke: #000000"/>
    </g>
   </g>
   <g id="PathCollection_50">
    <g clip-path="url(#p1f7ccac1a4)">
     <use xlink:href="#me93bc17b82" x="367.449606" y="201.946008" style="stroke: #000000"/>
    </g>
   </g>
   <g id="PathCollection_51">
    <g clip-path="url(#p1f7ccac1a4)">
     <use xlink:href="#me93bc17b82" x="368.566389" y="182.041334" style="stroke: #000000"/>
    </g>
   </g>
   <g id="PathCollection_52">
    <g clip-path="url(#p1f7ccac1a4)">
     <use xlink:href="#me93bc17b82" x="369.683172" y="199.620919" style="stroke: #000000"/>
    </g>
   </g>
   <g id="PathCollection_53">
    <g clip-path="url(#p1f7ccac1a4)">
     <use xlink:href="#me93bc17b82" x="370.799954" y="193.73479" style="stroke: #000000"/>
    </g>
   </g>
   <g id="PathCollection_54">
    <g clip-path="url(#p1f7ccac1a4)">
     <use xlink:href="#me93bc17b82" x="371.916737" y="193.952632" style="stroke: #000000"/>
    </g>
   </g>
   <g id="PathCollection_55">
    <g clip-path="url(#p1f7ccac1a4)">
     <use xlink:href="#me93bc17b82" x="373.033519" y="190.806333" style="stroke: #000000"/>
    </g>
   </g>
   <g id="PathCollection_56">
    <g clip-path="url(#p1f7ccac1a4)">
     <use xlink:href="#me93bc17b82" x="374.150302" y="193.152452" style="stroke: #000000"/>
    </g>
   </g>
   <g id="PathCollection_57">
    <g clip-path="url(#p1f7ccac1a4)">
     <use xlink:href="#me93bc17b82" x="375.267085" y="208.498985" style="stroke: #000000"/>
    </g>
   </g>
   <g id="PathCollection_58">
    <g clip-path="url(#p1f7ccac1a4)">
     <use xlink:href="#me93bc17b82" x="376.383867" y="183.537215" style="stroke: #000000"/>
    </g>
   </g>
   <g id="PathCollection_59">
    <g clip-path="url(#p1f7ccac1a4)">
     <use xlink:href="#me93bc17b82" x="377.50065" y="187.777952" style="stroke: #000000"/>
    </g>
   </g>
   <g id="PathCollection_60">
    <g clip-path="url(#p1f7ccac1a4)">
     <use xlink:href="#me93bc17b82" x="378.617432" y="202.498358" style="stroke: #000000"/>
    </g>
   </g>
   <g id="PathCollection_61">
    <g clip-path="url(#p1f7ccac1a4)">
     <use xlink:href="#me93bc17b82" x="380.850998" y="202.861603" style="stroke: #000000"/>
    </g>
   </g>
   <g id="PathCollection_62">
    <g clip-path="url(#p1f7ccac1a4)">
     <use xlink:href="#me93bc17b82" x="381.96778" y="199.758679" style="stroke: #000000"/>
    </g>
   </g>
   <g id="PathCollection_63">
    <g clip-path="url(#p1f7ccac1a4)">
     <use xlink:href="#me93bc17b82" x="383.084563" y="190.644357" style="stroke: #000000"/>
    </g>
   </g>
   <g id="PathCollection_64">
    <g clip-path="url(#p1f7ccac1a4)">
     <use xlink:href="#me93bc17b82" x="384.201346" y="196.242505" style="stroke: #000000"/>
    </g>
   </g>
   <g id="PathCollection_65">
    <g clip-path="url(#p1f7ccac1a4)">
     <use xlink:href="#me93bc17b82" x="385.318128" y="184.700665" style="stroke: #000000"/>
    </g>
   </g>
   <g id="PathCollection_66">
    <g clip-path="url(#p1f7ccac1a4)">
     <use xlink:href="#me93bc17b82" x="386.434911" y="190.872317" style="stroke: #000000"/>
    </g>
   </g>
   <g id="PathCollection_67">
    <g clip-path="url(#p1f7ccac1a4)">
     <use xlink:href="#me93bc17b82" x="387.681985" y="253.61996" style="stroke: #000000"/>
    </g>
   </g>
   <g id="PathCollection_68">
    <g clip-path="url(#p1f7ccac1a4)">
     <use xlink:href="#me93bc17b82" x="388.668476" y="193.787624" style="stroke: #000000"/>
    </g>
   </g>
   <g id="PathCollection_69">
    <g clip-path="url(#p1f7ccac1a4)">
     <use xlink:href="#me93bc17b82" x="389.896937" y="202.584193" style="stroke: #000000"/>
    </g>
   </g>
   <g id="PathCollection_70">
    <g clip-path="url(#p1f7ccac1a4)">
     <use xlink:href="#me93bc17b82" x="391.032333" y="188.647029" style="stroke: #000000"/>
    </g>
   </g>
   <g id="PathCollection_71">
    <g clip-path="url(#p1f7ccac1a4)">
     <use xlink:href="#me93bc17b82" x="392.149115" y="186.345237" style="stroke: #000000"/>
    </g>
   </g>
   <g id="PathCollection_72">
    <g clip-path="url(#p1f7ccac1a4)">
     <use xlink:href="#me93bc17b82" x="393.265898" y="191.829996" style="stroke: #000000"/>
    </g>
   </g>
   <g id="PathCollection_73">
    <g clip-path="url(#p1f7ccac1a4)">
     <use xlink:href="#me93bc17b82" x="394.38268" y="188.760975" style="stroke: #000000"/>
    </g>
   </g>
   <g id="PathCollection_74">
    <g clip-path="url(#p1f7ccac1a4)">
     <use xlink:href="#me93bc17b82" x="395.499463" y="188.456668" style="stroke: #000000"/>
    </g>
   </g>
   <g id="PathCollection_75">
    <g clip-path="url(#p1f7ccac1a4)">
     <use xlink:href="#me93bc17b82" x="396.616246" y="192.767608" style="stroke: #000000"/>
    </g>
   </g>
   <g id="PathCollection_76">
    <g clip-path="url(#p1f7ccac1a4)">
     <use xlink:href="#me93bc17b82" x="397.733028" y="192.292113" style="stroke: #000000"/>
    </g>
   </g>
   <g id="PathCollection_77">
    <g clip-path="url(#p1f7ccac1a4)">
     <use xlink:href="#me93bc17b82" x="398.849811" y="190.283282" style="stroke: #000000"/>
    </g>
   </g>
   <g id="PathCollection_78">
    <g clip-path="url(#p1f7ccac1a4)">
     <use xlink:href="#me93bc17b82" x="399.966593" y="197.533322" style="stroke: #000000"/>
    </g>
   </g>
   <g id="PathCollection_79">
    <g clip-path="url(#p1f7ccac1a4)">
     <use xlink:href="#me93bc17b82" x="401.083376" y="192.043233" style="stroke: #000000"/>
    </g>
   </g>
   <g id="PathCollection_80">
    <g clip-path="url(#p1f7ccac1a4)">
     <use xlink:href="#me93bc17b82" x="402.200159" y="189.9269" style="stroke: #000000"/>
    </g>
   </g>
   <g id="PathCollection_81">
    <g clip-path="url(#p1f7ccac1a4)">
     <use xlink:href="#me93bc17b82" x="403.316941" y="189.037937" style="stroke: #000000"/>
    </g>
   </g>
   <g id="PathCollection_82">
    <g clip-path="url(#p1f7ccac1a4)">
     <use xlink:href="#me93bc17b82" x="404.433724" y="197.499381" style="stroke: #000000"/>
    </g>
   </g>
   <g id="PathCollection_83">
    <g clip-path="url(#p1f7ccac1a4)">
     <use xlink:href="#me93bc17b82" x="405.550507" y="191.338921" style="stroke: #000000"/>
    </g>
   </g>
   <g id="PathCollection_84">
    <g clip-path="url(#p1f7ccac1a4)">
     <use xlink:href="#me93bc17b82" x="406.667289" y="205.887099" style="stroke: #000000"/>
    </g>
   </g>
   <g id="PathCollection_85">
    <g clip-path="url(#p1f7ccac1a4)">
     <use xlink:href="#me93bc17b82" x="407.784072" y="191.071476" style="stroke: #000000"/>
    </g>
   </g>
   <g id="PathCollection_86">
    <g clip-path="url(#p1f7ccac1a4)">
     <use xlink:href="#me93bc17b82" x="408.900854" y="197.976055" style="stroke: #000000"/>
    </g>
   </g>
   <g id="PathCollection_87">
    <g clip-path="url(#p1f7ccac1a4)">
     <use xlink:href="#me93bc17b82" x="410.017637" y="182.937781" style="stroke: #000000"/>
    </g>
   </g>
   <g id="PathCollection_88">
    <g clip-path="url(#p1f7ccac1a4)">
     <use xlink:href="#me93bc17b82" x="411.13442" y="189.269136" style="stroke: #000000"/>
    </g>
   </g>
   <g id="PathCollection_89">
    <g clip-path="url(#p1f7ccac1a4)">
     <use xlink:href="#me93bc17b82" x="412.269815" y="192.647126" style="stroke: #000000"/>
    </g>
   </g>
   <g id="PathCollection_90">
    <g clip-path="url(#p1f7ccac1a4)">
     <use xlink:href="#me93bc17b82" x="413.349372" y="197.544481" style="stroke: #000000"/>
    </g>
   </g>
   <g id="PathCollection_91">
    <g clip-path="url(#p1f7ccac1a4)">
     <use xlink:href="#me93bc17b82" x="414.466154" y="195.689093" style="stroke: #000000"/>
    </g>
   </g>
   <g id="PathCollection_92">
    <g clip-path="url(#p1f7ccac1a4)">
     <use xlink:href="#me93bc17b82" x="415.582937" y="202.014406" style="stroke: #000000"/>
    </g>
   </g>
   <g id="PathCollection_93">
    <g clip-path="url(#p1f7ccac1a4)">
     <use xlink:href="#me93bc17b82" x="416.718333" y="189.369848" style="stroke: #000000"/>
    </g>
   </g>
   <g id="PathCollection_94">
    <g clip-path="url(#p1f7ccac1a4)">
     <use xlink:href="#me93bc17b82" x="417.816502" y="189.833941" style="stroke: #000000"/>
    </g>
   </g>
   <g id="PathCollection_95">
    <g clip-path="url(#p1f7ccac1a4)">
     <use xlink:href="#me93bc17b82" x="419.02635" y="197.527005" style="stroke: #000000"/>
    </g>
   </g>
   <g id="PathCollection_96">
    <g clip-path="url(#p1f7ccac1a4)">
     <use xlink:href="#me93bc17b82" x="420.143133" y="187.164636" style="stroke: #000000"/>
    </g>
   </g>
   <g id="PathCollection_97">
    <g clip-path="url(#p1f7ccac1a4)">
     <use xlink:href="#me93bc17b82" x="421.259915" y="198.912321" style="stroke: #000000"/>
    </g>
   </g>
   <g id="PathCollection_98">
    <g clip-path="url(#p1f7ccac1a4)">
     <use xlink:href="#me93bc17b82" x="422.358085" y="190.180999" style="stroke: #000000"/>
    </g>
   </g>
   <g id="PathCollection_99">
    <g clip-path="url(#p1f7ccac1a4)">
     <use xlink:href="#me93bc17b82" x="423.493481" y="185.948848" style="stroke: #000000"/>
    </g>
   </g>
   <g id="PathCollection_100">
    <g clip-path="url(#p1f7ccac1a4)">
     <use xlink:href="#me93bc17b82" x="424.610263" y="187.380835" style="stroke: #000000"/>
    </g>
   </g>
   <g id="PathCollection_101">
    <g clip-path="url(#p1f7ccac1a4)">
     <use xlink:href="#me93bc17b82" x="425.727046" y="188.239716" style="stroke: #000000"/>
    </g>
   </g>
   <g id="PathCollection_102">
    <g clip-path="url(#p1f7ccac1a4)">
     <use xlink:href="#me93bc17b82" x="426.843828" y="182.593267" style="stroke: #000000"/>
    </g>
   </g>
   <g id="PathCollection_103">
    <g clip-path="url(#p1f7ccac1a4)">
     <use xlink:href="#me93bc17b82" x="427.941998" y="195.416334" style="stroke: #000000"/>
    </g>
   </g>
   <g id="PathCollection_104">
    <g clip-path="url(#p1f7ccac1a4)">
     <use xlink:href="#me93bc17b82" x="430.175563" y="186.197295" style="stroke: #000000"/>
    </g>
   </g>
   <g id="PathCollection_105">
    <g clip-path="url(#p1f7ccac1a4)">
     <use xlink:href="#me93bc17b82" x="431.310959" y="185.935917" style="stroke: #000000"/>
    </g>
   </g>
   <g id="PathCollection_106">
    <g clip-path="url(#p1f7ccac1a4)">
     <use xlink:href="#me93bc17b82" x="432.409128" y="185.952109" style="stroke: #000000"/>
    </g>
   </g>
   <g id="PathCollection_107">
    <g clip-path="url(#p1f7ccac1a4)">
     <use xlink:href="#me93bc17b82" x="501.593811" y="207.794533" style="stroke: #000000"/>
    </g>
   </g>
   <g id="PathCollection_108">
    <g clip-path="url(#p1f7ccac1a4)">
     <use xlink:href="#me93bc17b82" x="545.148333" y="214.693071" style="stroke: #000000"/>
    </g>
   </g>
   <g id="matplotlib.axis_3">
    <g id="xtick_8">
     <g id="line2d_28">
      <g>
       <use xlink:href="#mb0d20eca3b" x="308.09261" y="257.08" style="stroke: #000000; stroke-width: 0.8"/>
      </g>
     </g>
     <g id="text_19">
      <!-- 0 -->
      <g transform="translate(306.501985 267.879219) scale(0.05 -0.05)">
       <use xlink:href="#DejaVuSans-30"/>
      </g>
     </g>
    </g>
    <g id="xtick_9">
     <g id="line2d_29">
      <g>
       <use xlink:href="#mb0d20eca3b" x="330.428263" y="257.08" style="stroke: #000000; stroke-width: 0.8"/>
      </g>
     </g>
     <g id="text_20">
      <!-- 20 -->
      <g transform="translate(327.247013 267.879219) scale(0.05 -0.05)">
       <use xlink:href="#DejaVuSans-32"/>
       <use xlink:href="#DejaVuSans-30" x="63.623047"/>
      </g>
     </g>
    </g>
    <g id="xtick_10">
     <g id="line2d_30">
      <g>
       <use xlink:href="#mb0d20eca3b" x="352.763915" y="257.08" style="stroke: #000000; stroke-width: 0.8"/>
      </g>
     </g>
     <g id="text_21">
      <!-- 40 -->
      <g transform="translate(349.582665 267.879219) scale(0.05 -0.05)">
       <use xlink:href="#DejaVuSans-34"/>
       <use xlink:href="#DejaVuSans-30" x="63.623047"/>
      </g>
     </g>
    </g>
    <g id="xtick_11">
     <g id="line2d_31">
      <g>
       <use xlink:href="#mb0d20eca3b" x="375.099567" y="257.08" style="stroke: #000000; stroke-width: 0.8"/>
      </g>
     </g>
     <g id="text_22">
      <!-- 60 -->
      <g transform="translate(371.918317 267.879219) scale(0.05 -0.05)">
       <use xlink:href="#DejaVuSans-36"/>
       <use xlink:href="#DejaVuSans-30" x="63.623047"/>
      </g>
     </g>
    </g>
    <g id="xtick_12">
     <g id="line2d_32">
      <g>
       <use xlink:href="#mb0d20eca3b" x="397.43522" y="257.08" style="stroke: #000000; stroke-width: 0.8"/>
      </g>
     </g>
     <g id="text_23">
      <!-- 80 -->
      <g transform="translate(394.25397 267.879219) scale(0.05 -0.05)">
       <use xlink:href="#DejaVuSans-38"/>
       <use xlink:href="#DejaVuSans-30" x="63.623047"/>
      </g>
     </g>
    </g>
    <g id="xtick_13">
     <g id="line2d_33">
      <g>
       <use xlink:href="#mb0d20eca3b" x="419.770872" y="257.08" style="stroke: #000000; stroke-width: 0.8"/>
      </g>
     </g>
     <g id="text_24">
      <!-- 100 -->
      <g transform="translate(414.998997 267.879219) scale(0.05 -0.05)">
       <use xlink:href="#DejaVuSans-31"/>
       <use xlink:href="#DejaVuSans-30" x="63.623047"/>
       <use xlink:href="#DejaVuSans-30" x="127.246094"/>
      </g>
     </g>
    </g>
    <g id="text_25">
     <!-- time since begin (h) -->
     <g transform="translate(288.77471 284.316719) scale(0.15 -0.15)">
      <defs>
       <path id="DejaVuSans-62" d="M 3116 1747 
Q 3116 2381 2855 2742 
Q 2594 3103 2138 3103 
Q 1681 3103 1420 2742 
Q 1159 2381 1159 1747 
Q 1159 1113 1420 752 
Q 1681 391 2138 391 
Q 2594 391 2855 752 
Q 3116 1113 3116 1747 
z
M 1159 2969 
Q 1341 3281 1617 3432 
Q 1894 3584 2278 3584 
Q 2916 3584 3314 3078 
Q 3713 2572 3713 1747 
Q 3713 922 3314 415 
Q 2916 -91 2278 -91 
Q 1894 -91 1617 61 
Q 1341 213 1159 525 
L 1159 0 
L 581 0 
L 581 4863 
L 1159 4863 
L 1159 2969 
z
" transform="scale(0.015625)"/>
      </defs>
      <use xlink:href="#DejaVuSans-74"/>
      <use xlink:href="#DejaVuSans-69" x="39.208984"/>
      <use xlink:href="#DejaVuSans-6d" x="66.992188"/>
      <use xlink:href="#DejaVuSans-65" x="164.404297"/>
      <use xlink:href="#DejaVuSans-20" x="225.927734"/>
      <use xlink:href="#DejaVuSans-73" x="257.714844"/>
      <use xlink:href="#DejaVuSans-69" x="309.814453"/>
      <use xlink:href="#DejaVuSans-6e" x="337.597656"/>
      <use xlink:href="#DejaVuSans-63" x="400.976562"/>
      <use xlink:href="#DejaVuSans-65" x="455.957031"/>
      <use xlink:href="#DejaVuSans-20" x="517.480469"/>
      <use xlink:href="#DejaVuSans-62" x="549.267578"/>
      <use xlink:href="#DejaVuSans-65" x="612.744141"/>
      <use xlink:href="#DejaVuSans-67" x="674.267578"/>
      <use xlink:href="#DejaVuSans-69" x="737.744141"/>
      <use xlink:href="#DejaVuSans-6e" x="765.527344"/>
      <use xlink:href="#DejaVuSans-20" x="828.90625"/>
      <use xlink:href="#DejaVuSans-28" x="860.693359"/>
      <use xlink:href="#DejaVuSans-68" x="899.707031"/>
      <use xlink:href="#DejaVuSans-29" x="963.085938"/>
     </g>
    </g>
   </g>
   <g id="matplotlib.axis_4">
    <g id="ytick_8">
     <g id="line2d_34">
      <g>
       <use xlink:href="#m57634cc65e" x="308.09261" y="257.08" style="stroke: #000000; stroke-width: 0.8"/>
      </g>
     </g>
     <g id="text_26">
      <!-- 150 -->
      <g transform="translate(291.54886 258.979609) scale(0.05 -0.05)">
       <use xlink:href="#DejaVuSans-31"/>
       <use xlink:href="#DejaVuSans-35" x="63.623047"/>
       <use xlink:href="#DejaVuSans-30" x="127.246094"/>
      </g>
     </g>
    </g>
    <g id="ytick_9">
     <g id="line2d_35">
      <g>
       <use xlink:href="#m57634cc65e" x="308.09261" y="246.7195" style="stroke: #000000; stroke-width: 0.8"/>
      </g>
     </g>
     <g id="text_27">
      <!-- 175 -->
      <g transform="translate(291.54886 248.619109) scale(0.05 -0.05)">
       <use xlink:href="#DejaVuSans-31"/>
       <use xlink:href="#DejaVuSans-37" x="63.623047"/>
       <use xlink:href="#DejaVuSans-35" x="127.246094"/>
      </g>
     </g>
    </g>
    <g id="ytick_10">
     <g id="line2d_36">
      <g>
       <use xlink:href="#m57634cc65e" x="308.09261" y="236.359" style="stroke: #000000; stroke-width: 0.8"/>
      </g>
     </g>
     <g id="text_28">
      <!-- 200 -->
      <g transform="translate(291.54886 238.258609) scale(0.05 -0.05)">
       <use xlink:href="#DejaVuSans-32"/>
       <use xlink:href="#DejaVuSans-30" x="63.623047"/>
       <use xlink:href="#DejaVuSans-30" x="127.246094"/>
      </g>
     </g>
    </g>
    <g id="ytick_11">
     <g id="line2d_37">
      <g>
       <use xlink:href="#m57634cc65e" x="308.09261" y="225.9985" style="stroke: #000000; stroke-width: 0.8"/>
      </g>
     </g>
     <g id="text_29">
      <!-- 225 -->
      <g transform="translate(291.54886 227.898109) scale(0.05 -0.05)">
       <use xlink:href="#DejaVuSans-32"/>
       <use xlink:href="#DejaVuSans-32" x="63.623047"/>
       <use xlink:href="#DejaVuSans-35" x="127.246094"/>
      </g>
     </g>
    </g>
    <g id="ytick_12">
     <g id="line2d_38">
      <g>
       <use xlink:href="#m57634cc65e" x="308.09261" y="215.638" style="stroke: #000000; stroke-width: 0.8"/>
      </g>
     </g>
     <g id="text_30">
      <!-- 250 -->
      <g transform="translate(291.54886 217.537609) scale(0.05 -0.05)">
       <use xlink:href="#DejaVuSans-32"/>
       <use xlink:href="#DejaVuSans-35" x="63.623047"/>
       <use xlink:href="#DejaVuSans-30" x="127.246094"/>
      </g>
     </g>
    </g>
    <g id="ytick_13">
     <g id="line2d_39">
      <g>
       <use xlink:href="#m57634cc65e" x="308.09261" y="205.2775" style="stroke: #000000; stroke-width: 0.8"/>
      </g>
     </g>
     <g id="text_31">
      <!-- 275 -->
      <g transform="translate(291.54886 207.177109) scale(0.05 -0.05)">
       <use xlink:href="#DejaVuSans-32"/>
       <use xlink:href="#DejaVuSans-37" x="63.623047"/>
       <use xlink:href="#DejaVuSans-35" x="127.246094"/>
      </g>
     </g>
    </g>
    <g id="ytick_14">
     <g id="line2d_40">
      <g>
       <use xlink:href="#m57634cc65e" x="308.09261" y="194.917" style="stroke: #000000; stroke-width: 0.8"/>
      </g>
     </g>
     <g id="text_32">
      <!-- 300 -->
      <g transform="translate(291.54886 196.816609) scale(0.05 -0.05)">
       <use xlink:href="#DejaVuSans-33"/>
       <use xlink:href="#DejaVuSans-30" x="63.623047"/>
       <use xlink:href="#DejaVuSans-30" x="127.246094"/>
      </g>
     </g>
    </g>
    <g id="ytick_15">
     <g id="line2d_41">
      <g>
       <use xlink:href="#m57634cc65e" x="308.09261" y="184.5565" style="stroke: #000000; stroke-width: 0.8"/>
      </g>
     </g>
     <g id="text_33">
      <!-- 325 -->
      <g transform="translate(291.54886 186.456109) scale(0.05 -0.05)">
       <use xlink:href="#DejaVuSans-33"/>
       <use xlink:href="#DejaVuSans-32" x="63.623047"/>
       <use xlink:href="#DejaVuSans-35" x="127.246094"/>
      </g>
     </g>
    </g>
    <g id="ytick_16">
     <g id="line2d_42">
      <g>
       <use xlink:href="#m57634cc65e" x="308.09261" y="174.196" style="stroke: #000000; stroke-width: 0.8"/>
      </g>
     </g>
     <g id="text_34">
      <!-- 350 -->
      <g transform="translate(291.54886 176.095609) scale(0.05 -0.05)">
       <use xlink:href="#DejaVuSans-33"/>
       <use xlink:href="#DejaVuSans-35" x="63.623047"/>
       <use xlink:href="#DejaVuSans-30" x="127.246094"/>
      </g>
     </g>
    </g>
    <g id="text_35">
     <!-- speed ($\mu m.h^{-1}$) -->
     <g transform="translate(284.39886 275.713) rotate(-90) scale(0.15 -0.15)">
      <use xlink:href="#DejaVuSans-73" transform="translate(0 0.684375)"/>
      <use xlink:href="#DejaVuSans-70" transform="translate(52.099609 0.684375)"/>
      <use xlink:href="#DejaVuSans-65" transform="translate(115.576172 0.684375)"/>
      <use xlink:href="#DejaVuSans-65" transform="translate(177.099609 0.684375)"/>
      <use xlink:href="#DejaVuSans-64" transform="translate(238.623047 0.684375)"/>
      <use xlink:href="#DejaVuSans-20" transform="translate(302.099609 0.684375)"/>
      <use xlink:href="#DejaVuSans-28" transform="translate(333.886719 0.684375)"/>
      <use xlink:href="#DejaVuSans-Oblique-3bc" transform="translate(372.900391 0.684375)"/>
      <use xlink:href="#DejaVuSans-Oblique-6d" transform="translate(436.523438 0.684375)"/>
      <use xlink:href="#DejaVuSans-2e" transform="translate(533.935547 0.684375)"/>
      <use xlink:href="#DejaVuSans-Oblique-68" transform="translate(585.205078 0.684375)"/>
      <use xlink:href="#DejaVuSans-2212" transform="translate(656.031693 38.965625) scale(0.7)"/>
      <use xlink:href="#DejaVuSans-31" transform="translate(714.684036 38.965625) scale(0.7)"/>
      <use xlink:href="#DejaVuSans-29" transform="translate(761.954544 0.684375)"/>
     </g>
    </g>
   </g>
   <g id="line2d_43">
    <path d="M 309.339684 196.445217 
L 310.47508 196.445217 
L 311.591862 196.445217 
L 312.708645 196.445217 
L 313.825428 196.445217 
L 314.923597 196.445217 
L 316.04038 196.445217 
L 317.157163 196.445217 
L 318.273945 196.445217 
L 319.390728 196.445217 
L 320.50751 196.445217 
L 321.624293 196.445217 
L 322.759689 196.445217 
L 323.876471 196.445217 
L 324.993254 196.445217 
L 326.110036 196.445217 
L 327.226819 196.445217 
L 329.460384 196.445217 
L 330.577167 196.445217 
L 331.69395 196.445217 
L 332.810732 196.445217 
L 333.946128 196.445217 
L 335.06291 196.445217 
L 336.179693 196.445217 
L 337.296476 196.445217 
L 338.413258 196.445217 
L 339.530041 196.445217 
L 340.646824 196.445217 
L 341.763606 196.445217 
L 342.880389 196.445217 
L 343.997171 196.445217 
L 345.113954 196.445217 
L 346.230737 196.445217 
L 347.347519 196.445217 
L 348.464302 196.445217 
L 349.581084 196.445217 
L 350.697867 196.445217 
L 351.81465 196.445217 
L 352.931432 196.445217 
L 355.164998 196.445217 
L 356.28178 196.445217 
L 357.398563 196.445217 
L 358.515345 196.445217 
L 359.632128 196.445217 
L 360.748911 196.445217 
L 361.865693 196.445217 
L 362.982476 196.445217 
L 367.449606 196.445217 
L 368.566389 196.445217 
L 369.683172 196.445217 
L 370.799954 196.445217 
L 371.916737 196.445217 
L 373.033519 196.445217 
L 374.150302 196.445217 
L 375.267085 196.445217 
L 376.383867 196.445217 
L 377.50065 196.445217 
L 378.617432 196.445217 
L 380.850998 196.445217 
L 381.96778 196.445217 
L 383.084563 196.445217 
L 384.201346 196.445217 
L 385.318128 196.445217 
L 386.434911 196.445217 
L 387.681985 196.445217 
L 388.668476 196.445217 
L 389.896937 196.445217 
L 391.032333 196.445217 
L 392.149115 196.445217 
L 393.265898 196.445217 
L 394.38268 196.445217 
L 395.499463 196.445217 
L 396.616246 196.445217 
L 397.733028 196.445217 
L 398.849811 196.445217 
L 399.966593 196.445217 
L 401.083376 196.445217 
L 402.200159 196.445217 
L 403.316941 196.445217 
L 404.433724 196.445217 
L 405.550507 196.445217 
L 406.667289 196.445217 
L 407.784072 196.445217 
L 408.900854 196.445217 
L 410.017637 196.445217 
L 411.13442 196.445217 
L 412.269815 196.445217 
L 413.349372 196.445217 
L 414.466154 196.445217 
L 415.582937 196.445217 
L 416.718333 196.445217 
L 417.816502 196.445217 
L 419.02635 196.445217 
L 420.143133 196.445217 
L 421.259915 196.445217 
L 422.358085 196.445217 
L 423.493481 196.445217 
L 424.610263 196.445217 
L 425.727046 196.445217 
L 426.843828 196.445217 
L 427.941998 196.445217 
L 430.175563 196.445217 
L 431.310959 196.445217 
L 432.409128 196.445217 
L 461.8 196.445217 
" clip-path="url(#p1f7ccac1a4)" style="fill: none; stroke: #000000; stroke-width: 3; stroke-linecap: square"/>
   </g>
   <g id="patch_9">
    <path d="M 308.09261 257.08 
L 308.09261 174.196 
" style="fill: none; stroke: #000000; stroke-width: 0.8; stroke-linejoin: miter; stroke-linecap: square"/>
   </g>
   <g id="patch_10">
    <path d="M 419.770872 257.08 
L 419.770872 174.196 
" style="fill: none; stroke: #000000; stroke-width: 0.8; stroke-linejoin: miter; stroke-linecap: square"/>
   </g>
   <g id="patch_11">
    <path d="M 308.09261 257.08 
L 419.770872 257.08 
" style="fill: none; stroke: #000000; stroke-width: 0.8; stroke-linejoin: miter; stroke-linecap: square"/>
   </g>
   <g id="patch_12">
    <path d="M 308.09261 174.196 
L 419.770872 174.196 
" style="fill: none; stroke: #000000; stroke-width: 0.8; stroke-linejoin: miter; stroke-linecap: square"/>
   </g>
  </g>
 </g>
 <defs>
  <clipPath id="p1ac269b110">
   <rect x="77.51" y="10.8" width="372.260872" height="276.28"/>
  </clipPath>
  <clipPath id="p1f7ccac1a4">
   <rect x="308.09261" y="174.196" width="111.678262" height="82.884"/>
  </clipPath>
 </defs>
</svg>
