<?xml version="1.0" encoding="utf-8" standalone="no"?>
<!DOCTYPE svg PUBLIC "-//W3C//DTD SVG 1.1//EN"
  "http://www.w3.org/Graphics/SVG/1.1/DTD/svg11.dtd">
<svg xmlns:xlink="http://www.w3.org/1999/xlink" width="460.8pt" height="345.6pt" viewBox="0 0 460.8 345.6" xmlns="http://www.w3.org/2000/svg" version="1.1">
 <metadata>
  <rdf:RDF xmlns:dc="http://purl.org/dc/elements/1.1/" xmlns:cc="http://creativecommons.org/ns#" xmlns:rdf="http://www.w3.org/1999/02/22-rdf-syntax-ns#">
   <cc:Work>
    <dc:type rdf:resource="http://purl.org/dc/dcmitype/StillImage"/>
    <dc:date>2023-03-02T18:38:34.066588</dc:date>
    <dc:format>image/svg+xml</dc:format>
    <dc:creator>
     <cc:Agent>
      <dc:title>Matplotlib v3.6.0, https://matplotlib.org/</dc:title>
     </cc:Agent>
    </dc:creator>
   </cc:Work>
  </rdf:RDF>
 </metadata>
 <defs>
  <style type="text/css">*{stroke-linejoin: round; stroke-linecap: butt}</style>
 </defs>
 <g id="figure_1">
  <g id="patch_1">
   <path d="M 0 345.6 
L 460.8 345.6 
L 460.8 0 
L 0 0 
z
" style="fill: #ffffff"/>
  </g>
  <g id="axes_1">
   <g id="patch_2">
    <path d="M 71.75 292.84 
L 449.924851 292.84 
L 449.924851 10.8 
L 71.75 10.8 
z
" style="fill: #ffffff"/>
   </g>
   <g id="PathCollection_1">
    <defs>
     <path id="m7f72316284" d="M 0 5 
C 1.326016 5 2.597899 4.473168 3.535534 3.535534 
C 4.473168 2.597899 5 1.326016 5 0 
C 5 -1.326016 4.473168 -2.597899 3.535534 -3.535534 
C 2.597899 -4.473168 1.326016 -5 0 -5 
C -1.326016 -5 -2.597899 -4.473168 -3.535534 -3.535534 
C -4.473168 -2.597899 -5 -1.326016 -5 0 
C -5 1.326016 -4.473168 2.597899 -3.535534 3.535534 
C -2.597899 4.473168 -1.326016 5 0 5 
z
" style="stroke: #1f77b4"/>
    </defs>
    <g clip-path="url(#pbc2eae450f)">
     <use xlink:href="#m7f72316284" x="88.939766" y="277.19062" style="fill: #1f77b4; stroke: #1f77b4"/>
     <use xlink:href="#m7f72316284" x="128.600872" y="248.074102" style="fill: #1f77b4; stroke: #1f77b4"/>
     <use xlink:href="#m7f72316284" x="163.923693" y="218.957583" style="fill: #1f77b4; stroke: #1f77b4"/>
     <use xlink:href="#m7f72316284" x="210.759296" y="189.841065" style="fill: #1f77b4; stroke: #1f77b4"/>
     <use xlink:href="#m7f72316284" x="249.994986" y="160.724546" style="fill: #1f77b4; stroke: #1f77b4"/>
     <use xlink:href="#m7f72316284" x="286.094665" y="131.608028" style="fill: #1f77b4; stroke: #1f77b4"/>
     <use xlink:href="#m7f72316284" x="297.58429" y="117.049769" style="fill: #1f77b4; stroke: #1f77b4"/>
     <use xlink:href="#m7f72316284" x="324.157305" y="102.49151" style="fill: #1f77b4; stroke: #1f77b4"/>
     <use xlink:href="#m7f72316284" x="357.065144" y="73.374991" style="fill: #1f77b4; stroke: #1f77b4"/>
     <use xlink:href="#m7f72316284" x="378.55674" y="58.816732" style="fill: #1f77b4; stroke: #1f77b4"/>
     <use xlink:href="#m7f72316284" x="414.330133" y="44.258473" style="fill: #1f77b4; stroke: #1f77b4"/>
     <use xlink:href="#m7f72316284" x="432.735085" y="29.700213" style="fill: #1f77b4; stroke: #1f77b4"/>
    </g>
   </g>
   <g id="matplotlib.axis_1">
    <g id="xtick_1">
     <g id="line2d_1">
      <defs>
       <path id="mf1f16f2940" d="M 0 0 
L 0 3.5 
" style="stroke: #000000; stroke-width: 0.8"/>
      </defs>
      <g>
       <use xlink:href="#mf1f16f2940" x="83.897747" y="292.84" style="stroke: #000000; stroke-width: 0.8"/>
      </g>
     </g>
     <g id="text_1">
      <!-- 30 -->
      <g transform="translate(73.717747 311.9975) scale(0.16 -0.16)">
       <defs>
        <path id="DejaVuSans-33" d="M 2597 2516 
Q 3050 2419 3304 2112 
Q 3559 1806 3559 1356 
Q 3559 666 3084 287 
Q 2609 -91 1734 -91 
Q 1441 -91 1130 -33 
Q 819 25 488 141 
L 488 750 
Q 750 597 1062 519 
Q 1375 441 1716 441 
Q 2309 441 2620 675 
Q 2931 909 2931 1356 
Q 2931 1769 2642 2001 
Q 2353 2234 1838 2234 
L 1294 2234 
L 1294 2753 
L 1863 2753 
Q 2328 2753 2575 2939 
Q 2822 3125 2822 3475 
Q 2822 3834 2567 4026 
Q 2313 4219 1838 4219 
Q 1578 4219 1281 4162 
Q 984 4106 628 3988 
L 628 4550 
Q 988 4650 1302 4700 
Q 1616 4750 1894 4750 
Q 2613 4750 3031 4423 
Q 3450 4097 3450 3541 
Q 3450 3153 3228 2886 
Q 3006 2619 2597 2516 
z
" transform="scale(0.015625)"/>
        <path id="DejaVuSans-30" d="M 2034 4250 
Q 1547 4250 1301 3770 
Q 1056 3291 1056 2328 
Q 1056 1369 1301 889 
Q 1547 409 2034 409 
Q 2525 409 2770 889 
Q 3016 1369 3016 2328 
Q 3016 3291 2770 3770 
Q 2525 4250 2034 4250 
z
M 2034 4750 
Q 2819 4750 3233 4129 
Q 3647 3509 3647 2328 
Q 3647 1150 3233 529 
Q 2819 -91 2034 -91 
Q 1250 -91 836 529 
Q 422 1150 422 2328 
Q 422 3509 836 4129 
Q 1250 4750 2034 4750 
z
" transform="scale(0.015625)"/>
       </defs>
       <use xlink:href="#DejaVuSans-33"/>
       <use xlink:href="#DejaVuSans-30" x="63.623047"/>
      </g>
     </g>
    </g>
    <g id="xtick_2">
     <g id="line2d_2">
      <g>
       <use xlink:href="#mf1f16f2940" x="143.217347" y="292.84" style="stroke: #000000; stroke-width: 0.8"/>
      </g>
     </g>
     <g id="text_2">
      <!-- 40 -->
      <g transform="translate(133.037347 311.9975) scale(0.16 -0.16)">
       <defs>
        <path id="DejaVuSans-34" d="M 2419 4116 
L 825 1625 
L 2419 1625 
L 2419 4116 
z
M 2253 4666 
L 3047 4666 
L 3047 1625 
L 3713 1625 
L 3713 1100 
L 3047 1100 
L 3047 0 
L 2419 0 
L 2419 1100 
L 313 1100 
L 313 1709 
L 2253 4666 
z
" transform="scale(0.015625)"/>
       </defs>
       <use xlink:href="#DejaVuSans-34"/>
       <use xlink:href="#DejaVuSans-30" x="63.623047"/>
      </g>
     </g>
    </g>
    <g id="xtick_3">
     <g id="line2d_3">
      <g>
       <use xlink:href="#mf1f16f2940" x="202.536947" y="292.84" style="stroke: #000000; stroke-width: 0.8"/>
      </g>
     </g>
     <g id="text_3">
      <!-- 50 -->
      <g transform="translate(192.356947 311.9975) scale(0.16 -0.16)">
       <defs>
        <path id="DejaVuSans-35" d="M 691 4666 
L 3169 4666 
L 3169 4134 
L 1269 4134 
L 1269 2991 
Q 1406 3038 1543 3061 
Q 1681 3084 1819 3084 
Q 2600 3084 3056 2656 
Q 3513 2228 3513 1497 
Q 3513 744 3044 326 
Q 2575 -91 1722 -91 
Q 1428 -91 1123 -41 
Q 819 9 494 109 
L 494 744 
Q 775 591 1075 516 
Q 1375 441 1709 441 
Q 2250 441 2565 725 
Q 2881 1009 2881 1497 
Q 2881 1984 2565 2268 
Q 2250 2553 1709 2553 
Q 1456 2553 1204 2497 
Q 953 2441 691 2322 
L 691 4666 
z
" transform="scale(0.015625)"/>
       </defs>
       <use xlink:href="#DejaVuSans-35"/>
       <use xlink:href="#DejaVuSans-30" x="63.623047"/>
      </g>
     </g>
    </g>
    <g id="xtick_4">
     <g id="line2d_4">
      <g>
       <use xlink:href="#mf1f16f2940" x="261.856546" y="292.84" style="stroke: #000000; stroke-width: 0.8"/>
      </g>
     </g>
     <g id="text_4">
      <!-- 60 -->
      <g transform="translate(251.676546 311.9975) scale(0.16 -0.16)">
       <defs>
        <path id="DejaVuSans-36" d="M 2113 2584 
Q 1688 2584 1439 2293 
Q 1191 2003 1191 1497 
Q 1191 994 1439 701 
Q 1688 409 2113 409 
Q 2538 409 2786 701 
Q 3034 994 3034 1497 
Q 3034 2003 2786 2293 
Q 2538 2584 2113 2584 
z
M 3366 4563 
L 3366 3988 
Q 3128 4100 2886 4159 
Q 2644 4219 2406 4219 
Q 1781 4219 1451 3797 
Q 1122 3375 1075 2522 
Q 1259 2794 1537 2939 
Q 1816 3084 2150 3084 
Q 2853 3084 3261 2657 
Q 3669 2231 3669 1497 
Q 3669 778 3244 343 
Q 2819 -91 2113 -91 
Q 1303 -91 875 529 
Q 447 1150 447 2328 
Q 447 3434 972 4092 
Q 1497 4750 2381 4750 
Q 2619 4750 2861 4703 
Q 3103 4656 3366 4563 
z
" transform="scale(0.015625)"/>
       </defs>
       <use xlink:href="#DejaVuSans-36"/>
       <use xlink:href="#DejaVuSans-30" x="63.623047"/>
      </g>
     </g>
    </g>
    <g id="xtick_5">
     <g id="line2d_5">
      <g>
       <use xlink:href="#mf1f16f2940" x="321.176146" y="292.84" style="stroke: #000000; stroke-width: 0.8"/>
      </g>
     </g>
     <g id="text_5">
      <!-- 70 -->
      <g transform="translate(310.996146 311.9975) scale(0.16 -0.16)">
       <defs>
        <path id="DejaVuSans-37" d="M 525 4666 
L 3525 4666 
L 3525 4397 
L 1831 0 
L 1172 0 
L 2766 4134 
L 525 4134 
L 525 4666 
z
" transform="scale(0.015625)"/>
       </defs>
       <use xlink:href="#DejaVuSans-37"/>
       <use xlink:href="#DejaVuSans-30" x="63.623047"/>
      </g>
     </g>
    </g>
    <g id="xtick_6">
     <g id="line2d_6">
      <g>
       <use xlink:href="#mf1f16f2940" x="380.495746" y="292.84" style="stroke: #000000; stroke-width: 0.8"/>
      </g>
     </g>
     <g id="text_6">
      <!-- 80 -->
      <g transform="translate(370.315746 311.9975) scale(0.16 -0.16)">
       <defs>
        <path id="DejaVuSans-38" d="M 2034 2216 
Q 1584 2216 1326 1975 
Q 1069 1734 1069 1313 
Q 1069 891 1326 650 
Q 1584 409 2034 409 
Q 2484 409 2743 651 
Q 3003 894 3003 1313 
Q 3003 1734 2745 1975 
Q 2488 2216 2034 2216 
z
M 1403 2484 
Q 997 2584 770 2862 
Q 544 3141 544 3541 
Q 544 4100 942 4425 
Q 1341 4750 2034 4750 
Q 2731 4750 3128 4425 
Q 3525 4100 3525 3541 
Q 3525 3141 3298 2862 
Q 3072 2584 2669 2484 
Q 3125 2378 3379 2068 
Q 3634 1759 3634 1313 
Q 3634 634 3220 271 
Q 2806 -91 2034 -91 
Q 1263 -91 848 271 
Q 434 634 434 1313 
Q 434 1759 690 2068 
Q 947 2378 1403 2484 
z
M 1172 3481 
Q 1172 3119 1398 2916 
Q 1625 2713 2034 2713 
Q 2441 2713 2670 2916 
Q 2900 3119 2900 3481 
Q 2900 3844 2670 4047 
Q 2441 4250 2034 4250 
Q 1625 4250 1398 4047 
Q 1172 3844 1172 3481 
z
" transform="scale(0.015625)"/>
       </defs>
       <use xlink:href="#DejaVuSans-38"/>
       <use xlink:href="#DejaVuSans-30" x="63.623047"/>
      </g>
     </g>
    </g>
    <g id="xtick_7">
     <g id="line2d_7">
      <g>
       <use xlink:href="#mf1f16f2940" x="439.815346" y="292.84" style="stroke: #000000; stroke-width: 0.8"/>
      </g>
     </g>
     <g id="text_7">
      <!-- 90 -->
      <g transform="translate(429.635346 311.9975) scale(0.16 -0.16)">
       <defs>
        <path id="DejaVuSans-39" d="M 703 97 
L 703 672 
Q 941 559 1184 500 
Q 1428 441 1663 441 
Q 2288 441 2617 861 
Q 2947 1281 2994 2138 
Q 2813 1869 2534 1725 
Q 2256 1581 1919 1581 
Q 1219 1581 811 2004 
Q 403 2428 403 3163 
Q 403 3881 828 4315 
Q 1253 4750 1959 4750 
Q 2769 4750 3195 4129 
Q 3622 3509 3622 2328 
Q 3622 1225 3098 567 
Q 2575 -91 1691 -91 
Q 1453 -91 1209 -44 
Q 966 3 703 97 
z
M 1959 2075 
Q 2384 2075 2632 2365 
Q 2881 2656 2881 3163 
Q 2881 3666 2632 3958 
Q 2384 4250 1959 4250 
Q 1534 4250 1286 3958 
Q 1038 3666 1038 3163 
Q 1038 2656 1286 2365 
Q 1534 2075 1959 2075 
z
" transform="scale(0.015625)"/>
       </defs>
       <use xlink:href="#DejaVuSans-39"/>
       <use xlink:href="#DejaVuSans-30" x="63.623047"/>
      </g>
     </g>
    </g>
    <g id="text_8">
     <!-- time of wave crossing (hours) -->
     <g transform="translate(149.368675 330.722656) scale(0.15 -0.15)">
      <defs>
       <path id="DejaVuSans-74" d="M 1172 4494 
L 1172 3500 
L 2356 3500 
L 2356 3053 
L 1172 3053 
L 1172 1153 
Q 1172 725 1289 603 
Q 1406 481 1766 481 
L 2356 481 
L 2356 0 
L 1766 0 
Q 1100 0 847 248 
Q 594 497 594 1153 
L 594 3053 
L 172 3053 
L 172 3500 
L 594 3500 
L 594 4494 
L 1172 4494 
z
" transform="scale(0.015625)"/>
       <path id="DejaVuSans-69" d="M 603 3500 
L 1178 3500 
L 1178 0 
L 603 0 
L 603 3500 
z
M 603 4863 
L 1178 4863 
L 1178 4134 
L 603 4134 
L 603 4863 
z
" transform="scale(0.015625)"/>
       <path id="DejaVuSans-6d" d="M 3328 2828 
Q 3544 3216 3844 3400 
Q 4144 3584 4550 3584 
Q 5097 3584 5394 3201 
Q 5691 2819 5691 2113 
L 5691 0 
L 5113 0 
L 5113 2094 
Q 5113 2597 4934 2840 
Q 4756 3084 4391 3084 
Q 3944 3084 3684 2787 
Q 3425 2491 3425 1978 
L 3425 0 
L 2847 0 
L 2847 2094 
Q 2847 2600 2669 2842 
Q 2491 3084 2119 3084 
Q 1678 3084 1418 2786 
Q 1159 2488 1159 1978 
L 1159 0 
L 581 0 
L 581 3500 
L 1159 3500 
L 1159 2956 
Q 1356 3278 1631 3431 
Q 1906 3584 2284 3584 
Q 2666 3584 2933 3390 
Q 3200 3197 3328 2828 
z
" transform="scale(0.015625)"/>
       <path id="DejaVuSans-65" d="M 3597 1894 
L 3597 1613 
L 953 1613 
Q 991 1019 1311 708 
Q 1631 397 2203 397 
Q 2534 397 2845 478 
Q 3156 559 3463 722 
L 3463 178 
Q 3153 47 2828 -22 
Q 2503 -91 2169 -91 
Q 1331 -91 842 396 
Q 353 884 353 1716 
Q 353 2575 817 3079 
Q 1281 3584 2069 3584 
Q 2775 3584 3186 3129 
Q 3597 2675 3597 1894 
z
M 3022 2063 
Q 3016 2534 2758 2815 
Q 2500 3097 2075 3097 
Q 1594 3097 1305 2825 
Q 1016 2553 972 2059 
L 3022 2063 
z
" transform="scale(0.015625)"/>
       <path id="DejaVuSans-20" transform="scale(0.015625)"/>
       <path id="DejaVuSans-6f" d="M 1959 3097 
Q 1497 3097 1228 2736 
Q 959 2375 959 1747 
Q 959 1119 1226 758 
Q 1494 397 1959 397 
Q 2419 397 2687 759 
Q 2956 1122 2956 1747 
Q 2956 2369 2687 2733 
Q 2419 3097 1959 3097 
z
M 1959 3584 
Q 2709 3584 3137 3096 
Q 3566 2609 3566 1747 
Q 3566 888 3137 398 
Q 2709 -91 1959 -91 
Q 1206 -91 779 398 
Q 353 888 353 1747 
Q 353 2609 779 3096 
Q 1206 3584 1959 3584 
z
" transform="scale(0.015625)"/>
       <path id="DejaVuSans-66" d="M 2375 4863 
L 2375 4384 
L 1825 4384 
Q 1516 4384 1395 4259 
Q 1275 4134 1275 3809 
L 1275 3500 
L 2222 3500 
L 2222 3053 
L 1275 3053 
L 1275 0 
L 697 0 
L 697 3053 
L 147 3053 
L 147 3500 
L 697 3500 
L 697 3744 
Q 697 4328 969 4595 
Q 1241 4863 1831 4863 
L 2375 4863 
z
" transform="scale(0.015625)"/>
       <path id="DejaVuSans-77" d="M 269 3500 
L 844 3500 
L 1563 769 
L 2278 3500 
L 2956 3500 
L 3675 769 
L 4391 3500 
L 4966 3500 
L 4050 0 
L 3372 0 
L 2619 2869 
L 1863 0 
L 1184 0 
L 269 3500 
z
" transform="scale(0.015625)"/>
       <path id="DejaVuSans-61" d="M 2194 1759 
Q 1497 1759 1228 1600 
Q 959 1441 959 1056 
Q 959 750 1161 570 
Q 1363 391 1709 391 
Q 2188 391 2477 730 
Q 2766 1069 2766 1631 
L 2766 1759 
L 2194 1759 
z
M 3341 1997 
L 3341 0 
L 2766 0 
L 2766 531 
Q 2569 213 2275 61 
Q 1981 -91 1556 -91 
Q 1019 -91 701 211 
Q 384 513 384 1019 
Q 384 1609 779 1909 
Q 1175 2209 1959 2209 
L 2766 2209 
L 2766 2266 
Q 2766 2663 2505 2880 
Q 2244 3097 1772 3097 
Q 1472 3097 1187 3025 
Q 903 2953 641 2809 
L 641 3341 
Q 956 3463 1253 3523 
Q 1550 3584 1831 3584 
Q 2591 3584 2966 3190 
Q 3341 2797 3341 1997 
z
" transform="scale(0.015625)"/>
       <path id="DejaVuSans-76" d="M 191 3500 
L 800 3500 
L 1894 563 
L 2988 3500 
L 3597 3500 
L 2284 0 
L 1503 0 
L 191 3500 
z
" transform="scale(0.015625)"/>
       <path id="DejaVuSans-63" d="M 3122 3366 
L 3122 2828 
Q 2878 2963 2633 3030 
Q 2388 3097 2138 3097 
Q 1578 3097 1268 2742 
Q 959 2388 959 1747 
Q 959 1106 1268 751 
Q 1578 397 2138 397 
Q 2388 397 2633 464 
Q 2878 531 3122 666 
L 3122 134 
Q 2881 22 2623 -34 
Q 2366 -91 2075 -91 
Q 1284 -91 818 406 
Q 353 903 353 1747 
Q 353 2603 823 3093 
Q 1294 3584 2113 3584 
Q 2378 3584 2631 3529 
Q 2884 3475 3122 3366 
z
" transform="scale(0.015625)"/>
       <path id="DejaVuSans-72" d="M 2631 2963 
Q 2534 3019 2420 3045 
Q 2306 3072 2169 3072 
Q 1681 3072 1420 2755 
Q 1159 2438 1159 1844 
L 1159 0 
L 581 0 
L 581 3500 
L 1159 3500 
L 1159 2956 
Q 1341 3275 1631 3429 
Q 1922 3584 2338 3584 
Q 2397 3584 2469 3576 
Q 2541 3569 2628 3553 
L 2631 2963 
z
" transform="scale(0.015625)"/>
       <path id="DejaVuSans-73" d="M 2834 3397 
L 2834 2853 
Q 2591 2978 2328 3040 
Q 2066 3103 1784 3103 
Q 1356 3103 1142 2972 
Q 928 2841 928 2578 
Q 928 2378 1081 2264 
Q 1234 2150 1697 2047 
L 1894 2003 
Q 2506 1872 2764 1633 
Q 3022 1394 3022 966 
Q 3022 478 2636 193 
Q 2250 -91 1575 -91 
Q 1294 -91 989 -36 
Q 684 19 347 128 
L 347 722 
Q 666 556 975 473 
Q 1284 391 1588 391 
Q 1994 391 2212 530 
Q 2431 669 2431 922 
Q 2431 1156 2273 1281 
Q 2116 1406 1581 1522 
L 1381 1569 
Q 847 1681 609 1914 
Q 372 2147 372 2553 
Q 372 3047 722 3315 
Q 1072 3584 1716 3584 
Q 2034 3584 2315 3537 
Q 2597 3491 2834 3397 
z
" transform="scale(0.015625)"/>
       <path id="DejaVuSans-6e" d="M 3513 2113 
L 3513 0 
L 2938 0 
L 2938 2094 
Q 2938 2591 2744 2837 
Q 2550 3084 2163 3084 
Q 1697 3084 1428 2787 
Q 1159 2491 1159 1978 
L 1159 0 
L 581 0 
L 581 3500 
L 1159 3500 
L 1159 2956 
Q 1366 3272 1645 3428 
Q 1925 3584 2291 3584 
Q 2894 3584 3203 3211 
Q 3513 2838 3513 2113 
z
" transform="scale(0.015625)"/>
       <path id="DejaVuSans-67" d="M 2906 1791 
Q 2906 2416 2648 2759 
Q 2391 3103 1925 3103 
Q 1463 3103 1205 2759 
Q 947 2416 947 1791 
Q 947 1169 1205 825 
Q 1463 481 1925 481 
Q 2391 481 2648 825 
Q 2906 1169 2906 1791 
z
M 3481 434 
Q 3481 -459 3084 -895 
Q 2688 -1331 1869 -1331 
Q 1566 -1331 1297 -1286 
Q 1028 -1241 775 -1147 
L 775 -588 
Q 1028 -725 1275 -790 
Q 1522 -856 1778 -856 
Q 2344 -856 2625 -561 
Q 2906 -266 2906 331 
L 2906 616 
Q 2728 306 2450 153 
Q 2172 0 1784 0 
Q 1141 0 747 490 
Q 353 981 353 1791 
Q 353 2603 747 3093 
Q 1141 3584 1784 3584 
Q 2172 3584 2450 3431 
Q 2728 3278 2906 2969 
L 2906 3500 
L 3481 3500 
L 3481 434 
z
" transform="scale(0.015625)"/>
       <path id="DejaVuSans-28" d="M 1984 4856 
Q 1566 4138 1362 3434 
Q 1159 2731 1159 2009 
Q 1159 1288 1364 580 
Q 1569 -128 1984 -844 
L 1484 -844 
Q 1016 -109 783 600 
Q 550 1309 550 2009 
Q 550 2706 781 3412 
Q 1013 4119 1484 4856 
L 1984 4856 
z
" transform="scale(0.015625)"/>
       <path id="DejaVuSans-68" d="M 3513 2113 
L 3513 0 
L 2938 0 
L 2938 2094 
Q 2938 2591 2744 2837 
Q 2550 3084 2163 3084 
Q 1697 3084 1428 2787 
Q 1159 2491 1159 1978 
L 1159 0 
L 581 0 
L 581 4863 
L 1159 4863 
L 1159 2956 
Q 1366 3272 1645 3428 
Q 1925 3584 2291 3584 
Q 2894 3584 3203 3211 
Q 3513 2838 3513 2113 
z
" transform="scale(0.015625)"/>
       <path id="DejaVuSans-75" d="M 544 1381 
L 544 3500 
L 1119 3500 
L 1119 1403 
Q 1119 906 1312 657 
Q 1506 409 1894 409 
Q 2359 409 2629 706 
Q 2900 1003 2900 1516 
L 2900 3500 
L 3475 3500 
L 3475 0 
L 2900 0 
L 2900 538 
Q 2691 219 2414 64 
Q 2138 -91 1772 -91 
Q 1169 -91 856 284 
Q 544 659 544 1381 
z
M 1991 3584 
L 1991 3584 
z
" transform="scale(0.015625)"/>
       <path id="DejaVuSans-29" d="M 513 4856 
L 1013 4856 
Q 1481 4119 1714 3412 
Q 1947 2706 1947 2009 
Q 1947 1309 1714 600 
Q 1481 -109 1013 -844 
L 513 -844 
Q 928 -128 1133 580 
Q 1338 1288 1338 2009 
Q 1338 2731 1133 3434 
Q 928 4138 513 4856 
z
" transform="scale(0.015625)"/>
      </defs>
      <use xlink:href="#DejaVuSans-74"/>
      <use xlink:href="#DejaVuSans-69" x="39.208984"/>
      <use xlink:href="#DejaVuSans-6d" x="66.992188"/>
      <use xlink:href="#DejaVuSans-65" x="164.404297"/>
      <use xlink:href="#DejaVuSans-20" x="225.927734"/>
      <use xlink:href="#DejaVuSans-6f" x="257.714844"/>
      <use xlink:href="#DejaVuSans-66" x="318.896484"/>
      <use xlink:href="#DejaVuSans-20" x="354.101562"/>
      <use xlink:href="#DejaVuSans-77" x="385.888672"/>
      <use xlink:href="#DejaVuSans-61" x="467.675781"/>
      <use xlink:href="#DejaVuSans-76" x="528.955078"/>
      <use xlink:href="#DejaVuSans-65" x="588.134766"/>
      <use xlink:href="#DejaVuSans-20" x="649.658203"/>
      <use xlink:href="#DejaVuSans-63" x="681.445312"/>
      <use xlink:href="#DejaVuSans-72" x="736.425781"/>
      <use xlink:href="#DejaVuSans-6f" x="775.289062"/>
      <use xlink:href="#DejaVuSans-73" x="836.470703"/>
      <use xlink:href="#DejaVuSans-73" x="888.570312"/>
      <use xlink:href="#DejaVuSans-69" x="940.669922"/>
      <use xlink:href="#DejaVuSans-6e" x="968.453125"/>
      <use xlink:href="#DejaVuSans-67" x="1031.832031"/>
      <use xlink:href="#DejaVuSans-20" x="1095.308594"/>
      <use xlink:href="#DejaVuSans-28" x="1127.095703"/>
      <use xlink:href="#DejaVuSans-68" x="1166.109375"/>
      <use xlink:href="#DejaVuSans-6f" x="1229.488281"/>
      <use xlink:href="#DejaVuSans-75" x="1290.669922"/>
      <use xlink:href="#DejaVuSans-72" x="1354.048828"/>
      <use xlink:href="#DejaVuSans-73" x="1395.162109"/>
      <use xlink:href="#DejaVuSans-29" x="1447.261719"/>
     </g>
    </g>
   </g>
   <g id="matplotlib.axis_2">
    <g id="ytick_1">
     <g id="line2d_8">
      <defs>
       <path id="m5577b217f4" d="M 0 0 
L -3.5 0 
" style="stroke: #000000; stroke-width: 0.8"/>
      </defs>
      <g>
       <use xlink:href="#m5577b217f4" x="71.75" y="291.748879" style="stroke: #000000; stroke-width: 0.8"/>
      </g>
     </g>
     <g id="text_9">
      <!-- 10.0 -->
      <g transform="translate(29.125 297.827629) scale(0.16 -0.16)">
       <defs>
        <path id="DejaVuSans-31" d="M 794 531 
L 1825 531 
L 1825 4091 
L 703 3866 
L 703 4441 
L 1819 4666 
L 2450 4666 
L 2450 531 
L 3481 531 
L 3481 0 
L 794 0 
L 794 531 
z
" transform="scale(0.015625)"/>
        <path id="DejaVuSans-2e" d="M 684 794 
L 1344 794 
L 1344 0 
L 684 0 
L 684 794 
z
" transform="scale(0.015625)"/>
       </defs>
       <use xlink:href="#DejaVuSans-31"/>
       <use xlink:href="#DejaVuSans-30" x="63.623047"/>
       <use xlink:href="#DejaVuSans-2e" x="127.246094"/>
       <use xlink:href="#DejaVuSans-30" x="159.033203"/>
      </g>
     </g>
    </g>
    <g id="ytick_2">
     <g id="line2d_9">
      <g>
       <use xlink:href="#m5577b217f4" x="71.75" y="255.353231" style="stroke: #000000; stroke-width: 0.8"/>
      </g>
     </g>
     <g id="text_10">
      <!-- 12.5 -->
      <g transform="translate(29.125 261.431981) scale(0.16 -0.16)">
       <defs>
        <path id="DejaVuSans-32" d="M 1228 531 
L 3431 531 
L 3431 0 
L 469 0 
L 469 531 
Q 828 903 1448 1529 
Q 2069 2156 2228 2338 
Q 2531 2678 2651 2914 
Q 2772 3150 2772 3378 
Q 2772 3750 2511 3984 
Q 2250 4219 1831 4219 
Q 1534 4219 1204 4116 
Q 875 4013 500 3803 
L 500 4441 
Q 881 4594 1212 4672 
Q 1544 4750 1819 4750 
Q 2544 4750 2975 4387 
Q 3406 4025 3406 3419 
Q 3406 3131 3298 2873 
Q 3191 2616 2906 2266 
Q 2828 2175 2409 1742 
Q 1991 1309 1228 531 
z
" transform="scale(0.015625)"/>
       </defs>
       <use xlink:href="#DejaVuSans-31"/>
       <use xlink:href="#DejaVuSans-32" x="63.623047"/>
       <use xlink:href="#DejaVuSans-2e" x="127.246094"/>
       <use xlink:href="#DejaVuSans-35" x="159.033203"/>
      </g>
     </g>
    </g>
    <g id="ytick_3">
     <g id="line2d_10">
      <g>
       <use xlink:href="#m5577b217f4" x="71.75" y="218.957583" style="stroke: #000000; stroke-width: 0.8"/>
      </g>
     </g>
     <g id="text_11">
      <!-- 15.0 -->
      <g transform="translate(29.125 225.036333) scale(0.16 -0.16)">
       <use xlink:href="#DejaVuSans-31"/>
       <use xlink:href="#DejaVuSans-35" x="63.623047"/>
       <use xlink:href="#DejaVuSans-2e" x="127.246094"/>
       <use xlink:href="#DejaVuSans-30" x="159.033203"/>
      </g>
     </g>
    </g>
    <g id="ytick_4">
     <g id="line2d_11">
      <g>
       <use xlink:href="#m5577b217f4" x="71.75" y="182.561935" style="stroke: #000000; stroke-width: 0.8"/>
      </g>
     </g>
     <g id="text_12">
      <!-- 17.5 -->
      <g transform="translate(29.125 188.640685) scale(0.16 -0.16)">
       <use xlink:href="#DejaVuSans-31"/>
       <use xlink:href="#DejaVuSans-37" x="63.623047"/>
       <use xlink:href="#DejaVuSans-2e" x="127.246094"/>
       <use xlink:href="#DejaVuSans-35" x="159.033203"/>
      </g>
     </g>
    </g>
    <g id="ytick_5">
     <g id="line2d_12">
      <g>
       <use xlink:href="#m5577b217f4" x="71.75" y="146.166287" style="stroke: #000000; stroke-width: 0.8"/>
      </g>
     </g>
     <g id="text_13">
      <!-- 20.0 -->
      <g transform="translate(29.125 152.245037) scale(0.16 -0.16)">
       <use xlink:href="#DejaVuSans-32"/>
       <use xlink:href="#DejaVuSans-30" x="63.623047"/>
       <use xlink:href="#DejaVuSans-2e" x="127.246094"/>
       <use xlink:href="#DejaVuSans-30" x="159.033203"/>
      </g>
     </g>
    </g>
    <g id="ytick_6">
     <g id="line2d_13">
      <g>
       <use xlink:href="#m5577b217f4" x="71.75" y="109.770639" style="stroke: #000000; stroke-width: 0.8"/>
      </g>
     </g>
     <g id="text_14">
      <!-- 22.5 -->
      <g transform="translate(29.125 115.849389) scale(0.16 -0.16)">
       <use xlink:href="#DejaVuSans-32"/>
       <use xlink:href="#DejaVuSans-32" x="63.623047"/>
       <use xlink:href="#DejaVuSans-2e" x="127.246094"/>
       <use xlink:href="#DejaVuSans-35" x="159.033203"/>
      </g>
     </g>
    </g>
    <g id="ytick_7">
     <g id="line2d_14">
      <g>
       <use xlink:href="#m5577b217f4" x="71.75" y="73.374991" style="stroke: #000000; stroke-width: 0.8"/>
      </g>
     </g>
     <g id="text_15">
      <!-- 25.0 -->
      <g transform="translate(29.125 79.453741) scale(0.16 -0.16)">
       <use xlink:href="#DejaVuSans-32"/>
       <use xlink:href="#DejaVuSans-35" x="63.623047"/>
       <use xlink:href="#DejaVuSans-2e" x="127.246094"/>
       <use xlink:href="#DejaVuSans-30" x="159.033203"/>
      </g>
     </g>
    </g>
    <g id="ytick_8">
     <g id="line2d_15">
      <g>
       <use xlink:href="#m5577b217f4" x="71.75" y="36.979343" style="stroke: #000000; stroke-width: 0.8"/>
      </g>
     </g>
     <g id="text_16">
      <!-- 27.5 -->
      <g transform="translate(29.125 43.058093) scale(0.16 -0.16)">
       <use xlink:href="#DejaVuSans-32"/>
       <use xlink:href="#DejaVuSans-37" x="63.623047"/>
       <use xlink:href="#DejaVuSans-2e" x="127.246094"/>
       <use xlink:href="#DejaVuSans-35" x="159.033203"/>
      </g>
     </g>
    </g>
    <g id="text_17">
     <!-- distance from center (mm) -->
     <g transform="translate(22.005469 252.793437) rotate(-90) scale(0.15 -0.15)">
      <defs>
       <path id="DejaVuSans-64" d="M 2906 2969 
L 2906 4863 
L 3481 4863 
L 3481 0 
L 2906 0 
L 2906 525 
Q 2725 213 2448 61 
Q 2172 -91 1784 -91 
Q 1150 -91 751 415 
Q 353 922 353 1747 
Q 353 2572 751 3078 
Q 1150 3584 1784 3584 
Q 2172 3584 2448 3432 
Q 2725 3281 2906 2969 
z
M 947 1747 
Q 947 1113 1208 752 
Q 1469 391 1925 391 
Q 2381 391 2643 752 
Q 2906 1113 2906 1747 
Q 2906 2381 2643 2742 
Q 2381 3103 1925 3103 
Q 1469 3103 1208 2742 
Q 947 2381 947 1747 
z
" transform="scale(0.015625)"/>
      </defs>
      <use xlink:href="#DejaVuSans-64"/>
      <use xlink:href="#DejaVuSans-69" x="63.476562"/>
      <use xlink:href="#DejaVuSans-73" x="91.259766"/>
      <use xlink:href="#DejaVuSans-74" x="143.359375"/>
      <use xlink:href="#DejaVuSans-61" x="182.568359"/>
      <use xlink:href="#DejaVuSans-6e" x="243.847656"/>
      <use xlink:href="#DejaVuSans-63" x="307.226562"/>
      <use xlink:href="#DejaVuSans-65" x="362.207031"/>
      <use xlink:href="#DejaVuSans-20" x="423.730469"/>
      <use xlink:href="#DejaVuSans-66" x="455.517578"/>
      <use xlink:href="#DejaVuSans-72" x="490.722656"/>
      <use xlink:href="#DejaVuSans-6f" x="529.585938"/>
      <use xlink:href="#DejaVuSans-6d" x="590.767578"/>
      <use xlink:href="#DejaVuSans-20" x="688.179688"/>
      <use xlink:href="#DejaVuSans-63" x="719.966797"/>
      <use xlink:href="#DejaVuSans-65" x="774.947266"/>
      <use xlink:href="#DejaVuSans-6e" x="836.470703"/>
      <use xlink:href="#DejaVuSans-74" x="899.849609"/>
      <use xlink:href="#DejaVuSans-65" x="939.058594"/>
      <use xlink:href="#DejaVuSans-72" x="1000.582031"/>
      <use xlink:href="#DejaVuSans-20" x="1041.695312"/>
      <use xlink:href="#DejaVuSans-28" x="1073.482422"/>
      <use xlink:href="#DejaVuSans-6d" x="1112.496094"/>
      <use xlink:href="#DejaVuSans-6d" x="1209.908203"/>
      <use xlink:href="#DejaVuSans-29" x="1307.320312"/>
     </g>
    </g>
   </g>
   <g id="line2d_16">
    <path d="M 210.759296 187.691132 
L 297.58429 124.936902 
L 88.939766 275.738253 
L 378.55674 66.412698 
L 163.923693 221.542354 
L 210.759296 187.691132 
L 286.094665 133.241223 
L 414.330133 40.556874 
L 414.330133 40.556874 
L 414.330133 40.556874 
L 88.939766 275.738253 
L 249.994986 159.332875 
" clip-path="url(#pbc2eae450f)" style="fill: none; stroke: #808080; stroke-opacity: 0.01; stroke-width: 3; stroke-linecap: square"/>
   </g>
   <g id="line2d_17">
    <path d="M 297.58429 120.690279 
L 286.094665 129.273758 
L 297.58429 120.690279 
L 128.600872 246.931598 
L 210.759296 185.554051 
L 357.065144 76.254314 
L 297.58429 120.690279 
L 88.939766 276.560957 
L 357.065144 76.254314 
L 297.58429 120.690279 
L 414.330133 33.473739 
L 128.600872 246.931598 
" clip-path="url(#pbc2eae450f)" style="fill: none; stroke: #808080; stroke-opacity: 0.01; stroke-width: 3; stroke-linecap: square"/>
   </g>
   <g id="line2d_18">
    <path d="M 286.094665 132.074598 
L 378.55674 64.469875 
L 249.994986 158.469299 
L 128.600872 247.228019 
L 378.55674 64.469875 
L 432.735085 24.856747 
L 163.923693 221.401327 
L 324.157305 104.244656 
L 88.939766 276.226699 
L 432.735085 24.856747 
L 286.094665 132.074598 
L 210.759296 187.156931 
" clip-path="url(#pbc2eae450f)" style="fill: none; stroke: #808080; stroke-opacity: 0.01; stroke-width: 3; stroke-linecap: square"/>
   </g>
   <g id="line2d_19">
    <path d="M 324.157305 102.587727 
L 357.065144 78.654126 
L 378.55674 63.023465 
L 88.939766 273.659509 
L 297.58429 121.914062 
L 432.735085 23.62 
L 378.55674 63.023465 
L 378.55674 63.023465 
L 210.759296 185.061167 
L 432.735085 23.62 
L 297.58429 121.914062 
L 414.330133 37.00577 
" clip-path="url(#pbc2eae450f)" style="fill: none; stroke: #808080; stroke-opacity: 0.01; stroke-width: 3; stroke-linecap: square"/>
   </g>
   <g id="line2d_20">
    <path d="M 324.157305 101.37462 
L 249.994986 157.700163 
L 249.994986 157.700163 
L 88.939766 280.02 
L 297.58429 121.55656 
L 357.065144 76.381444 
L 249.994986 157.700163 
L 297.58429 121.55656 
L 249.994986 157.700163 
L 128.600872 249.897785 
L 210.759296 187.499279 
L 324.157305 101.37462 
" clip-path="url(#pbc2eae450f)" style="fill: none; stroke: #808080; stroke-opacity: 0.01; stroke-width: 3; stroke-linecap: square"/>
   </g>
   <g id="line2d_21">
    <path d="M 286.094665 131.375371 
L 378.55674 63.823416 
L 286.094665 131.375371 
L 210.759296 186.41471 
L 378.55674 63.823416 
L 297.58429 122.981155 
L 286.094665 131.375371 
L 414.330133 37.687698 
L 297.58429 122.981155 
L 414.330133 37.687698 
L 128.600872 246.438912 
L 249.994986 157.74947 
" clip-path="url(#pbc2eae450f)" style="fill: none; stroke: #808080; stroke-opacity: 0.01; stroke-width: 3; stroke-linecap: square"/>
   </g>
   <g id="line2d_22">
    <path d="M 297.58429 121.056949 
L 128.600872 248.783069 
L 378.55674 59.853922 
L 297.58429 121.056949 
L 88.939766 278.760916 
L 286.094665 129.741383 
L 324.157305 100.971736 
L 210.759296 186.683623 
L 249.994986 157.027326 
L 378.55674 59.853922 
L 249.994986 157.027326 
L 88.939766 278.760916 
" clip-path="url(#pbc2eae450f)" style="fill: none; stroke: #808080; stroke-opacity: 0.01; stroke-width: 3; stroke-linecap: square"/>
   </g>
   <g id="line2d_23">
    <path d="M 286.094665 130.694605 
L 249.994986 156.996188 
L 163.923693 219.706202 
L 357.065144 78.986776 
L 324.157305 102.962842 
L 414.330133 37.264523 
L 128.600872 245.441781 
L 297.58429 122.323468 
L 163.923693 219.706202 
L 324.157305 102.962842 
L 324.157305 102.962842 
L 324.157305 102.962842 
" clip-path="url(#pbc2eae450f)" style="fill: none; stroke: #808080; stroke-opacity: 0.01; stroke-width: 3; stroke-linecap: square"/>
   </g>
   <g id="line2d_24">
    <path d="M 324.157305 104.62933 
L 88.939766 276.016949 
L 324.157305 104.62933 
L 163.923693 221.381071 
L 128.600872 247.118498 
L 357.065144 80.651542 
L 88.939766 276.016949 
L 128.600872 247.118498 
L 286.094665 132.363083 
L 432.735085 25.51581 
L 414.330133 38.926293 
L 128.600872 247.118498 
" clip-path="url(#pbc2eae450f)" style="fill: none; stroke: #808080; stroke-opacity: 0.01; stroke-width: 3; stroke-linecap: square"/>
   </g>
   <g id="line2d_25">
    <path d="M 297.58429 122.030875 
L 249.994986 158.162421 
L 297.58429 122.030875 
L 163.923693 223.510904 
L 249.994986 158.162421 
L 210.759296 187.951596 
L 128.600872 250.329286 
L 286.094665 130.75422 
L 210.759296 187.951596 
L 210.759296 187.951596 
L 249.994986 158.162421 
L 249.994986 158.162421 
" clip-path="url(#pbc2eae450f)" style="fill: none; stroke: #808080; stroke-opacity: 0.01; stroke-width: 3; stroke-linecap: square"/>
   </g>
   <g id="line2d_26">
    <path d="M 88.939766 275.759058 
L 128.600872 246.749872 
L 163.923693 220.913824 
L 210.759296 186.657021 
L 249.994986 157.958996 
L 286.094665 131.554733 
L 297.58429 123.150916 
L 324.157305 103.714708 
L 357.065144 79.645041 
L 378.55674 63.925518 
L 414.330133 37.759908 
L 432.735085 24.298038 
" clip-path="url(#pbc2eae450f)" style="fill: none; stroke: #808080; stroke-opacity: 0.01; stroke-width: 3; stroke-linecap: square"/>
   </g>
   <g id="line2d_27">
    <path d="M 88.939766 275.759058 
L 128.600872 246.749872 
L 163.923693 220.913824 
L 210.759296 186.657021 
L 249.994986 157.958996 
L 286.094665 131.554733 
L 297.58429 123.150916 
L 324.157305 103.714708 
L 357.065144 79.645041 
L 378.55674 63.925518 
L 414.330133 37.759908 
L 432.735085 24.298038 
" clip-path="url(#pbc2eae450f)" style="fill: none; stroke: #000000; stroke-width: 3; stroke-linecap: square"/>
   </g>
   <g id="patch_3">
    <path d="M 71.75 292.84 
L 71.75 10.8 
" style="fill: none; stroke: #000000; stroke-width: 0.8; stroke-linejoin: miter; stroke-linecap: square"/>
   </g>
   <g id="patch_4">
    <path d="M 449.924851 292.84 
L 449.924851 10.8 
" style="fill: none; stroke: #000000; stroke-width: 0.8; stroke-linejoin: miter; stroke-linecap: square"/>
   </g>
   <g id="patch_5">
    <path d="M 71.75 292.84 
L 449.924851 292.84 
" style="fill: none; stroke: #000000; stroke-width: 0.8; stroke-linejoin: miter; stroke-linecap: square"/>
   </g>
   <g id="patch_6">
    <path d="M 71.75 10.8 
L 449.924851 10.8 
" style="fill: none; stroke: #000000; stroke-width: 0.8; stroke-linejoin: miter; stroke-linecap: square"/>
   </g>
   <g id="legend_1">
    <g id="patch_7">
     <path d="M 78.75 48.178125 
L 287.55 48.178125 
Q 289.55 48.178125 289.55 46.178125 
L 289.55 17.8 
Q 289.55 15.8 287.55 15.8 
L 78.75 15.8 
Q 76.75 15.8 76.75 17.8 
L 76.75 46.178125 
Q 76.75 48.178125 78.75 48.178125 
z
" style="fill: #ffffff; opacity: 0.8; stroke: #cccccc; stroke-linejoin: miter"/>
    </g>
    <g id="PathCollection_2">
     <g>
      <use xlink:href="#m7f72316284" x="90.75" y="24.773438" style="fill: #1f77b4; stroke: #1f77b4"/>
     </g>
    </g>
    <g id="text_18">
     <!-- data -->
     <g transform="translate(108.75 27.398438) scale(0.1 -0.1)">
      <use xlink:href="#DejaVuSans-64"/>
      <use xlink:href="#DejaVuSans-61" x="63.476562"/>
      <use xlink:href="#DejaVuSans-74" x="124.755859"/>
      <use xlink:href="#DejaVuSans-61" x="163.964844"/>
     </g>
    </g>
    <g id="line2d_28">
     <path d="M 80.75 38.578125 
L 90.75 38.578125 
L 100.75 38.578125 
" style="fill: none; stroke: #000000; stroke-width: 3; stroke-linecap: square"/>
    </g>
    <g id="text_19">
     <!-- linear fit : speed = 298$\pm$ 5$\mu m.h^-1$ -->
     <g transform="translate(108.75 42.078125) scale(0.1 -0.1)">
      <defs>
       <path id="DejaVuSans-6c" d="M 603 4863 
L 1178 4863 
L 1178 0 
L 603 0 
L 603 4863 
z
" transform="scale(0.015625)"/>
       <path id="DejaVuSans-3a" d="M 750 794 
L 1409 794 
L 1409 0 
L 750 0 
L 750 794 
z
M 750 3309 
L 1409 3309 
L 1409 2516 
L 750 2516 
L 750 3309 
z
" transform="scale(0.015625)"/>
       <path id="DejaVuSans-70" d="M 1159 525 
L 1159 -1331 
L 581 -1331 
L 581 3500 
L 1159 3500 
L 1159 2969 
Q 1341 3281 1617 3432 
Q 1894 3584 2278 3584 
Q 2916 3584 3314 3078 
Q 3713 2572 3713 1747 
Q 3713 922 3314 415 
Q 2916 -91 2278 -91 
Q 1894 -91 1617 61 
Q 1341 213 1159 525 
z
M 3116 1747 
Q 3116 2381 2855 2742 
Q 2594 3103 2138 3103 
Q 1681 3103 1420 2742 
Q 1159 2381 1159 1747 
Q 1159 1113 1420 752 
Q 1681 391 2138 391 
Q 2594 391 2855 752 
Q 3116 1113 3116 1747 
z
" transform="scale(0.015625)"/>
       <path id="DejaVuSans-3d" d="M 678 2906 
L 4684 2906 
L 4684 2381 
L 678 2381 
L 678 2906 
z
M 678 1631 
L 4684 1631 
L 4684 1100 
L 678 1100 
L 678 1631 
z
" transform="scale(0.015625)"/>
       <path id="DejaVuSans-b1" d="M 2944 4013 
L 2944 2803 
L 4684 2803 
L 4684 2272 
L 2944 2272 
L 2944 1063 
L 2419 1063 
L 2419 2272 
L 678 2272 
L 678 2803 
L 2419 2803 
L 2419 4013 
L 2944 4013 
z
M 678 531 
L 4684 531 
L 4684 0 
L 678 0 
L 678 531 
z
" transform="scale(0.015625)"/>
       <path id="DejaVuSans-Oblique-3bc" d="M -84 -1331 
L 856 3500 
L 1434 3500 
L 1009 1322 
Q 997 1256 987 1175 
Q 978 1094 978 1013 
Q 978 722 1161 565 
Q 1344 409 1684 409 
Q 2147 409 2431 671 
Q 2716 934 2816 1459 
L 3213 3500 
L 3788 3500 
L 3266 809 
Q 3253 750 3248 706 
Q 3244 663 3244 628 
Q 3244 531 3283 486 
Q 3322 441 3406 441 
Q 3438 441 3492 456 
Q 3547 472 3647 513 
L 3559 50 
Q 3422 -19 3297 -55 
Q 3172 -91 3053 -91 
Q 2847 -91 2730 40 
Q 2613 172 2613 403 
Q 2438 153 2195 31 
Q 1953 -91 1625 -91 
Q 1334 -91 1117 43 
Q 900 178 831 397 
L 494 -1331 
L -84 -1331 
z
" transform="scale(0.015625)"/>
       <path id="DejaVuSans-Oblique-6d" d="M 5747 2113 
L 5338 0 
L 4763 0 
L 5166 2094 
Q 5191 2228 5203 2325 
Q 5216 2422 5216 2491 
Q 5216 2772 5059 2928 
Q 4903 3084 4622 3084 
Q 4203 3084 3875 2770 
Q 3547 2456 3450 1953 
L 3066 0 
L 2491 0 
L 2900 2094 
Q 2925 2209 2937 2307 
Q 2950 2406 2950 2484 
Q 2950 2769 2794 2926 
Q 2638 3084 2363 3084 
Q 1938 3084 1609 2770 
Q 1281 2456 1184 1953 
L 800 0 
L 225 0 
L 909 3500 
L 1484 3500 
L 1375 2956 
Q 1609 3263 1923 3423 
Q 2238 3584 2597 3584 
Q 2978 3584 3223 3384 
Q 3469 3184 3519 2828 
Q 3781 3197 4126 3390 
Q 4472 3584 4856 3584 
Q 5306 3584 5551 3325 
Q 5797 3066 5797 2591 
Q 5797 2488 5784 2364 
Q 5772 2241 5747 2113 
z
" transform="scale(0.015625)"/>
       <path id="DejaVuSans-Oblique-68" d="M 3566 2113 
L 3156 0 
L 2578 0 
L 2988 2091 
Q 3016 2238 3031 2350 
Q 3047 2463 3047 2528 
Q 3047 2791 2881 2937 
Q 2716 3084 2419 3084 
Q 1956 3084 1617 2771 
Q 1278 2459 1178 1941 
L 800 0 
L 225 0 
L 1172 4863 
L 1747 4863 
L 1375 2950 
Q 1594 3244 1934 3414 
Q 2275 3584 2650 3584 
Q 3113 3584 3367 3334 
Q 3622 3084 3622 2631 
Q 3622 2519 3608 2391 
Q 3594 2263 3566 2113 
z
" transform="scale(0.015625)"/>
       <path id="DejaVuSans-2212" d="M 678 2272 
L 4684 2272 
L 4684 1741 
L 678 1741 
L 678 2272 
z
" transform="scale(0.015625)"/>
      </defs>
      <use xlink:href="#DejaVuSans-6c" transform="translate(0 0.015625)"/>
      <use xlink:href="#DejaVuSans-69" transform="translate(27.783203 0.015625)"/>
      <use xlink:href="#DejaVuSans-6e" transform="translate(55.566406 0.015625)"/>
      <use xlink:href="#DejaVuSans-65" transform="translate(118.945312 0.015625)"/>
      <use xlink:href="#DejaVuSans-61" transform="translate(180.46875 0.015625)"/>
      <use xlink:href="#DejaVuSans-72" transform="translate(241.748047 0.015625)"/>
      <use xlink:href="#DejaVuSans-20" transform="translate(282.861328 0.015625)"/>
      <use xlink:href="#DejaVuSans-66" transform="translate(314.648438 0.015625)"/>
      <use xlink:href="#DejaVuSans-69" transform="translate(349.853516 0.015625)"/>
      <use xlink:href="#DejaVuSans-74" transform="translate(377.636719 0.015625)"/>
      <use xlink:href="#DejaVuSans-20" transform="translate(416.845703 0.015625)"/>
      <use xlink:href="#DejaVuSans-3a" transform="translate(448.632812 0.015625)"/>
      <use xlink:href="#DejaVuSans-20" transform="translate(482.324219 0.015625)"/>
      <use xlink:href="#DejaVuSans-73" transform="translate(514.111328 0.015625)"/>
      <use xlink:href="#DejaVuSans-70" transform="translate(566.210938 0.015625)"/>
      <use xlink:href="#DejaVuSans-65" transform="translate(629.6875 0.015625)"/>
      <use xlink:href="#DejaVuSans-65" transform="translate(691.210938 0.015625)"/>
      <use xlink:href="#DejaVuSans-64" transform="translate(752.734375 0.015625)"/>
      <use xlink:href="#DejaVuSans-20" transform="translate(816.210938 0.015625)"/>
      <use xlink:href="#DejaVuSans-3d" transform="translate(847.998047 0.015625)"/>
      <use xlink:href="#DejaVuSans-20" transform="translate(931.787109 0.015625)"/>
      <use xlink:href="#DejaVuSans-32" transform="translate(963.574219 0.015625)"/>
      <use xlink:href="#DejaVuSans-39" transform="translate(1025.447266 0.015625)"/>
      <use xlink:href="#DejaVuSans-38" transform="translate(1089.070312 0.015625)"/>
      <use xlink:href="#DejaVuSans-b1" transform="translate(1152.693359 0.015625)"/>
      <use xlink:href="#DejaVuSans-20" transform="translate(1236.482422 0.015625)"/>
      <use xlink:href="#DejaVuSans-35" transform="translate(1268.269531 0.015625)"/>
      <use xlink:href="#DejaVuSans-Oblique-3bc" transform="translate(1331.892578 0.015625)"/>
      <use xlink:href="#DejaVuSans-Oblique-6d" transform="translate(1395.515625 0.015625)"/>
      <use xlink:href="#DejaVuSans-2e" transform="translate(1492.927734 0.015625)"/>
      <use xlink:href="#DejaVuSans-Oblique-68" transform="translate(1544.197266 0.015625)"/>
      <use xlink:href="#DejaVuSans-2212" transform="translate(1628.661576 38.296875) scale(0.7)"/>
      <use xlink:href="#DejaVuSans-31" transform="translate(1703.68599 0.015625)"/>
     </g>
    </g>
   </g>
  </g>
  <g id="axes_2">
   <g id="patch_8">
    <path d="M 306.472396 262.84 
L 419.924851 262.84 
L 419.924851 178.228 
L 306.472396 178.228 
z
" style="fill: #ffffff"/>
   </g>
   <g id="PathCollection_3">
    <defs>
     <path id="md85e9eb9a2" d="M 0 1.118034 
C 0.296506 1.118034 0.580908 1.000231 0.790569 0.790569 
C 1.000231 0.580908 1.118034 0.296506 1.118034 0 
C 1.118034 -0.296506 1.000231 -0.580908 0.790569 -0.790569 
C 0.580908 -1.000231 0.296506 -1.118034 0 -1.118034 
C -0.296506 -1.118034 -0.580908 -1.000231 -0.790569 -0.790569 
C -1.000231 -0.580908 -1.118034 -0.296506 -1.118034 0 
C -1.118034 0.296506 -1.000231 0.580908 -0.790569 0.790569 
C -0.580908 1.000231 -0.296506 1.118034 0 1.118034 
z
" style="stroke: #000000"/>
    </defs>
    <g clip-path="url(#p3b352260d3)">
     <use xlink:href="#md85e9eb9a2" x="307.739281" y="219.691477" style="stroke: #000000"/>
    </g>
   </g>
   <g id="PathCollection_4">
    <g clip-path="url(#p3b352260d3)">
     <use xlink:href="#md85e9eb9a2" x="308.892715" y="208.417496" style="stroke: #000000"/>
    </g>
   </g>
   <g id="PathCollection_5">
    <g clip-path="url(#p3b352260d3)">
     <use xlink:href="#md85e9eb9a2" x="310.027239" y="223.034687" style="stroke: #000000"/>
    </g>
   </g>
   <g id="PathCollection_6">
    <g clip-path="url(#p3b352260d3)">
     <use xlink:href="#md85e9eb9a2" x="311.161764" y="220.906059" style="stroke: #000000"/>
    </g>
   </g>
   <g id="PathCollection_7">
    <g clip-path="url(#p3b352260d3)">
     <use xlink:href="#md85e9eb9a2" x="312.296288" y="217.690859" style="stroke: #000000"/>
    </g>
   </g>
   <g id="PathCollection_8">
    <g clip-path="url(#p3b352260d3)">
     <use xlink:href="#md85e9eb9a2" x="313.411904" y="227.468864" style="stroke: #000000"/>
    </g>
   </g>
   <g id="PathCollection_9">
    <g clip-path="url(#p3b352260d3)">
     <use xlink:href="#md85e9eb9a2" x="314.546429" y="225.429106" style="stroke: #000000"/>
    </g>
   </g>
   <g id="PathCollection_10">
    <g clip-path="url(#p3b352260d3)">
     <use xlink:href="#md85e9eb9a2" x="315.680953" y="210.511412" style="stroke: #000000"/>
    </g>
   </g>
   <g id="PathCollection_11">
    <g clip-path="url(#p3b352260d3)">
     <use xlink:href="#md85e9eb9a2" x="316.815478" y="218.930895" style="stroke: #000000"/>
    </g>
   </g>
   <g id="PathCollection_12">
    <g clip-path="url(#p3b352260d3)">
     <use xlink:href="#md85e9eb9a2" x="317.950002" y="212.233732" style="stroke: #000000"/>
    </g>
   </g>
   <g id="PathCollection_13">
    <g clip-path="url(#p3b352260d3)">
     <use xlink:href="#md85e9eb9a2" x="319.084527" y="216.598023" style="stroke: #000000"/>
    </g>
   </g>
   <g id="PathCollection_14">
    <g clip-path="url(#p3b352260d3)">
     <use xlink:href="#md85e9eb9a2" x="320.219051" y="230.304867" style="stroke: #000000"/>
    </g>
   </g>
   <g id="PathCollection_15">
    <g clip-path="url(#p3b352260d3)">
     <use xlink:href="#md85e9eb9a2" x="321.372485" y="229.501459" style="stroke: #000000"/>
    </g>
   </g>
   <g id="PathCollection_16">
    <g clip-path="url(#p3b352260d3)">
     <use xlink:href="#md85e9eb9a2" x="322.507009" y="220.229726" style="stroke: #000000"/>
    </g>
   </g>
   <g id="PathCollection_17">
    <g clip-path="url(#p3b352260d3)">
     <use xlink:href="#md85e9eb9a2" x="323.641534" y="203.632154" style="stroke: #000000"/>
    </g>
   </g>
   <g id="PathCollection_18">
    <g clip-path="url(#p3b352260d3)">
     <use xlink:href="#md85e9eb9a2" x="324.776058" y="194.527052" style="stroke: #000000"/>
    </g>
   </g>
   <g id="PathCollection_19">
    <g clip-path="url(#p3b352260d3)">
     <use xlink:href="#md85e9eb9a2" x="325.910583" y="196.078434" style="stroke: #000000"/>
    </g>
   </g>
   <g id="PathCollection_20">
    <g clip-path="url(#p3b352260d3)">
     <use xlink:href="#md85e9eb9a2" x="328.179632" y="213.445041" style="stroke: #000000"/>
    </g>
   </g>
   <g id="PathCollection_21">
    <g clip-path="url(#p3b352260d3)">
     <use xlink:href="#md85e9eb9a2" x="329.314157" y="198.816094" style="stroke: #000000"/>
    </g>
   </g>
   <g id="PathCollection_22">
    <g clip-path="url(#p3b352260d3)">
     <use xlink:href="#md85e9eb9a2" x="330.448681" y="185.391685" style="stroke: #000000"/>
    </g>
   </g>
   <g id="PathCollection_23">
    <g clip-path="url(#p3b352260d3)">
     <use xlink:href="#md85e9eb9a2" x="331.583206" y="184.465783" style="stroke: #000000"/>
    </g>
   </g>
   <g id="PathCollection_24">
    <g clip-path="url(#p3b352260d3)">
     <use xlink:href="#md85e9eb9a2" x="332.736639" y="206.782064" style="stroke: #000000"/>
    </g>
   </g>
   <g id="PathCollection_25">
    <g clip-path="url(#p3b352260d3)">
     <use xlink:href="#md85e9eb9a2" x="333.871163" y="201.64805" style="stroke: #000000"/>
    </g>
   </g>
   <g id="PathCollection_26">
    <g clip-path="url(#p3b352260d3)">
     <use xlink:href="#md85e9eb9a2" x="335.005688" y="204.338051" style="stroke: #000000"/>
    </g>
   </g>
   <g id="PathCollection_27">
    <g clip-path="url(#p3b352260d3)">
     <use xlink:href="#md85e9eb9a2" x="336.140213" y="194.612844" style="stroke: #000000"/>
    </g>
   </g>
   <g id="PathCollection_28">
    <g clip-path="url(#p3b352260d3)">
     <use xlink:href="#md85e9eb9a2" x="337.274737" y="190.058354" style="stroke: #000000"/>
    </g>
   </g>
   <g id="PathCollection_29">
    <g clip-path="url(#p3b352260d3)">
     <use xlink:href="#md85e9eb9a2" x="338.409262" y="183.526996" style="stroke: #000000"/>
    </g>
   </g>
   <g id="PathCollection_30">
    <g clip-path="url(#p3b352260d3)">
     <use xlink:href="#md85e9eb9a2" x="339.543786" y="187.937767" style="stroke: #000000"/>
    </g>
   </g>
   <g id="PathCollection_31">
    <g clip-path="url(#p3b352260d3)">
     <use xlink:href="#md85e9eb9a2" x="340.678311" y="193.420612" style="stroke: #000000"/>
    </g>
   </g>
   <g id="PathCollection_32">
    <g clip-path="url(#p3b352260d3)">
     <use xlink:href="#md85e9eb9a2" x="341.812835" y="184.456731" style="stroke: #000000"/>
    </g>
   </g>
   <g id="PathCollection_33">
    <g clip-path="url(#p3b352260d3)">
     <use xlink:href="#md85e9eb9a2" x="342.94736" y="187.741123" style="stroke: #000000"/>
    </g>
   </g>
   <g id="PathCollection_34">
    <g clip-path="url(#p3b352260d3)">
     <use xlink:href="#md85e9eb9a2" x="344.081884" y="217.924865" style="stroke: #000000"/>
    </g>
   </g>
   <g id="PathCollection_35">
    <g clip-path="url(#p3b352260d3)">
     <use xlink:href="#md85e9eb9a2" x="345.216409" y="198.543112" style="stroke: #000000"/>
    </g>
   </g>
   <g id="PathCollection_36">
    <g clip-path="url(#p3b352260d3)">
     <use xlink:href="#md85e9eb9a2" x="346.350934" y="198.254694" style="stroke: #000000"/>
    </g>
   </g>
   <g id="PathCollection_37">
    <g clip-path="url(#p3b352260d3)">
     <use xlink:href="#md85e9eb9a2" x="347.485458" y="191.663224" style="stroke: #000000"/>
    </g>
   </g>
   <g id="PathCollection_38">
    <g clip-path="url(#p3b352260d3)">
     <use xlink:href="#md85e9eb9a2" x="348.619983" y="187.474857" style="stroke: #000000"/>
    </g>
   </g>
   <g id="PathCollection_39">
    <g clip-path="url(#p3b352260d3)">
     <use xlink:href="#md85e9eb9a2" x="349.754507" y="193.765075" style="stroke: #000000"/>
    </g>
   </g>
   <g id="PathCollection_40">
    <g clip-path="url(#p3b352260d3)">
     <use xlink:href="#md85e9eb9a2" x="350.889032" y="184.550443" style="stroke: #000000"/>
    </g>
   </g>
   <g id="PathCollection_41">
    <g clip-path="url(#p3b352260d3)">
     <use xlink:href="#md85e9eb9a2" x="352.023556" y="198.613427" style="stroke: #000000"/>
    </g>
   </g>
   <g id="PathCollection_42">
    <g clip-path="url(#p3b352260d3)">
     <use xlink:href="#md85e9eb9a2" x="354.292605" y="200.339231" style="stroke: #000000"/>
    </g>
   </g>
   <g id="PathCollection_43">
    <g clip-path="url(#p3b352260d3)">
     <use xlink:href="#md85e9eb9a2" x="355.42713" y="194.460969" style="stroke: #000000"/>
    </g>
   </g>
   <g id="PathCollection_44">
    <g clip-path="url(#p3b352260d3)">
     <use xlink:href="#md85e9eb9a2" x="356.561655" y="201.104947" style="stroke: #000000"/>
    </g>
   </g>
   <g id="PathCollection_45">
    <g clip-path="url(#p3b352260d3)">
     <use xlink:href="#md85e9eb9a2" x="357.696179" y="196.675145" style="stroke: #000000"/>
    </g>
   </g>
   <g id="PathCollection_46">
    <g clip-path="url(#p3b352260d3)">
     <use xlink:href="#md85e9eb9a2" x="358.830704" y="192.739799" style="stroke: #000000"/>
    </g>
   </g>
   <g id="PathCollection_47">
    <g clip-path="url(#p3b352260d3)">
     <use xlink:href="#md85e9eb9a2" x="359.965228" y="195.554666" style="stroke: #000000"/>
    </g>
   </g>
   <g id="PathCollection_48">
    <g clip-path="url(#p3b352260d3)">
     <use xlink:href="#md85e9eb9a2" x="361.099753" y="192.27983" style="stroke: #000000"/>
    </g>
   </g>
   <g id="PathCollection_49">
    <g clip-path="url(#p3b352260d3)">
     <use xlink:href="#md85e9eb9a2" x="362.234277" y="243.914175" style="stroke: #000000"/>
    </g>
   </g>
   <g id="PathCollection_50">
    <g clip-path="url(#p3b352260d3)">
     <use xlink:href="#md85e9eb9a2" x="366.772375" y="206.556552" style="stroke: #000000"/>
    </g>
   </g>
   <g id="PathCollection_51">
    <g clip-path="url(#p3b352260d3)">
     <use xlink:href="#md85e9eb9a2" x="367.9069" y="186.236897" style="stroke: #000000"/>
    </g>
   </g>
   <g id="PathCollection_52">
    <g clip-path="url(#p3b352260d3)">
     <use xlink:href="#md85e9eb9a2" x="369.041425" y="204.182988" style="stroke: #000000"/>
    </g>
   </g>
   <g id="PathCollection_53">
    <g clip-path="url(#p3b352260d3)">
     <use xlink:href="#md85e9eb9a2" x="370.175949" y="198.174143" style="stroke: #000000"/>
    </g>
   </g>
   <g id="PathCollection_54">
    <g clip-path="url(#p3b352260d3)">
     <use xlink:href="#md85e9eb9a2" x="371.310474" y="198.396527" style="stroke: #000000"/>
    </g>
   </g>
   <g id="PathCollection_55">
    <g clip-path="url(#p3b352260d3)">
     <use xlink:href="#md85e9eb9a2" x="372.444998" y="195.184632" style="stroke: #000000"/>
    </g>
   </g>
   <g id="PathCollection_56">
    <g clip-path="url(#p3b352260d3)">
     <use xlink:href="#md85e9eb9a2" x="373.579523" y="197.579664" style="stroke: #000000"/>
    </g>
   </g>
   <g id="PathCollection_57">
    <g clip-path="url(#p3b352260d3)">
     <use xlink:href="#md85e9eb9a2" x="374.714047" y="213.246148" style="stroke: #000000"/>
    </g>
   </g>
   <g id="PathCollection_58">
    <g clip-path="url(#p3b352260d3)">
     <use xlink:href="#md85e9eb9a2" x="375.848572" y="187.763964" style="stroke: #000000"/>
    </g>
   </g>
   <g id="PathCollection_59">
    <g clip-path="url(#p3b352260d3)">
     <use xlink:href="#md85e9eb9a2" x="376.983096" y="192.093114" style="stroke: #000000"/>
    </g>
   </g>
   <g id="PathCollection_60">
    <g clip-path="url(#p3b352260d3)">
     <use xlink:href="#md85e9eb9a2" x="378.117621" y="207.120418" style="stroke: #000000"/>
    </g>
   </g>
   <g id="PathCollection_61">
    <g clip-path="url(#p3b352260d3)">
     <use xlink:href="#md85e9eb9a2" x="380.38667" y="207.491235" style="stroke: #000000"/>
    </g>
   </g>
   <g id="PathCollection_62">
    <g clip-path="url(#p3b352260d3)">
     <use xlink:href="#md85e9eb9a2" x="381.521195" y="204.32362" style="stroke: #000000"/>
    </g>
   </g>
   <g id="PathCollection_63">
    <g clip-path="url(#p3b352260d3)">
     <use xlink:href="#md85e9eb9a2" x="382.655719" y="195.019279" style="stroke: #000000"/>
    </g>
   </g>
   <g id="PathCollection_64">
    <g clip-path="url(#p3b352260d3)">
     <use xlink:href="#md85e9eb9a2" x="383.790244" y="200.73414" style="stroke: #000000"/>
    </g>
   </g>
   <g id="PathCollection_65">
    <g clip-path="url(#p3b352260d3)">
     <use xlink:href="#md85e9eb9a2" x="384.924768" y="188.951671" style="stroke: #000000"/>
    </g>
   </g>
   <g id="PathCollection_66">
    <g clip-path="url(#p3b352260d3)">
     <use xlink:href="#md85e9eb9a2" x="386.059293" y="195.251992" style="stroke: #000000"/>
    </g>
   </g>
   <g id="PathCollection_67">
    <g clip-path="url(#p3b352260d3)">
     <use xlink:href="#md85e9eb9a2" x="387.326179" y="259.307824" style="stroke: #000000"/>
    </g>
   </g>
   <g id="PathCollection_68">
    <g clip-path="url(#p3b352260d3)">
     <use xlink:href="#md85e9eb9a2" x="388.328342" y="198.228079" style="stroke: #000000"/>
    </g>
   </g>
   <g id="PathCollection_69">
    <g clip-path="url(#p3b352260d3)">
     <use xlink:href="#md85e9eb9a2" x="389.576319" y="207.208042" style="stroke: #000000"/>
    </g>
   </g>
   <g id="PathCollection_70">
    <g clip-path="url(#p3b352260d3)">
     <use xlink:href="#md85e9eb9a2" x="390.729752" y="192.98031" style="stroke: #000000"/>
    </g>
   </g>
   <g id="PathCollection_71">
    <g clip-path="url(#p3b352260d3)">
     <use xlink:href="#md85e9eb9a2" x="391.864277" y="190.630529" style="stroke: #000000"/>
    </g>
   </g>
   <g id="PathCollection_72">
    <g clip-path="url(#p3b352260d3)">
     <use xlink:href="#md85e9eb9a2" x="392.998801" y="196.229637" style="stroke: #000000"/>
    </g>
   </g>
   <g id="PathCollection_73">
    <g clip-path="url(#p3b352260d3)">
     <use xlink:href="#md85e9eb9a2" x="394.133326" y="193.096632" style="stroke: #000000"/>
    </g>
   </g>
   <g id="PathCollection_74">
    <g clip-path="url(#p3b352260d3)">
     <use xlink:href="#md85e9eb9a2" x="395.26785" y="192.785981" style="stroke: #000000"/>
    </g>
   </g>
   <g id="PathCollection_75">
    <g clip-path="url(#p3b352260d3)">
     <use xlink:href="#md85e9eb9a2" x="396.402375" y="197.186797" style="stroke: #000000"/>
    </g>
   </g>
   <g id="PathCollection_76">
    <g clip-path="url(#p3b352260d3)">
     <use xlink:href="#md85e9eb9a2" x="397.5369" y="196.701389" style="stroke: #000000"/>
    </g>
   </g>
   <g id="PathCollection_77">
    <g clip-path="url(#p3b352260d3)">
     <use xlink:href="#md85e9eb9a2" x="398.671424" y="194.650676" style="stroke: #000000"/>
    </g>
   </g>
   <g id="PathCollection_78">
    <g clip-path="url(#p3b352260d3)">
     <use xlink:href="#md85e9eb9a2" x="399.805949" y="202.051868" style="stroke: #000000"/>
    </g>
   </g>
   <g id="PathCollection_79">
    <g clip-path="url(#p3b352260d3)">
     <use xlink:href="#md85e9eb9a2" x="400.940473" y="196.447319" style="stroke: #000000"/>
    </g>
   </g>
   <g id="PathCollection_80">
    <g clip-path="url(#p3b352260d3)">
     <use xlink:href="#md85e9eb9a2" x="402.074998" y="194.286865" style="stroke: #000000"/>
    </g>
   </g>
   <g id="PathCollection_81">
    <g clip-path="url(#p3b352260d3)">
     <use xlink:href="#md85e9eb9a2" x="403.209522" y="193.379368" style="stroke: #000000"/>
    </g>
   </g>
   <g id="PathCollection_82">
    <g clip-path="url(#p3b352260d3)">
     <use xlink:href="#md85e9eb9a2" x="404.344047" y="202.01722" style="stroke: #000000"/>
    </g>
   </g>
   <g id="PathCollection_83">
    <g clip-path="url(#p3b352260d3)">
     <use xlink:href="#md85e9eb9a2" x="405.478571" y="195.728324" style="stroke: #000000"/>
    </g>
   </g>
   <g id="PathCollection_84">
    <g clip-path="url(#p3b352260d3)">
     <use xlink:href="#md85e9eb9a2" x="406.613096" y="210.579808" style="stroke: #000000"/>
    </g>
   </g>
   <g id="PathCollection_85">
    <g clip-path="url(#p3b352260d3)">
     <use xlink:href="#md85e9eb9a2" x="407.747621" y="195.455303" style="stroke: #000000"/>
    </g>
   </g>
   <g id="PathCollection_86">
    <g clip-path="url(#p3b352260d3)">
     <use xlink:href="#md85e9eb9a2" x="408.882145" y="202.503832" style="stroke: #000000"/>
    </g>
   </g>
   <g id="PathCollection_87">
    <g clip-path="url(#p3b352260d3)">
     <use xlink:href="#md85e9eb9a2" x="410.01667" y="187.152033" style="stroke: #000000"/>
    </g>
   </g>
   <g id="PathCollection_88">
    <g clip-path="url(#p3b352260d3)">
     <use xlink:href="#md85e9eb9a2" x="411.151194" y="193.615387" style="stroke: #000000"/>
    </g>
   </g>
   <g id="PathCollection_89">
    <g clip-path="url(#p3b352260d3)">
     <use xlink:href="#md85e9eb9a2" x="412.304628" y="197.063802" style="stroke: #000000"/>
    </g>
   </g>
   <g id="PathCollection_90">
    <g clip-path="url(#p3b352260d3)">
     <use xlink:href="#md85e9eb9a2" x="413.401335" y="202.06326" style="stroke: #000000"/>
    </g>
   </g>
   <g id="PathCollection_91">
    <g clip-path="url(#p3b352260d3)">
     <use xlink:href="#md85e9eb9a2" x="414.535859" y="200.16919" style="stroke: #000000"/>
    </g>
   </g>
   <g id="PathCollection_92">
    <g clip-path="url(#p3b352260d3)">
     <use xlink:href="#md85e9eb9a2" x="415.670384" y="206.626376" style="stroke: #000000"/>
    </g>
   </g>
   <g id="PathCollection_93">
    <g clip-path="url(#p3b352260d3)">
     <use xlink:href="#md85e9eb9a2" x="416.823817" y="193.718199" style="stroke: #000000"/>
    </g>
   </g>
   <g id="PathCollection_94">
    <g clip-path="url(#p3b352260d3)">
     <use xlink:href="#md85e9eb9a2" x="417.939433" y="194.191967" style="stroke: #000000"/>
    </g>
   </g>
   <g id="PathCollection_95">
    <g clip-path="url(#p3b352260d3)">
     <use xlink:href="#md85e9eb9a2" x="419.168501" y="202.04542" style="stroke: #000000"/>
    </g>
   </g>
   <g id="PathCollection_96">
    <g clip-path="url(#p3b352260d3)">
     <use xlink:href="#md85e9eb9a2" x="420.303026" y="191.467011" style="stroke: #000000"/>
    </g>
   </g>
   <g id="PathCollection_97">
    <g clip-path="url(#p3b352260d3)">
     <use xlink:href="#md85e9eb9a2" x="421.43755" y="203.459617" style="stroke: #000000"/>
    </g>
   </g>
   <g id="PathCollection_98">
    <g clip-path="url(#p3b352260d3)">
     <use xlink:href="#md85e9eb9a2" x="422.553166" y="194.546261" style="stroke: #000000"/>
    </g>
   </g>
   <g id="PathCollection_99">
    <g clip-path="url(#p3b352260d3)">
     <use xlink:href="#md85e9eb9a2" x="423.706599" y="190.225876" style="stroke: #000000"/>
    </g>
   </g>
   <g id="PathCollection_100">
    <g clip-path="url(#p3b352260d3)">
     <use xlink:href="#md85e9eb9a2" x="424.841124" y="191.687718" style="stroke: #000000"/>
    </g>
   </g>
   <g id="PathCollection_101">
    <g clip-path="url(#p3b352260d3)">
     <use xlink:href="#md85e9eb9a2" x="425.975648" y="192.564505" style="stroke: #000000"/>
    </g>
   </g>
   <g id="PathCollection_102">
    <g clip-path="url(#p3b352260d3)">
     <use xlink:href="#md85e9eb9a2" x="427.110173" y="186.800337" style="stroke: #000000"/>
    </g>
   </g>
   <g id="PathCollection_103">
    <g clip-path="url(#p3b352260d3)">
     <use xlink:href="#md85e9eb9a2" x="428.225789" y="199.890744" style="stroke: #000000"/>
    </g>
   </g>
   <g id="PathCollection_104">
    <g clip-path="url(#p3b352260d3)">
     <use xlink:href="#md85e9eb9a2" x="430.494838" y="190.479503" style="stroke: #000000"/>
    </g>
   </g>
   <g id="PathCollection_105">
    <g clip-path="url(#p3b352260d3)">
     <use xlink:href="#md85e9eb9a2" x="431.648271" y="190.212676" style="stroke: #000000"/>
    </g>
   </g>
   <g id="PathCollection_106">
    <g clip-path="url(#p3b352260d3)">
     <use xlink:href="#md85e9eb9a2" x="432.763887" y="190.229205" style="stroke: #000000"/>
    </g>
   </g>
   <g id="PathCollection_107">
    <g clip-path="url(#p3b352260d3)">
     <use xlink:href="#md85e9eb9a2" x="503.047683" y="212.527009" style="stroke: #000000"/>
    </g>
   </g>
   <g id="PathCollection_108">
    <g clip-path="url(#p3b352260d3)">
     <use xlink:href="#md85e9eb9a2" x="547.294141" y="219.569371" style="stroke: #000000"/>
    </g>
   </g>
   <g id="matplotlib.axis_3">
    <g id="xtick_8">
     <g id="line2d_29">
      <g>
       <use xlink:href="#mf1f16f2940" x="306.472396" y="262.84" style="stroke: #000000; stroke-width: 0.8"/>
      </g>
     </g>
     <g id="text_20">
      <!-- 0 -->
      <g transform="translate(304.881771 273.639219) scale(0.05 -0.05)">
       <use xlink:href="#DejaVuSans-30"/>
      </g>
     </g>
    </g>
    <g id="xtick_9">
     <g id="line2d_30">
      <g>
       <use xlink:href="#mf1f16f2940" x="329.162887" y="262.84" style="stroke: #000000; stroke-width: 0.8"/>
      </g>
     </g>
     <g id="text_21">
      <!-- 20 -->
      <g transform="translate(325.981637 273.639219) scale(0.05 -0.05)">
       <use xlink:href="#DejaVuSans-32"/>
       <use xlink:href="#DejaVuSans-30" x="63.623047"/>
      </g>
     </g>
    </g>
    <g id="xtick_10">
     <g id="line2d_31">
      <g>
       <use xlink:href="#mf1f16f2940" x="351.853378" y="262.84" style="stroke: #000000; stroke-width: 0.8"/>
      </g>
     </g>
     <g id="text_22">
      <!-- 40 -->
      <g transform="translate(348.672128 273.639219) scale(0.05 -0.05)">
       <use xlink:href="#DejaVuSans-34"/>
       <use xlink:href="#DejaVuSans-30" x="63.623047"/>
      </g>
     </g>
    </g>
    <g id="xtick_11">
     <g id="line2d_32">
      <g>
       <use xlink:href="#mf1f16f2940" x="374.543869" y="262.84" style="stroke: #000000; stroke-width: 0.8"/>
      </g>
     </g>
     <g id="text_23">
      <!-- 60 -->
      <g transform="translate(371.362619 273.639219) scale(0.05 -0.05)">
       <use xlink:href="#DejaVuSans-36"/>
       <use xlink:href="#DejaVuSans-30" x="63.623047"/>
      </g>
     </g>
    </g>
    <g id="xtick_12">
     <g id="line2d_33">
      <g>
       <use xlink:href="#mf1f16f2940" x="397.23436" y="262.84" style="stroke: #000000; stroke-width: 0.8"/>
      </g>
     </g>
     <g id="text_24">
      <!-- 80 -->
      <g transform="translate(394.05311 273.639219) scale(0.05 -0.05)">
       <use xlink:href="#DejaVuSans-38"/>
       <use xlink:href="#DejaVuSans-30" x="63.623047"/>
      </g>
     </g>
    </g>
    <g id="xtick_13">
     <g id="line2d_34">
      <g>
       <use xlink:href="#mf1f16f2940" x="419.924851" y="262.84" style="stroke: #000000; stroke-width: 0.8"/>
      </g>
     </g>
     <g id="text_25">
      <!-- 100 -->
      <g transform="translate(415.152976 273.639219) scale(0.05 -0.05)">
       <use xlink:href="#DejaVuSans-31"/>
       <use xlink:href="#DejaVuSans-30" x="63.623047"/>
       <use xlink:href="#DejaVuSans-30" x="127.246094"/>
      </g>
     </g>
    </g>
    <g id="text_26">
     <!-- time since begin (h) -->
     <g transform="translate(288.041592 290.076719) scale(0.15 -0.15)">
      <defs>
       <path id="DejaVuSans-62" d="M 3116 1747 
Q 3116 2381 2855 2742 
Q 2594 3103 2138 3103 
Q 1681 3103 1420 2742 
Q 1159 2381 1159 1747 
Q 1159 1113 1420 752 
Q 1681 391 2138 391 
Q 2594 391 2855 752 
Q 3116 1113 3116 1747 
z
M 1159 2969 
Q 1341 3281 1617 3432 
Q 1894 3584 2278 3584 
Q 2916 3584 3314 3078 
Q 3713 2572 3713 1747 
Q 3713 922 3314 415 
Q 2916 -91 2278 -91 
Q 1894 -91 1617 61 
Q 1341 213 1159 525 
L 1159 0 
L 581 0 
L 581 4863 
L 1159 4863 
L 1159 2969 
z
" transform="scale(0.015625)"/>
      </defs>
      <use xlink:href="#DejaVuSans-74"/>
      <use xlink:href="#DejaVuSans-69" x="39.208984"/>
      <use xlink:href="#DejaVuSans-6d" x="66.992188"/>
      <use xlink:href="#DejaVuSans-65" x="164.404297"/>
      <use xlink:href="#DejaVuSans-20" x="225.927734"/>
      <use xlink:href="#DejaVuSans-73" x="257.714844"/>
      <use xlink:href="#DejaVuSans-69" x="309.814453"/>
      <use xlink:href="#DejaVuSans-6e" x="337.597656"/>
      <use xlink:href="#DejaVuSans-63" x="400.976562"/>
      <use xlink:href="#DejaVuSans-65" x="455.957031"/>
      <use xlink:href="#DejaVuSans-20" x="517.480469"/>
      <use xlink:href="#DejaVuSans-62" x="549.267578"/>
      <use xlink:href="#DejaVuSans-65" x="612.744141"/>
      <use xlink:href="#DejaVuSans-67" x="674.267578"/>
      <use xlink:href="#DejaVuSans-69" x="737.744141"/>
      <use xlink:href="#DejaVuSans-6e" x="765.527344"/>
      <use xlink:href="#DejaVuSans-20" x="828.90625"/>
      <use xlink:href="#DejaVuSans-28" x="860.693359"/>
      <use xlink:href="#DejaVuSans-68" x="899.707031"/>
      <use xlink:href="#DejaVuSans-29" x="963.085938"/>
     </g>
    </g>
   </g>
   <g id="matplotlib.axis_4">
    <g id="ytick_9">
     <g id="line2d_35">
      <g>
       <use xlink:href="#m5577b217f4" x="306.472396" y="262.84" style="stroke: #000000; stroke-width: 0.8"/>
      </g>
     </g>
     <g id="text_27">
      <!-- 150 -->
      <g transform="translate(289.928646 264.739609) scale(0.05 -0.05)">
       <use xlink:href="#DejaVuSans-31"/>
       <use xlink:href="#DejaVuSans-35" x="63.623047"/>
       <use xlink:href="#DejaVuSans-30" x="127.246094"/>
      </g>
     </g>
    </g>
    <g id="ytick_10">
     <g id="line2d_36">
      <g>
       <use xlink:href="#m5577b217f4" x="306.472396" y="252.2635" style="stroke: #000000; stroke-width: 0.8"/>
      </g>
     </g>
     <g id="text_28">
      <!-- 175 -->
      <g transform="translate(289.928646 254.163109) scale(0.05 -0.05)">
       <use xlink:href="#DejaVuSans-31"/>
       <use xlink:href="#DejaVuSans-37" x="63.623047"/>
       <use xlink:href="#DejaVuSans-35" x="127.246094"/>
      </g>
     </g>
    </g>
    <g id="ytick_11">
     <g id="line2d_37">
      <g>
       <use xlink:href="#m5577b217f4" x="306.472396" y="241.687" style="stroke: #000000; stroke-width: 0.8"/>
      </g>
     </g>
     <g id="text_29">
      <!-- 200 -->
      <g transform="translate(289.928646 243.586609) scale(0.05 -0.05)">
       <use xlink:href="#DejaVuSans-32"/>
       <use xlink:href="#DejaVuSans-30" x="63.623047"/>
       <use xlink:href="#DejaVuSans-30" x="127.246094"/>
      </g>
     </g>
    </g>
    <g id="ytick_12">
     <g id="line2d_38">
      <g>
       <use xlink:href="#m5577b217f4" x="306.472396" y="231.1105" style="stroke: #000000; stroke-width: 0.8"/>
      </g>
     </g>
     <g id="text_30">
      <!-- 225 -->
      <g transform="translate(289.928646 233.010109) scale(0.05 -0.05)">
       <use xlink:href="#DejaVuSans-32"/>
       <use xlink:href="#DejaVuSans-32" x="63.623047"/>
       <use xlink:href="#DejaVuSans-35" x="127.246094"/>
      </g>
     </g>
    </g>
    <g id="ytick_13">
     <g id="line2d_39">
      <g>
       <use xlink:href="#m5577b217f4" x="306.472396" y="220.534" style="stroke: #000000; stroke-width: 0.8"/>
      </g>
     </g>
     <g id="text_31">
      <!-- 250 -->
      <g transform="translate(289.928646 222.433609) scale(0.05 -0.05)">
       <use xlink:href="#DejaVuSans-32"/>
       <use xlink:href="#DejaVuSans-35" x="63.623047"/>
       <use xlink:href="#DejaVuSans-30" x="127.246094"/>
      </g>
     </g>
    </g>
    <g id="ytick_14">
     <g id="line2d_40">
      <g>
       <use xlink:href="#m5577b217f4" x="306.472396" y="209.9575" style="stroke: #000000; stroke-width: 0.8"/>
      </g>
     </g>
     <g id="text_32">
      <!-- 275 -->
      <g transform="translate(289.928646 211.857109) scale(0.05 -0.05)">
       <use xlink:href="#DejaVuSans-32"/>
       <use xlink:href="#DejaVuSans-37" x="63.623047"/>
       <use xlink:href="#DejaVuSans-35" x="127.246094"/>
      </g>
     </g>
    </g>
    <g id="ytick_15">
     <g id="line2d_41">
      <g>
       <use xlink:href="#m5577b217f4" x="306.472396" y="199.381" style="stroke: #000000; stroke-width: 0.8"/>
      </g>
     </g>
     <g id="text_33">
      <!-- 300 -->
      <g transform="translate(289.928646 201.280609) scale(0.05 -0.05)">
       <use xlink:href="#DejaVuSans-33"/>
       <use xlink:href="#DejaVuSans-30" x="63.623047"/>
       <use xlink:href="#DejaVuSans-30" x="127.246094"/>
      </g>
     </g>
    </g>
    <g id="ytick_16">
     <g id="line2d_42">
      <g>
       <use xlink:href="#m5577b217f4" x="306.472396" y="188.8045" style="stroke: #000000; stroke-width: 0.8"/>
      </g>
     </g>
     <g id="text_34">
      <!-- 325 -->
      <g transform="translate(289.928646 190.704109) scale(0.05 -0.05)">
       <use xlink:href="#DejaVuSans-33"/>
       <use xlink:href="#DejaVuSans-32" x="63.623047"/>
       <use xlink:href="#DejaVuSans-35" x="127.246094"/>
      </g>
     </g>
    </g>
    <g id="ytick_17">
     <g id="line2d_43">
      <g>
       <use xlink:href="#m5577b217f4" x="306.472396" y="178.228" style="stroke: #000000; stroke-width: 0.8"/>
      </g>
     </g>
     <g id="text_35">
      <!-- 350 -->
      <g transform="translate(289.928646 180.127609) scale(0.05 -0.05)">
       <use xlink:href="#DejaVuSans-33"/>
       <use xlink:href="#DejaVuSans-35" x="63.623047"/>
       <use xlink:href="#DejaVuSans-30" x="127.246094"/>
      </g>
     </g>
    </g>
    <g id="text_36">
     <!-- speed ($\mu m.h^{-1}$) -->
     <g transform="translate(282.778646 280.609) rotate(-90) scale(0.15 -0.15)">
      <use xlink:href="#DejaVuSans-73" transform="translate(0 0.684375)"/>
      <use xlink:href="#DejaVuSans-70" transform="translate(52.099609 0.684375)"/>
      <use xlink:href="#DejaVuSans-65" transform="translate(115.576172 0.684375)"/>
      <use xlink:href="#DejaVuSans-65" transform="translate(177.099609 0.684375)"/>
      <use xlink:href="#DejaVuSans-64" transform="translate(238.623047 0.684375)"/>
      <use xlink:href="#DejaVuSans-20" transform="translate(302.099609 0.684375)"/>
      <use xlink:href="#DejaVuSans-28" transform="translate(333.886719 0.684375)"/>
      <use xlink:href="#DejaVuSans-Oblique-3bc" transform="translate(372.900391 0.684375)"/>
      <use xlink:href="#DejaVuSans-Oblique-6d" transform="translate(436.523438 0.684375)"/>
      <use xlink:href="#DejaVuSans-2e" transform="translate(533.935547 0.684375)"/>
      <use xlink:href="#DejaVuSans-Oblique-68" transform="translate(585.205078 0.684375)"/>
      <use xlink:href="#DejaVuSans-2212" transform="translate(656.031693 38.965625) scale(0.7)"/>
      <use xlink:href="#DejaVuSans-31" transform="translate(714.684036 38.965625) scale(0.7)"/>
      <use xlink:href="#DejaVuSans-29" transform="translate(761.954544 0.684375)"/>
     </g>
    </g>
   </g>
   <g id="line2d_44">
    <path d="M 307.739281 200.941077 
L 308.892715 200.941077 
L 310.027239 200.941077 
L 311.161764 200.941077 
L 312.296288 200.941077 
L 313.411904 200.941077 
L 314.546429 200.941077 
L 315.680953 200.941077 
L 316.815478 200.941077 
L 317.950002 200.941077 
L 319.084527 200.941077 
L 320.219051 200.941077 
L 321.372485 200.941077 
L 322.507009 200.941077 
L 323.641534 200.941077 
L 324.776058 200.941077 
L 325.910583 200.941077 
L 328.179632 200.941077 
L 329.314157 200.941077 
L 330.448681 200.941077 
L 331.583206 200.941077 
L 332.736639 200.941077 
L 333.871163 200.941077 
L 335.005688 200.941077 
L 336.140213 200.941077 
L 337.274737 200.941077 
L 338.409262 200.941077 
L 339.543786 200.941077 
L 340.678311 200.941077 
L 341.812835 200.941077 
L 342.94736 200.941077 
L 344.081884 200.941077 
L 345.216409 200.941077 
L 346.350934 200.941077 
L 347.485458 200.941077 
L 348.619983 200.941077 
L 349.754507 200.941077 
L 350.889032 200.941077 
L 352.023556 200.941077 
L 354.292605 200.941077 
L 355.42713 200.941077 
L 356.561655 200.941077 
L 357.696179 200.941077 
L 358.830704 200.941077 
L 359.965228 200.941077 
L 361.099753 200.941077 
L 362.234277 200.941077 
L 366.772375 200.941077 
L 367.9069 200.941077 
L 369.041425 200.941077 
L 370.175949 200.941077 
L 371.310474 200.941077 
L 372.444998 200.941077 
L 373.579523 200.941077 
L 374.714047 200.941077 
L 375.848572 200.941077 
L 376.983096 200.941077 
L 378.117621 200.941077 
L 380.38667 200.941077 
L 381.521195 200.941077 
L 382.655719 200.941077 
L 383.790244 200.941077 
L 384.924768 200.941077 
L 386.059293 200.941077 
L 387.326179 200.941077 
L 388.328342 200.941077 
L 389.576319 200.941077 
L 390.729752 200.941077 
L 391.864277 200.941077 
L 392.998801 200.941077 
L 394.133326 200.941077 
L 395.26785 200.941077 
L 396.402375 200.941077 
L 397.5369 200.941077 
L 398.671424 200.941077 
L 399.805949 200.941077 
L 400.940473 200.941077 
L 402.074998 200.941077 
L 403.209522 200.941077 
L 404.344047 200.941077 
L 405.478571 200.941077 
L 406.613096 200.941077 
L 407.747621 200.941077 
L 408.882145 200.941077 
L 410.01667 200.941077 
L 411.151194 200.941077 
L 412.304628 200.941077 
L 413.401335 200.941077 
L 414.535859 200.941077 
L 415.670384 200.941077 
L 416.823817 200.941077 
L 417.939433 200.941077 
L 419.168501 200.941077 
L 420.303026 200.941077 
L 421.43755 200.941077 
L 422.553166 200.941077 
L 423.706599 200.941077 
L 424.841124 200.941077 
L 425.975648 200.941077 
L 427.110173 200.941077 
L 428.225789 200.941077 
L 430.494838 200.941077 
L 431.648271 200.941077 
L 432.763887 200.941077 
L 461.8 200.941077 
" clip-path="url(#p3b352260d3)" style="fill: none; stroke: #000000; stroke-width: 3; stroke-linecap: square"/>
   </g>
   <g id="patch_9">
    <path d="M 306.472396 262.84 
L 306.472396 178.228 
" style="fill: none; stroke: #000000; stroke-width: 0.8; stroke-linejoin: miter; stroke-linecap: square"/>
   </g>
   <g id="patch_10">
    <path d="M 419.924851 262.84 
L 419.924851 178.228 
" style="fill: none; stroke: #000000; stroke-width: 0.8; stroke-linejoin: miter; stroke-linecap: square"/>
   </g>
   <g id="patch_11">
    <path d="M 306.472396 262.84 
L 419.924851 262.84 
" style="fill: none; stroke: #000000; stroke-width: 0.8; stroke-linejoin: miter; stroke-linecap: square"/>
   </g>
   <g id="patch_12">
    <path d="M 306.472396 178.228 
L 419.924851 178.228 
" style="fill: none; stroke: #000000; stroke-width: 0.8; stroke-linejoin: miter; stroke-linecap: square"/>
   </g>
  </g>
 </g>
 <defs>
  <clipPath id="pbc2eae450f">
   <rect x="71.75" y="10.8" width="378.174851" height="282.04"/>
  </clipPath>
  <clipPath id="p3b352260d3">
   <rect x="306.472396" y="178.228" width="113.452455" height="84.612"/>
  </clipPath>
 </defs>
</svg>
